<svg xmlns="http://www.w3.org/2000/svg" xmlns:xlink="http://www.w3.org/1999/xlink" width="500" zoomAndPan="magnify" viewBox="0 0 375 374.999991" height="500" preserveAspectRatio="xMidYMid meet" version="1.0"><defs><clipPath id="5db75a09c9"><path d="M 39.558594 93.277344 L 337.308594 93.277344 L 337.308594 281.527344 L 39.558594 281.527344 Z M 39.558594 93.277344 " clip-rule="nonzero"/></clipPath></defs><rect x="-37.5" width="450" fill="#ffffff" y="-37.499999" height="449.999989" fill-opacity="1"/><rect x="-37.5" width="450" fill="#ffffff" y="-37.499999" height="449.999989" fill-opacity="1"/><g clip-path="url(#5db75a09c9)"><path fill="#04473f" d="M 330.394531 247.1875 L 307.90625 247.1875 L 307.90625 194.417969 L 330.394531 194.417969 Z M 291.992188 239.132812 C 291.1875 239.152344 290.476562 239.417969 289.851562 239.925781 L 249.375 273.179688 C 248.605469 273.839844 247.726562 274.292969 246.742188 274.535156 C 245.757812 274.78125 244.769531 274.789062 243.78125 274.566406 L 162.667969 257.878906 C 161.671875 257.710938 160.753906 257.34375 159.917969 256.78125 C 159.078125 256.21875 158.394531 255.503906 157.863281 254.644531 C 157.507812 254.054688 157.238281 253.429688 157.054688 252.761719 C 156.875 252.097656 156.789062 251.417969 156.800781 250.730469 C 156.808594 250.039062 156.914062 249.367188 157.117188 248.707031 C 157.316406 248.046875 157.605469 247.425781 157.980469 246.847656 C 158.328125 246.28125 158.746094 245.769531 159.238281 245.324219 C 159.730469 244.875 160.273438 244.503906 160.875 244.210938 C 161.472656 243.921875 162.097656 243.71875 162.753906 243.609375 C 163.410156 243.496094 164.070312 243.480469 164.730469 243.558594 L 209.9375 248.507812 C 210.160156 249.769531 210.542969 250.980469 211.089844 252.140625 C 211.636719 253.300781 212.324219 254.367188 213.160156 255.34375 C 213.992188 256.320312 214.9375 257.167969 215.996094 257.890625 C 217.054688 258.613281 218.191406 259.183594 219.402344 259.601562 C 220.613281 260.019531 221.859375 260.269531 223.136719 260.355469 C 224.417969 260.441406 225.683594 260.355469 226.941406 260.101562 C 228.199219 259.847656 229.398438 259.433594 230.542969 258.859375 C 231.691406 258.28125 232.738281 257.566406 233.695312 256.710938 L 263.675781 229.824219 C 264.03125 229.519531 264.316406 229.15625 264.523438 228.734375 C 264.734375 228.316406 264.851562 227.871094 264.882812 227.40625 C 264.914062 226.9375 264.851562 226.480469 264.699219 226.039062 C 264.546875 225.59375 264.3125 225.199219 264 224.851562 C 263.6875 224.5 263.316406 224.226562 262.894531 224.027344 C 262.46875 223.824219 262.023438 223.714844 261.554688 223.695312 C 261.085938 223.671875 260.632812 223.746094 260.191406 223.90625 C 259.753906 224.070312 259.363281 224.3125 259.019531 224.632812 L 229.035156 251.515625 C 228.675781 251.839844 228.285156 252.125 227.863281 252.371094 C 227.445312 252.617188 227.007812 252.824219 226.550781 252.984375 C 226.089844 253.144531 225.621094 253.257812 225.140625 253.328125 C 224.660156 253.398438 224.175781 253.417969 223.691406 253.390625 C 223.207031 253.363281 222.726562 253.292969 222.257812 253.171875 C 221.785156 253.050781 221.332031 252.886719 220.894531 252.675781 C 220.457031 252.464844 220.042969 252.214844 219.652344 251.921875 C 219.265625 251.632812 218.90625 251.304688 218.582031 250.945312 C 218.261719 250.582031 217.976562 250.191406 217.730469 249.773438 C 217.484375 249.355469 217.28125 248.914062 217.121094 248.457031 C 216.960938 248 216.847656 247.53125 216.777344 247.050781 C 216.710938 246.570312 216.691406 246.085938 216.71875 245.601562 C 216.742188 245.117188 216.816406 244.640625 216.9375 244.167969 C 217.054688 243.699219 217.222656 243.246094 217.429688 242.808594 C 217.640625 242.367188 217.886719 241.957031 218.179688 241.566406 C 218.46875 241.175781 218.792969 240.820312 219.152344 240.492188 L 260.207031 203.683594 C 260.832031 203.097656 261.546875 202.65625 262.351562 202.363281 C 263.15625 202.066406 263.984375 201.9375 264.839844 201.972656 L 300.929688 202.644531 L 300.929688 238.9375 L 291.992188 239.136719 Z M 333.882812 187.4375 L 304.414062 187.4375 C 303.953125 187.4375 303.507812 187.527344 303.082031 187.703125 C 302.652344 187.882812 302.277344 188.132812 301.949219 188.460938 C 301.621094 188.789062 301.371094 189.164062 301.191406 189.59375 C 301.015625 190.019531 300.925781 190.464844 300.925781 190.929688 L 300.925781 195.664062 L 264.964844 194.996094 C 263.230469 194.9375 261.542969 195.214844 259.914062 195.816406 C 258.285156 196.421875 256.828125 197.308594 255.546875 198.484375 L 214.492188 235.292969 C 212.570312 237.007812 211.214844 239.089844 210.421875 241.539062 L 165.492188 236.621094 C 164.179688 236.472656 162.875 236.511719 161.574219 236.734375 C 160.273438 236.957031 159.027344 237.355469 157.839844 237.933594 C 156.652344 238.507812 155.570312 239.238281 154.589844 240.125 C 153.609375 241.007812 152.769531 242.007812 152.074219 243.132812 C 151.347656 244.261719 150.789062 245.472656 150.40625 246.761719 C 150.019531 248.050781 149.820312 249.367188 149.808594 250.710938 C 149.796875 252.054688 149.972656 253.375 150.335938 254.671875 C 150.699219 255.964844 151.238281 257.183594 151.945312 258.328125 C 152.980469 260 154.308594 261.390625 155.929688 262.5 C 157.550781 263.613281 159.328125 264.347656 161.261719 264.710938 L 242.375 281.394531 C 243.3125 281.589844 244.257812 281.6875 245.214844 281.6875 C 246.785156 281.6875 248.308594 281.417969 249.785156 280.878906 C 251.257812 280.34375 252.597656 279.574219 253.804688 278.566406 L 293.351562 246.082031 L 300.929688 245.914062 L 300.929688 250.671875 C 300.929688 251.132812 301.015625 251.578125 301.195312 252.007812 C 301.371094 252.433594 301.621094 252.8125 301.949219 253.140625 C 302.277344 253.464844 302.65625 253.71875 303.082031 253.894531 C 303.507812 254.070312 303.953125 254.160156 304.417969 254.160156 L 333.882812 254.160156 C 334.34375 254.160156 334.789062 254.070312 335.21875 253.894531 C 335.644531 253.71875 336.023438 253.464844 336.351562 253.140625 C 336.675781 252.8125 336.929688 252.433594 337.105469 252.007812 C 337.28125 251.578125 337.371094 251.132812 337.371094 250.671875 L 337.371094 190.929688 C 337.371094 190.464844 337.28125 190.019531 337.105469 189.59375 C 336.929688 189.167969 336.675781 188.789062 336.351562 188.460938 C 336.023438 188.132812 335.644531 187.882812 335.21875 187.707031 C 334.789062 187.527344 334.34375 187.441406 333.882812 187.441406 Z M 46.664062 128.328125 L 69.152344 128.328125 L 69.152344 181.097656 L 46.664062 181.097656 Z M 85.066406 136.382812 C 85.871094 136.363281 86.582031 136.097656 87.203125 135.589844 L 127.683594 102.335938 C 128.453125 101.675781 129.332031 101.222656 130.316406 100.976562 C 131.300781 100.734375 132.289062 100.726562 133.277344 100.949219 L 214.390625 117.636719 C 215.386719 117.804688 216.304688 118.171875 217.140625 118.734375 C 217.976562 119.300781 218.664062 120.011719 219.191406 120.871094 C 219.550781 121.460938 219.820312 122.085938 220 122.753906 C 220.183594 123.417969 220.269531 124.097656 220.257812 124.785156 C 220.246094 125.476562 220.140625 126.148438 219.941406 126.808594 C 219.738281 127.46875 219.453125 128.089844 219.078125 128.667969 C 218.730469 129.234375 218.3125 129.746094 217.820312 130.195312 C 217.328125 130.644531 216.785156 131.011719 216.183594 131.304688 C 215.585938 131.597656 214.960938 131.796875 214.304688 131.910156 C 213.644531 132.019531 212.988281 132.035156 212.324219 131.957031 L 167.121094 127.007812 C 166.894531 125.746094 166.511719 124.539062 165.960938 123.378906 C 165.414062 122.222656 164.722656 121.15625 163.890625 120.183594 C 163.058594 119.210938 162.113281 118.363281 161.054688 117.644531 C 159.996094 116.921875 158.863281 116.351562 157.652344 115.933594 C 156.441406 115.519531 155.199219 115.265625 153.917969 115.179688 C 152.640625 115.09375 151.375 115.179688 150.121094 115.429688 C 148.863281 115.683594 147.664062 116.097656 146.519531 116.667969 C 145.375 117.242188 144.324219 117.957031 143.371094 118.808594 L 113.378906 145.695312 C 113.042969 146.003906 112.78125 146.367188 112.589844 146.78125 C 112.398438 147.199219 112.292969 147.632812 112.273438 148.089844 C 112.253906 148.542969 112.320312 148.988281 112.476562 149.417969 C 112.628906 149.847656 112.859375 150.230469 113.164062 150.570312 C 113.46875 150.910156 113.824219 151.179688 114.234375 151.378906 C 114.644531 151.578125 115.078125 151.695312 115.535156 151.722656 C 115.992188 151.753906 116.433594 151.695312 116.867188 151.550781 C 117.300781 151.40625 117.6875 151.183594 118.035156 150.886719 L 148.027344 124.003906 C 148.390625 123.683594 148.78125 123.402344 149.199219 123.160156 C 149.613281 122.917969 150.050781 122.71875 150.507812 122.5625 C 150.964844 122.402344 151.433594 122.292969 151.910156 122.226562 C 152.390625 122.160156 152.871094 122.144531 153.351562 122.171875 C 153.835938 122.199219 154.308594 122.277344 154.777344 122.398438 C 155.246094 122.519531 155.695312 122.683594 156.128906 122.894531 C 156.566406 123.105469 156.976562 123.355469 157.363281 123.644531 C 157.746094 123.933594 158.101562 124.261719 158.425781 124.621094 C 158.746094 124.980469 159.03125 125.367188 159.277344 125.78125 C 159.523438 126.195312 159.726562 126.632812 159.890625 127.085938 C 160.050781 127.542969 160.167969 128.007812 160.234375 128.488281 C 160.304688 128.964844 160.328125 129.445312 160.304688 129.925781 C 160.28125 130.410156 160.210938 130.886719 160.09375 131.355469 C 159.976562 131.824219 159.816406 132.273438 159.609375 132.710938 C 159.402344 133.148438 159.15625 133.5625 158.871094 133.949219 C 158.585938 134.339844 158.261719 134.695312 157.90625 135.023438 L 116.851562 171.835938 C 116.226562 172.417969 115.511719 172.859375 114.707031 173.15625 C 113.902344 173.449219 113.074219 173.582031 112.21875 173.542969 L 76.128906 172.871094 L 76.128906 136.578125 Z M 43.175781 188.074219 C 42.710938 188.074219 42.265625 187.988281 41.839844 187.808594 C 41.410156 187.632812 41.035156 187.382812 40.707031 187.054688 C 40.378906 186.726562 40.128906 186.351562 39.953125 185.921875 C 39.773438 185.496094 39.6875 185.050781 39.6875 184.585938 L 39.6875 124.839844 C 39.6875 124.375 39.773438 123.929688 39.953125 123.503906 C 40.128906 123.078125 40.378906 122.699219 40.707031 122.371094 C 41.035156 122.042969 41.410156 121.792969 41.839844 121.617188 C 42.265625 121.4375 42.710938 121.351562 43.175781 121.351562 L 72.640625 121.351562 C 73.101562 121.351562 73.546875 121.4375 73.972656 121.617188 C 74.402344 121.792969 74.777344 122.042969 75.105469 122.371094 C 75.433594 122.699219 75.683594 123.078125 75.863281 123.503906 C 76.039062 123.929688 76.128906 124.375 76.128906 124.839844 L 76.128906 129.597656 L 83.703125 129.433594 L 123.253906 96.945312 C 124.035156 96.289062 124.882812 95.734375 125.792969 95.269531 C 126.703125 94.808594 127.652344 94.457031 128.640625 94.210938 C 129.632812 93.964844 130.636719 93.835938 131.65625 93.820312 C 132.675781 93.804688 133.6875 93.902344 134.683594 94.117188 L 215.796875 110.804688 C 217.730469 111.167969 219.507812 111.902344 221.128906 113.011719 C 222.75 114.125 224.082031 115.515625 225.117188 117.183594 C 225.824219 118.328125 226.359375 119.546875 226.722656 120.839844 C 227.085938 122.136719 227.257812 123.457031 227.246094 124.800781 C 227.234375 126.144531 227.039062 127.460938 226.652344 128.75 C 226.265625 130.039062 225.710938 131.25 224.984375 132.378906 C 224.289062 133.5 223.449219 134.503906 222.46875 135.386719 C 221.488281 136.269531 220.402344 137 219.214844 137.578125 C 218.027344 138.152344 216.785156 138.554688 215.484375 138.777344 C 214.183594 139 212.875 139.039062 211.566406 138.890625 L 166.632812 133.976562 C 165.839844 136.425781 164.484375 138.507812 162.5625 140.222656 L 121.507812 177.03125 C 120.265625 178.171875 118.855469 179.042969 117.277344 179.644531 C 115.703125 180.25 114.070312 180.539062 112.382812 180.523438 C 112.28125 180.523438 112.1875 180.523438 112.089844 180.519531 L 76.128906 179.847656 L 76.128906 184.585938 C 76.128906 185.050781 76.039062 185.496094 75.863281 185.921875 C 75.6875 186.347656 75.433594 186.726562 75.105469 187.054688 C 74.78125 187.378906 74.402344 187.632812 73.976562 187.808594 C 73.546875 187.988281 73.101562 188.074219 72.640625 188.074219 Z M 196.417969 198.265625 C 196.417969 195.507812 194.621094 193.128906 192.019531 191.980469 L 192.019531 204.554688 C 194.621094 203.402344 196.417969 201.019531 196.417969 198.265625 Z M 180.640625 177.25 C 180.640625 180.007812 182.433594 182.386719 185.039062 183.535156 L 185.039062 170.960938 C 182.433594 172.113281 180.640625 174.496094 180.640625 177.25 Z M 196.417969 177.25 C 196.417969 177.710938 196.507812 178.15625 196.683594 178.585938 C 196.859375 179.011719 197.113281 179.390625 197.441406 179.714844 C 197.765625 180.042969 198.144531 180.296875 198.570312 180.472656 C 199 180.648438 199.445312 180.738281 199.90625 180.738281 C 200.367188 180.738281 200.8125 180.648438 201.242188 180.472656 C 201.667969 180.296875 202.046875 180.042969 202.375 179.714844 C 202.699219 179.390625 202.953125 179.011719 203.128906 178.585938 C 203.304688 178.15625 203.394531 177.710938 203.394531 177.25 C 203.394531 170.664062 198.535156 165.128906 192.015625 163.644531 L 192.015625 160.304688 C 192.015625 159.839844 191.929688 159.394531 191.75 158.96875 C 191.574219 158.542969 191.320312 158.164062 190.996094 157.835938 C 190.667969 157.507812 190.289062 157.257812 189.863281 157.082031 C 189.4375 156.902344 188.992188 156.816406 188.527344 156.816406 C 188.066406 156.816406 187.621094 156.902344 187.191406 157.082031 C 186.765625 157.257812 186.386719 157.507812 186.0625 157.835938 C 185.734375 158.164062 185.480469 158.542969 185.304688 158.96875 C 185.128906 159.394531 185.039062 159.839844 185.039062 160.304688 L 185.039062 163.644531 C 178.523438 165.125 173.660156 170.660156 173.660156 177.25 C 173.660156 183.839844 178.523438 189.371094 185.039062 190.851562 L 185.039062 204.554688 C 182.433594 203.402344 180.640625 201.019531 180.640625 198.265625 C 180.640625 197.804688 180.550781 197.359375 180.375 196.929688 C 180.199219 196.503906 179.945312 196.125 179.617188 195.800781 C 179.292969 195.472656 178.914062 195.21875 178.488281 195.042969 C 178.058594 194.867188 177.613281 194.777344 177.152344 194.777344 C 176.6875 194.777344 176.242188 194.867188 175.816406 195.042969 C 175.390625 195.21875 175.011719 195.472656 174.683594 195.800781 C 174.359375 196.125 174.105469 196.503906 173.929688 196.929688 C 173.75 197.359375 173.664062 197.804688 173.664062 198.265625 C 173.664062 204.851562 178.523438 210.386719 185.039062 211.871094 L 185.039062 215.210938 C 185.039062 215.675781 185.128906 216.121094 185.304688 216.546875 C 185.484375 216.972656 185.734375 217.351562 186.0625 217.679688 C 186.390625 218.003906 186.765625 218.257812 187.195312 218.433594 C 187.621094 218.613281 188.066406 218.699219 188.527344 218.699219 C 188.992188 218.699219 189.4375 218.613281 189.863281 218.433594 C 190.292969 218.257812 190.667969 218.003906 190.996094 217.679688 C 191.324219 217.351562 191.574219 216.972656 191.753906 216.546875 C 191.929688 216.121094 192.019531 215.675781 192.019531 215.210938 L 192.019531 211.871094 C 198.535156 210.390625 203.394531 204.855469 203.394531 198.265625 C 203.394531 191.675781 198.535156 186.144531 192.019531 184.660156 L 192.019531 170.960938 C 194.621094 172.113281 196.417969 174.496094 196.417969 177.25 Z M 188.527344 221.328125 C 189.628906 221.328125 190.726562 221.273438 191.820312 221.164062 C 192.914062 221.058594 194 220.898438 195.078125 220.683594 C 196.15625 220.46875 197.222656 220.203125 198.273438 219.882812 C 199.324219 219.5625 200.359375 219.191406 201.375 218.773438 C 202.390625 218.351562 203.382812 217.882812 204.355469 217.363281 C 205.324219 216.847656 206.265625 216.28125 207.179688 215.671875 C 208.09375 215.058594 208.976562 214.40625 209.824219 213.707031 C 210.675781 213.011719 211.488281 212.273438 212.265625 211.496094 C 213.042969 210.71875 213.78125 209.90625 214.480469 209.054688 C 215.175781 208.207031 215.832031 207.324219 216.441406 206.410156 C 217.054688 205.496094 217.617188 204.554688 218.136719 203.585938 C 218.65625 202.613281 219.125 201.621094 219.546875 200.605469 C 219.964844 199.589844 220.335938 198.558594 220.65625 197.503906 C 220.972656 196.453125 221.242188 195.386719 221.457031 194.308594 C 221.671875 193.230469 221.832031 192.144531 221.941406 191.050781 C 222.046875 189.957031 222.101562 188.859375 222.101562 187.761719 C 222.101562 186.660156 222.046875 185.5625 221.941406 184.46875 C 221.832031 183.375 221.671875 182.289062 221.457031 181.210938 C 221.242188 180.132812 220.976562 179.066406 220.65625 178.015625 C 220.335938 176.960938 219.96875 175.929688 219.546875 174.914062 C 219.125 173.898438 218.65625 172.90625 218.136719 171.933594 C 217.621094 170.964844 217.054688 170.023438 216.445312 169.109375 C 215.835938 168.195312 215.179688 167.3125 214.484375 166.460938 C 213.785156 165.613281 213.046875 164.800781 212.269531 164.023438 C 211.492188 163.246094 210.679688 162.507812 209.828125 161.808594 C 208.980469 161.113281 208.097656 160.457031 207.183594 159.847656 C 206.269531 159.234375 205.328125 158.671875 204.359375 158.152344 C 203.386719 157.632812 202.394531 157.164062 201.378906 156.742188 C 200.363281 156.324219 199.332031 155.953125 198.277344 155.632812 C 197.226562 155.316406 196.160156 155.046875 195.082031 154.832031 C 194.003906 154.617188 192.917969 154.457031 191.824219 154.351562 C 190.730469 154.242188 189.632812 154.1875 188.535156 154.1875 C 187.433594 154.1875 186.335938 154.242188 185.242188 154.347656 C 184.148438 154.457031 183.0625 154.617188 181.984375 154.832031 C 180.90625 155.046875 179.839844 155.3125 178.789062 155.632812 C 177.738281 155.953125 176.703125 156.320312 175.6875 156.742188 C 174.671875 157.164062 173.679688 157.632812 172.707031 158.152344 C 171.738281 158.667969 170.796875 159.234375 169.882812 159.84375 C 168.96875 160.457031 168.085938 161.109375 167.238281 161.808594 C 166.386719 162.503906 165.574219 163.242188 164.796875 164.019531 C 164.019531 164.796875 163.28125 165.609375 162.582031 166.460938 C 161.886719 167.308594 161.230469 168.191406 160.621094 169.105469 C 160.011719 170.019531 159.445312 170.960938 158.925781 171.933594 C 158.410156 172.902344 157.9375 173.894531 157.519531 174.910156 C 157.097656 175.925781 156.726562 176.960938 156.410156 178.011719 C 156.089844 179.0625 155.824219 180.128906 155.609375 181.207031 C 155.394531 182.285156 155.230469 183.371094 155.125 184.464844 C 155.015625 185.5625 154.960938 186.65625 154.960938 187.757812 C 154.964844 188.855469 155.019531 189.953125 155.128906 191.046875 C 155.238281 192.140625 155.398438 193.226562 155.613281 194.304688 C 155.828125 195.378906 156.097656 196.445312 156.417969 197.496094 C 156.734375 198.546875 157.105469 199.582031 157.527344 200.597656 C 157.949219 201.613281 158.417969 202.605469 158.9375 203.574219 C 159.457031 204.542969 160.019531 205.484375 160.628906 206.398438 C 161.242188 207.3125 161.894531 208.191406 162.59375 209.042969 C 163.289062 209.890625 164.027344 210.707031 164.804688 211.480469 C 165.582031 212.257812 166.394531 212.996094 167.242188 213.695312 C 168.09375 214.390625 168.976562 215.046875 169.890625 215.65625 C 170.800781 216.269531 171.742188 216.832031 172.710938 217.351562 C 173.683594 217.871094 174.671875 218.339844 175.6875 218.761719 C 176.703125 219.183594 177.738281 219.550781 178.789062 219.871094 C 179.839844 220.191406 180.90625 220.460938 181.984375 220.675781 C 183.058594 220.890625 184.144531 221.050781 185.238281 221.160156 C 186.332031 221.269531 187.429688 221.324219 188.527344 221.328125 Z M 188.527344 147.214844 C 187.199219 147.214844 185.875 147.277344 184.554688 147.410156 C 183.234375 147.539062 181.921875 147.734375 180.617188 147.992188 C 179.316406 148.253906 178.03125 148.574219 176.757812 148.960938 C 175.488281 149.34375 174.238281 149.792969 173.011719 150.300781 C 171.785156 150.808594 170.585938 151.375 169.417969 152.003906 C 168.246094 152.628906 167.109375 153.308594 166.003906 154.046875 C 164.898438 154.785156 163.835938 155.574219 162.808594 156.417969 C 161.78125 157.261719 160.800781 158.152344 159.859375 159.089844 C 158.921875 160.03125 158.03125 161.011719 157.1875 162.039062 C 156.347656 163.066406 155.554688 164.128906 154.820312 165.234375 C 154.082031 166.339844 153.398438 167.476562 152.773438 168.648438 C 152.148438 169.820312 151.582031 171.019531 151.074219 172.246094 C 150.5625 173.472656 150.117188 174.71875 149.730469 175.992188 C 149.347656 177.261719 149.023438 178.546875 148.765625 179.851562 C 148.507812 181.152344 148.3125 182.464844 148.183594 183.785156 C 148.050781 185.109375 147.988281 186.433594 147.988281 187.761719 C 147.988281 189.089844 148.050781 190.414062 148.183594 191.734375 C 148.3125 193.054688 148.507812 194.367188 148.765625 195.671875 C 149.027344 196.972656 149.347656 198.257812 149.734375 199.53125 C 150.117188 200.800781 150.566406 202.050781 151.074219 203.277344 C 151.582031 204.503906 152.148438 205.703125 152.777344 206.871094 C 153.402344 208.042969 154.082031 209.179688 154.820312 210.285156 C 155.558594 211.390625 156.347656 212.453125 157.191406 213.480469 C 158.035156 214.507812 158.925781 215.488281 159.863281 216.429688 C 160.800781 217.367188 161.785156 218.257812 162.8125 219.101562 C 163.839844 219.941406 164.902344 220.734375 166.007812 221.46875 C 167.113281 222.207031 168.25 222.890625 169.421875 223.515625 C 170.59375 224.140625 171.789062 224.707031 173.019531 225.21875 C 174.246094 225.726562 175.492188 226.171875 176.765625 226.558594 C 178.035156 226.941406 179.320312 227.265625 180.625 227.523438 C 181.925781 227.78125 183.238281 227.976562 184.558594 228.109375 C 185.878906 228.238281 187.207031 228.300781 188.535156 228.300781 C 189.859375 228.300781 191.1875 228.238281 192.507812 228.105469 C 193.828125 227.976562 195.140625 227.78125 196.441406 227.523438 C 197.746094 227.265625 199.03125 226.941406 200.300781 226.554688 C 201.574219 226.171875 202.820312 225.722656 204.046875 225.214844 C 205.277344 224.707031 206.472656 224.140625 207.644531 223.515625 C 208.816406 222.886719 209.953125 222.207031 211.058594 221.46875 C 212.164062 220.730469 213.226562 219.941406 214.253906 219.097656 C 215.28125 218.257812 216.261719 217.367188 217.203125 216.425781 C 218.140625 215.488281 219.03125 214.503906 219.875 213.476562 C 220.714844 212.453125 221.507812 211.386719 222.242188 210.28125 C 222.980469 209.179688 223.664062 208.039062 224.289062 206.871094 C 224.914062 205.699219 225.480469 204.5 225.992188 203.273438 C 226.5 202.046875 226.945312 200.796875 227.332031 199.527344 C 227.714844 198.253906 228.039062 196.96875 228.296875 195.667969 C 228.554688 194.363281 228.75 193.050781 228.882812 191.730469 C 229.011719 190.410156 229.078125 189.085938 229.074219 187.757812 C 229.074219 186.429688 229.007812 185.105469 228.878906 183.785156 C 228.746094 182.464844 228.550781 181.152344 228.289062 179.851562 C 228.03125 178.546875 227.707031 177.261719 227.320312 175.992188 C 226.933594 174.722656 226.488281 173.472656 225.976562 172.246094 C 225.46875 171.019531 224.902344 169.824219 224.277344 168.652344 C 223.648438 167.480469 222.96875 166.34375 222.230469 165.242188 C 221.492188 164.136719 220.703125 163.074219 219.859375 162.046875 C 219.015625 161.019531 218.125 160.039062 217.1875 159.097656 C 216.25 158.160156 215.265625 157.269531 214.238281 156.429688 C 213.214844 155.585938 212.148438 154.796875 211.046875 154.058594 C 209.941406 153.320312 208.804688 152.636719 207.632812 152.011719 C 206.464844 151.386719 205.265625 150.820312 204.039062 150.308594 C 202.8125 149.800781 201.5625 149.355469 200.292969 148.96875 C 199.023438 148.582031 197.738281 148.257812 196.4375 148 C 195.132812 147.738281 193.824219 147.542969 192.5 147.414062 C 191.179688 147.28125 189.855469 147.214844 188.527344 147.214844 Z M 188.527344 147.214844 " fill-opacity="1" fill-rule="evenodd"/></g></svg>