<svg xmlns="http://www.w3.org/2000/svg" xmlns:xlink="http://www.w3.org/1999/xlink" width="500" zoomAndPan="magnify" viewBox="0 0 375 374.999991" height="500" preserveAspectRatio="xMidYMid meet" version="1.0"><defs><clipPath id="5091a9c232"><path d="M 65.738281 65.738281 L 309.488281 65.738281 L 309.488281 309.488281 L 65.738281 309.488281 Z M 65.738281 65.738281 " clip-rule="nonzero"/></clipPath></defs><rect x="-37.5" width="450" fill="#ffffff" y="-37.499999" height="449.999989" fill-opacity="1"/><rect x="-37.5" width="450" fill="#ffffff" y="-37.499999" height="449.999989" fill-opacity="1"/><g clip-path="url(#5091a9c232)"><path fill="#04473f" d="M 297.882812 166.675781 C 292.402344 163.160156 290.515625 156.125 293.5 150.328125 C 297.367188 142.808594 297.167969 133.9375 292.921875 126.617188 C 288.691406 119.296875 281.125 114.667969 272.664062 114.257812 C 266.148438 113.9375 261.019531 108.808594 260.703125 102.292969 C 260.289062 93.847656 255.679688 86.269531 248.34375 82.039062 C 241.007812 77.804688 232.148438 77.59375 224.628906 81.457031 C 218.847656 84.441406 211.816406 82.554688 208.285156 77.074219 C 203.734375 69.984375 195.957031 65.738281 187.496094 65.738281 C 179.03125 65.738281 171.253906 69.984375 166.675781 77.105469 C 163.160156 82.585938 156.125 84.472656 150.328125 81.488281 C 142.808594 77.609375 133.9375 77.820312 126.617188 82.050781 C 119.296875 86.285156 114.667969 93.847656 114.257812 102.308594 C 113.9375 108.824219 108.808594 113.953125 102.292969 114.273438 C 93.847656 114.683594 86.269531 119.296875 82.039062 126.632812 C 77.804688 133.953125 77.59375 142.824219 81.457031 150.34375 C 84.441406 156.125 82.554688 163.160156 77.074219 166.6875 C 69.984375 171.253906 65.738281 179.03125 65.738281 187.496094 C 65.738281 195.957031 69.984375 203.734375 77.105469 208.316406 C 82.585938 211.832031 84.472656 218.863281 81.488281 224.660156 C 77.625 232.179688 77.820312 241.054688 82.066406 248.375 C 86.296875 255.695312 93.863281 260.320312 102.324219 260.730469 C 108.839844 261.050781 113.96875 266.179688 114.289062 272.695312 C 114.699219 281.140625 119.308594 288.722656 126.644531 292.953125 C 133.980469 297.183594 142.839844 297.394531 150.359375 293.53125 C 156.15625 290.546875 163.171875 292.433594 166.703125 297.914062 C 171.253906 305.007812 179.03125 309.253906 187.496094 309.253906 C 195.957031 309.253906 203.734375 305.007812 208.316406 297.882812 C 211.832031 292.402344 218.863281 290.515625 224.660156 293.5 C 232.179688 297.382812 241.054688 297.152344 248.375 292.921875 C 255.695312 288.691406 260.320312 281.125 260.730469 272.664062 C 261.050781 266.148438 266.179688 261.019531 272.695312 260.703125 C 281.140625 260.289062 288.722656 255.679688 292.953125 248.34375 C 297.183594 241.023438 297.394531 232.148438 293.53125 224.628906 C 290.546875 218.847656 292.433594 211.816406 297.914062 208.285156 C 305.007812 203.734375 309.253906 195.957031 309.253906 187.496094 C 309.253906 179.03125 305.007812 171.253906 297.882812 166.675781 Z M 291.308594 198.074219 C 280.53125 205.011719 276.820312 218.832031 282.695312 230.230469 C 284.6875 234.113281 284.582031 238.511719 282.40625 242.285156 C 280.226562 246.058594 276.46875 248.359375 272.117188 248.554688 C 259.316406 249.164062 249.195312 259.285156 248.570312 272.101562 C 248.359375 276.453125 246.074219 280.214844 242.300781 282.390625 C 238.527344 284.566406 234.128906 284.6875 230.246094 282.679688 C 218.847656 276.820312 205.027344 280.519531 198.085938 291.292969 C 195.714844 294.976562 191.863281 297.078125 187.496094 297.078125 C 183.125 297.078125 179.277344 294.976562 176.917969 291.308594 C 172.199219 283.972656 164.300781 279.925781 156.140625 279.925781 C 152.308594 279.925781 148.410156 280.820312 144.757812 282.695312 C 140.875 284.6875 136.492188 284.597656 132.703125 282.40625 C 128.929688 280.230469 126.632812 276.46875 126.433594 272.117188 C 125.824219 259.316406 115.703125 249.195312 102.886719 248.570312 C 98.535156 248.359375 94.777344 246.074219 92.601562 242.300781 C 90.421875 238.527344 90.316406 234.128906 92.3125 230.246094 C 98.183594 218.847656 94.472656 205.027344 83.695312 198.085938 C 80.011719 195.714844 77.914062 191.863281 77.914062 187.496094 C 77.914062 183.125 80.011719 179.277344 83.679688 176.917969 C 94.457031 169.976562 98.171875 156.15625 92.296875 144.757812 C 90.300781 140.875 90.40625 136.476562 92.585938 132.703125 C 94.761719 128.929688 98.519531 126.632812 102.875 126.433594 C 115.671875 125.824219 125.792969 115.703125 126.417969 102.886719 C 126.632812 98.535156 128.914062 94.777344 132.6875 92.601562 C 136.476562 90.421875 140.863281 90.316406 144.742188 92.3125 C 156.140625 98.183594 169.960938 94.472656 176.902344 83.695312 C 179.277344 80.011719 183.125 77.914062 187.496094 77.914062 C 191.863281 77.914062 195.714844 80.011719 198.074219 83.679688 C 205.011719 94.457031 218.832031 98.15625 230.230469 92.296875 C 234.113281 90.300781 238.496094 90.40625 242.285156 92.585938 C 246.058594 94.761719 248.359375 98.519531 248.554688 102.871094 C 249.164062 115.671875 259.285156 125.792969 272.101562 126.417969 C 276.453125 126.632812 280.214844 128.914062 282.390625 132.6875 C 284.566406 136.464844 284.671875 140.863281 282.679688 144.742188 C 276.804688 156.140625 280.519531 169.960938 291.292969 176.902344 C 294.976562 179.277344 297.078125 183.125 297.078125 187.496094 C 297.078125 191.863281 294.976562 195.714844 291.308594 198.074219 Z M 242.285156 154.527344 L 232.636719 144.878906 C 227.886719 140.132812 220.15625 140.132812 215.421875 144.878906 L 175.320312 184.96875 L 159.582031 169.230469 C 154.832031 164.484375 147.101562 164.484375 142.367188 169.230469 L 132.703125 178.878906 C 127.957031 183.628906 127.957031 191.34375 132.703125 196.09375 L 162.414062 225.804688 C 165.972656 229.363281 170.648438 231.144531 175.320312 231.144531 C 179.992188 231.144531 184.664062 229.363281 188.226562 225.804688 L 242.285156 171.757812 C 247.035156 167.007812 247.035156 159.277344 242.285156 154.527344 Z M 179.625 217.203125 C 177.25 219.578125 173.386719 219.578125 171.011719 217.203125 L 141.316406 187.496094 L 150.96875 177.84375 L 171.011719 197.890625 C 173.386719 200.265625 177.238281 200.265625 179.625 197.890625 L 224.023438 153.492188 L 233.671875 163.144531 Z M 167.585938 264.355469 C 166.71875 266.878906 164.359375 268.480469 161.835938 268.480469 C 161.179688 268.480469 160.511719 268.371094 159.855469 268.144531 C 125.414062 256.332031 102.265625 223.929688 102.265625 187.496094 C 102.265625 145.503906 132.292969 110.132812 173.675781 103.375 C 177.023438 102.84375 180.128906 105.078125 180.660156 108.398438 C 181.207031 111.714844 178.957031 114.851562 175.636719 115.382812 C 140.175781 121.183594 114.441406 151.5 114.441406 187.496094 C 114.441406 218.726562 134.285156 246.5 163.8125 256.621094 C 166.992188 257.71875 168.683594 261.171875 167.585938 264.355469 Z M 187.496094 266.636719 C 187.496094 270 184.769531 272.726562 181.40625 272.726562 C 178.042969 272.726562 175.320312 270 175.320312 266.636719 C 175.320312 263.273438 178.042969 260.550781 181.40625 260.550781 C 184.769531 260.550781 187.496094 263.273438 187.496094 266.636719 Z M 272.726562 187.496094 C 272.726562 229.484375 242.695312 264.855469 201.3125 271.613281 C 200.980469 271.675781 200.644531 271.691406 200.324219 271.691406 C 197.386719 271.691406 194.816406 269.574219 194.328125 266.578125 C 193.78125 263.257812 196.03125 260.125 199.351562 259.589844 C 234.8125 253.808594 260.550781 223.488281 260.550781 187.496094 C 260.550781 156.265625 240.703125 128.488281 211.175781 118.367188 C 207.996094 117.285156 206.304688 113.816406 207.386719 110.636719 C 208.46875 107.453125 211.9375 105.75 215.117188 106.84375 C 249.574219 118.65625 272.726562 151.058594 272.726562 187.496094 Z M 187.496094 108.351562 C 187.496094 104.988281 190.21875 102.265625 193.582031 102.265625 C 196.945312 102.265625 199.671875 104.988281 199.671875 108.351562 C 199.671875 111.714844 196.945312 114.441406 193.582031 114.441406 C 190.21875 114.441406 187.496094 111.714844 187.496094 108.351562 Z M 187.496094 108.351562 " fill-opacity="1" fill-rule="nonzero"/></g></svg>