<svg xmlns="http://www.w3.org/2000/svg" xmlns:xlink="http://www.w3.org/1999/xlink" width="500" zoomAndPan="magnify" viewBox="0 0 375 374.999991" height="500" preserveAspectRatio="xMidYMid meet" version="1.0"><defs><clipPath id="2b59654050"><path d="M 103.691406 190 L 115 190 L 115 274 L 103.691406 274 Z M 103.691406 190 " clip-rule="nonzero"/></clipPath><clipPath id="5326df619a"><path d="M 103.691406 156 L 115 156 L 115 203 L 103.691406 203 Z M 103.691406 156 " clip-rule="nonzero"/></clipPath><clipPath id="1a00098d7b"><path d="M 103.691406 190 L 257 190 L 257 215 L 103.691406 215 Z M 103.691406 190 " clip-rule="nonzero"/></clipPath><clipPath id="431274110d"><path d="M 103.691406 226 L 257 226 L 257 251 L 103.691406 251 Z M 103.691406 226 " clip-rule="nonzero"/></clipPath><clipPath id="733ae3d414"><path d="M 103.691406 262 L 257 262 L 257 287 L 103.691406 287 Z M 103.691406 262 " clip-rule="nonzero"/></clipPath><clipPath id="355087e742"><path d="M 103.691406 190 L 257 190 L 257 215 L 103.691406 215 Z M 103.691406 190 " clip-rule="nonzero"/></clipPath><clipPath id="7114912715"><path d="M 103.691406 141 L 220 141 L 220 179 L 103.691406 179 Z M 103.691406 141 " clip-rule="nonzero"/></clipPath><clipPath id="a606a8eb33"><path d="M 197 88.304688 L 302.441406 88.304688 L 302.441406 193 L 197 193 Z M 197 88.304688 " clip-rule="nonzero"/></clipPath></defs><rect x="-37.5" width="450" fill="#ffffff" y="-37.499999" height="449.999989" fill-opacity="1"/><rect x="-37.5" width="450" fill="#ffffff" y="-37.499999" height="449.999989" fill-opacity="1"/><g clip-path="url(#2b59654050)"><path fill="#04473f" d="M 108.910156 273.402344 C 106.03125 273.402344 103.691406 271.066406 103.691406 268.179688 L 103.691406 195.9375 C 103.691406 193.050781 106.03125 190.714844 108.910156 190.714844 C 111.792969 190.714844 114.132812 193.050781 114.132812 195.9375 L 114.132812 268.179688 C 114.132812 271.066406 111.792969 273.402344 108.910156 273.402344 Z M 108.910156 273.402344 " fill-opacity="1" fill-rule="nonzero"/></g><g clip-path="url(#5326df619a)"><path fill="#04473f" d="M 108.910156 202.777344 C 106.03125 202.777344 103.691406 200.441406 103.691406 197.558594 L 103.691406 161.441406 C 103.691406 158.554688 106.03125 156.21875 108.910156 156.21875 C 111.792969 156.21875 114.132812 158.554688 114.132812 161.441406 L 114.132812 197.558594 C 114.132812 200.441406 111.792969 202.777344 108.910156 202.777344 Z M 108.910156 202.777344 " fill-opacity="1" fill-rule="nonzero"/></g><path fill="#04473f" d="M 251.601562 273.402344 C 248.71875 273.402344 246.378906 271.066406 246.378906 268.179688 L 246.378906 195.9375 C 246.378906 193.050781 248.71875 190.714844 251.601562 190.714844 C 254.484375 190.714844 256.820312 193.050781 256.820312 195.9375 L 256.820312 268.179688 C 256.820312 271.066406 254.484375 273.402344 251.601562 273.402344 Z M 251.601562 273.402344 " fill-opacity="1" fill-rule="nonzero"/><g clip-path="url(#1a00098d7b)"><path fill="#04473f" d="M 180.261719 214.4375 C 162.296875 214.4375 103.695312 213.101562 103.695312 195.9375 C 103.695312 193.050781 106.03125 190.714844 108.914062 190.714844 C 111.445312 190.714844 113.5625 192.519531 114.039062 194.914062 C 117.671875 198.140625 140.394531 203.996094 180.261719 203.996094 C 220.125 203.996094 242.847656 198.140625 246.480469 194.914062 C 246.957031 192.519531 249.070312 190.714844 251.605469 190.714844 C 254.484375 190.714844 256.824219 193.050781 256.824219 195.9375 C 256.824219 213.101562 198.222656 214.4375 180.261719 214.4375 Z M 180.261719 214.4375 " fill-opacity="1" fill-rule="nonzero"/></g><g clip-path="url(#431274110d)"><path fill="#04473f" d="M 180.261719 250.5625 C 162.296875 250.5625 103.695312 249.230469 103.695312 232.0625 C 103.695312 229.179688 106.03125 226.839844 108.914062 226.839844 C 111.445312 226.839844 113.5625 228.648438 114.039062 231.042969 C 117.671875 234.269531 140.394531 240.121094 180.261719 240.121094 C 220.125 240.121094 242.847656 234.269531 246.480469 231.042969 C 246.957031 228.648438 249.070312 226.839844 251.605469 226.839844 C 254.484375 226.839844 256.824219 229.179688 256.824219 232.0625 C 256.824219 249.230469 198.222656 250.5625 180.261719 250.5625 Z M 180.261719 250.5625 " fill-opacity="1" fill-rule="nonzero"/></g><g clip-path="url(#733ae3d414)"><path fill="#04473f" d="M 180.261719 286.691406 C 162.296875 286.691406 103.695312 285.355469 103.695312 268.1875 C 103.695312 265.304688 106.03125 262.96875 108.914062 262.96875 C 111.445312 262.96875 113.5625 264.773438 114.039062 267.167969 C 117.671875 270.394531 140.394531 276.25 180.261719 276.25 C 220.125 276.25 242.847656 270.394531 246.480469 267.167969 C 246.957031 264.773438 249.070312 262.96875 251.605469 262.96875 C 254.484375 262.96875 256.824219 265.304688 256.824219 268.1875 C 256.824219 285.355469 198.222656 286.691406 180.261719 286.691406 Z M 180.261719 286.691406 " fill-opacity="1" fill-rule="nonzero"/></g><path fill="#04473f" d="M 251.609375 201.140625 C 248.730469 201.140625 246.390625 198.804688 246.390625 195.921875 L 246.390625 187.464844 C 246.390625 184.578125 248.730469 182.242188 251.609375 182.242188 C 254.492188 182.242188 256.832031 184.578125 256.832031 187.464844 L 256.832031 195.921875 C 256.832031 198.804688 254.492188 201.140625 251.609375 201.140625 Z M 251.609375 201.140625 " fill-opacity="1" fill-rule="nonzero"/><g clip-path="url(#355087e742)"><path fill="#04473f" d="M 180.261719 214.4375 C 162.296875 214.4375 103.695312 213.101562 103.695312 195.9375 C 103.695312 193.050781 106.03125 190.714844 108.914062 190.714844 C 111.445312 190.714844 113.5625 192.519531 114.039062 194.914062 C 117.671875 198.140625 140.394531 203.996094 180.261719 203.996094 C 220.125 203.996094 242.847656 198.140625 246.480469 194.914062 C 246.957031 192.519531 249.070312 190.714844 251.605469 190.714844 C 254.484375 190.714844 256.824219 193.050781 256.824219 195.9375 C 256.824219 213.101562 198.222656 214.4375 180.261719 214.4375 Z M 180.261719 214.4375 " fill-opacity="1" fill-rule="nonzero"/></g><g clip-path="url(#7114912715)"><path fill="#04473f" d="M 180.261719 178.308594 C 162.296875 178.308594 103.691406 176.972656 103.691406 159.792969 C 103.691406 142.644531 162.296875 141.3125 180.261719 141.3125 C 182.035156 141.3125 183.8125 141.3125 185.585938 141.347656 C 188.472656 141.40625 190.761719 143.792969 190.703125 146.675781 C 190.644531 149.523438 188.316406 151.789062 185.484375 151.789062 C 185.449219 151.789062 185.410156 151.789062 185.375 151.789062 C 183.671875 151.75 181.941406 151.695312 180.261719 151.753906 C 144.347656 151.753906 122.332031 156.503906 115.664062 159.800781 C 122.320312 163.105469 144.328125 167.867188 180.261719 167.867188 C 192.074219 167.867188 203.734375 167.3125 213.976562 166.261719 C 216.808594 165.957031 219.40625 168.050781 219.703125 170.917969 C 219.996094 173.789062 217.910156 176.351562 215.042969 176.648438 C 204.449219 177.734375 192.425781 178.308594 180.261719 178.308594 Z M 180.261719 178.308594 " fill-opacity="1" fill-rule="nonzero"/></g><g clip-path="url(#a606a8eb33)"><path fill="#04473f" d="M 249.871094 88.304688 C 221.085938 88.304688 197.664062 111.726562 197.664062 140.511719 C 197.664062 169.296875 221.085938 192.71875 249.871094 192.71875 C 278.652344 192.71875 302.078125 169.292969 302.078125 140.511719 C 302.078125 111.726562 278.652344 88.304688 249.871094 88.304688 Z M 262.050781 135.289062 C 264.941406 135.289062 267.273438 137.65625 267.273438 140.511719 L 267.273438 158.714844 C 267.273438 161.601562 264.941406 163.933594 262.050781 163.933594 L 255.089844 163.933594 L 255.089844 167.832031 C 255.089844 170.722656 252.722656 173.054688 249.871094 173.054688 C 246.980469 173.054688 244.648438 170.722656 244.648438 167.832031 L 244.648438 163.933594 L 237.6875 163.933594 C 234.800781 163.933594 232.46875 161.601562 232.46875 158.714844 C 232.46875 155.824219 234.800781 153.492188 237.6875 153.492188 L 256.832031 153.492188 L 256.832031 145.730469 L 237.6875 145.730469 C 234.800781 145.730469 232.46875 143.398438 232.46875 140.511719 L 232.46875 122.34375 C 232.46875 119.453125 234.800781 117.121094 237.6875 117.121094 L 244.648438 117.121094 L 244.648438 113.191406 C 244.648438 110.300781 246.980469 107.96875 249.871094 107.96875 C 252.722656 107.96875 255.089844 110.300781 255.089844 113.191406 L 255.089844 117.121094 L 262.050781 117.121094 C 264.941406 117.121094 267.273438 119.453125 267.273438 122.34375 C 267.273438 125.230469 264.941406 127.5625 262.050781 127.5625 L 242.910156 127.5625 L 242.910156 135.289062 Z M 262.050781 135.289062 " fill-opacity="1" fill-rule="nonzero"/></g></svg>