<svg xmlns="http://www.w3.org/2000/svg" xmlns:xlink="http://www.w3.org/1999/xlink" width="500" zoomAndPan="magnify" viewBox="0 0 375 374.999991" height="500" preserveAspectRatio="xMidYMid meet" version="1.0"><defs><clipPath id="7a74b575c2"><path d="M 79.675781 192 L 295 192 L 295 265 L 79.675781 265 Z M 79.675781 192 " clip-rule="nonzero"/></clipPath><clipPath id="e90d7ba0ab"><path d="M 170 83.601562 L 269 83.601562 L 269 192 L 170 192 Z M 170 83.601562 " clip-rule="nonzero"/></clipPath></defs><rect x="-37.5" width="450" fill="#ffffff" y="-37.499999" height="449.999989" fill-opacity="1"/><rect x="-37.5" width="450" fill="#ffffff" y="-37.499999" height="449.999989" fill-opacity="1"/><g clip-path="url(#7a74b575c2)"><path fill="#04473f" d="M 290.484375 219.324219 L 200.679688 261.761719 C 193.871094 264.949219 186.050781 265.816406 178.664062 263.933594 L 126.808594 250.898438 L 126.808594 200.925781 C 144.914062 194.265625 165.191406 196.4375 181.414062 206.722656 C 183.296875 207.878906 185.472656 208.75 187.789062 209.183594 L 222.984375 215.410156 C 226.316406 215.992188 228.199219 218.597656 227.332031 223.234375 C 226.75 226.128906 224.578125 230.1875 218.0625 230.1875 L 173.59375 230.1875 C 171.566406 230.1875 169.683594 231.632812 169.25 233.664062 C 168.8125 236.414062 170.839844 238.730469 173.449219 238.730469 L 218.0625 238.730469 C 227.765625 238.730469 235.875 231.199219 236.3125 221.496094 C 236.457031 219.179688 236.023438 216.859375 235.296875 214.832031 L 286.136719 205.996094 C 286.574219 205.851562 287.007812 205.851562 287.296875 205.851562 C 290.484375 205.851562 293.378906 208.023438 294.105469 211.210938 C 295.117188 214.398438 293.523438 217.875 290.484375 219.324219 Z M 114.207031 192.816406 L 85.382812 192.816406 C 82.339844 192.816406 79.878906 195.277344 79.878906 198.320312 L 79.878906 252.203125 C 79.878906 255.246094 82.339844 257.707031 85.382812 257.707031 L 114.207031 257.707031 C 117.25 257.707031 119.710938 255.246094 119.710938 252.203125 L 119.710938 198.320312 C 119.710938 195.277344 117.25 192.816406 114.207031 192.816406 Z M 114.207031 192.816406 " fill-opacity="1" fill-rule="nonzero"/></g><g clip-path="url(#e90d7ba0ab)"><path fill="#04473f" d="M 206.90625 118.367188 C 186.628906 118.367188 170.261719 134.734375 170.261719 155.011719 C 170.261719 175.289062 186.628906 191.65625 206.90625 191.65625 C 227.1875 191.65625 243.554688 175.289062 243.554688 155.011719 C 243.554688 134.734375 227.1875 118.367188 206.90625 118.367188 Z M 210.238281 176.304688 L 210.238281 180.070312 C 210.238281 181.808594 208.789062 183.402344 206.90625 183.402344 C 205.167969 183.402344 203.578125 181.953125 203.578125 180.070312 L 203.578125 177.027344 C 201.113281 177.027344 198.652344 176.59375 196.480469 175.871094 L 196.480469 168.628906 C 198.652344 169.640625 201.695312 170.511719 204.445312 170.511719 C 209.226562 170.511719 212.121094 168.335938 212.121094 164.714844 C 212.121094 161.386719 210.238281 159.5 204.734375 157.472656 C 197.347656 154.867188 193.582031 150.667969 193.582031 145.308594 C 193.582031 139.367188 197.636719 134.734375 203.722656 133.285156 L 203.722656 129.664062 C 203.722656 127.925781 205.167969 126.332031 207.054688 126.332031 C 208.789062 126.332031 210.382812 127.78125 210.382812 129.664062 L 210.382812 132.707031 C 212.410156 132.851562 214.441406 133.285156 216.179688 134.007812 L 216.179688 141.25 C 214.730469 140.382812 211.976562 139.222656 208.355469 139.222656 C 204.445312 139.222656 201.839844 141.394531 201.839844 144.4375 C 201.839844 147.625 204.15625 149.074219 209.515625 151.101562 C 217.335938 154.140625 220.667969 157.910156 220.667969 163.992188 C 220.378906 170.363281 216.46875 174.710938 210.238281 176.304688 Z M 268.03125 111.992188 C 268.03125 125.027344 259.339844 135.890625 247.464844 139.222656 C 246.160156 135.890625 244.421875 132.707031 242.25 129.664062 L 242.25 128.359375 C 247.175781 127.054688 250.070312 123.726562 250.070312 118.945312 C 250.070312 114.308594 247.464844 111.269531 241.527344 108.949219 C 237.46875 107.359375 235.585938 106.34375 235.585938 103.882812 C 235.585938 101.417969 237.613281 99.824219 240.65625 99.824219 C 243.410156 99.824219 245.582031 100.839844 246.742188 101.417969 L 246.742188 95.914062 C 245.4375 95.335938 243.84375 95.046875 242.25 94.902344 L 242.25 92.4375 C 242.25 90.988281 241.089844 89.976562 239.789062 89.976562 C 238.339844 89.976562 237.324219 91.136719 237.324219 92.4375 L 237.324219 95.191406 C 232.546875 96.347656 229.503906 99.824219 229.503906 104.460938 C 229.503906 108.515625 232.546875 111.847656 238.195312 113.875 C 242.394531 115.46875 243.988281 116.917969 243.988281 119.523438 C 243.988281 122.277344 241.816406 124.015625 238.050781 124.015625 C 237.90625 124.015625 237.761719 124.015625 237.46875 124.015625 C 230.664062 117.351562 221.539062 112.863281 211.542969 111.847656 C 211.6875 96.347656 224.289062 83.746094 239.789062 83.746094 C 255.285156 83.601562 268.03125 96.347656 268.03125 111.992188 Z M 268.03125 111.992188 " fill-opacity="1" fill-rule="nonzero"/></g></svg>