<svg xmlns="http://www.w3.org/2000/svg" xmlns:xlink="http://www.w3.org/1999/xlink" width="500" zoomAndPan="magnify" viewBox="0 0 375 374.999991" height="500" preserveAspectRatio="xMidYMid meet" version="1.0"><defs><clipPath id="edae4a9d78"><path d="M 49.070312 53.496094 L 331.820312 53.496094 L 331.820312 321.246094 L 49.070312 321.246094 Z M 49.070312 53.496094 " clip-rule="nonzero"/></clipPath></defs><rect x="-37.5" width="450" fill="#ffffff" y="-37.499999" height="449.999989" fill-opacity="1"/><rect x="-37.5" width="450" fill="#ffffff" y="-37.499999" height="449.999989" fill-opacity="1"/><path fill="#04473f" d="M 100.769531 210.78125 C 100.769531 210.449219 100.769531 209.953125 100.769531 209.621094 C 100.769531 204.980469 104.414062 201.335938 109.054688 201.335938 L 121.980469 201.335938 C 123.636719 195.703125 125.789062 190.234375 128.773438 185.097656 L 119.496094 175.816406 C 116.347656 172.667969 116.347656 167.367188 119.496094 164.21875 L 134.40625 149.304688 C 137.554688 146.15625 143.023438 146.15625 146.171875 149.304688 L 155.453125 158.417969 C 160.589844 155.4375 165.890625 153.28125 171.691406 151.789062 L 171.691406 138.699219 C 171.691406 134.058594 175.335938 130.414062 179.976562 130.414062 L 201.019531 130.414062 C 205.660156 130.414062 209.304688 134.058594 209.304688 138.699219 L 209.304688 151.789062 C 214.9375 153.28125 220.40625 155.601562 225.542969 158.417969 L 234.65625 149.304688 C 237.804688 146.15625 243.273438 146.15625 246.421875 149.304688 L 261.335938 164.21875 C 264.648438 167.367188 264.648438 172.667969 261.335938 175.816406 L 252.222656 185.097656 C 255.039062 190.234375 257.359375 195.703125 258.851562 201.335938 L 271.941406 201.335938 C 277.242188 201.335938 280.0625 205.3125 280.226562 210.78125 L 238.800781 210.78125 C 234.328125 188.078125 214.441406 170.847656 190.414062 170.847656 C 166.554688 170.847656 146.503906 188.078125 142.195312 210.78125 Z M 232.007812 210.78125 C 227.699219 191.726562 210.796875 177.472656 190.414062 177.472656 C 170.199219 177.472656 153.132812 191.726562 148.988281 210.78125 Z M 232.007812 210.78125 " fill-opacity="1" fill-rule="evenodd"/><g clip-path="url(#edae4a9d78)"><path fill="#04473f" d="M 133.910156 293.796875 C 136.894531 291.808594 139.542969 289.488281 142.03125 286.839844 L 239.132812 286.839844 C 241.617188 289.488281 244.269531 291.976562 247.085938 293.796875 Z M 250.566406 321.46875 L 130.429688 321.46875 C 128.609375 321.46875 127.28125 319.980469 127.28125 318.320312 L 127.28125 302.414062 C 127.28125 300.589844 128.609375 299.265625 130.429688 299.265625 L 250.566406 299.265625 C 252.222656 299.265625 253.714844 300.589844 253.714844 302.414062 L 253.714844 318.320312 C 253.714844 319.980469 252.222656 321.46875 250.566406 321.46875 Z M 309.058594 259.828125 L 225.875 259.828125 C 226.042969 261.484375 226.539062 262.976562 226.871094 264.632812 L 153.960938 264.632812 C 154.292969 262.976562 154.789062 261.484375 155.121094 259.828125 L 71.9375 259.828125 C 59.34375 259.828125 49.070312 249.722656 49.070312 237.128906 L 49.070312 76.394531 C 49.070312 63.800781 59.34375 53.527344 72.101562 53.527344 L 308.894531 53.527344 C 321.488281 53.527344 331.925781 63.800781 331.925781 76.394531 L 331.925781 237.128906 C 331.925781 249.722656 321.652344 259.828125 309.058594 259.828125 Z M 146.835938 280.375 C 148.824219 277.394531 150.316406 274.246094 151.640625 271.097656 L 229.191406 271.097656 C 230.515625 274.410156 232.171875 277.558594 234.160156 280.375 Z M 278.402344 239.777344 L 264.152344 239.777344 C 259.84375 239.777344 259.84375 233.316406 264.152344 233.316406 L 278.402344 233.316406 C 282.710938 233.316406 282.710938 239.777344 278.402344 239.777344 Z M 310.382812 239.777344 L 295.96875 239.777344 C 291.660156 239.777344 291.660156 233.316406 295.96875 233.316406 L 310.382812 233.316406 C 314.527344 233.316406 314.527344 239.777344 310.382812 239.777344 Z M 89.335938 239.777344 L 74.921875 239.777344 C 70.613281 239.777344 70.613281 233.316406 74.921875 233.316406 L 89.335938 233.316406 C 93.480469 233.316406 93.480469 239.777344 89.335938 239.777344 Z M 121.152344 239.777344 L 106.734375 239.777344 C 102.425781 239.777344 102.425781 233.316406 106.734375 233.316406 L 121.152344 233.316406 C 125.292969 233.316406 125.292969 239.777344 121.152344 239.777344 Z M 61.996094 216.25 L 318.835938 216.25 L 318.835938 76.394531 C 318.835938 70.925781 314.359375 66.453125 308.894531 66.453125 L 72.101562 66.453125 C 66.46875 66.453125 61.996094 70.925781 61.996094 76.394531 Z M 61.996094 216.25 " fill-opacity="1" fill-rule="evenodd"/></g></svg>