<svg xmlns="http://www.w3.org/2000/svg" xmlns:xlink="http://www.w3.org/1999/xlink" width="500" zoomAndPan="magnify" viewBox="0 0 375 374.999991" height="500" preserveAspectRatio="xMidYMid meet" version="1.0"><defs><clipPath id="d9aad79f93"><path d="M 144 108.976562 L 231 108.976562 L 231 202 L 144 202 Z M 144 108.976562 " clip-rule="nonzero"/></clipPath><clipPath id="7be83162a9"><path d="M 106 202 L 268.699219 202 L 268.699219 288 L 106 288 Z M 106 202 " clip-rule="nonzero"/></clipPath></defs><rect x="-37.5" width="450" fill="#ffffff" y="-37.499999" height="449.999989" fill-opacity="1"/><rect x="-37.5" width="450" fill="#ffffff" y="-37.499999" height="449.999989" fill-opacity="1"/><g clip-path="url(#d9aad79f93)"><path fill="#04473f" d="M 187.496094 201.816406 C 211.453125 201.816406 230.945312 176.386719 230.945312 152.429688 C 230.945312 128.472656 211.453125 108.976562 187.496094 108.976562 C 163.535156 108.976562 144.042969 128.472656 144.042969 152.429688 C 144.046875 176.382812 163.539062 201.816406 187.496094 201.816406 Z M 187.496094 201.816406 " fill-opacity="1" fill-rule="nonzero"/></g><g clip-path="url(#7be83162a9)"><path fill="#04473f" d="M 220.113281 202.261719 C 211.683594 208.683594 201.171875 212.503906 189.78125 212.503906 L 185.207031 212.503906 C 173.816406 212.503906 163.300781 208.679688 154.875 202.261719 C 127.355469 206.710938 106.339844 230.5625 106.339844 259.332031 C 106.339844 275.140625 142.675781 287.957031 187.496094 287.957031 C 232.3125 287.957031 268.648438 275.140625 268.648438 259.332031 C 268.648438 230.5625 247.632812 206.710938 220.113281 202.261719 Z M 220.113281 202.261719 " fill-opacity="1" fill-rule="nonzero"/></g></svg>