<svg xmlns="http://www.w3.org/2000/svg" xmlns:xlink="http://www.w3.org/1999/xlink" width="500" zoomAndPan="magnify" viewBox="0 0 375 374.999991" height="500" preserveAspectRatio="xMidYMid meet" version="1.0"><defs><clipPath id="1590765d10"><path d="M 135 89.597656 L 149 89.597656 L 149 115 L 135 115 Z M 135 89.597656 " clip-rule="nonzero"/></clipPath><clipPath id="69a4e1ee40"><path d="M 89.597656 106 L 285.347656 106 L 285.347656 285.347656 L 89.597656 285.347656 Z M 89.597656 106 " clip-rule="nonzero"/></clipPath><clipPath id="549d21642c"><path d="M 224 89.597656 L 239 89.597656 L 239 115 L 224 115 Z M 224 89.597656 " clip-rule="nonzero"/></clipPath></defs><rect x="-37.5" width="450" fill="#ffffff" y="-37.499999" height="449.999989" fill-opacity="1"/><rect x="-37.5" width="450" fill="#ffffff" y="-37.499999" height="449.999989" fill-opacity="1"/><g clip-path="url(#1590765d10)"><path fill="#04473f" d="M 135.121094 108.9375 C 135.128906 108.96875 135.132812 109.007812 135.140625 109.050781 C 135.226562 109.5 135.367188 109.941406 135.539062 110.359375 C 135.539062 110.375 135.546875 110.386719 135.550781 110.40625 C 135.578125 110.464844 135.613281 110.519531 135.640625 110.578125 C 135.644531 110.597656 135.660156 110.621094 135.664062 110.640625 C 135.753906 110.824219 135.84375 111.003906 135.945312 111.179688 C 135.953125 111.183594 135.953125 111.183594 135.953125 111.191406 C 136.050781 111.355469 136.15625 111.523438 136.265625 111.683594 C 136.289062 111.722656 136.324219 111.757812 136.359375 111.796875 C 136.445312 111.921875 136.53125 112.042969 136.628906 112.164062 C 136.761719 112.320312 136.902344 112.476562 137.050781 112.621094 C 137.207031 112.78125 137.375 112.933594 137.546875 113.074219 C 137.632812 113.144531 137.726562 113.207031 137.820312 113.28125 C 137.90625 113.347656 137.992188 113.414062 138.085938 113.472656 C 138.152344 113.519531 138.21875 113.558594 138.285156 113.597656 C 138.414062 113.679688 138.53125 113.757812 138.660156 113.824219 C 138.777344 113.890625 138.90625 113.945312 139.03125 114.003906 C 139.109375 114.042969 139.191406 114.085938 139.269531 114.117188 C 139.332031 114.144531 139.382812 114.164062 139.445312 114.183594 C 139.621094 114.25 139.800781 114.316406 139.988281 114.375 C 140.355469 114.484375 140.734375 114.5625 141.125 114.609375 C 141.40625 114.648438 141.691406 114.667969 141.992188 114.667969 C 142.316406 114.667969 142.636719 114.644531 142.953125 114.597656 C 143.308594 114.542969 143.652344 114.476562 143.984375 114.375 C 144.332031 114.269531 144.65625 114.136719 144.976562 113.992188 C 145.296875 113.839844 145.601562 113.671875 145.894531 113.472656 C 145.929688 113.453125 145.960938 113.425781 145.996094 113.398438 C 146.140625 113.300781 146.285156 113.1875 146.433594 113.074219 C 146.597656 112.933594 146.765625 112.78125 146.925781 112.621094 C 147.070312 112.476562 147.210938 112.320312 147.34375 112.164062 C 147.445312 112.042969 147.539062 111.917969 147.625 111.796875 C 147.648438 111.757812 147.683594 111.714844 147.710938 111.683594 C 147.824219 111.523438 147.921875 111.355469 148.023438 111.183594 C 148.023438 111.183594 148.03125 111.183594 148.03125 111.179688 C 148.410156 110.527344 148.6875 109.808594 148.835938 109.042969 C 148.839844 109.007812 148.847656 108.976562 148.855469 108.9375 C 148.886719 108.757812 148.921875 108.570312 148.933594 108.378906 C 148.960938 108.152344 148.972656 107.917969 148.972656 107.6875 L 148.972656 96.578125 C 148.972656 92.722656 145.847656 89.597656 141.992188 89.597656 C 138.132812 89.597656 135.007812 92.722656 135.007812 96.578125 L 135.007812 107.6875 C 135.007812 107.917969 135.015625 108.152344 135.039062 108.378906 C 135.0625 108.570312 135.085938 108.75 135.121094 108.9375 " fill-opacity="1" fill-rule="nonzero"/></g><g clip-path="url(#69a4e1ee40)"><path fill="#04473f" d="M 271.109375 271.425781 L 103.882812 271.425781 L 103.882812 157.042969 L 271.109375 157.042969 Z M 271.800781 106.636719 L 245.867188 106.636719 L 245.867188 107.347656 C 245.867188 114.910156 240.003906 121.351562 232.441406 121.640625 C 224.492188 121.9375 217.933594 115.566406 217.933594 107.6875 L 217.933594 106.636719 L 155.957031 106.636719 L 155.957031 107.347656 C 155.957031 114.910156 150.085938 121.351562 142.53125 121.640625 C 134.582031 121.9375 128.023438 115.566406 128.023438 107.6875 L 128.023438 106.636719 L 103.191406 106.636719 C 95.855469 106.636719 89.910156 112.574219 89.910156 119.917969 L 89.910156 272.113281 C 89.910156 279.449219 95.855469 285.394531 103.191406 285.394531 L 271.800781 285.394531 C 279.128906 285.394531 285.074219 279.449219 285.074219 272.113281 L 285.074219 119.917969 C 285.074219 112.574219 279.128906 106.636719 271.800781 106.636719 " fill-opacity="1" fill-rule="nonzero"/></g><g clip-path="url(#549d21642c)"><path fill="#04473f" d="M 231.902344 114.667969 C 235.757812 114.667969 238.886719 111.542969 238.886719 107.6875 L 238.886719 96.578125 C 238.886719 94.652344 238.105469 92.902344 236.835938 91.636719 C 236.75 91.546875 236.644531 91.464844 236.550781 91.378906 C 235.3125 90.273438 233.691406 89.597656 231.902344 89.597656 C 230.664062 89.597656 229.507812 89.921875 228.496094 90.488281 C 227.453125 91.074219 226.574219 91.925781 225.949219 92.949219 C 225.296875 94.003906 224.917969 95.25 224.917969 96.578125 L 224.917969 107.6875 C 224.917969 108.75 225.164062 109.761719 225.597656 110.660156 C 226.714844 113.027344 229.109375 114.667969 231.902344 114.667969 " fill-opacity="1" fill-rule="nonzero"/></g><path fill="#04473f" d="M 156.003906 196.824219 C 157.359375 193.734375 159.5625 192.183594 162.613281 192.183594 C 165.601562 192.183594 167.84375 193.699219 169.339844 196.734375 C 170.835938 199.773438 171.578125 205.691406 171.578125 214.503906 C 171.578125 220.515625 171.253906 224.9375 170.609375 227.769531 C 169.957031 230.609375 168.945312 232.6875 167.570312 233.996094 C 166.199219 235.3125 164.578125 235.972656 162.707031 235.972656 C 159.867188 235.972656 157.699219 234.421875 156.203125 231.328125 C 154.714844 228.238281 153.960938 222.457031 153.960938 214.011719 C 153.960938 205.644531 154.648438 199.917969 156.003906 196.824219 Z M 140.742188 238.054688 C 142.949219 241.492188 145.769531 244.105469 149.214844 245.886719 C 152.652344 247.671875 157.160156 248.554688 162.746094 248.554688 C 172.710938 248.554688 179.726562 245.769531 183.804688 240.179688 C 187.878906 234.59375 189.914062 225.78125 189.914062 213.738281 C 189.914062 208.363281 189.296875 203.203125 188.058594 198.25 C 187.429688 195.65625 186.589844 193.386719 185.546875 191.4375 C 184.507812 189.488281 183.078125 187.632812 181.269531 185.871094 C 179.460938 184.101562 177.121094 182.667969 174.253906 181.570312 C 171.378906 180.464844 167.714844 179.914062 163.246094 179.914062 C 153.949219 179.914062 147.03125 182.433594 142.488281 187.476562 C 137.941406 192.515625 135.671875 201.347656 135.671875 213.964844 C 135.671875 219.097656 136.117188 223.78125 137.007812 228.023438 C 137.902344 232.261719 139.144531 235.605469 140.742188 238.054688 " fill-opacity="1" fill-rule="nonzero"/><path fill="#04473f" d="M 220.660156 203.191406 L 220.660156 247.425781 L 239.316406 247.425781 L 239.316406 179.914062 L 224.058594 179.914062 C 222.089844 184.078125 219.378906 187.582031 215.90625 190.421875 C 212.433594 193.253906 207.558594 195.6875 201.28125 197.710938 L 201.28125 212.832031 C 205.539062 211.53125 209.078125 210.171875 211.902344 208.757812 C 214.722656 207.339844 217.640625 205.476562 220.660156 203.191406 " fill-opacity="1" fill-rule="nonzero"/></svg>