<svg xmlns="http://www.w3.org/2000/svg" xmlns:xlink="http://www.w3.org/1999/xlink" width="500" zoomAndPan="magnify" viewBox="0 0 375 374.999991" height="500" preserveAspectRatio="xMidYMid meet" version="1.0"><defs><clipPath id="f9a8306a8d"><path d="M 134 83.113281 L 242 83.113281 L 242 197 L 134 197 Z M 134 83.113281 " clip-rule="nonzero"/></clipPath><clipPath id="8b15a63862"><path d="M 88.242188 197 L 287.742188 197 L 287.742188 302.113281 L 88.242188 302.113281 Z M 88.242188 197 " clip-rule="nonzero"/></clipPath></defs><rect x="-37.5" width="450" fill="#ffffff" y="-37.499999" height="449.999989" fill-opacity="1"/><rect x="-37.5" width="450" fill="#ffffff" y="-37.499999" height="449.999989" fill-opacity="1"/><g clip-path="url(#f9a8306a8d)"><path fill="#04473f" d="M 187.980469 196.660156 C 217.285156 196.660156 241.121094 165.558594 241.121094 136.257812 C 241.121094 106.957031 217.285156 83.113281 187.980469 83.113281 C 158.675781 83.113281 134.835938 106.957031 134.835938 136.257812 C 134.839844 165.554688 158.675781 196.660156 187.980469 196.660156 Z M 187.980469 196.660156 " fill-opacity="1" fill-rule="nonzero"/></g><g clip-path="url(#8b15a63862)"><path fill="#04473f" d="M 227.875 197.207031 C 217.566406 205.058594 204.707031 209.730469 190.777344 209.730469 L 185.183594 209.730469 C 171.25 209.730469 158.386719 205.058594 148.082031 197.207031 C 114.425781 202.648438 88.722656 231.820312 88.722656 267.011719 C 88.722656 286.339844 133.160156 302.019531 187.980469 302.019531 C 242.796875 302.019531 287.234375 286.339844 287.234375 267.011719 C 287.234375 231.820312 261.53125 202.648438 227.875 197.207031 Z M 227.875 197.207031 " fill-opacity="1" fill-rule="nonzero"/></g></svg>