<svg xmlns="http://www.w3.org/2000/svg" xmlns:xlink="http://www.w3.org/1999/xlink" width="500" zoomAndPan="magnify" viewBox="0 0 375 374.999991" height="500" preserveAspectRatio="xMidYMid meet" version="1.0"><defs><clipPath id="63b5a756d6"><path d="M 78.664062 131 L 273 131 L 273 302.273438 L 78.664062 302.273438 Z M 78.664062 131 " clip-rule="nonzero"/></clipPath><clipPath id="f0e4336c49"><path d="M 102 101.273438 L 296.164062 101.273438 L 296.164062 280 L 102 280 Z M 102 101.273438 " clip-rule="nonzero"/></clipPath></defs><rect x="-37.5" width="450" fill="#ffffff" y="-37.499999" height="449.999989" fill-opacity="1"/><rect x="-37.5" width="450" fill="#ffffff" y="-37.499999" height="449.999989" fill-opacity="1"/><g clip-path="url(#63b5a756d6)"><path fill="#04473f" d="M 88.867188 302.003906 L 262.320312 302.003906 C 267.929688 302.003906 272.519531 297.414062 272.519531 291.800781 L 272.519531 286.699219 L 265.71875 286.699219 L 265.71875 291.800781 C 265.71875 293.671875 264.1875 295.203125 262.320312 295.203125 L 88.867188 295.203125 C 86.996094 295.203125 85.464844 293.671875 85.464844 291.800781 L 85.464844 142.15625 C 85.464844 140.289062 86.996094 138.757812 88.867188 138.757812 L 95.667969 138.757812 L 95.667969 131.957031 L 88.867188 131.957031 C 83.253906 131.957031 78.664062 136.546875 78.664062 142.15625 L 78.664062 291.800781 C 78.664062 297.414062 83.253906 302.003906 88.867188 302.003906 Z M 88.867188 302.003906 " fill-opacity="1" fill-rule="nonzero"/></g><path fill="#04473f" d="M 158.589844 225.484375 L 206.203125 225.484375 L 206.203125 177.867188 L 158.589844 177.867188 Z M 158.589844 225.484375 " fill-opacity="1" fill-rule="nonzero"/><path fill="#04473f" d="M 124.578125 211.878906 L 138.183594 211.878906 L 138.183594 225.484375 L 124.578125 225.484375 Z M 124.578125 211.878906 " fill-opacity="1" fill-rule="nonzero"/><path fill="#04473f" d="M 124.578125 143.859375 L 138.183594 143.859375 L 138.183594 157.460938 L 124.578125 157.460938 Z M 124.578125 143.859375 " fill-opacity="1" fill-rule="nonzero"/><path fill="#04473f" d="M 124.578125 177.867188 L 138.183594 177.867188 L 138.183594 191.472656 L 124.578125 191.472656 Z M 124.578125 177.867188 " fill-opacity="1" fill-rule="nonzero"/><path fill="#04473f" d="M 192.597656 143.859375 L 206.203125 143.859375 L 206.203125 157.460938 L 192.597656 157.460938 Z M 192.597656 143.859375 " fill-opacity="1" fill-rule="nonzero"/><path fill="#04473f" d="M 260.617188 211.878906 L 274.222656 211.878906 L 274.222656 225.484375 L 260.617188 225.484375 Z M 260.617188 211.878906 " fill-opacity="1" fill-rule="nonzero"/><path fill="#04473f" d="M 260.617188 245.890625 L 274.222656 245.890625 L 274.222656 259.492188 L 260.617188 259.492188 Z M 260.617188 245.890625 " fill-opacity="1" fill-rule="nonzero"/><path fill="#04473f" d="M 260.617188 177.867188 L 274.222656 177.867188 L 274.222656 191.472656 L 260.617188 191.472656 Z M 260.617188 177.867188 " fill-opacity="1" fill-rule="nonzero"/><path fill="#04473f" d="M 260.617188 143.859375 L 274.222656 143.859375 L 274.222656 157.460938 L 260.617188 157.460938 Z M 260.617188 143.859375 " fill-opacity="1" fill-rule="nonzero"/><g clip-path="url(#f0e4336c49)"><path fill="#04473f" d="M 286.125 101.347656 L 112.675781 101.347656 C 107.0625 101.347656 102.472656 105.9375 102.472656 111.550781 L 102.472656 240.445312 L 111.144531 236.027344 C 112.84375 235.175781 114.886719 235.855469 115.734375 237.554688 C 116.585938 239.257812 115.90625 241.296875 114.203125 242.148438 L 110.125 244.1875 L 201.101562 244.1875 C 206.710938 244.1875 211.304688 248.78125 211.304688 254.390625 L 211.304688 262.894531 C 211.304688 264.765625 209.773438 266.292969 207.902344 266.292969 C 206.03125 266.292969 204.5 264.765625 204.5 262.894531 L 204.5 254.390625 C 204.5 252.519531 202.972656 250.988281 201.101562 250.988281 L 110.125 250.988281 L 114.203125 253.03125 C 115.90625 253.882812 116.585938 255.921875 115.734375 257.621094 C 114.886719 259.324219 112.84375 260.003906 111.144531 259.152344 L 102.472656 254.730469 L 102.472656 269.695312 C 102.472656 275.308594 107.0625 279.898438 112.675781 279.898438 L 286.125 279.898438 C 291.738281 279.898438 296.328125 275.308594 296.328125 269.695312 L 296.328125 111.550781 C 296.328125 105.9375 291.738281 101.347656 286.125 101.347656 Z M 144.984375 225.484375 C 144.984375 229.222656 141.921875 232.285156 138.183594 232.285156 L 124.578125 232.285156 C 120.835938 232.285156 117.777344 229.222656 117.777344 225.484375 L 117.777344 211.878906 C 117.777344 208.136719 120.835938 205.078125 124.578125 205.078125 L 138.183594 205.078125 C 141.921875 205.078125 144.984375 208.136719 144.984375 211.878906 Z M 144.984375 191.472656 C 144.984375 195.214844 141.921875 198.273438 138.183594 198.273438 L 124.578125 198.273438 C 120.835938 198.273438 117.777344 195.214844 117.777344 191.472656 L 117.777344 177.867188 C 117.777344 174.128906 120.835938 171.066406 124.578125 171.066406 L 138.183594 171.066406 C 141.921875 171.066406 144.984375 174.128906 144.984375 177.867188 Z M 144.984375 157.460938 C 144.984375 161.203125 141.921875 164.265625 138.183594 164.265625 L 124.578125 164.265625 C 120.835938 164.265625 117.777344 161.203125 117.777344 157.460938 L 117.777344 143.859375 C 117.777344 140.117188 120.835938 137.058594 124.578125 137.058594 L 138.183594 137.058594 C 141.921875 137.058594 144.984375 140.117188 144.984375 143.859375 Z M 213.003906 225.484375 C 213.003906 229.222656 209.941406 232.285156 206.203125 232.285156 L 158.589844 232.285156 C 154.847656 232.285156 151.785156 229.222656 151.785156 225.484375 L 151.785156 177.867188 C 151.785156 174.128906 154.847656 171.066406 158.589844 171.066406 L 206.203125 171.066406 C 209.941406 171.066406 213.003906 174.128906 213.003906 177.867188 Z M 151.785156 157.460938 L 151.785156 143.859375 C 151.785156 140.117188 154.847656 137.058594 158.589844 137.058594 L 172.191406 137.058594 C 175.933594 137.058594 178.992188 140.117188 178.992188 143.859375 L 178.992188 157.460938 C 178.992188 161.203125 175.933594 164.265625 172.191406 164.265625 L 158.589844 164.265625 C 154.847656 164.265625 151.785156 161.203125 151.785156 157.460938 Z M 213.003906 157.460938 C 213.003906 161.203125 209.941406 164.265625 206.203125 164.265625 L 192.597656 164.265625 C 188.855469 164.265625 185.796875 161.203125 185.796875 157.460938 L 185.796875 143.859375 C 185.796875 140.117188 188.855469 137.058594 192.597656 137.058594 L 206.203125 137.058594 C 209.941406 137.058594 213.003906 140.117188 213.003906 143.859375 Z M 247.015625 259.492188 C 247.015625 263.234375 243.953125 266.292969 240.210938 266.292969 L 226.609375 266.292969 C 222.867188 266.292969 219.804688 263.234375 219.804688 259.492188 L 219.804688 245.890625 C 219.804688 242.148438 222.867188 239.085938 226.609375 239.085938 L 240.210938 239.085938 C 243.953125 239.085938 247.015625 242.148438 247.015625 245.890625 Z M 247.015625 225.484375 C 247.015625 229.222656 243.953125 232.285156 240.210938 232.285156 L 226.609375 232.285156 C 222.867188 232.285156 219.804688 229.222656 219.804688 225.484375 L 219.804688 211.878906 C 219.804688 208.136719 222.867188 205.078125 226.609375 205.078125 L 240.210938 205.078125 C 243.953125 205.078125 247.015625 208.136719 247.015625 211.878906 Z M 247.015625 191.472656 C 247.015625 195.214844 243.953125 198.273438 240.210938 198.273438 L 226.609375 198.273438 C 222.867188 198.273438 219.804688 195.214844 219.804688 191.472656 L 219.804688 177.867188 C 219.804688 174.128906 222.867188 171.066406 226.609375 171.066406 L 240.210938 171.066406 C 243.953125 171.066406 247.015625 174.128906 247.015625 177.867188 Z M 247.015625 157.460938 C 247.015625 161.203125 243.953125 164.265625 240.210938 164.265625 L 226.609375 164.265625 C 222.867188 164.265625 219.804688 161.203125 219.804688 157.460938 L 219.804688 143.859375 C 219.804688 140.117188 222.867188 137.058594 226.609375 137.058594 L 240.210938 137.058594 C 243.953125 137.058594 247.015625 140.117188 247.015625 143.859375 Z M 281.023438 259.492188 C 281.023438 263.234375 277.964844 266.292969 274.222656 266.292969 L 260.617188 266.292969 C 256.875 266.292969 253.816406 263.234375 253.816406 259.492188 L 253.816406 245.890625 C 253.816406 242.148438 256.875 239.085938 260.617188 239.085938 L 274.222656 239.085938 C 277.964844 239.085938 281.023438 242.148438 281.023438 245.890625 Z M 281.023438 225.484375 C 281.023438 229.222656 277.964844 232.285156 274.222656 232.285156 L 260.617188 232.285156 C 256.875 232.285156 253.816406 229.222656 253.816406 225.484375 L 253.816406 211.878906 C 253.816406 208.136719 256.875 205.078125 260.617188 205.078125 L 274.222656 205.078125 C 277.964844 205.078125 281.023438 208.136719 281.023438 211.878906 Z M 281.023438 191.472656 C 281.023438 195.214844 277.964844 198.273438 274.222656 198.273438 L 260.617188 198.273438 C 256.875 198.273438 253.816406 195.214844 253.816406 191.472656 L 253.816406 177.867188 C 253.816406 174.128906 256.875 171.066406 260.617188 171.066406 L 274.222656 171.066406 C 277.964844 171.066406 281.023438 174.128906 281.023438 177.867188 Z M 281.023438 157.460938 C 281.023438 161.203125 277.964844 164.265625 274.222656 164.265625 L 260.617188 164.265625 C 256.875 164.265625 253.816406 161.203125 253.816406 157.460938 L 253.816406 143.859375 C 253.816406 140.117188 256.875 137.058594 260.617188 137.058594 L 274.222656 137.058594 C 277.964844 137.058594 281.023438 140.117188 281.023438 143.859375 Z M 289.527344 123.453125 L 109.273438 123.453125 L 109.273438 111.550781 C 109.273438 109.679688 110.804688 108.148438 112.675781 108.148438 L 119.476562 108.148438 L 119.476562 113.25 C 119.476562 115.121094 121.007812 116.652344 122.878906 116.652344 C 124.746094 116.652344 126.277344 115.121094 126.277344 113.25 L 126.277344 108.148438 L 136.480469 108.148438 L 136.480469 113.25 C 136.480469 115.121094 138.011719 116.652344 139.882812 116.652344 C 141.753906 116.652344 143.285156 115.121094 143.285156 113.25 L 143.285156 108.148438 L 153.488281 108.148438 L 153.488281 113.25 C 153.488281 115.121094 155.015625 116.652344 156.886719 116.652344 C 158.757812 116.652344 160.289062 115.121094 160.289062 113.25 L 160.289062 108.148438 L 170.492188 108.148438 L 170.492188 113.25 C 170.492188 115.121094 172.023438 116.652344 173.890625 116.652344 C 175.761719 116.652344 177.292969 115.121094 177.292969 113.25 L 177.292969 108.148438 L 187.496094 108.148438 L 187.496094 113.25 C 187.496094 115.121094 189.027344 116.652344 190.898438 116.652344 C 192.769531 116.652344 194.296875 115.121094 194.296875 113.25 L 194.296875 108.148438 L 204.5 108.148438 L 204.5 113.25 C 204.5 115.121094 206.03125 116.652344 207.902344 116.652344 C 209.773438 116.652344 211.304688 115.121094 211.304688 113.25 L 211.304688 108.148438 L 221.507812 108.148438 L 221.507812 113.25 C 221.507812 115.121094 223.035156 116.652344 224.90625 116.652344 C 226.777344 116.652344 228.308594 115.121094 228.308594 113.25 L 228.308594 108.148438 L 238.511719 108.148438 L 238.511719 113.25 C 238.511719 115.121094 240.042969 116.652344 241.914062 116.652344 C 243.78125 116.652344 245.3125 115.121094 245.3125 113.25 L 245.3125 108.148438 L 255.515625 108.148438 L 255.515625 113.25 C 255.515625 115.121094 257.046875 116.652344 258.917969 116.652344 C 260.789062 116.652344 262.320312 115.121094 262.320312 113.25 L 262.320312 108.148438 L 272.519531 108.148438 L 272.519531 113.25 C 272.519531 115.121094 274.050781 116.652344 275.921875 116.652344 C 277.792969 116.652344 279.324219 115.121094 279.324219 113.25 L 279.324219 108.148438 L 286.125 108.148438 C 287.996094 108.148438 289.527344 109.679688 289.527344 111.550781 Z M 289.527344 123.453125 " fill-opacity="1" fill-rule="nonzero"/></g><path fill="#04473f" d="M 226.609375 143.859375 L 240.210938 143.859375 L 240.210938 157.460938 L 226.609375 157.460938 Z M 226.609375 143.859375 " fill-opacity="1" fill-rule="nonzero"/><path fill="#04473f" d="M 226.609375 245.890625 L 240.210938 245.890625 L 240.210938 259.492188 L 226.609375 259.492188 Z M 226.609375 245.890625 " fill-opacity="1" fill-rule="nonzero"/><path fill="#04473f" d="M 226.609375 211.878906 L 240.210938 211.878906 L 240.210938 225.484375 L 226.609375 225.484375 Z M 226.609375 211.878906 " fill-opacity="1" fill-rule="nonzero"/><path fill="#04473f" d="M 158.589844 143.859375 L 172.191406 143.859375 L 172.191406 157.460938 L 158.589844 157.460938 Z M 158.589844 143.859375 " fill-opacity="1" fill-rule="nonzero"/><path fill="#04473f" d="M 226.609375 177.867188 L 240.210938 177.867188 L 240.210938 191.472656 L 226.609375 191.472656 Z M 226.609375 177.867188 " fill-opacity="1" fill-rule="nonzero"/></svg>