<svg xmlns="http://www.w3.org/2000/svg" xmlns:xlink="http://www.w3.org/1999/xlink" width="500" zoomAndPan="magnify" viewBox="0 0 375 374.999991" height="500" preserveAspectRatio="xMidYMid meet" version="1.0"><defs><clipPath id="65457f2464"><path d="M 86.511719 86.511719 L 288.261719 86.511719 L 288.261719 288.261719 L 86.511719 288.261719 Z M 86.511719 86.511719 " clip-rule="nonzero"/></clipPath></defs><rect x="-37.5" width="450" fill="#ffffff" y="-37.499999" height="449.999989" fill-opacity="1"/><rect x="-37.5" width="450" fill="#ffffff" y="-37.499999" height="449.999989" fill-opacity="1"/><path fill="#04473f" d="M 252.652344 229.847656 L 167.953125 229.847656 C 155.378906 229.847656 145.148438 240.078125 145.148438 252.652344 C 145.148438 265.226562 155.378906 275.457031 167.953125 275.457031 L 252.652344 275.457031 C 265.226562 275.457031 275.457031 265.226562 275.457031 252.652344 C 275.457031 240.078125 265.226562 229.847656 252.652344 229.847656 Z M 226.589844 262.425781 C 226.589844 266.019531 223.667969 268.941406 220.074219 268.941406 C 216.484375 268.941406 213.558594 266.019531 213.558594 262.425781 C 213.558594 258.832031 216.484375 255.910156 220.074219 255.910156 C 223.667969 255.910156 226.589844 258.832031 226.589844 262.425781 Z M 194.015625 262.425781 C 194.015625 258.832031 196.9375 255.910156 200.53125 255.910156 C 204.125 255.910156 207.046875 258.832031 207.046875 262.425781 C 207.046875 266.019531 204.125 268.941406 200.53125 268.941406 C 196.9375 268.941406 194.015625 266.019531 194.015625 262.425781 Z M 216.816406 242.878906 C 216.816406 246.472656 213.894531 249.394531 210.304688 249.394531 C 206.710938 249.394531 203.789062 246.472656 203.789062 242.878906 C 203.789062 239.285156 206.710938 236.363281 210.304688 236.363281 C 213.894531 236.363281 216.816406 239.285156 216.816406 242.878906 Z M 230.109375 249.394531 L 221.523438 249.394531 C 222.644531 247.46875 223.332031 245.261719 223.332031 242.878906 C 223.332031 240.496094 222.644531 238.289062 221.523438 236.363281 L 236.726562 236.363281 C 233.222656 239.789062 230.839844 244.320312 230.109375 249.394531 Z M 199.082031 236.363281 C 197.964844 238.289062 197.273438 240.496094 197.273438 242.878906 C 197.273438 245.261719 197.964844 247.46875 199.082031 249.394531 L 190.496094 249.394531 C 189.765625 244.320312 187.382812 239.789062 183.878906 236.363281 Z M 151.664062 252.652344 C 151.664062 243.671875 158.972656 236.363281 167.953125 236.363281 C 175.816406 236.363281 182.398438 241.96875 183.914062 249.394531 L 177.128906 249.394531 C 175.777344 245.613281 172.195312 242.878906 167.953125 242.878906 C 162.566406 242.878906 158.179688 247.265625 158.179688 252.652344 C 158.179688 258.039062 162.566406 262.425781 167.953125 262.425781 C 172.195312 262.425781 175.777344 259.691406 177.128906 255.910156 L 183.914062 255.910156 C 182.398438 263.332031 175.820312 268.941406 167.953125 268.941406 C 158.972656 268.941406 151.664062 261.632812 151.664062 252.652344 Z M 171.210938 252.652344 C 171.210938 254.445312 169.75 255.910156 167.953125 255.910156 C 166.160156 255.910156 164.695312 254.445312 164.695312 252.652344 C 164.695312 250.855469 166.160156 249.394531 167.953125 249.394531 C 169.75 249.394531 171.210938 250.855469 171.210938 252.652344 Z M 187.664062 264.0625 C 187.890625 265.824219 188.453125 267.46875 189.3125 268.941406 L 183.882812 268.941406 C 185.355469 267.5 186.625 265.859375 187.664062 264.0625 Z M 231.296875 268.941406 C 232.152344 267.46875 232.71875 265.824219 232.941406 264.0625 C 233.984375 265.855469 235.253906 267.496094 236.726562 268.941406 Z M 252.652344 268.941406 C 244.789062 268.941406 238.207031 263.332031 236.691406 255.910156 L 243.476562 255.910156 C 244.828125 259.691406 248.410156 262.425781 252.652344 262.425781 C 258.039062 262.425781 262.425781 258.039062 262.425781 252.652344 C 262.425781 247.265625 258.039062 242.878906 252.652344 242.878906 C 248.410156 242.878906 244.828125 245.613281 243.476562 249.394531 L 236.691406 249.394531 C 238.207031 241.96875 244.785156 236.363281 252.652344 236.363281 C 261.632812 236.363281 268.941406 243.671875 268.941406 252.652344 C 268.941406 261.632812 261.632812 268.941406 252.652344 268.941406 Z M 249.394531 252.652344 C 249.394531 250.855469 250.855469 249.394531 252.652344 249.394531 C 254.445312 249.394531 255.910156 250.855469 255.910156 252.652344 C 255.910156 254.445312 254.445312 255.910156 252.652344 255.910156 C 250.855469 255.910156 249.394531 254.445312 249.394531 252.652344 Z M 249.394531 252.652344 " fill-opacity="1" fill-rule="nonzero"/><g clip-path="url(#65457f2464)"><path fill="#04473f" d="M 281.96875 232.113281 L 281.96875 190.757812 C 281.96875 183.570312 276.125 177.726562 268.941406 177.726562 L 265.039062 177.726562 L 257.800781 145.148438 L 259.882812 145.148438 C 264.875 145.148438 268.941406 141.085938 268.941406 136.089844 C 268.941406 135.355469 268.847656 134.617188 268.667969 133.890625 L 263.5625 113.460938 C 262.472656 109.105469 258.574219 106.058594 254.078125 106.058594 L 184.242188 106.058594 C 180.648438 106.058594 177.726562 108.980469 177.726562 112.574219 L 177.726562 119.089844 C 177.726562 122.535156 180.425781 125.335938 183.816406 125.5625 L 178.109375 171.210938 L 171.210938 171.210938 L 171.210938 132.121094 C 171.210938 128.527344 168.289062 125.605469 164.695312 125.605469 L 164.695312 102.800781 C 164.695312 97.414062 160.3125 93.027344 154.921875 93.027344 L 151.664062 93.027344 L 151.664062 86.511719 L 145.148438 86.511719 L 145.148438 106.058594 L 151.664062 106.058594 L 151.664062 99.542969 L 154.921875 99.542969 C 156.71875 99.542969 158.179688 101.007812 158.179688 102.800781 L 158.179688 125.605469 C 154.585938 125.605469 151.664062 128.527344 151.664062 132.121094 L 151.664062 171.210938 L 138.636719 171.210938 C 135.042969 171.210938 132.121094 174.132812 132.121094 177.726562 L 132.121094 236.363281 L 119.089844 236.363281 L 119.089844 210.304688 C 119.089844 206.710938 116.167969 203.789062 112.574219 203.789062 L 106.058594 203.789062 C 102.464844 203.789062 99.542969 206.710938 99.542969 210.304688 L 99.542969 251.539062 C 99.542969 256.449219 96.214844 260.714844 91.449219 261.90625 C 88.542969 262.628906 86.511719 265.230469 86.511719 268.226562 L 86.511719 275.457031 C 86.511719 279.046875 89.433594 281.96875 93.027344 281.96875 L 112.574219 281.96875 C 116.167969 281.96875 119.089844 279.046875 119.089844 275.457031 L 119.089844 255.910156 L 132.285156 255.910156 C 133.9375 274.144531 149.292969 288.484375 167.953125 288.484375 L 252.652344 288.484375 C 272.410156 288.484375 288.484375 272.410156 288.484375 252.652344 C 288.484375 245.007812 286.0625 237.9375 281.96875 232.113281 Z M 112.574219 275.457031 L 93.027344 275.457031 L 93.027344 268.222656 C 100.699219 266.304688 106.058594 259.441406 106.058594 251.535156 L 106.058594 210.304688 L 112.574219 210.304688 Z M 275.457031 190.757812 L 275.457031 225.03125 C 273.457031 223.378906 271.265625 221.964844 268.941406 220.773438 L 268.941406 184.242188 C 272.53125 184.242188 275.457031 187.164062 275.457031 190.757812 Z M 262.425781 184.242188 L 262.425781 218.207031 C 259.3125 217.324219 256.042969 216.816406 252.652344 216.816406 L 223.332031 216.816406 L 223.332031 184.242188 Z M 258.367188 177.726562 L 229.847656 177.726562 L 229.847656 125.605469 L 246.78125 125.605469 Z M 184.242188 112.574219 L 254.078125 112.574219 C 255.578125 112.574219 256.878906 113.589844 257.238281 115.042969 L 262.34375 135.46875 C 262.398438 135.675781 262.425781 135.886719 262.425781 136.089844 C 262.425781 137.496094 261.285156 138.636719 259.878906 138.636719 L 256.347656 138.636719 L 253.140625 124.191406 C 252.472656 121.1875 249.859375 119.089844 246.78125 119.089844 L 184.242188 119.089844 Z M 190.375 125.605469 L 223.332031 125.605469 L 223.332031 177.726562 C 219.738281 177.726562 216.816406 180.648438 216.816406 184.242188 L 216.816406 190.757812 L 197.273438 190.757812 L 197.273438 175.816406 L 205.417969 167.671875 L 211.257812 173.515625 L 215.863281 168.90625 L 199.574219 152.621094 L 194.96875 157.226562 L 200.808594 163.066406 L 192.667969 171.210938 L 184.675781 171.210938 Z M 184.242188 177.726562 L 190.757812 177.726562 L 190.757812 190.757812 L 184.242188 190.757812 Z M 158.179688 132.121094 L 164.695312 132.121094 L 164.695312 171.210938 L 158.179688 171.210938 Z M 177.746094 177.726562 L 177.726562 190.757812 C 177.726562 194.351562 180.648438 197.273438 184.242188 197.273438 L 216.816406 197.273438 L 216.816406 216.816406 L 167.953125 216.816406 C 155.835938 216.816406 145.125 222.878906 138.636719 232.113281 L 138.636719 177.726562 Z M 119.089844 242.878906 L 133.507812 242.878906 C 132.910156 244.980469 132.488281 247.15625 132.28125 249.394531 L 119.089844 249.394531 Z M 252.652344 281.96875 L 167.953125 281.96875 C 151.789062 281.96875 138.636719 268.816406 138.636719 252.652344 C 138.636719 236.488281 151.789062 223.332031 167.953125 223.332031 L 252.652344 223.332031 C 268.816406 223.332031 281.96875 236.488281 281.96875 252.652344 C 281.96875 268.816406 268.816406 281.96875 252.652344 281.96875 Z M 252.652344 281.96875 " fill-opacity="1" fill-rule="nonzero"/></g><path fill="#04473f" d="M 236.363281 210.304688 L 249.394531 210.304688 C 252.988281 210.304688 255.910156 207.378906 255.910156 203.789062 L 255.910156 197.273438 C 255.910156 193.679688 252.988281 190.757812 249.394531 190.757812 L 236.363281 190.757812 C 232.769531 190.757812 229.847656 193.679688 229.847656 197.273438 L 229.847656 203.789062 C 229.847656 207.378906 232.769531 210.304688 236.363281 210.304688 Z M 236.363281 197.273438 L 249.394531 197.273438 L 249.398438 203.789062 L 236.363281 203.789062 Z M 236.363281 197.273438 " fill-opacity="1" fill-rule="nonzero"/><path fill="#04473f" d="M 151.664062 203.789062 L 164.695312 203.789062 C 168.289062 203.789062 171.210938 200.867188 171.210938 197.273438 L 171.210938 190.757812 C 171.210938 187.164062 168.289062 184.242188 164.695312 184.242188 L 151.664062 184.242188 C 148.074219 184.242188 145.148438 187.164062 145.148438 190.757812 L 145.148438 197.273438 C 145.148438 200.867188 148.074219 203.789062 151.664062 203.789062 Z M 151.664062 190.757812 L 164.695312 190.757812 L 164.699219 197.273438 L 151.664062 197.273438 Z M 151.664062 190.757812 " fill-opacity="1" fill-rule="nonzero"/></svg>