<svg xmlns="http://www.w3.org/2000/svg" xmlns:xlink="http://www.w3.org/1999/xlink" width="500" zoomAndPan="magnify" viewBox="0 0 375 374.999991" height="500" preserveAspectRatio="xMidYMid meet" version="1.0"><defs><clipPath id="5d5d95afb7"><path d="M 75.140625 195 L 136 195 L 136 261 L 75.140625 261 Z M 75.140625 195 " clip-rule="nonzero"/></clipPath><clipPath id="b93eb92d8a"><path d="M 75.140625 114 L 136 114 L 136 179 L 75.140625 179 Z M 75.140625 114 " clip-rule="nonzero"/></clipPath><clipPath id="ca8507a24d"><path d="M 114 75 L 179 75 L 179 136 L 114 136 Z M 114 75 " clip-rule="nonzero"/></clipPath><clipPath id="29b9b1ea24"><path d="M 196 75 L 300 75 L 300 179 L 196 179 Z M 196 75 " clip-rule="nonzero"/></clipPath></defs><rect x="-37.5" width="450" fill="#ffffff" y="-37.499999" height="449.999989" fill-opacity="1"/><rect x="-37.5" width="450" fill="#ffffff" y="-37.499999" height="449.999989" fill-opacity="1"/><g clip-path="url(#5d5d95afb7)"><path fill="#04473f" d="M 123.136719 195.976562 L 75.183594 195.976562 C 77.0625 220.539062 86.839844 242.910156 101.984375 260.566406 L 135.882812 226.671875 C 129.183594 217.90625 124.671875 207.421875 123.136719 195.976562 Z M 123.136719 195.976562 " fill-opacity="1" fill-rule="nonzero"/></g><g clip-path="url(#b93eb92d8a)"><path fill="#04473f" d="M 123.136719 178.640625 C 124.671875 167.199219 129.183594 156.710938 135.882812 147.949219 L 101.984375 114.054688 C 86.839844 131.710938 77.0625 154.082031 75.183594 178.640625 Z M 123.136719 178.640625 " fill-opacity="1" fill-rule="nonzero"/></g><g clip-path="url(#ca8507a24d)"><path fill="#04473f" d="M 148.140625 135.691406 C 156.902344 128.992188 167.390625 124.484375 178.832031 122.949219 L 178.832031 74.992188 C 154.273438 76.871094 131.898438 86.648438 114.242188 101.796875 Z M 148.140625 135.691406 " fill-opacity="1" fill-rule="nonzero"/></g><path fill="#04473f" d="M 251.863281 195.976562 C 247.601562 227.730469 220.398438 252.320312 187.5 252.320312 C 172.699219 252.320312 159.078125 247.289062 148.140625 238.929688 L 114.242188 272.824219 C 133.957031 289.738281 159.546875 299.992188 187.5 299.992188 C 246.714844 299.992188 295.371094 254.074219 299.816406 195.976562 Z M 251.863281 195.976562 " fill-opacity="1" fill-rule="nonzero"/><g clip-path="url(#29b9b1ea24)"><path fill="#04473f" d="M 196.167969 122.949219 C 225.078125 126.828125 247.984375 149.734375 251.863281 178.640625 L 299.816406 178.640625 C 295.589844 123.410156 251.398438 79.21875 196.167969 74.992188 Z M 196.167969 122.949219 " fill-opacity="1" fill-rule="nonzero"/></g><path fill="#04473f" d="M 187.5 234.984375 C 213.789062 234.984375 235.171875 213.597656 235.171875 187.308594 C 235.171875 161.023438 213.789062 139.636719 187.5 139.636719 C 161.210938 139.636719 139.828125 161.023438 139.828125 187.308594 C 139.828125 213.597656 161.210938 234.984375 187.5 234.984375 Z M 183.167969 165.640625 L 217.835938 165.640625 L 217.835938 182.976562 L 183.167969 182.976562 Z M 183.167969 191.644531 L 217.835938 191.644531 L 217.835938 208.980469 L 183.167969 208.980469 Z M 157.164062 165.640625 L 174.5 165.640625 L 174.5 182.976562 L 157.164062 182.976562 Z M 157.164062 191.644531 L 174.5 191.644531 L 174.5 208.980469 L 157.164062 208.980469 Z M 157.164062 191.644531 " fill-opacity="1" fill-rule="nonzero"/></svg>