<svg xmlns="http://www.w3.org/2000/svg" xmlns:xlink="http://www.w3.org/1999/xlink" width="500" zoomAndPan="magnify" viewBox="0 0 375 374.999991" height="500" preserveAspectRatio="xMidYMid meet" version="1.0"><defs><clipPath id="a349fb81fc"><path d="M 75 60.90625 L 314.25 60.90625 L 314.25 300 L 75 300 Z M 75 60.90625 " clip-rule="nonzero"/></clipPath></defs><rect x="-37.5" width="450" fill="#ffffff" y="-37.499999" height="449.999989" fill-opacity="1"/><rect x="-37.5" width="450" fill="#ffffff" y="-37.499999" height="449.999989" fill-opacity="1"/><g clip-path="url(#a349fb81fc)"><path fill="#04473f" d="M 260.226562 184.0625 C 258.417969 218.707031 229.683594 246.132812 194.707031 246.132812 C 158.417969 246.132812 128.859375 216.738281 128.859375 180.449219 C 128.859375 163.699219 135.265625 148.429688 145.445312 136.769531 L 191.914062 182.746094 L 191.914062 182.910156 L 192.078125 182.910156 L 192.078125 183.074219 L 192.242188 183.074219 L 192.410156 183.238281 L 192.574219 183.402344 L 192.738281 183.402344 L 192.738281 183.570312 L 193.066406 183.570312 L 193.066406 183.734375 L 193.394531 183.734375 L 193.394531 183.898438 L 194.050781 183.898438 L 194.050781 184.0625 Z M 194.542969 299.992188 C 185.675781 299.992188 178.449219 292.929688 178.449219 283.898438 C 178.449219 276.34375 183.707031 269.941406 190.765625 268.300781 L 190.765625 250.402344 C 192.078125 250.402344 193.394531 250.402344 194.542969 250.402344 C 195.855469 250.402344 197.007812 250.402344 198.320312 250.402344 L 198.320312 268.300781 C 205.378906 269.941406 210.636719 276.34375 210.636719 283.898438 C 210.636719 292.929688 203.410156 299.992188 194.542969 299.992188 Z M 279.109375 95.882812 C 285.515625 102.285156 285.515625 112.464844 279.109375 118.707031 C 273.691406 124.125 265.480469 124.945312 259.242188 121.003906 L 246.597656 133.8125 C 244.953125 131.84375 243.148438 130.035156 241.34375 128.394531 L 253.984375 115.75 C 250.210938 109.511719 250.867188 101.300781 256.285156 95.882812 C 262.6875 89.640625 272.871094 89.640625 279.109375 95.882812 Z M 314.085938 180.449219 C 314.085938 189.316406 307.023438 196.539062 297.992188 196.539062 C 290.441406 196.539062 284.035156 191.285156 282.394531 184.226562 L 264.496094 184.226562 C 264.496094 182.910156 264.496094 181.761719 264.496094 180.449219 C 264.496094 179.300781 264.496094 177.984375 264.496094 176.671875 L 282.394531 176.671875 C 284.035156 169.609375 290.441406 164.355469 297.992188 164.355469 C 307.023438 164.355469 314.085938 171.582031 314.085938 180.449219 Z M 279.109375 265.015625 C 272.871094 271.417969 262.6875 271.417969 256.285156 265.015625 C 250.867188 259.597656 250.210938 251.386719 253.984375 245.144531 L 241.34375 232.503906 C 243.148438 230.859375 244.953125 229.054688 246.597656 227.246094 L 259.242188 239.890625 C 265.480469 236.113281 273.691406 236.773438 279.109375 242.191406 C 285.515625 248.59375 285.515625 258.773438 279.109375 265.015625 Z M 109.976562 265.015625 C 103.734375 258.773438 103.734375 248.59375 109.976562 242.191406 C 115.394531 236.773438 123.605469 236.113281 129.84375 239.890625 L 142.488281 227.246094 C 144.132812 229.054688 145.9375 230.859375 147.90625 232.503906 L 135.101562 245.144531 C 139.039062 251.386719 138.21875 259.597656 132.800781 265.015625 C 126.5625 271.417969 116.378906 271.417969 109.976562 265.015625 Z M 75 180.449219 C 75 171.582031 82.226562 164.355469 91.09375 164.355469 C 98.808594 164.355469 105.050781 169.609375 106.855469 176.671875 L 124.753906 176.671875 C 124.589844 177.984375 124.589844 179.300781 124.589844 180.449219 C 124.589844 181.761719 124.589844 182.910156 124.753906 184.226562 L 106.855469 184.226562 C 105.050781 191.285156 98.808594 196.539062 91.09375 196.539062 C 82.226562 196.539062 75 189.316406 75 180.449219 Z M 109.976562 95.882812 C 116.378906 89.640625 126.5625 89.640625 132.800781 95.882812 C 138.21875 101.300781 139.039062 109.511719 135.101562 115.75 L 147.90625 128.394531 C 145.9375 130.035156 144.132812 131.84375 142.488281 133.8125 L 129.84375 121.003906 C 123.605469 124.945312 115.394531 124.125 109.976562 118.707031 C 103.734375 112.464844 103.734375 102.285156 109.976562 95.882812 Z M 194.542969 60.90625 C 203.410156 60.90625 210.636719 68.128906 210.636719 76.996094 C 210.636719 84.714844 205.378906 90.957031 198.320312 92.761719 L 198.320312 110.660156 C 197.007812 110.496094 195.855469 110.496094 194.542969 110.496094 C 193.394531 110.496094 192.078125 110.496094 190.765625 110.660156 L 190.765625 92.761719 C 183.707031 90.957031 178.449219 84.714844 178.449219 76.996094 C 178.449219 68.128906 185.675781 60.90625 194.542969 60.90625 Z M 198.15625 114.765625 C 231.652344 116.570312 258.417969 143.335938 260.226562 176.835938 L 198.15625 176.835938 Z M 150.535156 131.679688 C 161.375 121.992188 175.496094 115.585938 191.09375 114.765625 L 191.09375 171.910156 Z M 150.535156 131.679688 " fill-opacity="1" fill-rule="evenodd"/></g></svg>