<svg xmlns="http://www.w3.org/2000/svg" xmlns:xlink="http://www.w3.org/1999/xlink" width="500" zoomAndPan="magnify" viewBox="0 0 375 374.999991" height="500" preserveAspectRatio="xMidYMid meet" version="1.0"><defs><clipPath id="fe79523f6c"><path d="M 82 242 L 141 242 L 141 300.628906 L 82 300.628906 Z M 82 242 " clip-rule="nonzero"/></clipPath></defs><rect x="-37.5" width="450" fill="#ffffff" y="-37.499999" height="449.999989" fill-opacity="1"/><rect x="-37.5" width="450" fill="#ffffff" y="-37.499999" height="449.999989" fill-opacity="1"/><path fill="#04473f" d="M 135.636719 146.5 L 87.394531 146.5 C 84.734375 146.5 82.574219 144.332031 82.574219 141.675781 L 82.574219 93.4375 C 82.574219 90.773438 84.734375 88.613281 87.394531 88.613281 L 135.636719 88.613281 C 138.300781 88.613281 140.460938 90.773438 140.460938 93.4375 L 140.460938 141.675781 C 140.460938 144.332031 138.300781 146.5 135.636719 146.5 Z M 92.21875 136.855469 L 130.8125 136.855469 L 130.8125 98.261719 L 92.21875 98.261719 Z M 92.21875 136.855469 " fill-opacity="1" fill-rule="nonzero"/><path fill="#04473f" d="M 111.515625 132.03125 C 111.160156 132.03125 110.792969 131.992188 110.445312 131.894531 C 109.027344 131.574219 107.832031 130.621094 107.183594 129.316406 L 97.941406 110.425781 C 96.773438 108.035156 97.757812 105.148438 100.152344 103.972656 C 102.554688 102.796875 105.429688 103.796875 106.605469 106.183594 L 113.226562 119.707031 L 157.585938 84.800781 C 159.679688 83.160156 162.71875 83.519531 164.359375 85.613281 C 166 87.714844 165.644531 90.734375 163.550781 92.382812 L 114.5 130.976562 C 113.640625 131.671875 112.589844 132.03125 111.515625 132.03125 Z M 111.515625 132.03125 " fill-opacity="1" fill-rule="nonzero"/><path fill="#04473f" d="M 135.636719 223.6875 L 87.394531 223.6875 C 84.734375 223.6875 82.574219 221.515625 82.574219 218.863281 L 82.574219 170.621094 C 82.574219 167.960938 84.734375 165.796875 87.394531 165.796875 L 135.636719 165.796875 C 138.300781 165.796875 140.460938 167.960938 140.460938 170.621094 L 140.460938 218.863281 C 140.460938 221.515625 138.300781 223.6875 135.636719 223.6875 Z M 92.21875 214.039062 L 130.8125 214.039062 L 130.8125 175.445312 L 92.21875 175.445312 Z M 92.21875 214.039062 " fill-opacity="1" fill-rule="nonzero"/><path fill="#04473f" d="M 111.515625 209.214844 C 111.160156 209.214844 110.792969 209.175781 110.445312 209.082031 C 109.027344 208.761719 107.832031 207.808594 107.183594 206.496094 L 97.941406 187.601562 C 96.773438 185.210938 97.757812 182.324219 100.152344 181.148438 C 102.554688 179.972656 105.429688 180.964844 106.605469 183.359375 L 113.226562 196.886719 L 157.585938 161.976562 C 159.679688 160.335938 162.71875 160.703125 164.359375 162.789062 C 166 164.890625 165.644531 167.910156 163.550781 169.5625 L 114.5 208.152344 C 113.640625 208.859375 112.589844 209.214844 111.515625 209.214844 Z M 111.515625 209.214844 " fill-opacity="1" fill-rule="nonzero"/><g clip-path="url(#fe79523f6c)"><path fill="#04473f" d="M 135.636719 300.875 L 87.394531 300.875 C 84.734375 300.875 82.574219 298.703125 82.574219 296.050781 L 82.574219 247.808594 C 82.574219 245.144531 84.734375 242.984375 87.394531 242.984375 L 135.636719 242.984375 C 138.300781 242.984375 140.460938 245.144531 140.460938 247.808594 L 140.460938 296.050781 C 140.460938 298.703125 138.300781 300.875 135.636719 300.875 Z M 92.21875 291.226562 L 130.8125 291.226562 L 130.8125 252.632812 L 92.21875 252.632812 Z M 92.21875 291.226562 " fill-opacity="1" fill-rule="nonzero"/></g><path fill="#04473f" d="M 294.835938 262.28125 L 188.703125 262.28125 C 186.039062 262.28125 183.878906 260.109375 183.878906 257.457031 C 183.878906 254.792969 186.039062 252.632812 188.703125 252.632812 L 294.835938 252.632812 C 297.488281 252.632812 299.660156 254.792969 299.660156 257.457031 C 299.660156 260.109375 297.488281 262.28125 294.835938 262.28125 Z M 294.835938 262.28125 " fill-opacity="1" fill-rule="nonzero"/><path fill="#04473f" d="M 294.835938 291.226562 L 188.703125 291.226562 C 186.039062 291.226562 183.878906 289.054688 183.878906 286.402344 C 183.878906 283.738281 186.039062 281.578125 188.703125 281.578125 L 294.835938 281.578125 C 297.488281 281.578125 299.660156 283.738281 299.660156 286.402344 C 299.660156 289.054688 297.488281 291.226562 294.835938 291.226562 Z M 294.835938 291.226562 " fill-opacity="1" fill-rule="nonzero"/><path fill="#04473f" d="M 294.835938 185.09375 L 188.703125 185.09375 C 186.039062 185.09375 183.878906 182.925781 183.878906 180.269531 C 183.878906 177.609375 186.039062 175.445312 188.703125 175.445312 L 294.835938 175.445312 C 297.488281 175.445312 299.660156 177.609375 299.660156 180.269531 C 299.660156 182.925781 297.488281 185.09375 294.835938 185.09375 Z M 294.835938 185.09375 " fill-opacity="1" fill-rule="nonzero"/><path fill="#04473f" d="M 294.835938 214.039062 L 188.703125 214.039062 C 186.039062 214.039062 183.878906 211.867188 183.878906 209.214844 C 183.878906 206.550781 186.039062 204.390625 188.703125 204.390625 L 294.835938 204.390625 C 297.488281 204.390625 299.660156 206.550781 299.660156 209.214844 C 299.660156 211.867188 297.488281 214.039062 294.835938 214.039062 Z M 294.835938 214.039062 " fill-opacity="1" fill-rule="nonzero"/><path fill="#04473f" d="M 294.835938 107.910156 L 188.703125 107.910156 C 186.039062 107.910156 183.878906 105.738281 183.878906 103.085938 C 183.878906 100.421875 186.039062 98.261719 188.703125 98.261719 L 294.835938 98.261719 C 297.488281 98.261719 299.660156 100.421875 299.660156 103.085938 C 299.660156 105.738281 297.488281 107.910156 294.835938 107.910156 Z M 294.835938 107.910156 " fill-opacity="1" fill-rule="nonzero"/><path fill="#04473f" d="M 294.835938 136.855469 L 188.703125 136.855469 C 186.039062 136.855469 183.878906 134.683594 183.878906 132.03125 C 183.878906 129.367188 186.039062 127.207031 188.703125 127.207031 L 294.835938 127.207031 C 297.488281 127.207031 299.660156 129.367188 299.660156 132.03125 C 299.660156 134.683594 297.488281 136.855469 294.835938 136.855469 Z M 294.835938 136.855469 " fill-opacity="1" fill-rule="nonzero"/></svg>