<svg xmlns="http://www.w3.org/2000/svg" xmlns:xlink="http://www.w3.org/1999/xlink" width="500" zoomAndPan="magnify" viewBox="0 0 375 374.999991" height="500" preserveAspectRatio="xMidYMid meet" version="1.0"><defs><clipPath id="67aebba723"><path d="M 53.535156 83.34375 L 321.285156 83.34375 L 321.285156 291 L 53.535156 291 Z M 53.535156 83.34375 " clip-rule="nonzero"/></clipPath><clipPath id="6ed512ee61"><path d="M 84 248 L 129 248 L 129 291.84375 L 84 291.84375 Z M 84 248 " clip-rule="nonzero"/></clipPath></defs><rect x="-37.5" width="450" fill="#ffffff" y="-37.499999" height="449.999989" fill-opacity="1"/><rect x="-37.5" width="450" fill="#ffffff" y="-37.499999" height="449.999989" fill-opacity="1"/><path fill="#04473f" d="M 119.980469 102.335938 C 118.742188 104.359375 116.527344 105.726562 113.984375 105.726562 C 111.441406 105.726562 109.226562 104.359375 107.988281 102.335938 C 104.4375 104.390625 102.058594 108.265625 102.058594 112.664062 C 102.058594 113.640625 102.191406 114.585938 102.417969 115.53125 L 125.582031 115.53125 C 125.8125 114.621094 125.941406 113.675781 125.941406 112.664062 C 125.910156 108.265625 123.53125 104.421875 119.980469 102.335938 Z M 119.980469 102.335938 " fill-opacity="1" fill-rule="nonzero"/><path fill="#04473f" d="M 113.984375 105.042969 C 116.265625 105.042969 118.253906 103.835938 119.359375 102.011719 C 119.945312 101.066406 120.273438 99.960938 120.273438 98.753906 C 120.273438 95.300781 117.46875 92.464844 113.984375 92.464844 C 110.5 92.464844 107.695312 95.269531 107.695312 98.753906 C 107.695312 99.960938 108.023438 101.066406 108.609375 102.011719 C 109.714844 103.835938 111.703125 105.042969 113.984375 105.042969 Z M 113.984375 105.042969 " fill-opacity="1" fill-rule="nonzero"/><path fill="#04473f" d="M 81.371094 186.425781 C 80.132812 188.445312 77.917969 189.8125 75.378906 189.8125 C 72.835938 189.8125 70.621094 188.445312 69.382812 186.425781 C 65.832031 188.476562 63.453125 192.320312 63.453125 196.753906 C 63.453125 197.730469 63.585938 198.675781 63.8125 199.621094 L 86.976562 199.621094 C 87.203125 198.707031 87.335938 197.761719 87.335938 196.753906 C 87.300781 192.320312 84.921875 188.476562 81.371094 186.425781 Z M 81.371094 186.425781 " fill-opacity="1" fill-rule="nonzero"/><path fill="#04473f" d="M 75.378906 189.097656 C 77.660156 189.097656 79.644531 187.890625 80.753906 186.066406 C 81.339844 185.121094 81.664062 184.015625 81.664062 182.808594 C 81.664062 179.355469 78.863281 176.519531 75.378906 176.519531 C 71.890625 176.519531 69.089844 179.324219 69.089844 182.808594 C 69.089844 184.015625 69.414062 185.121094 70.003906 186.066406 C 71.109375 187.890625 73.097656 189.097656 75.378906 189.097656 Z M 75.378906 189.097656 " fill-opacity="1" fill-rule="nonzero"/><path fill="#04473f" d="M 305.617188 186.425781 C 304.378906 188.445312 302.164062 189.8125 299.621094 189.8125 C 297.082031 189.8125 294.863281 188.445312 293.628906 186.425781 C 290.074219 188.476562 287.699219 192.355469 287.699219 196.753906 C 287.699219 197.730469 287.828125 198.675781 288.054688 199.621094 L 311.21875 199.621094 C 311.449219 198.707031 311.578125 197.761719 311.578125 196.753906 C 311.546875 192.320312 309.167969 188.476562 305.617188 186.425781 Z M 305.617188 186.425781 " fill-opacity="1" fill-rule="nonzero"/><path fill="#04473f" d="M 299.621094 189.097656 C 301.902344 189.097656 303.890625 187.890625 304.996094 186.066406 C 305.582031 185.121094 305.910156 184.015625 305.910156 182.808594 C 305.910156 179.355469 303.109375 176.519531 299.621094 176.519531 C 296.167969 176.519531 293.332031 179.324219 293.332031 182.808594 C 293.332031 184.015625 293.660156 185.121094 294.246094 186.066406 C 295.355469 187.890625 297.339844 189.097656 299.621094 189.097656 Z M 299.621094 189.097656 " fill-opacity="1" fill-rule="nonzero"/><g clip-path="url(#67aebba723)"><path fill="#04473f" d="M 314.964844 173.75 C 310.863281 169.679688 305.421875 167.398438 299.621094 167.398438 C 293.824219 167.398438 288.382812 169.648438 284.277344 173.75 C 280.691406 177.335938 278.511719 181.960938 278.023438 186.980469 L 230.066406 186.980469 C 229.476562 177.53125 225.796875 168.898438 220.03125 162.089844 L 253.523438 128.597656 C 257.398438 131.789062 262.21875 133.515625 267.304688 133.515625 C 273.101562 133.515625 278.542969 131.269531 282.648438 127.164062 C 286.753906 123.058594 289 117.617188 289 111.816406 C 289 106.019531 286.753906 100.578125 282.648438 96.472656 C 278.542969 92.367188 273.101562 90.121094 267.304688 90.121094 C 261.503906 90.121094 256.0625 92.367188 251.957031 96.472656 C 247.851562 100.578125 245.605469 106.019531 245.605469 111.816406 C 245.605469 116.902344 247.332031 121.722656 250.523438 125.597656 L 217.164062 158.992188 C 209.441406 151.5 198.917969 146.875 187.289062 146.875 C 176.796875 146.875 167.152344 150.652344 159.691406 156.90625 L 125.941406 123.15625 C 127.148438 122.339844 128.285156 121.429688 129.328125 120.386719 C 133.433594 116.28125 135.683594 110.839844 135.683594 105.042969 C 135.683594 99.242188 133.433594 93.800781 129.328125 89.695312 C 125.222656 85.589844 119.785156 83.34375 113.984375 83.34375 C 108.183594 83.34375 102.746094 85.589844 98.640625 89.695312 C 94.535156 93.800781 92.285156 99.242188 92.285156 105.042969 C 92.285156 110.839844 94.535156 116.28125 98.640625 120.386719 C 102.746094 124.492188 108.183594 126.738281 113.984375 126.738281 C 117.210938 126.738281 120.371094 126.023438 123.203125 124.6875 L 122.355469 125.535156 L 156.597656 159.773438 C 149.660156 166.878906 145.164062 176.390625 144.511719 186.945312 L 96.976562 186.945312 C 96.488281 181.960938 94.304688 177.335938 90.722656 173.71875 C 86.617188 169.679688 81.175781 167.398438 75.378906 167.398438 C 69.578125 167.398438 64.136719 169.648438 60.03125 173.75 C 55.929688 177.855469 53.679688 183.296875 53.679688 189.097656 C 53.679688 194.894531 55.929688 200.335938 60.03125 204.441406 C 64.136719 208.546875 69.578125 210.792969 75.378906 210.792969 C 81.175781 210.792969 86.617188 208.546875 90.722656 204.441406 C 94.304688 200.859375 96.488281 196.230469 96.976562 191.214844 L 144.445312 191.214844 C 144.804688 201.542969 148.8125 210.925781 155.230469 218.15625 L 120.371094 253.015625 L 123.367188 256.015625 L 158.195312 221.1875 C 165.851562 228.257812 176.046875 232.589844 187.289062 232.589844 C 197.746094 232.589844 207.292969 228.84375 214.753906 222.652344 L 250.328125 258.230469 L 251.242188 257.316406 C 248.929688 260.835938 247.65625 264.941406 247.65625 269.242188 C 247.65625 275.039062 249.90625 280.480469 254.011719 284.585938 C 258.117188 288.691406 263.554688 290.941406 269.355469 290.941406 C 275.15625 290.941406 280.59375 288.691406 284.699219 284.585938 C 288.804688 280.480469 291.054688 275.039062 291.054688 269.242188 C 291.054688 263.441406 288.804688 258 284.699219 253.898438 C 280.59375 249.792969 275.15625 247.542969 269.355469 247.542969 C 263.554688 247.542969 258.117188 249.792969 254.011719 253.898438 C 253.683594 254.222656 253.359375 254.582031 253.035156 254.9375 L 217.847656 219.753906 C 225.113281 212.359375 229.738281 202.324219 230.097656 191.214844 L 278.023438 191.214844 C 278.511719 196.199219 280.691406 200.824219 284.277344 204.441406 C 288.382812 208.546875 293.824219 210.792969 299.621094 210.792969 C 305.421875 210.792969 310.863281 208.546875 314.964844 204.441406 C 319.070312 200.335938 321.320312 194.894531 321.320312 189.097656 C 321.320312 183.296875 319.070312 177.855469 314.964844 173.75 Z M 248.441406 111.816406 C 248.441406 101.425781 256.910156 92.953125 267.304688 92.953125 C 277.695312 92.953125 286.167969 101.425781 286.167969 111.816406 C 286.167969 122.210938 277.695312 130.679688 267.304688 130.679688 C 256.910156 130.679688 248.441406 122.210938 248.441406 111.816406 Z M 113.984375 123.90625 C 103.589844 123.90625 95.121094 115.433594 95.121094 105.042969 C 95.121094 94.648438 103.589844 86.179688 113.984375 86.179688 C 124.378906 86.179688 132.847656 94.648438 132.847656 105.042969 C 132.847656 115.433594 124.378906 123.90625 113.984375 123.90625 Z M 75.378906 207.960938 C 64.984375 207.960938 56.515625 199.488281 56.515625 189.097656 C 56.515625 178.703125 64.984375 170.234375 75.378906 170.234375 C 85.769531 170.234375 94.242188 178.703125 94.242188 189.097656 C 94.242188 199.523438 85.769531 207.960938 75.378906 207.960938 Z M 269.355469 250.378906 C 279.75 250.378906 288.21875 258.847656 288.21875 269.242188 C 288.21875 279.632812 279.75 288.105469 269.355469 288.105469 C 258.960938 288.105469 250.492188 279.632812 250.492188 269.242188 C 250.492188 258.847656 258.960938 250.378906 269.355469 250.378906 Z M 171.453125 203.660156 C 171.160156 202.390625 171 201.085938 171 199.78125 C 171 194.015625 174.09375 188.609375 179.078125 185.707031 C 179.925781 187.078125 181.097656 188.25 182.5 189.0625 C 183.964844 189.910156 185.59375 190.335938 187.289062 190.335938 C 188.980469 190.335938 190.609375 189.878906 192.078125 189.0625 C 193.476562 188.25 194.652344 187.109375 195.5 185.707031 C 200.484375 188.609375 203.578125 194.015625 203.578125 199.78125 C 203.578125 201.085938 203.414062 202.390625 203.121094 203.660156 Z M 194.585938 185.1875 C 193.023438 187.761719 190.285156 189.292969 187.289062 189.292969 C 184.289062 189.292969 181.554688 187.761719 179.992188 185.1875 C 179.175781 183.851562 178.753906 182.320312 178.753906 180.757812 C 178.753906 176.03125 182.597656 172.1875 187.320312 172.1875 C 192.042969 172.1875 195.890625 176.03125 195.890625 180.757812 C 195.824219 182.320312 195.398438 183.851562 194.585938 185.1875 Z M 299.621094 207.960938 C 289.230469 207.960938 280.757812 199.488281 280.757812 189.097656 C 280.757812 178.703125 289.230469 170.234375 299.621094 170.234375 C 310.015625 170.234375 318.484375 178.703125 318.484375 189.097656 C 318.484375 199.523438 310.015625 207.960938 299.621094 207.960938 Z M 299.621094 207.960938 " fill-opacity="1" fill-rule="nonzero"/></g><path fill="#04473f" d="M 278.902344 122.308594 C 279.128906 121.394531 279.257812 120.453125 279.257812 119.441406 C 279.257812 115.042969 276.882812 111.199219 273.332031 109.113281 C 272.09375 111.132812 269.875 112.503906 267.335938 112.503906 C 264.792969 112.503906 262.578125 111.132812 261.339844 109.113281 C 257.789062 111.167969 255.410156 115.042969 255.410156 119.441406 C 255.410156 120.417969 255.542969 121.363281 255.769531 122.308594 Z M 278.902344 122.308594 " fill-opacity="1" fill-rule="nonzero"/><path fill="#04473f" d="M 267.304688 111.816406 C 269.582031 111.816406 271.570312 110.613281 272.679688 108.789062 C 273.265625 107.84375 273.589844 106.734375 273.589844 105.53125 C 273.589844 102.078125 270.789062 99.242188 267.304688 99.242188 C 263.816406 99.242188 261.015625 102.042969 261.015625 105.53125 C 261.015625 106.734375 261.339844 107.84375 261.925781 108.789062 C 263.035156 110.613281 265.023438 111.816406 267.304688 111.816406 Z M 267.304688 111.816406 " fill-opacity="1" fill-rule="nonzero"/><path fill="#04473f" d="M 112.421875 267.285156 C 111.183594 269.308594 108.96875 270.675781 106.425781 270.675781 C 103.886719 270.675781 101.667969 269.308594 100.429688 267.285156 C 96.878906 269.339844 94.503906 273.214844 94.503906 277.613281 C 94.503906 278.59375 94.632812 279.535156 94.859375 280.480469 L 118.023438 280.480469 C 118.253906 279.570312 118.382812 278.625 118.382812 277.613281 C 118.351562 273.183594 115.972656 269.339844 112.421875 267.285156 Z M 112.421875 267.285156 " fill-opacity="1" fill-rule="nonzero"/><path fill="#04473f" d="M 106.425781 269.957031 C 108.707031 269.957031 110.695312 268.753906 111.800781 266.929688 C 112.386719 265.984375 112.714844 264.875 112.714844 263.671875 C 112.714844 260.21875 109.910156 257.382812 106.425781 257.382812 C 102.941406 257.382812 100.136719 260.183594 100.136719 263.671875 C 100.136719 264.875 100.464844 265.984375 101.050781 266.929688 C 102.160156 268.753906 104.144531 269.957031 106.425781 269.957031 Z M 106.425781 269.957031 " fill-opacity="1" fill-rule="nonzero"/><g clip-path="url(#6ed512ee61)"><path fill="#04473f" d="M 106.425781 248.261719 C 100.628906 248.261719 95.1875 250.507812 91.082031 254.613281 C 86.976562 258.71875 84.726562 264.160156 84.726562 269.957031 C 84.726562 275.757812 86.976562 281.199219 91.082031 285.304688 C 95.1875 289.410156 100.628906 291.65625 106.425781 291.65625 C 112.226562 291.65625 117.664062 289.410156 121.769531 285.304688 C 125.875 281.199219 128.125 275.757812 128.125 269.957031 C 128.125 264.160156 125.875 258.71875 121.769531 254.613281 C 117.664062 250.542969 112.226562 248.261719 106.425781 248.261719 Z M 106.425781 288.820312 C 96.035156 288.820312 87.5625 280.351562 87.5625 269.957031 C 87.5625 259.566406 96.035156 251.09375 106.425781 251.09375 C 116.820312 251.09375 125.289062 259.566406 125.289062 269.957031 C 125.289062 280.351562 116.820312 288.820312 106.425781 288.820312 Z M 106.425781 288.820312 " fill-opacity="1" fill-rule="nonzero"/></g><path fill="#04473f" d="M 280.953125 279.765625 C 281.183594 278.851562 281.3125 277.90625 281.3125 276.898438 C 281.3125 272.5 278.933594 268.65625 275.382812 266.570312 C 274.144531 268.589844 271.929688 269.957031 269.386719 269.957031 C 266.847656 269.957031 264.632812 268.589844 263.394531 266.570312 C 259.84375 268.621094 257.464844 272.5 257.464844 276.898438 C 257.464844 277.875 257.59375 278.820312 257.824219 279.765625 Z M 280.953125 279.765625 " fill-opacity="1" fill-rule="nonzero"/><path fill="#04473f" d="M 269.355469 269.273438 C 271.636719 269.273438 273.625 268.070312 274.730469 266.246094 C 275.316406 265.300781 275.644531 264.191406 275.644531 262.988281 C 275.644531 259.53125 272.839844 256.699219 269.355469 256.699219 C 265.902344 256.699219 263.066406 259.5 263.066406 262.988281 C 263.066406 264.191406 263.394531 265.300781 263.980469 266.246094 C 265.085938 268.035156 267.074219 269.273438 269.355469 269.273438 Z M 269.355469 269.273438 " fill-opacity="1" fill-rule="nonzero"/></svg>