<svg xmlns="http://www.w3.org/2000/svg" xmlns:xlink="http://www.w3.org/1999/xlink" width="500" zoomAndPan="magnify" viewBox="0 0 375 374.999991" height="500" preserveAspectRatio="xMidYMid meet" version="1.0"><defs><clipPath id="cc1c2f2507"><path d="M 176 70.15625 L 199 70.15625 L 199 115 L 176 115 Z M 176 70.15625 " clip-rule="nonzero"/></clipPath><clipPath id="48c783edc4"><path d="M 176 260 L 199 260 L 199 304.90625 L 176 304.90625 Z M 176 260 " clip-rule="nonzero"/></clipPath><clipPath id="98333d5ca3"><path d="M 260 176 L 304.90625 176 L 304.90625 199 L 260 199 Z M 260 176 " clip-rule="nonzero"/></clipPath><clipPath id="a5ab7d809d"><path d="M 70.15625 176 L 115 176 L 115 199 L 70.15625 199 Z M 70.15625 176 " clip-rule="nonzero"/></clipPath></defs><rect x="-37.5" width="450" fill="#ffffff" y="-37.499999" height="449.999989" fill-opacity="1"/><rect x="-37.5" width="450" fill="#ffffff" y="-37.499999" height="449.999989" fill-opacity="1"/><path fill="#04473f" d="M 153.484375 260.667969 C 153.042969 260.464844 152.582031 260.351562 152.09375 260.328125 C 151.609375 260.308594 151.136719 260.382812 150.679688 260.546875 C 150.222656 260.714844 149.816406 260.964844 149.457031 261.292969 C 149.097656 261.621094 148.816406 262.003906 148.613281 262.445312 C 148.40625 262.886719 148.292969 263.351562 148.273438 263.835938 C 148.253906 264.324219 148.324219 264.792969 148.492188 265.25 C 148.65625 265.707031 148.90625 266.117188 149.234375 266.472656 C 149.5625 266.832031 149.949219 267.113281 150.390625 267.320312 C 151.550781 267.859375 152.722656 268.375 153.914062 268.863281 C 154.359375 269.050781 154.824219 269.144531 155.308594 269.144531 C 155.734375 269.144531 156.144531 269.074219 156.546875 268.929688 C 156.945312 268.785156 157.308594 268.582031 157.636719 268.3125 C 157.964844 268.042969 158.238281 267.722656 158.457031 267.359375 C 158.675781 266.996094 158.824219 266.605469 158.90625 266.1875 C 158.992188 265.773438 159 265.355469 158.9375 264.933594 C 158.875 264.515625 158.742188 264.117188 158.542969 263.742188 C 158.34375 263.371094 158.085938 263.039062 157.769531 262.753906 C 157.453125 262.472656 157.101562 262.246094 156.707031 262.085938 C 155.621094 261.636719 154.546875 261.164062 153.484375 260.667969 Z M 153.484375 260.667969 " fill-opacity="1" fill-rule="nonzero"/><path fill="#04473f" d="M 111.71875 215.234375 C 111.550781 214.78125 111.304688 214.371094 110.976562 214.015625 C 110.644531 213.65625 110.261719 213.375 109.820312 213.167969 C 109.378906 212.964844 108.914062 212.851562 108.429688 212.832031 C 107.941406 212.8125 107.472656 212.886719 107.015625 213.050781 C 106.558594 213.21875 106.152344 213.46875 105.792969 213.796875 C 105.433594 214.125 105.152344 214.511719 104.949219 214.953125 C 104.746094 215.394531 104.632812 215.855469 104.613281 216.34375 C 104.589844 216.828125 104.664062 217.300781 104.832031 217.757812 C 105.273438 218.957031 105.738281 220.148438 106.226562 221.320312 C 106.414062 221.773438 106.679688 222.167969 107.023438 222.511719 C 107.367188 222.855469 107.765625 223.121094 108.214844 223.304688 C 108.664062 223.492188 109.132812 223.585938 109.621094 223.585938 C 110.105469 223.582031 110.574219 223.488281 111.023438 223.300781 C 111.472656 223.117188 111.867188 222.851562 112.210938 222.503906 C 112.554688 222.160156 112.820312 221.761719 113.003906 221.3125 C 113.191406 220.863281 113.28125 220.394531 113.28125 219.90625 C 113.28125 219.421875 113.183594 218.953125 112.996094 218.503906 C 112.546875 217.425781 112.121094 216.335938 111.71875 215.234375 Z M 111.71875 215.234375 " fill-opacity="1" fill-rule="nonzero"/><path fill="#04473f" d="M 112.320312 233.273438 C 112.984375 234.367188 113.675781 235.445312 114.386719 236.503906 C 114.65625 236.910156 114.996094 237.25 115.398438 237.519531 C 115.804688 237.792969 116.246094 237.976562 116.726562 238.074219 C 117.203125 238.167969 117.683594 238.167969 118.164062 238.070312 C 118.640625 237.976562 119.082031 237.792969 119.488281 237.519531 C 119.894531 237.25 120.230469 236.910156 120.5 236.5 C 120.769531 236.09375 120.949219 235.652344 121.042969 235.171875 C 121.136719 234.691406 121.132812 234.214844 121.035156 233.738281 C 120.9375 233.257812 120.75 232.816406 120.476562 232.414062 C 119.824219 231.445312 119.191406 230.457031 118.582031 229.457031 C 118.328125 229.039062 118.007812 228.6875 117.613281 228.398438 C 117.222656 228.109375 116.789062 227.90625 116.3125 227.789062 C 115.839844 227.675781 115.363281 227.65625 114.882812 227.730469 C 114.398438 227.804688 113.949219 227.96875 113.535156 228.222656 C 113.117188 228.476562 112.765625 228.800781 112.480469 229.191406 C 112.191406 229.585938 111.992188 230.019531 111.878906 230.496094 C 111.761719 230.96875 111.746094 231.445312 111.820312 231.929688 C 111.898438 232.410156 112.0625 232.859375 112.320312 233.273438 Z M 112.320312 233.273438 " fill-opacity="1" fill-rule="nonzero"/><path fill="#04473f" d="M 140.460938 121.148438 C 141.207031 121.148438 141.886719 120.941406 142.503906 120.523438 C 143.476562 119.867188 144.460938 119.238281 145.460938 118.625 C 145.875 118.371094 146.226562 118.046875 146.511719 117.652344 C 146.796875 117.261719 147 116.828125 147.113281 116.355469 C 147.226562 115.882812 147.246094 115.40625 147.167969 114.925781 C 147.09375 114.445312 146.929688 113.996094 146.675781 113.582031 C 146.421875 113.167969 146.097656 112.816406 145.703125 112.53125 C 145.3125 112.246094 144.878906 112.046875 144.40625 111.929688 C 143.933594 111.816406 143.457031 111.796875 142.976562 111.875 C 142.496094 111.949219 142.046875 112.113281 141.632812 112.367188 C 140.542969 113.035156 139.46875 113.726562 138.40625 114.441406 C 138.082031 114.660156 137.796875 114.925781 137.558594 115.238281 C 137.316406 115.546875 137.132812 115.886719 137 116.257812 C 136.871094 116.628906 136.800781 117.011719 136.792969 117.402344 C 136.78125 117.796875 136.835938 118.179688 136.949219 118.554688 C 137.066406 118.929688 137.238281 119.28125 137.464844 119.601562 C 137.691406 119.921875 137.960938 120.199219 138.277344 120.429688 C 138.59375 120.664062 138.9375 120.84375 139.3125 120.964844 C 139.683594 121.089844 140.066406 121.148438 140.460938 121.148438 Z M 140.460938 121.148438 " fill-opacity="1" fill-rule="nonzero"/><path fill="#04473f" d="M 101.941406 166.777344 C 101.644531 168.019531 101.371094 169.269531 101.125 170.527344 C 101.03125 171.003906 101.035156 171.480469 101.132812 171.957031 C 101.226562 172.433594 101.410156 172.875 101.683594 173.277344 C 101.953125 173.679688 102.292969 174.015625 102.699219 174.285156 C 103.105469 174.554688 103.546875 174.734375 104.023438 174.828125 C 104.5 174.921875 104.976562 174.917969 105.453125 174.820312 C 105.929688 174.726562 106.371094 174.542969 106.773438 174.269531 C 107.175781 173.996094 107.511719 173.660156 107.78125 173.253906 C 108.050781 172.847656 108.230469 172.40625 108.324219 171.929688 C 108.546875 170.777344 108.796875 169.628906 109.074219 168.492188 C 109.1875 168.019531 109.207031 167.542969 109.128906 167.0625 C 109.054688 166.582031 108.890625 166.132812 108.636719 165.71875 C 108.382812 165.300781 108.058594 164.953125 107.664062 164.664062 C 107.273438 164.378906 106.839844 164.179688 106.367188 164.066406 C 105.894531 163.953125 105.417969 163.933594 104.9375 164.007812 C 104.457031 164.085938 104.007812 164.25 103.59375 164.503906 C 103.179688 164.757812 102.828125 165.082031 102.542969 165.476562 C 102.257812 165.871094 102.054688 166.300781 101.941406 166.777344 Z M 101.941406 166.777344 " fill-opacity="1" fill-rule="nonzero"/><path fill="#04473f" d="M 262.570312 141.554688 C 261.902344 140.464844 261.210938 139.386719 260.496094 138.332031 C 260.222656 137.925781 259.886719 137.589844 259.480469 137.324219 C 259.074219 137.054688 258.632812 136.875 258.15625 136.78125 C 257.679688 136.6875 257.199219 136.691406 256.722656 136.789062 C 256.246094 136.882812 255.808594 137.070312 255.40625 137.339844 C 255 137.613281 254.664062 137.953125 254.398438 138.359375 C 254.128906 138.765625 253.949219 139.207031 253.855469 139.683594 C 253.761719 140.160156 253.765625 140.636719 253.863281 141.113281 C 253.960938 141.589844 254.144531 142.03125 254.417969 142.433594 C 255.074219 143.402344 255.707031 144.386719 256.320312 145.386719 C 256.570312 145.800781 256.894531 146.152344 257.289062 146.4375 C 257.683594 146.726562 258.117188 146.925781 258.589844 147.039062 C 259.0625 147.152344 259.539062 147.171875 260.019531 147.097656 C 260.5 147.019531 260.949219 146.855469 261.363281 146.601562 C 261.777344 146.347656 262.128906 146.023438 262.414062 145.628906 C 262.699219 145.234375 262.898438 144.800781 263.011719 144.328125 C 263.125 143.855469 263.144531 143.378906 263.066406 142.898438 C 262.992188 142.417969 262.824219 141.96875 262.570312 141.554688 Z M 262.570312 141.554688 " fill-opacity="1" fill-rule="nonzero"/><path fill="#04473f" d="M 263.210938 159.589844 C 263.378906 160.046875 263.625 160.453125 263.957031 160.8125 C 264.285156 161.167969 264.671875 161.449219 265.113281 161.652344 C 265.554688 161.855469 266.019531 161.96875 266.503906 161.988281 C 266.988281 162.007812 267.460938 161.933594 267.917969 161.765625 C 268.375 161.597656 268.78125 161.347656 269.136719 161.019531 C 269.496094 160.691406 269.777344 160.304688 269.980469 159.863281 C 270.183594 159.421875 270.296875 158.957031 270.316406 158.472656 C 270.335938 157.984375 270.261719 157.515625 270.09375 157.058594 C 269.648438 155.855469 269.183594 154.667969 268.691406 153.492188 C 268.503906 153.042969 268.234375 152.648438 267.890625 152.304688 C 267.546875 151.964844 267.148438 151.699219 266.699219 151.515625 C 266.246094 151.328125 265.78125 151.238281 265.292969 151.238281 C 264.804688 151.242188 264.339844 151.335938 263.890625 151.523438 C 263.441406 151.710938 263.046875 151.980469 262.703125 152.324219 C 262.359375 152.671875 262.097656 153.066406 261.914062 153.519531 C 261.726562 153.96875 261.636719 154.4375 261.640625 154.921875 C 261.640625 155.410156 261.738281 155.878906 261.925781 156.328125 C 262.375 157.402344 262.804688 158.492188 263.210938 159.589844 Z M 263.210938 159.589844 " fill-opacity="1" fill-rule="nonzero"/><path fill="#04473f" d="M 112.871094 156.792969 C 113.320312 155.703125 113.789062 154.625 114.285156 153.5625 C 114.488281 153.121094 114.601562 152.65625 114.621094 152.171875 C 114.640625 151.6875 114.566406 151.214844 114.398438 150.761719 C 114.230469 150.304688 113.980469 149.898438 113.652344 149.539062 C 113.324219 149.183594 112.9375 148.902344 112.5 148.699219 C 112.058594 148.492188 111.59375 148.378906 111.109375 148.359375 C 110.625 148.339844 110.152344 148.414062 109.695312 148.578125 C 109.242188 148.746094 108.832031 148.992188 108.476562 149.320312 C 108.117188 149.652344 107.835938 150.035156 107.632812 150.476562 C 107.09375 151.636719 106.578125 152.808594 106.089844 154 C 105.902344 154.449219 105.808594 154.917969 105.808594 155.402344 C 105.808594 155.890625 105.902344 156.359375 106.089844 156.808594 C 106.277344 157.257812 106.542969 157.65625 106.886719 158 C 107.234375 158.34375 107.628906 158.605469 108.082031 158.792969 C 108.53125 158.976562 109 159.070312 109.484375 159.070312 C 109.972656 159.066406 110.441406 158.972656 110.890625 158.785156 C 111.339844 158.597656 111.734375 158.332031 112.078125 157.984375 C 112.421875 157.640625 112.683594 157.242188 112.871094 156.792969 Z M 112.871094 156.792969 " fill-opacity="1" fill-rule="nonzero"/><path fill="#04473f" d="M 231.292969 263.253906 C 231.976562 263.253906 232.613281 263.074219 233.199219 262.71875 C 234.289062 262.050781 235.363281 261.363281 236.421875 260.65625 C 236.828125 260.386719 237.164062 260.046875 237.433594 259.644531 C 237.703125 259.238281 237.886719 258.796875 237.980469 258.320312 C 238.074219 257.84375 238.074219 257.367188 237.980469 256.890625 C 237.882812 256.414062 237.699219 255.972656 237.429688 255.570312 C 237.160156 255.164062 236.820312 254.828125 236.417969 254.558594 C 236.011719 254.289062 235.570312 254.105469 235.09375 254.011719 C 234.617188 253.917969 234.140625 253.917969 233.664062 254.011719 C 233.1875 254.109375 232.746094 254.292969 232.34375 254.5625 C 231.367188 255.214844 230.378906 255.847656 229.375 256.457031 C 229.035156 256.667969 228.734375 256.921875 228.480469 257.230469 C 228.222656 257.535156 228.019531 257.875 227.875 258.246094 C 227.726562 258.621094 227.644531 259.007812 227.625 259.40625 C 227.605469 259.804688 227.648438 260.199219 227.757812 260.582031 C 227.867188 260.96875 228.03125 261.324219 228.257812 261.65625 C 228.484375 261.984375 228.757812 262.269531 229.074219 262.511719 C 229.394531 262.753906 229.742188 262.9375 230.121094 263.066406 C 230.5 263.191406 230.890625 263.253906 231.292969 263.253906 Z M 231.292969 263.253906 " fill-opacity="1" fill-rule="nonzero"/><path fill="#04473f" d="M 266.84375 216.375 C 266.394531 216.1875 265.925781 216.097656 265.441406 216.097656 C 264.953125 216.097656 264.484375 216.1875 264.035156 216.375 C 263.585938 216.5625 263.191406 216.824219 262.847656 217.167969 C 262.503906 217.511719 262.238281 217.910156 262.050781 218.359375 C 261.601562 219.445312 261.128906 220.519531 260.632812 221.582031 C 260.429688 222.023438 260.316406 222.488281 260.296875 222.972656 C 260.273438 223.457031 260.347656 223.925781 260.515625 224.382812 C 260.679688 224.839844 260.925781 225.246094 261.253906 225.605469 C 261.582031 225.960938 261.964844 226.242188 262.40625 226.449219 C 262.847656 226.65625 263.308594 226.769531 263.792969 226.789062 C 264.277344 226.8125 264.75 226.742188 265.207031 226.574219 C 265.664062 226.410156 266.070312 226.164062 266.429688 225.835938 C 266.789062 225.511719 267.070312 225.128906 267.277344 224.6875 C 267.820312 223.527344 268.335938 222.351562 268.828125 221.167969 C 269.011719 220.71875 269.105469 220.25 269.105469 219.761719 C 269.105469 219.277344 269.011719 218.808594 268.828125 218.359375 C 268.640625 217.910156 268.375 217.515625 268.03125 217.171875 C 267.6875 216.824219 267.292969 216.5625 266.84375 216.375 Z M 266.84375 216.375 " fill-opacity="1" fill-rule="nonzero"/><path fill="#04473f" d="M 270.941406 200.339844 C 270.464844 200.246094 269.984375 200.246094 269.507812 200.339844 C 269.03125 200.433594 268.589844 200.617188 268.183594 200.886719 C 267.78125 201.160156 267.445312 201.496094 267.175781 201.902344 C 266.90625 202.308594 266.726562 202.75 266.632812 203.230469 C 266.40625 204.382812 266.152344 205.527344 265.875 206.664062 C 265.761719 207.136719 265.742188 207.613281 265.816406 208.09375 C 265.890625 208.574219 266.054688 209.023438 266.308594 209.4375 C 266.558594 209.855469 266.882812 210.207031 267.273438 210.492188 C 267.667969 210.777344 268.101562 210.980469 268.574219 211.09375 C 269.042969 211.210938 269.519531 211.230469 270 211.15625 C 270.480469 211.082031 270.929688 210.917969 271.34375 210.664062 C 271.761719 210.410156 272.113281 210.089844 272.398438 209.695312 C 272.6875 209.304688 272.886719 208.871094 273.003906 208.398438 C 273.304688 207.15625 273.578125 205.90625 273.828125 204.648438 C 273.921875 204.171875 273.921875 203.695312 273.824219 203.21875 C 273.730469 202.742188 273.546875 202.300781 273.277344 201.898438 C 273.003906 201.492188 272.667969 201.15625 272.261719 200.886719 C 271.859375 200.617188 271.417969 200.433594 270.941406 200.339844 Z M 270.941406 200.339844 " fill-opacity="1" fill-rule="nonzero"/><path fill="#04473f" d="M 218.425781 262.023438 C 217.34375 262.472656 216.253906 262.898438 215.152344 263.300781 C 214.695312 263.46875 214.289062 263.714844 213.929688 264.042969 C 213.570312 264.375 213.289062 264.757812 213.082031 265.199219 C 212.878906 265.640625 212.765625 266.105469 212.746094 266.59375 C 212.722656 267.078125 212.796875 267.550781 212.964844 268.007812 C 213.132812 268.464844 213.382812 268.871094 213.710938 269.230469 C 214.039062 269.585938 214.425781 269.867188 214.867188 270.074219 C 215.308594 270.277344 215.773438 270.390625 216.257812 270.410156 C 216.746094 270.429688 217.21875 270.355469 217.675781 270.1875 C 218.871094 269.75 220.058594 269.285156 221.234375 268.800781 C 221.683594 268.613281 222.078125 268.347656 222.421875 268.003906 C 222.765625 267.660156 223.03125 267.265625 223.21875 266.8125 C 223.402344 266.363281 223.496094 265.898438 223.496094 265.410156 C 223.496094 264.925781 223.402344 264.457031 223.21875 264.007812 C 223.03125 263.558594 222.765625 263.160156 222.421875 262.816406 C 222.078125 262.472656 221.679688 262.210938 221.230469 262.023438 C 220.78125 261.835938 220.316406 261.746094 219.828125 261.746094 C 219.34375 261.746094 218.875 261.839844 218.425781 262.023438 Z M 218.425781 262.023438 " fill-opacity="1" fill-rule="nonzero"/><path fill="#04473f" d="M 170.777344 108.476562 C 171.023438 108.476562 171.261719 108.453125 171.5 108.40625 C 172.648438 108.175781 173.804688 107.972656 174.96875 107.789062 C 175.527344 107.699219 176.035156 107.488281 176.496094 107.160156 L 176.496094 101.160156 C 175.691406 100.59375 174.804688 100.390625 173.835938 100.542969 C 172.570312 100.742188 171.308594 100.964844 170.0625 101.214844 C 169.617188 101.304688 169.199219 101.472656 168.816406 101.714844 C 168.433594 101.960938 168.105469 102.261719 167.835938 102.628906 C 167.566406 102.996094 167.367188 103.398438 167.246094 103.835938 C 167.125 104.273438 167.089844 104.71875 167.132812 105.171875 C 167.175781 105.625 167.300781 106.054688 167.507812 106.460938 C 167.710938 106.867188 167.980469 107.222656 168.316406 107.527344 C 168.65625 107.832031 169.035156 108.066406 169.460938 108.230469 C 169.882812 108.394531 170.324219 108.476562 170.777344 108.476562 Z M 170.777344 108.476562 " fill-opacity="1" fill-rule="nonzero"/><path fill="#04473f" d="M 168.414062 265.898438 C 167.941406 265.785156 167.464844 265.765625 166.984375 265.839844 C 166.507812 265.914062 166.058594 266.078125 165.644531 266.332031 C 165.230469 266.585938 164.878906 266.910156 164.59375 267.300781 C 164.308594 267.691406 164.105469 268.125 163.992188 268.597656 C 163.878906 269.070312 163.859375 269.542969 163.933594 270.023438 C 164.007812 270.503906 164.167969 270.953125 164.421875 271.367188 C 164.675781 271.78125 164.996094 272.132812 165.386719 272.417969 C 165.777344 272.707031 166.210938 272.90625 166.683594 273.023438 C 167.921875 273.324219 169.175781 273.597656 170.433594 273.847656 C 170.914062 273.941406 171.390625 273.9375 171.867188 273.84375 C 172.34375 273.746094 172.78125 273.5625 173.1875 273.292969 C 173.589844 273.019531 173.925781 272.679688 174.195312 272.277344 C 174.464844 271.871094 174.644531 271.429688 174.738281 270.953125 C 174.832031 270.476562 174.832031 270 174.734375 269.523438 C 174.636719 269.046875 174.453125 268.605469 174.183594 268.203125 C 173.910156 267.796875 173.574219 267.460938 173.167969 267.191406 C 172.761719 266.925781 172.320312 266.742188 171.84375 266.648438 C 170.691406 266.425781 169.546875 266.171875 168.414062 265.898438 Z M 168.414062 265.898438 " fill-opacity="1" fill-rule="nonzero"/><path fill="#04473f" d="M 154.992188 113.316406 C 155.484375 113.316406 155.953125 113.21875 156.40625 113.03125 C 157.484375 112.578125 158.570312 112.152344 159.671875 111.746094 C 160.125 111.578125 160.535156 111.332031 160.890625 111 C 161.25 110.671875 161.527344 110.285156 161.734375 109.84375 C 161.9375 109.402344 162.050781 108.941406 162.070312 108.453125 C 162.089844 107.96875 162.015625 107.496094 161.847656 107.042969 C 161.679688 106.585938 161.429688 106.179688 161.101562 105.820312 C 160.769531 105.464844 160.386719 105.183594 159.945312 104.976562 C 159.503906 104.773438 159.039062 104.664062 158.554688 104.644531 C 158.066406 104.625 157.597656 104.695312 157.140625 104.863281 C 155.941406 105.304688 154.753906 105.773438 153.578125 106.265625 C 153.1875 106.429688 152.835938 106.652344 152.519531 106.9375 C 152.207031 107.222656 151.953125 107.554688 151.753906 107.929688 C 151.554688 108.300781 151.425781 108.699219 151.363281 109.117188 C 151.300781 109.539062 151.3125 109.957031 151.398438 110.371094 C 151.480469 110.785156 151.632812 111.175781 151.851562 111.539062 C 152.066406 111.902344 152.339844 112.21875 152.667969 112.484375 C 152.996094 112.753906 153.359375 112.960938 153.757812 113.101562 C 154.160156 113.246094 154.570312 113.316406 154.992188 113.316406 Z M 154.992188 113.316406 " fill-opacity="1" fill-rule="nonzero"/><path fill="#04473f" d="M 202.972656 108.304688 C 204.128906 108.53125 205.273438 108.78125 206.40625 109.054688 C 206.878906 109.167969 207.355469 109.1875 207.835938 109.109375 C 208.316406 109.035156 208.765625 108.871094 209.179688 108.617188 C 209.59375 108.363281 209.945312 108.039062 210.230469 107.644531 C 210.515625 107.253906 210.71875 106.820312 210.832031 106.347656 C 210.945312 105.875 210.964844 105.398438 210.886719 104.917969 C 210.8125 104.4375 210.648438 103.988281 210.394531 103.574219 C 210.140625 103.160156 209.816406 102.808594 209.425781 102.523438 C 209.03125 102.238281 208.597656 102.039062 208.125 101.921875 C 206.882812 101.625 205.632812 101.351562 204.371094 101.109375 C 203.894531 101.015625 203.417969 101.019531 202.941406 101.113281 C 202.464844 101.210938 202.023438 101.394531 201.621094 101.667969 C 201.21875 101.941406 200.882812 102.277344 200.617188 102.683594 C 200.347656 103.089844 200.167969 103.53125 200.074219 104.007812 C 199.980469 104.484375 199.984375 104.960938 200.082031 105.4375 C 200.175781 105.914062 200.363281 106.355469 200.632812 106.757812 C 200.90625 107.160156 201.242188 107.496094 201.648438 107.765625 C 202.054688 108.03125 202.496094 108.214844 202.972656 108.304688 Z M 202.972656 108.304688 " fill-opacity="1" fill-rule="nonzero"/><path fill="#04473f" d="M 221.34375 114.25 C 221.785156 114.453125 222.25 114.566406 222.734375 114.585938 C 223.222656 114.605469 223.691406 114.53125 224.148438 114.363281 C 224.605469 114.199219 225.011719 113.949219 225.371094 113.621094 C 225.730469 113.289062 226.011719 112.90625 226.214844 112.464844 C 226.417969 112.023438 226.53125 111.558594 226.550781 111.074219 C 226.570312 110.589844 226.5 110.117188 226.332031 109.660156 C 226.164062 109.203125 225.914062 108.796875 225.585938 108.4375 C 225.257812 108.082031 224.871094 107.800781 224.429688 107.59375 C 223.269531 107.054688 222.09375 106.542969 220.902344 106.054688 C 220.453125 105.871094 219.984375 105.777344 219.5 105.78125 C 219.011719 105.78125 218.542969 105.875 218.097656 106.0625 C 217.648438 106.25 217.25 106.515625 216.910156 106.863281 C 216.566406 107.207031 216.300781 107.605469 216.117188 108.054688 C 215.933594 108.503906 215.84375 108.972656 215.84375 109.460938 C 215.84375 109.945312 215.941406 110.414062 216.128906 110.863281 C 216.316406 111.308594 216.582031 111.707031 216.925781 112.046875 C 217.273438 112.390625 217.667969 112.65625 218.117188 112.839844 C 219.207031 113.285156 220.28125 113.753906 221.34375 114.25 Z M 221.34375 114.25 " fill-opacity="1" fill-rule="nonzero"/><path fill="#04473f" d="M 203.316406 266.617188 C 202.171875 266.84375 201.015625 267.046875 199.851562 267.226562 C 199.367188 267.300781 198.914062 267.46875 198.496094 267.722656 L 198.496094 273.972656 C 199.082031 274.335938 199.714844 274.515625 200.402344 274.519531 C 200.589844 274.519531 200.777344 274.503906 200.964844 274.476562 C 202.234375 274.28125 203.492188 274.0625 204.746094 273.8125 C 205.222656 273.714844 205.664062 273.535156 206.066406 273.265625 C 206.46875 272.992188 206.808594 272.65625 207.078125 272.253906 C 207.347656 271.847656 207.53125 271.40625 207.625 270.929688 C 207.71875 270.453125 207.71875 269.976562 207.625 269.5 C 207.53125 269.023438 207.347656 268.582031 207.078125 268.179688 C 206.808594 267.773438 206.472656 267.4375 206.066406 267.167969 C 205.664062 266.894531 205.222656 266.714844 204.746094 266.617188 C 204.269531 266.523438 203.792969 266.523438 203.316406 266.617188 Z M 203.316406 266.617188 " fill-opacity="1" fill-rule="nonzero"/><g clip-path="url(#cc1c2f2507)"><path fill="#04473f" d="M 187.496094 114.15625 C 187.980469 114.15625 188.449219 114.0625 188.898438 113.878906 C 189.347656 113.691406 189.742188 113.425781 190.085938 113.082031 C 190.429688 112.738281 190.695312 112.34375 190.882812 111.894531 C 191.070312 111.445312 191.160156 110.976562 191.160156 110.492188 L 191.160156 86.988281 L 191.691406 87.863281 C 191.941406 88.277344 192.261719 88.632812 192.65625 88.917969 C 193.046875 89.207031 193.476562 89.410156 193.949219 89.527344 C 194.421875 89.644531 194.898438 89.664062 195.378906 89.59375 C 195.859375 89.519531 196.308594 89.355469 196.726562 89.105469 C 197.140625 88.855469 197.492188 88.53125 197.78125 88.140625 C 198.070312 87.75 198.273438 87.316406 198.390625 86.84375 C 198.503906 86.375 198.527344 85.898438 198.453125 85.414062 C 198.382812 84.933594 198.21875 84.488281 197.96875 84.070312 L 190.632812 71.925781 C 190.46875 71.65625 190.277344 71.410156 190.050781 71.191406 C 189.824219 70.972656 189.570312 70.785156 189.296875 70.628906 C 189.023438 70.472656 188.730469 70.355469 188.425781 70.273438 C 188.121094 70.195312 187.808594 70.15625 187.496094 70.15625 C 187.179688 70.15625 186.867188 70.195312 186.5625 70.273438 C 186.257812 70.355469 185.96875 70.472656 185.691406 70.628906 C 185.417969 70.785156 185.167969 70.972656 184.941406 71.191406 C 184.714844 71.410156 184.519531 71.65625 184.355469 71.925781 L 177.023438 84.070312 C 176.769531 84.488281 176.609375 84.933594 176.535156 85.414062 C 176.464844 85.894531 176.484375 86.371094 176.601562 86.84375 C 176.71875 87.316406 176.921875 87.75 177.210938 88.140625 C 177.496094 88.53125 177.847656 88.851562 178.265625 89.105469 C 178.683594 89.355469 179.128906 89.519531 179.609375 89.589844 C 180.089844 89.664062 180.566406 89.640625 181.039062 89.527344 C 181.511719 89.410156 181.945312 89.207031 182.335938 88.917969 C 182.726562 88.628906 183.046875 88.277344 183.300781 87.863281 L 183.828125 86.988281 L 183.828125 110.492188 C 183.828125 110.976562 183.921875 111.445312 184.105469 111.894531 C 184.292969 112.34375 184.558594 112.738281 184.902344 113.082031 C 185.246094 113.425781 185.640625 113.691406 186.089844 113.878906 C 186.539062 114.0625 187.007812 114.15625 187.496094 114.15625 Z M 187.496094 114.15625 " fill-opacity="1" fill-rule="nonzero"/></g><g clip-path="url(#48c783edc4)"><path fill="#04473f" d="M 187.496094 260.832031 C 187.007812 260.832031 186.539062 260.925781 186.089844 261.113281 C 185.640625 261.296875 185.246094 261.5625 184.902344 261.90625 C 184.558594 262.25 184.292969 262.648438 184.105469 263.097656 C 183.921875 263.546875 183.828125 264.011719 183.828125 264.5 L 183.828125 288 L 183.300781 287.128906 C 183.046875 286.710938 182.726562 286.359375 182.335938 286.070312 C 181.945312 285.78125 181.511719 285.578125 181.039062 285.464844 C 180.566406 285.347656 180.089844 285.324219 179.609375 285.398438 C 179.128906 285.472656 178.679688 285.632812 178.265625 285.882812 C 177.847656 286.136719 177.496094 286.457031 177.207031 286.847656 C 176.917969 287.242188 176.71875 287.671875 176.601562 288.144531 C 176.484375 288.617188 176.460938 289.09375 176.535156 289.574219 C 176.609375 290.054688 176.769531 290.503906 177.023438 290.917969 L 184.355469 303.0625 C 184.519531 303.335938 184.714844 303.578125 184.941406 303.800781 C 185.167969 304.019531 185.417969 304.207031 185.691406 304.363281 C 185.96875 304.515625 186.257812 304.632812 186.5625 304.714844 C 186.867188 304.792969 187.179688 304.835938 187.496094 304.835938 C 187.808594 304.835938 188.121094 304.792969 188.425781 304.714844 C 188.730469 304.632812 189.023438 304.515625 189.296875 304.363281 C 189.570312 304.207031 189.824219 304.019531 190.050781 303.800781 C 190.273438 303.578125 190.46875 303.335938 190.632812 303.0625 L 197.96875 290.917969 C 198.21875 290.503906 198.378906 290.054688 198.453125 289.574219 C 198.527344 289.09375 198.503906 288.617188 198.386719 288.144531 C 198.269531 287.671875 198.070312 287.242188 197.78125 286.851562 C 197.492188 286.457031 197.140625 286.136719 196.722656 285.886719 C 196.308594 285.632812 195.859375 285.472656 195.378906 285.398438 C 194.898438 285.324219 194.421875 285.347656 193.949219 285.464844 C 193.476562 285.582031 193.046875 285.78125 192.65625 286.070312 C 192.261719 286.359375 191.941406 286.710938 191.691406 287.128906 L 191.160156 288 L 191.160156 264.5 C 191.160156 264.011719 191.070312 263.546875 190.882812 263.097656 C 190.695312 262.648438 190.429688 262.25 190.085938 261.90625 C 189.742188 261.5625 189.347656 261.296875 188.898438 261.113281 C 188.449219 260.925781 187.980469 260.832031 187.496094 260.832031 Z M 187.496094 260.832031 " fill-opacity="1" fill-rule="nonzero"/></g><path fill="#04473f" d="M 267.1875 174.882812 C 267.28125 175.476562 267.511719 176.011719 267.875 176.496094 L 273.753906 176.496094 C 274.363281 175.671875 274.589844 174.757812 274.429688 173.746094 C 274.230469 172.476562 274.007812 171.21875 273.753906 169.96875 C 273.660156 169.488281 273.476562 169.050781 273.207031 168.644531 C 272.933594 168.238281 272.597656 167.902344 272.191406 167.632812 C 271.785156 167.363281 271.34375 167.179688 270.867188 167.085938 C 270.386719 166.992188 269.910156 166.992188 269.433594 167.089844 C 268.953125 167.183594 268.515625 167.371094 268.109375 167.640625 C 267.707031 167.914062 267.371094 168.253906 267.101562 168.660156 C 266.832031 169.066406 266.652344 169.507812 266.558594 169.984375 C 266.464844 170.464844 266.46875 170.941406 266.566406 171.417969 C 266.796875 172.5625 267.003906 173.71875 267.1875 174.882812 Z M 267.1875 174.882812 " fill-opacity="1" fill-rule="nonzero"/><path fill="#04473f" d="M 105.515625 207.714844 C 105.992188 207.621094 106.433594 207.4375 106.835938 207.164062 C 107.242188 206.894531 107.578125 206.558594 107.847656 206.152344 C 108.117188 205.75 108.296875 205.308594 108.390625 204.832031 C 108.488281 204.351562 108.484375 203.875 108.390625 203.398438 C 108.160156 202.253906 107.957031 201.101562 107.777344 199.9375 C 107.695312 199.417969 107.507812 198.933594 107.214844 198.496094 L 101.097656 198.496094 C 100.578125 199.277344 100.386719 200.132812 100.53125 201.058594 C 100.726562 202.328125 100.949219 203.589844 101.199219 204.839844 C 101.296875 205.316406 101.476562 205.757812 101.75 206.160156 C 102.019531 206.566406 102.355469 206.902344 102.761719 207.171875 C 103.167969 207.441406 103.605469 207.621094 104.085938 207.714844 C 104.5625 207.8125 105.039062 207.808594 105.515625 207.714844 Z M 105.515625 207.714844 " fill-opacity="1" fill-rule="nonzero"/><g clip-path="url(#98333d5ca3)"><path fill="#04473f" d="M 303.0625 184.355469 L 290.917969 177.023438 C 290.503906 176.769531 290.054688 176.609375 289.574219 176.535156 C 289.09375 176.464844 288.617188 176.484375 288.144531 176.601562 C 287.671875 176.71875 287.238281 176.921875 286.847656 177.210938 C 286.457031 177.496094 286.136719 177.851562 285.882812 178.265625 C 285.632812 178.683594 285.472656 179.128906 285.398438 179.609375 C 285.324219 180.09375 285.347656 180.566406 285.464844 181.039062 C 285.582031 181.511719 285.78125 181.945312 286.070312 182.335938 C 286.359375 182.726562 286.710938 183.046875 287.128906 183.300781 L 288.003906 183.828125 L 264.5 183.828125 C 264.011719 183.828125 263.546875 183.921875 263.097656 184.105469 C 262.648438 184.292969 262.25 184.558594 261.90625 184.902344 C 261.5625 185.246094 261.296875 185.640625 261.109375 186.089844 C 260.925781 186.539062 260.832031 187.007812 260.832031 187.496094 C 260.832031 187.980469 260.925781 188.449219 261.109375 188.898438 C 261.296875 189.347656 261.5625 189.742188 261.90625 190.085938 C 262.25 190.429688 262.648438 190.695312 263.097656 190.882812 C 263.546875 191.070312 264.011719 191.160156 264.5 191.160156 L 288.003906 191.160156 L 287.128906 191.691406 C 286.710938 191.941406 286.359375 192.261719 286.070312 192.652344 C 285.78125 193.046875 285.582031 193.476562 285.464844 193.949219 C 285.347656 194.421875 285.324219 194.898438 285.398438 195.378906 C 285.472656 195.859375 285.632812 196.308594 285.882812 196.722656 C 286.136719 197.140625 286.457031 197.492188 286.847656 197.78125 C 287.238281 198.070312 287.671875 198.273438 288.144531 198.386719 C 288.617188 198.503906 289.09375 198.527344 289.574219 198.453125 C 290.054688 198.378906 290.503906 198.21875 290.917969 197.96875 L 303.0625 190.632812 C 303.332031 190.46875 303.578125 190.277344 303.796875 190.050781 C 304.019531 189.824219 304.207031 189.570312 304.359375 189.296875 C 304.515625 189.023438 304.632812 188.730469 304.714844 188.425781 C 304.792969 188.121094 304.835938 187.8125 304.835938 187.496094 C 304.835938 187.179688 304.792969 186.867188 304.714844 186.5625 C 304.632812 186.257812 304.515625 185.96875 304.359375 185.691406 C 304.207031 185.417969 304.019531 185.167969 303.796875 184.941406 C 303.578125 184.714844 303.332031 184.519531 303.0625 184.355469 Z M 303.0625 184.355469 " fill-opacity="1" fill-rule="nonzero"/></g><g clip-path="url(#a5ab7d809d)"><path fill="#04473f" d="M 87.863281 191.691406 L 86.988281 191.160156 L 110.492188 191.160156 C 110.976562 191.160156 111.445312 191.070312 111.894531 190.882812 C 112.34375 190.695312 112.738281 190.429688 113.082031 190.085938 C 113.425781 189.742188 113.691406 189.347656 113.878906 188.898438 C 114.0625 188.449219 114.15625 187.980469 114.15625 187.496094 C 114.15625 187.007812 114.0625 186.539062 113.878906 186.089844 C 113.691406 185.640625 113.425781 185.246094 113.082031 184.902344 C 112.738281 184.558594 112.34375 184.292969 111.894531 184.105469 C 111.445312 183.921875 110.976562 183.828125 110.492188 183.828125 L 86.988281 183.828125 L 87.863281 183.300781 C 88.277344 183.046875 88.628906 182.726562 88.917969 182.335938 C 89.207031 181.945312 89.410156 181.511719 89.527344 181.039062 C 89.644531 180.566406 89.664062 180.09375 89.589844 179.609375 C 89.519531 179.128906 89.355469 178.683594 89.105469 178.265625 C 88.855469 177.851562 88.53125 177.496094 88.140625 177.210938 C 87.75 176.921875 87.316406 176.71875 86.847656 176.601562 C 86.375 176.484375 85.898438 176.464844 85.417969 176.535156 C 84.9375 176.609375 84.488281 176.769531 84.070312 177.023438 L 71.925781 184.355469 C 71.65625 184.519531 71.410156 184.714844 71.191406 184.941406 C 70.972656 185.167969 70.785156 185.417969 70.628906 185.691406 C 70.472656 185.96875 70.355469 186.257812 70.277344 186.5625 C 70.195312 186.867188 70.15625 187.179688 70.15625 187.496094 C 70.15625 187.808594 70.195312 188.121094 70.277344 188.425781 C 70.355469 188.730469 70.472656 189.023438 70.628906 189.296875 C 70.785156 189.570312 70.972656 189.824219 71.191406 190.050781 C 71.410156 190.277344 71.65625 190.46875 71.925781 190.632812 L 84.070312 197.96875 C 84.488281 198.21875 84.9375 198.378906 85.417969 198.453125 C 85.898438 198.527344 86.375 198.503906 86.847656 198.386719 C 87.316406 198.269531 87.75 198.070312 88.140625 197.78125 C 88.53125 197.492188 88.855469 197.140625 89.105469 196.722656 C 89.355469 196.308594 89.519531 195.859375 89.589844 195.378906 C 89.664062 194.898438 89.644531 194.421875 89.527344 193.949219 C 89.410156 193.476562 89.207031 193.046875 88.917969 192.652344 C 88.628906 192.261719 88.277344 191.941406 87.863281 191.691406 Z M 87.863281 191.691406 " fill-opacity="1" fill-rule="nonzero"/></g><path fill="#04473f" d="M 258.480469 239.527344 C 259.234375 238.492188 259.972656 237.445312 260.683594 236.382812 C 260.957031 235.976562 261.144531 235.535156 261.242188 235.058594 C 261.339844 234.578125 261.339844 234.101562 261.246094 233.621094 C 261.15625 233.140625 260.972656 232.699219 260.703125 232.292969 C 260.433594 231.886719 260.09375 231.546875 259.6875 231.273438 C 259.28125 231.003906 258.839844 230.820312 258.359375 230.726562 C 257.882812 230.628906 257.402344 230.632812 256.925781 230.726562 C 256.445312 230.824219 256.003906 231.007812 255.597656 231.28125 C 255.195312 231.554688 254.855469 231.894531 254.589844 232.304688 C 253.933594 233.28125 253.261719 234.242188 252.566406 235.1875 C 252.292969 235.5625 252.097656 235.976562 251.984375 236.425781 L 256.449219 240.894531 C 257.289062 240.679688 257.964844 240.222656 258.480469 239.527344 Z M 258.480469 239.527344 " fill-opacity="1" fill-rule="nonzero"/><path fill="#04473f" d="M 116.398438 135.617188 C 115.644531 136.648438 114.910156 137.699219 114.199219 138.765625 C 113.933594 139.171875 113.75 139.609375 113.65625 140.089844 C 113.5625 140.566406 113.566406 141.042969 113.660156 141.519531 C 113.757812 141.992188 113.941406 142.433594 114.210938 142.835938 C 114.480469 143.242188 114.820312 143.578125 115.222656 143.847656 C 115.628906 144.117188 116.070312 144.296875 116.546875 144.390625 C 117.023438 144.484375 117.5 144.484375 117.976562 144.390625 C 118.453125 144.292969 118.890625 144.113281 119.296875 143.839844 C 119.699219 143.570312 120.035156 143.234375 120.304688 142.828125 C 120.957031 141.851562 121.628906 140.890625 122.320312 139.941406 C 122.632812 139.507812 122.84375 139.027344 122.945312 138.503906 L 118.636719 134.195312 C 117.707031 134.378906 116.960938 134.851562 116.398438 135.617188 Z M 116.398438 135.617188 " fill-opacity="1" fill-rule="nonzero"/><path fill="#04473f" d="M 250.539062 263.59375 C 250.425781 264.066406 250.402344 264.542969 250.476562 265.023438 C 250.546875 265.503906 250.710938 265.953125 250.960938 266.367188 C 251.214844 266.785156 251.535156 267.136719 251.925781 267.425781 C 252.316406 267.710938 252.75 267.914062 253.222656 268.03125 C 253.222656 268.03125 266.972656 271.425781 266.996094 271.433594 C 267.300781 271.5 267.609375 271.53125 267.921875 271.519531 C 268.234375 271.511719 268.542969 271.460938 268.84375 271.375 C 269.144531 271.289062 269.429688 271.164062 269.699219 271.003906 C 269.96875 270.84375 270.210938 270.65625 270.433594 270.433594 C 270.65625 270.210938 270.84375 269.96875 271.003906 269.699219 C 271.164062 269.429688 271.289062 269.144531 271.375 268.84375 C 271.460938 268.542969 271.511719 268.234375 271.523438 267.921875 C 271.53125 267.609375 271.503906 267.300781 271.433594 266.996094 L 268.03125 253.222656 C 267.914062 252.75 267.710938 252.316406 267.425781 251.925781 C 267.136719 251.535156 266.785156 251.214844 266.367188 250.964844 C 265.949219 250.714844 265.503906 250.550781 265.023438 250.480469 C 264.542969 250.40625 264.066406 250.429688 263.59375 250.542969 C 263.121094 250.660156 262.691406 250.863281 262.300781 251.152344 C 261.910156 251.4375 261.585938 251.789062 261.335938 252.207031 C 261.082031 252.621094 260.921875 253.070312 260.847656 253.550781 C 260.773438 254.03125 260.796875 254.507812 260.910156 254.980469 L 261.15625 255.972656 L 244.539062 239.351562 C 244.191406 239.007812 243.796875 238.746094 243.347656 238.558594 C 242.898438 238.375 242.429688 238.28125 241.945312 238.28125 C 241.460938 238.285156 240.992188 238.375 240.542969 238.5625 C 240.097656 238.75 239.699219 239.011719 239.355469 239.355469 C 239.011719 239.699219 238.75 240.097656 238.5625 240.542969 C 238.375 240.992188 238.285156 241.460938 238.28125 241.945312 C 238.28125 242.429688 238.375 242.898438 238.558594 243.347656 C 238.746094 243.796875 239.007812 244.191406 239.351562 244.539062 L 255.972656 261.15625 L 254.980469 260.914062 C 254.507812 260.796875 254.03125 260.773438 253.550781 260.84375 C 253.070312 260.917969 252.621094 261.082031 252.203125 261.332031 C 251.789062 261.582031 251.433594 261.90625 251.148438 262.296875 C 250.859375 262.6875 250.65625 263.121094 250.539062 263.59375 Z M 250.539062 263.59375 " fill-opacity="1" fill-rule="nonzero"/><path fill="#04473f" d="M 124.449219 111.398438 C 124.566406 110.925781 124.585938 110.449219 124.515625 109.96875 C 124.441406 109.488281 124.277344 109.039062 124.027344 108.621094 C 123.777344 108.207031 123.453125 107.855469 123.0625 107.566406 C 122.671875 107.277344 122.238281 107.074219 121.769531 106.957031 L 107.996094 103.554688 C 107.6875 103.480469 107.378906 103.445312 107.0625 103.449219 C 106.746094 103.453125 106.4375 103.5 106.132812 103.582031 C 105.828125 103.667969 105.539062 103.789062 105.265625 103.949219 C 104.992188 104.109375 104.746094 104.300781 104.523438 104.523438 C 104.300781 104.746094 104.109375 104.996094 103.949219 105.265625 C 103.789062 105.539062 103.667969 105.828125 103.582031 106.132812 C 103.5 106.4375 103.453125 106.746094 103.449219 107.0625 C 103.445312 107.378906 103.480469 107.6875 103.554688 107.996094 C 103.554688 107.996094 106.953125 121.757812 106.957031 121.769531 C 107.082031 122.238281 107.289062 122.664062 107.578125 123.050781 C 107.867188 123.4375 108.21875 123.757812 108.632812 124.007812 C 109.046875 124.257812 109.496094 124.421875 109.972656 124.496094 C 110.449219 124.574219 110.925781 124.558594 111.398438 124.449219 C 111.867188 124.332031 112.300781 124.128906 112.691406 123.839844 C 113.082031 123.554688 113.40625 123.203125 113.65625 122.785156 C 113.90625 122.367188 114.070312 121.921875 114.144531 121.441406 C 114.214844 120.957031 114.195312 120.484375 114.078125 120.011719 L 113.832031 119.019531 L 130.453125 135.636719 C 130.796875 135.980469 131.191406 136.246094 131.640625 136.429688 C 132.089844 136.613281 132.558594 136.707031 133.042969 136.707031 C 133.527344 136.707031 133.996094 136.613281 134.445312 136.425781 C 134.894531 136.242188 135.289062 135.976562 135.632812 135.632812 C 135.976562 135.289062 136.242188 134.894531 136.425781 134.445312 C 136.613281 133.996094 136.707031 133.53125 136.707031 133.042969 C 136.707031 132.558594 136.613281 132.089844 136.429688 131.640625 C 136.246094 131.191406 135.980469 130.796875 135.636719 130.453125 L 119.015625 113.832031 L 120.007812 114.078125 C 120.480469 114.195312 120.957031 114.214844 121.4375 114.144531 C 121.917969 114.070312 122.367188 113.910156 122.785156 113.65625 C 123.203125 113.40625 123.554688 113.085938 123.84375 112.691406 C 124.128906 112.300781 124.332031 111.867188 124.449219 111.398438 Z M 124.449219 111.398438 " fill-opacity="1" fill-rule="nonzero"/><path fill="#04473f" d="M 138.6875 260.734375 C 139.089844 261 139.53125 261.179688 140.007812 261.273438 C 140.480469 261.363281 140.957031 261.363281 141.429688 261.265625 C 141.90625 261.171875 142.34375 260.988281 142.746094 260.71875 C 143.148438 260.449219 143.484375 260.113281 143.753906 259.710938 C 144.019531 259.308594 144.203125 258.867188 144.296875 258.394531 C 144.394531 257.917969 144.394531 257.445312 144.300781 256.96875 C 144.207031 256.492188 144.027344 256.054688 143.761719 255.648438 C 143.496094 255.246094 143.160156 254.910156 142.761719 254.636719 C 141.785156 253.984375 140.824219 253.3125 139.878906 252.621094 C 139.472656 252.324219 139.027344 252.117188 138.542969 252.003906 L 134.152344 256.394531 C 134.347656 257.28125 134.808594 257.992188 135.539062 258.53125 C 136.570312 259.289062 137.621094 260.023438 138.6875 260.734375 Z M 138.6875 260.734375 " fill-opacity="1" fill-rule="nonzero"/><path fill="#04473f" d="M 239.292969 116.34375 C 238.261719 115.589844 237.214844 114.859375 236.148438 114.148438 C 235.742188 113.878906 235.300781 113.691406 234.820312 113.59375 C 234.34375 113.5 233.863281 113.496094 233.386719 113.59375 C 232.90625 113.6875 232.464844 113.871094 232.058594 114.140625 C 231.652344 114.414062 231.3125 114.75 231.042969 115.15625 C 230.773438 115.566406 230.589844 116.007812 230.496094 116.488281 C 230.402344 116.964844 230.40625 117.445312 230.503906 117.921875 C 230.601562 118.402344 230.785156 118.84375 231.0625 119.246094 C 231.335938 119.652344 231.675781 119.988281 232.085938 120.253906 C 233.0625 120.90625 234.027344 121.578125 234.976562 122.269531 C 235.453125 122.601562 235.976562 122.804688 236.550781 122.882812 L 240.746094 118.6875 C 240.582031 117.707031 240.097656 116.925781 239.292969 116.34375 Z M 239.292969 116.34375 " fill-opacity="1" fill-rule="nonzero"/><path fill="#04473f" d="M 135.636719 239.351562 C 135.292969 239.007812 134.898438 238.742188 134.449219 238.558594 C 134 238.371094 133.53125 238.277344 133.046875 238.277344 C 132.558594 238.277344 132.089844 238.371094 131.640625 238.558594 C 131.191406 238.742188 130.796875 239.007812 130.453125 239.351562 L 113.832031 255.972656 L 114.078125 254.980469 C 114.195312 254.507812 114.214844 254.03125 114.140625 253.550781 C 114.070312 253.070312 113.90625 252.621094 113.65625 252.207031 C 113.402344 251.789062 113.082031 251.4375 112.691406 251.148438 C 112.300781 250.863281 111.867188 250.660156 111.394531 250.542969 C 110.925781 250.425781 110.449219 250.40625 109.96875 250.476562 C 109.488281 250.550781 109.039062 250.710938 108.621094 250.964844 C 108.207031 251.214844 107.855469 251.535156 107.566406 251.925781 C 107.277344 252.316406 107.074219 252.75 106.957031 253.222656 L 103.554688 266.996094 C 103.402344 267.617188 103.410156 268.238281 103.582031 268.859375 C 103.753906 269.476562 104.070312 270.011719 104.523438 270.464844 C 104.980469 270.914062 105.519531 271.222656 106.136719 271.394531 C 106.75 271.5625 107.371094 271.578125 107.996094 271.433594 L 121.769531 268.03125 C 122.238281 267.914062 122.671875 267.710938 123.0625 267.425781 C 123.457031 267.136719 123.777344 266.785156 124.027344 266.367188 C 124.28125 265.953125 124.441406 265.503906 124.515625 265.023438 C 124.585938 264.542969 124.566406 264.066406 124.449219 263.59375 C 124.332031 263.121094 124.128906 262.6875 123.839844 262.296875 C 123.554688 261.90625 123.199219 261.585938 122.785156 261.332031 C 122.367188 261.082031 121.917969 260.917969 121.4375 260.847656 C 120.957031 260.773438 120.480469 260.796875 120.007812 260.914062 L 119.015625 261.15625 L 135.636719 244.539062 C 135.980469 244.195312 136.246094 243.796875 136.433594 243.347656 C 136.617188 242.898438 136.710938 242.429688 136.710938 241.945312 C 136.710938 241.457031 136.617188 240.992188 136.433594 240.542969 C 136.246094 240.09375 135.980469 239.695312 135.636719 239.351562 Z M 135.636719 239.351562 " fill-opacity="1" fill-rule="nonzero"/><path fill="#04473f" d="M 239.351562 135.636719 C 239.699219 135.976562 240.097656 136.234375 240.546875 136.417969 C 240.992188 136.601562 241.460938 136.691406 241.945312 136.691406 C 242.429688 136.691406 242.894531 136.601562 243.34375 136.417969 C 243.792969 136.234375 244.191406 135.976562 244.539062 135.636719 L 261.15625 119.019531 L 260.910156 120.011719 C 260.796875 120.480469 260.773438 120.957031 260.847656 121.4375 C 260.921875 121.917969 261.082031 122.367188 261.335938 122.78125 C 261.585938 123.199219 261.90625 123.550781 262.300781 123.839844 C 262.691406 124.125 263.121094 124.328125 263.59375 124.445312 C 264.066406 124.5625 264.542969 124.585938 265.023438 124.511719 C 265.503906 124.4375 265.953125 124.277344 266.367188 124.027344 C 266.785156 123.773438 267.136719 123.453125 267.425781 123.0625 C 267.710938 122.671875 267.914062 122.242188 268.03125 121.769531 L 271.433594 107.996094 C 271.511719 107.6875 271.546875 107.378906 271.539062 107.0625 C 271.535156 106.746094 271.492188 106.4375 271.40625 106.132812 C 271.320312 105.828125 271.199219 105.539062 271.039062 105.265625 C 270.882812 104.996094 270.691406 104.746094 270.46875 104.523438 C 270.242188 104.300781 269.996094 104.109375 269.722656 103.949219 C 269.449219 103.789062 269.160156 103.667969 268.859375 103.582031 C 268.554688 103.5 268.242188 103.453125 267.929688 103.449219 C 267.613281 103.445312 267.300781 103.480469 266.996094 103.554688 L 253.222656 106.957031 C 252.75 107.074219 252.316406 107.277344 251.925781 107.566406 C 251.535156 107.851562 251.214844 108.207031 250.960938 108.621094 C 250.710938 109.039062 250.546875 109.488281 250.476562 109.96875 C 250.402344 110.449219 250.421875 110.925781 250.539062 111.398438 C 250.65625 111.867188 250.859375 112.300781 251.148438 112.691406 C 251.4375 113.082031 251.789062 113.40625 252.203125 113.65625 C 252.621094 113.90625 253.070312 114.070312 253.550781 114.144531 C 254.03125 114.214844 254.507812 114.195312 254.980469 114.078125 L 255.972656 113.832031 L 239.351562 130.453125 C 239.007812 130.796875 238.742188 131.191406 238.558594 131.640625 C 238.371094 132.089844 238.277344 132.558594 238.277344 133.046875 C 238.277344 133.53125 238.371094 134 238.558594 134.449219 C 238.742188 134.898438 239.007812 135.292969 239.351562 135.636719 Z M 239.351562 135.636719 " fill-opacity="1" fill-rule="nonzero"/><path fill="#04473f" d="M 215.699219 173.5 L 213.527344 170.664062 C 209.140625 164.9375 204.617188 159.023438 200.609375 152.898438 C 201.378906 149.484375 202.609375 146.246094 204.296875 143.183594 C 204.457031 142.898438 204.847656 142.371094 205.222656 141.859375 C 206.898438 139.601562 209.425781 136.183594 208.066406 132.539062 C 207.742188 131.875 207.320312 131.277344 206.800781 130.75 C 206.277344 130.222656 205.6875 129.796875 205.023438 129.46875 C 204.359375 129.136719 203.660156 128.925781 202.925781 128.828125 C 202.191406 128.730469 201.460938 128.757812 200.734375 128.902344 C 198.277344 129.425781 196.152344 130.574219 194.367188 132.34375 C 192.960938 133.527344 192.246094 134.046875 191.695312 134.09375 C 191.597656 133.972656 191.484375 133.824219 191.390625 133.703125 C 190.652344 132.628906 189.710938 131.78125 188.5625 131.164062 C 184.546875 129.183594 181.550781 132.402344 180.421875 133.621094 C 180.234375 133.835938 180.035156 134.039062 179.824219 134.234375 C 179.222656 134.757812 179.0625 134.6875 178.9375 134.644531 C 178.410156 134.410156 177.90625 134.132812 177.425781 133.816406 C 176.28125 133.046875 175.046875 132.46875 173.726562 132.074219 C 172.863281 131.851562 171.996094 131.820312 171.121094 131.984375 C 170.246094 132.148438 169.449219 132.488281 168.726562 133.011719 C 168.070312 133.488281 167.554688 134.085938 167.171875 134.800781 C 166.789062 135.515625 166.582031 136.28125 166.546875 137.089844 C 166.582031 138.152344 166.808594 139.167969 167.222656 140.148438 C 167.636719 141.125 168.214844 141.992188 168.957031 142.753906 L 169.363281 143.269531 C 169.390625 143.300781 171.765625 146.414062 173.464844 154.265625 C 173.421875 154.324219 173.394531 154.394531 173.355469 154.457031 C 169.65625 159.964844 165.554688 165.320312 161.578125 170.515625 L 159.292969 173.5 C 150.480469 185.050781 142.480469 198.042969 143.59375 214.742188 C 144.933594 234.867188 164.105469 245.039062 181.351562 245.96875 C 185.445312 246.191406 189.542969 246.191406 193.636719 245.96875 C 210.882812 245.039062 230.054688 234.867188 231.394531 214.742188 C 232.511719 198.039062 224.507812 185.050781 215.699219 173.5 Z M 184.625 139.777344 C 185.035156 139.410156 185.425781 139.019531 185.796875 138.609375 C 185.816406 138.589844 185.839844 138.5625 185.863281 138.539062 C 186.824219 139.882812 188.101562 140.769531 189.695312 141.199219 C 193.828125 142.195312 196.8125 139.863281 198.839844 138.167969 C 198.5 138.625 198.1875 139.097656 197.90625 139.585938 C 195.644531 143.699219 194.0625 148.054688 193.164062 152.660156 L 180.613281 152.660156 C 179.851562 148.855469 178.628906 145.203125 176.945312 141.703125 C 177.613281 141.894531 178.296875 141.996094 178.992188 142.003906 C 179.683594 142.015625 180.371094 141.9375 181.042969 141.769531 C 181.71875 141.601562 182.359375 141.347656 182.964844 141.007812 C 183.574219 140.671875 184.125 140.261719 184.625 139.777344 Z M 193.53125 219.78125 C 192.71875 220.109375 191.878906 220.359375 191.019531 220.53125 L 191.019531 222.332031 C 191.019531 222.816406 190.925781 223.285156 190.738281 223.734375 C 190.550781 224.183594 190.289062 224.578125 189.945312 224.921875 C 189.601562 225.265625 189.203125 225.53125 188.753906 225.71875 C 188.304688 225.902344 187.835938 225.996094 187.351562 225.996094 C 186.863281 225.996094 186.398438 225.902344 185.949219 225.71875 C 185.5 225.53125 185.101562 225.265625 184.757812 224.921875 C 184.414062 224.578125 184.148438 224.183594 183.964844 223.734375 C 183.777344 223.285156 183.683594 222.816406 183.683594 222.332031 L 183.683594 220.261719 C 182.292969 219.886719 180.976562 219.335938 179.734375 218.609375 C 179.316406 218.359375 178.960938 218.042969 178.667969 217.65625 C 178.375 217.265625 178.167969 216.835938 178.046875 216.367188 C 177.921875 215.894531 177.894531 215.417969 177.964844 214.9375 C 178.03125 214.453125 178.191406 214.003906 178.4375 213.585938 C 178.683594 213.167969 179 212.8125 179.390625 212.519531 C 179.777344 212.226562 180.207031 212.019531 180.679688 211.898438 C 181.152344 211.777344 181.628906 211.75 182.109375 211.816406 C 182.589844 211.886719 183.042969 212.042969 183.460938 212.289062 C 184.5625 212.949219 185.753906 213.339844 187.03125 213.460938 C 188.308594 213.585938 189.550781 213.429688 190.761719 212.992188 C 191.710938 212.601562 193.394531 211.464844 192.898438 209.960938 C 192.347656 208.328125 190.519531 207.664062 186.765625 206.640625 C 183.222656 205.675781 178.8125 204.472656 176.320312 200.539062 C 175.773438 199.703125 175.359375 198.808594 175.074219 197.851562 C 174.792969 196.894531 174.652344 195.914062 174.65625 194.917969 C 174.660156 193.917969 174.808594 192.941406 175.101562 191.988281 C 175.390625 191.03125 175.816406 190.140625 176.371094 189.308594 C 177.242188 188.09375 178.3125 187.089844 179.578125 186.289062 C 180.84375 185.488281 182.210938 184.953125 183.683594 184.683594 L 183.683594 181.996094 C 183.683594 181.507812 183.777344 181.039062 183.964844 180.589844 C 184.148438 180.140625 184.414062 179.746094 184.757812 179.402344 C 185.101562 179.058594 185.5 178.792969 185.949219 178.605469 C 186.398438 178.421875 186.863281 178.328125 187.351562 178.328125 C 187.835938 178.328125 188.304688 178.421875 188.753906 178.605469 C 189.203125 178.792969 189.601562 179.058594 189.945312 179.402344 C 190.289062 179.746094 190.550781 180.140625 190.738281 180.589844 C 190.925781 181.039062 191.019531 181.507812 191.019531 181.996094 L 191.019531 184.632812 C 192.535156 184.964844 193.960938 185.535156 195.285156 186.347656 C 195.695312 186.605469 196.042969 186.929688 196.328125 187.324219 C 196.609375 187.714844 196.808594 188.148438 196.917969 188.621094 C 197.03125 189.09375 197.046875 189.566406 196.972656 190.046875 C 196.894531 190.523438 196.730469 190.96875 196.476562 191.382812 C 196.222656 191.796875 195.898438 192.144531 195.507812 192.429688 C 195.113281 192.714844 194.683594 192.914062 194.210938 193.027344 C 193.742188 193.140625 193.265625 193.160156 192.785156 193.085938 C 192.308594 193.011719 191.859375 192.847656 191.445312 192.597656 C 190.785156 192.183594 190.074219 191.902344 189.308594 191.753906 C 186.859375 191.320312 183.644531 191.65625 182.421875 193.453125 C 182.128906 193.941406 181.988281 194.472656 182.003906 195.042969 C 182.023438 195.617188 182.191406 196.136719 182.515625 196.609375 C 183.484375 198.144531 186.015625 198.835938 188.695312 199.566406 C 192.835938 200.695312 197.996094 202.097656 199.855469 207.640625 C 201.472656 212.519531 198.8125 217.621094 193.53125 219.78125 Z M 193.53125 219.78125 " fill-opacity="1" fill-rule="nonzero"/></svg>