<svg xmlns="http://www.w3.org/2000/svg" xmlns:xlink="http://www.w3.org/1999/xlink" width="500" zoomAndPan="magnify" viewBox="0 0 375 374.999991" height="500" preserveAspectRatio="xMidYMid meet" version="1.0"><defs><clipPath id="1639b9e151"><path d="M 110 132 L 264 132 L 264 303.671875 L 110 303.671875 Z M 110 132 " clip-rule="nonzero"/></clipPath><clipPath id="a0640b17a7"><path d="M 53 71.257812 L 322 71.257812 L 322 279 L 53 279 Z M 53 71.257812 " clip-rule="nonzero"/></clipPath></defs><rect x="-37.5" width="450" fill="#ffffff" y="-37.499999" height="449.999989" fill-opacity="1"/><rect x="-37.5" width="450" fill="#ffffff" y="-37.499999" height="449.999989" fill-opacity="1"/><g clip-path="url(#1639b9e151)"><path fill="#04473f" d="M 213.925781 278.503906 C 211.828125 278.503906 209.730469 276.40625 209.730469 274.308594 C 209.730469 272.210938 211.828125 270.113281 213.925781 270.113281 C 224.820312 270.113281 234.066406 261.292969 234.066406 249.972656 C 234.066406 247.46875 236.140625 245.777344 238.261719 245.777344 C 240.335938 245.777344 242.457031 247.46875 242.457031 249.972656 C 242.457031 265.917969 229.871094 278.503906 213.925781 278.503906 Z M 237.832031 193.339844 C 235.332031 180.757812 220.21875 175.726562 210.566406 183.6875 C 205.964844 175.726562 195.882812 172.796875 187.496094 177.394531 L 187.496094 148.886719 C 187.496094 139.664062 179.9375 132.109375 170.714844 132.109375 C 161.492188 132.109375 153.933594 139.664062 153.933594 148.886719 L 153.933594 225.230469 C 153.503906 224.804688 137.988281 200.894531 116.179688 217.675781 C 109.886719 222.300781 109.054688 231.09375 113.652344 236.984375 L 156.867188 292.757812 C 162.324219 299.90625 170.714844 303.671875 179.535156 303.671875 L 234.472656 303.671875 C 249.988281 303.671875 263.003906 291.089844 263.003906 275.140625 L 263.003906 207.617188 C 263.433594 194.605469 248.726562 186.644531 237.832031 193.339844 " fill-opacity="1" fill-rule="nonzero"/></g><g clip-path="url(#a0640b17a7)"><path fill="#04473f" d="M 317.539062 239.914062 L 304.523438 239.914062 L 304.523438 75.476562 C 304.523438 73.378906 302.425781 71.28125 300.328125 71.28125 L 74.660156 71.28125 C 72.5625 71.28125 70.464844 73.378906 70.464844 75.476562 L 70.464844 239.914062 L 57.449219 239.914062 C 55.351562 239.914062 53.253906 242.011719 53.253906 244.109375 C 53.253906 263.390625 68.773438 278.503906 87.648438 278.503906 L 135.890625 278.503906 C 105.691406 239.484375 107.359375 241.582031 106.121094 239.914062 L 78.855469 239.914062 L 78.855469 79.671875 L 296.132812 79.671875 L 296.132812 239.914062 L 271.820312 239.914062 L 271.820312 278.503906 L 287.339844 278.503906 C 306.214844 278.503906 321.734375 262.988281 321.734375 244.109375 C 321.734375 241.582031 320.039062 239.914062 317.539062 239.914062 " fill-opacity="1" fill-rule="nonzero"/></g><path fill="#04473f" d="M 169.878906 116.996094 C 167.355469 116.996094 165.683594 115.328125 165.683594 112.800781 L 165.683594 99.382812 C 165.683594 96.855469 167.355469 95.1875 169.878906 95.1875 C 172.382812 95.1875 174.074219 96.855469 174.074219 99.382812 L 174.074219 112.800781 C 174.074219 115.328125 171.976562 116.996094 169.878906 116.996094 " fill-opacity="1" fill-rule="nonzero"/><path fill="#04473f" d="M 149.3125 117.425781 L 142.613281 105.246094 C 141.351562 103.148438 142.183594 100.648438 144.28125 99.382812 C 146.378906 98.121094 148.90625 98.953125 150.167969 101.050781 L 156.867188 113.230469 C 158.128906 115.328125 157.296875 117.832031 155.199219 119.09375 C 153.101562 119.929688 150.167969 119.523438 149.3125 117.425781 " fill-opacity="1" fill-rule="nonzero"/><path fill="#04473f" d="M 184.5625 119.09375 C 182.464844 117.832031 181.605469 115.328125 182.871094 113.230469 L 189.589844 101.050781 C 190.832031 98.953125 193.359375 98.121094 195.453125 99.382812 C 197.550781 100.648438 198.386719 103.148438 197.148438 105.246094 L 190.425781 117.425781 C 189.164062 119.523438 186.230469 119.929688 184.5625 119.09375 " fill-opacity="1" fill-rule="nonzero"/><path fill="#04473f" d="M 279.78125 143.859375 L 228.179688 143.859375 C 225.679688 143.859375 223.984375 142.167969 223.984375 139.664062 C 223.984375 137.136719 225.679688 135.46875 228.179688 135.46875 L 279.78125 135.46875 C 282.285156 135.46875 283.976562 137.136719 283.976562 139.664062 C 283.976562 142.167969 282.285156 143.859375 279.78125 143.859375 " fill-opacity="1" fill-rule="nonzero"/><path fill="#04473f" d="M 279.78125 114.472656 L 219.789062 114.472656 C 217.289062 114.472656 215.59375 112.800781 215.59375 110.277344 C 215.59375 107.773438 217.289062 106.082031 219.789062 106.082031 L 279.78125 106.082031 C 282.285156 106.082031 283.976562 107.773438 283.976562 110.277344 C 283.976562 112.800781 282.285156 114.472656 279.78125 114.472656 " fill-opacity="1" fill-rule="nonzero"/><path fill="#04473f" d="M 279.78125 173.199219 L 244.960938 173.199219 C 242.457031 173.199219 240.765625 171.53125 240.765625 169.003906 C 240.765625 166.503906 242.457031 164.808594 244.960938 164.808594 L 279.78125 164.808594 C 282.285156 164.808594 283.976562 166.503906 283.976562 169.003906 C 283.976562 171.53125 282.285156 173.199219 279.78125 173.199219 " fill-opacity="1" fill-rule="nonzero"/><path fill="#04473f" d="M 131.265625 143.859375 L 101.925781 143.859375 C 99.398438 143.859375 97.730469 142.167969 97.730469 139.664062 C 97.730469 137.136719 99.398438 135.46875 101.925781 135.46875 L 131.265625 135.46875 C 133.792969 135.46875 135.460938 137.136719 135.460938 139.664062 C 135.460938 142.167969 133.792969 143.859375 131.265625 143.859375 " fill-opacity="1" fill-rule="nonzero"/><path fill="#04473f" d="M 131.265625 173.199219 L 101.925781 173.199219 C 99.398438 173.199219 97.730469 171.53125 97.730469 169.003906 C 97.730469 166.503906 99.398438 164.808594 101.925781 164.808594 L 131.265625 164.808594 C 133.792969 164.808594 135.460938 166.503906 135.460938 169.003906 C 135.460938 171.53125 133.792969 173.199219 131.265625 173.199219 " fill-opacity="1" fill-rule="nonzero"/></svg>