<svg xmlns="http://www.w3.org/2000/svg" xmlns:xlink="http://www.w3.org/1999/xlink" width="500" zoomAndPan="magnify" viewBox="0 0 375 374.999991" height="500" preserveAspectRatio="xMidYMid meet" version="1.0"><defs><clipPath id="83cb50e5a9"><path d="M 87.394531 87.394531 L 287.453125 87.394531 L 287.453125 287.597656 L 87.394531 287.597656 Z M 87.394531 87.394531 " clip-rule="nonzero"/></clipPath></defs><rect x="-37.5" width="450" fill="#ffffff" y="-37.499999" height="449.999989" fill-opacity="1"/><rect x="-37.5" width="450" fill="#ffffff" y="-37.499999" height="449.999989" fill-opacity="1"/><g clip-path="url(#83cb50e5a9)"><path fill="#04473f" d="M 186.800781 149.425781 C 207.617188 149.035156 224.785156 165.597656 225.175781 186.410156 C 225.175781 186.785156 225.175781 187.140625 225.175781 187.511719 C 225.40625 208.328125 208.734375 225.390625 187.921875 225.621094 C 167.109375 225.851562 150.046875 209.179688 149.816406 188.367188 C 149.816406 188.082031 149.816406 187.796875 149.816406 187.511719 C 149.585938 166.808594 166.097656 149.796875 186.800781 149.425781 Z M 190.835938 87.484375 C 185.21875 87.289062 179.585938 87.570312 174.023438 88.316406 C 172.050781 88.585938 170.433594 89.972656 169.847656 91.855469 L 164.300781 109.914062 C 163.820312 111.441406 162.648438 112.667969 161.136719 113.203125 C 158.523438 114.144531 155.964844 115.191406 153.457031 116.382812 C 152 117.09375 150.296875 117.058594 148.875 116.292969 L 132.203125 107.441406 C 130.441406 106.519531 128.308594 106.695312 126.746094 107.90625 C 119.601562 113.324219 113.238281 119.707031 107.796875 126.832031 C 106.589844 128.414062 106.410156 130.53125 107.335938 132.289062 L 116.207031 148.980469 C 116.96875 150.382812 117.039062 152.089844 116.382812 153.546875 C 115.175781 156.054688 114.109375 158.613281 113.183594 161.226562 C 112.652344 162.753906 111.425781 163.925781 109.878906 164.390625 L 91.835938 169.953125 C 89.9375 170.523438 88.550781 172.15625 88.300781 174.113281 C 87.09375 183.015625 87.09375 192.011719 88.300781 200.914062 C 88.550781 202.871094 89.9375 204.503906 91.835938 205.074219 L 109.878906 210.636719 C 111.425781 211.097656 112.652344 212.273438 113.183594 213.800781 C 114.109375 216.414062 115.175781 218.972656 116.382812 221.480469 C 117.039062 222.9375 116.96875 224.644531 116.207031 226.046875 L 107.335938 242.734375 C 106.410156 244.476562 106.589844 246.609375 107.796875 248.191406 C 113.238281 255.320312 119.601562 261.683594 126.746094 267.121094 C 128.308594 268.332031 130.441406 268.492188 132.203125 267.582031 L 148.875 258.734375 C 150.296875 257.96875 152 257.933594 153.457031 258.625 C 155.964844 259.816406 158.523438 260.882812 161.136719 261.808594 C 162.648438 262.339844 163.820312 263.566406 164.300781 265.09375 L 169.847656 283.152344 C 170.433594 285.054688 172.050781 286.441406 174.023438 286.691406 C 182.910156 287.898438 191.921875 287.898438 200.808594 286.691406 C 202.761719 286.441406 204.398438 285.054688 204.984375 283.152344 L 210.53125 265.09375 C 211.011719 263.566406 212.183594 262.339844 213.695312 261.808594 C 216.308594 260.882812 218.882812 259.816406 221.371094 258.625 C 222.828125 257.933594 224.519531 257.96875 225.941406 258.734375 L 242.628906 267.582031 C 244.390625 268.492188 246.523438 268.332031 248.085938 267.121094 C 255.230469 261.683594 261.59375 255.320312 267.03125 248.191406 C 268.242188 246.609375 268.417969 244.476562 267.496094 242.734375 L 258.644531 226.046875 C 257.863281 224.644531 257.808594 222.9375 258.464844 221.480469 C 259.65625 218.972656 260.722656 216.414062 261.648438 213.800781 C 262.179688 212.273438 263.40625 211.097656 264.953125 210.636719 L 283.011719 205.074219 C 284.894531 204.488281 286.28125 202.871094 286.546875 200.914062 C 287.738281 192.011719 287.738281 183.015625 286.546875 174.113281 C 286.28125 172.15625 284.894531 170.523438 283.011719 169.953125 L 264.953125 164.390625 C 263.40625 163.925781 262.179688 162.753906 261.648438 161.226562 C 260.722656 158.613281 259.65625 156.054688 258.464844 153.546875 C 257.808594 152.089844 257.863281 150.382812 258.644531 148.980469 L 267.496094 132.289062 C 268.417969 130.53125 268.242188 128.414062 267.03125 126.832031 C 261.59375 119.707031 255.230469 113.324219 248.085938 107.90625 C 246.523438 106.695312 244.390625 106.519531 242.628906 107.441406 L 225.941406 116.292969 C 224.519531 117.058594 222.828125 117.09375 221.371094 116.402344 C 218.882812 115.210938 216.308594 114.144531 213.695312 113.21875 C 212.183594 112.6875 211.011719 111.460938 210.53125 109.914062 L 204.984375 91.871094 C 204.398438 89.972656 202.761719 88.585938 200.808594 88.316406 C 197.503906 87.875 194.179688 87.589844 190.835938 87.484375 " fill-opacity="1" fill-rule="nonzero"/></g></svg>