<svg xmlns="http://www.w3.org/2000/svg" xmlns:xlink="http://www.w3.org/1999/xlink" width="500" zoomAndPan="magnify" viewBox="0 0 375 374.999991" height="500" preserveAspectRatio="xMidYMid meet" version="1.0"><defs><clipPath id="b8404c59d8"><path d="M 96.273438 48 L 278.523438 48 L 278.523438 327 L 96.273438 327 Z M 96.273438 48 " clip-rule="nonzero"/></clipPath></defs><rect x="-37.5" width="450" fill="#ffffff" y="-37.499999" height="449.999989" fill-opacity="1"/><rect x="-37.5" width="450" fill="#ffffff" y="-37.499999" height="449.999989" fill-opacity="1"/><g clip-path="url(#b8404c59d8)"><path fill="#04473f" d="M 164.382812 48.535156 C 161.34375 48.535156 158.921875 50.363281 158.304688 53.40625 L 143.21875 137.335938 L 121.8125 137.335938 C 115.730469 137.335938 109.648438 140.378906 105.992188 145.84375 L 99.316406 156.175781 C 97.488281 159.21875 96.273438 162.851562 96.273438 166.511719 L 96.273438 301.542969 C 96.273438 315.511719 107.226562 326.460938 121.195312 326.460938 L 253.804688 326.460938 C 267.773438 326.460938 278.722656 315.511719 278.722656 301.542969 L 278.722656 166.511719 C 278.722656 162.851562 277.511719 159.21875 275.683594 156.175781 L 269.007812 145.84375 C 265.347656 140.378906 259.886719 137.335938 253.1875 137.335938 L 245.558594 137.335938 L 254.398438 89.894531 C 247.105469 78.945312 242.851562 72.863281 234.941406 61.910156 L 165.621094 49.128906 C 165.621094 49.128906 165.003906 48.535156 164.382812 48.535156 Z M 169.253906 61.910156 L 227.625 72.863281 L 233.707031 81.367188 L 241.640625 92.320312 L 230.070312 156.175781 L 152.222656 156.175781 Z M 176.453125 71.128906 L 174.21875 83.101562 L 222.871094 92.222656 L 225.105469 80.25 Z M 170.324219 95.453125 L 168.1875 107.429688 L 229.003906 118.378906 L 231.140625 106.40625 Z M 165.453125 119.78125 L 163.316406 131.753906 L 224.132812 142.707031 L 226.269531 130.734375 Z M 121.8125 149.5 L 141.03125 149.5 L 139.820312 156.175781 L 132.765625 156.175781 C 129.105469 156.175781 126.683594 158.597656 126.683594 162.257812 C 126.683594 165.917969 129.105469 168.339844 132.765625 168.339844 L 242.234375 168.339844 C 245.894531 168.339844 248.316406 165.917969 248.316406 162.257812 C 248.316406 158.597656 245.894531 156.175781 242.234375 156.175781 L 242.042969 156.175781 L 243.304688 149.5 L 253.1875 149.5 C 255.609375 149.5 257.4375 150.710938 258.648438 152.542969 L 265.347656 162.851562 C 265.96875 164.085938 266.5625 165.296875 266.5625 166.511719 L 266.5625 302.136719 C 266.5625 309.429688 261.097656 314.296875 253.804688 314.296875 L 121.195312 314.296875 C 113.902344 314.296875 108.4375 308.835938 108.4375 301.542969 L 108.4375 166.511719 C 108.4375 165.296875 109.03125 164.085938 109.648438 162.851562 L 116.347656 152.542969 C 117.5625 150.710938 119.390625 149.5 121.8125 149.5 Z M 187.5 180.503906 C 154.050781 180.503906 126.683594 207.871094 126.683594 241.320312 C 126.683594 274.769531 154.050781 302.136719 187.5 302.136719 C 220.949219 302.136719 248.316406 274.769531 248.316406 241.320312 C 248.316406 207.871094 220.949219 180.503906 187.5 180.503906 Z M 187.5 198.746094 C 191.160156 198.746094 193.582031 201.171875 193.582031 204.828125 L 193.582031 241.320312 C 193.582031 244.976562 191.160156 247.402344 187.5 247.402344 L 144.929688 247.402344 C 141.269531 247.402344 138.847656 244.976562 138.847656 241.320312 C 138.847656 237.660156 141.269531 235.238281 144.929688 235.238281 L 181.417969 235.238281 L 181.417969 204.828125 C 181.417969 201.171875 183.839844 198.746094 187.5 198.746094 Z M 187.5 198.746094 " fill-opacity="1" fill-rule="nonzero"/></g></svg>