<svg xmlns="http://www.w3.org/2000/svg" xmlns:xlink="http://www.w3.org/1999/xlink" width="500" zoomAndPan="magnify" viewBox="0 0 375 374.999991" height="500" preserveAspectRatio="xMidYMid meet" version="1.0"><defs><clipPath id="9796880bf6"><path d="M 66.472656 82.535156 L 308.722656 82.535156 L 308.722656 265.535156 L 66.472656 265.535156 Z M 66.472656 82.535156 " clip-rule="nonzero"/></clipPath></defs><rect x="-37.5" width="450" fill="#ffffff" y="-37.499999" height="449.999989" fill-opacity="1"/><rect x="-37.5" width="450" fill="#ffffff" y="-37.499999" height="449.999989" fill-opacity="1"/><g clip-path="url(#9796880bf6)"><path fill="#04473f" d="M 306.03125 82.535156 L 68.960938 82.535156 C 67.597656 82.535156 66.492188 83.640625 66.492188 85.003906 L 66.492188 262.808594 C 66.492188 264.167969 67.597656 265.277344 68.960938 265.277344 L 306.03125 265.277344 C 307.394531 265.277344 308.503906 264.167969 308.503906 262.808594 L 308.503906 85.003906 C 308.503906 83.640625 307.394531 82.535156 306.03125 82.535156 Z M 303.5625 112.167969 L 229.476562 112.167969 L 229.476562 87.472656 L 303.5625 87.472656 Z M 150.453125 112.167969 L 150.453125 87.472656 L 224.539062 87.472656 L 224.539062 112.167969 Z M 224.539062 117.105469 L 224.539062 260.335938 L 150.453125 260.335938 L 150.453125 117.105469 Z M 145.515625 87.472656 L 145.515625 112.167969 L 71.429688 112.167969 L 71.429688 87.472656 Z M 71.429688 117.105469 L 145.515625 117.105469 L 145.515625 260.335938 L 71.429688 260.335938 Z M 229.476562 260.335938 L 229.476562 117.105469 L 303.5625 117.105469 L 303.5625 260.335938 Z M 229.476562 260.335938 " fill-opacity="1" fill-rule="nonzero"/></g><path fill="#04473f" d="M 118.351562 171.4375 L 98.59375 171.4375 C 97.230469 171.4375 96.125 172.542969 96.125 173.90625 C 96.125 175.269531 97.230469 176.375 98.59375 176.375 L 118.351562 176.375 C 119.714844 176.375 120.820312 175.269531 120.820312 173.90625 C 120.820312 172.542969 119.714844 171.4375 118.351562 171.4375 Z M 118.351562 171.4375 " fill-opacity="1" fill-rule="nonzero"/><path fill="#04473f" d="M 118.351562 201.070312 L 98.59375 201.070312 C 97.230469 201.070312 96.125 202.175781 96.125 203.539062 C 96.125 204.902344 97.230469 206.007812 98.59375 206.007812 L 118.351562 206.007812 C 119.714844 206.007812 120.820312 204.902344 120.820312 203.539062 C 120.820312 202.175781 119.714844 201.070312 118.351562 201.070312 Z M 118.351562 201.070312 " fill-opacity="1" fill-rule="nonzero"/><path fill="#04473f" d="M 118.351562 230.703125 L 98.59375 230.703125 C 97.230469 230.703125 96.125 231.808594 96.125 233.171875 C 96.125 234.535156 97.230469 235.640625 98.59375 235.640625 L 118.351562 235.640625 C 119.714844 235.640625 120.820312 234.535156 120.820312 233.171875 C 120.820312 231.808594 119.714844 230.703125 118.351562 230.703125 Z M 118.351562 230.703125 " fill-opacity="1" fill-rule="nonzero"/><path fill="#04473f" d="M 177.621094 176.375 L 197.375 176.375 C 198.738281 176.375 199.84375 175.269531 199.84375 173.90625 C 199.84375 172.542969 198.738281 171.4375 197.375 171.4375 L 177.621094 171.4375 C 176.257812 171.4375 175.148438 172.542969 175.148438 173.90625 C 175.148438 175.269531 176.257812 176.375 177.621094 176.375 Z M 177.621094 176.375 " fill-opacity="1" fill-rule="nonzero"/><path fill="#04473f" d="M 177.621094 206.007812 L 197.375 206.007812 C 198.738281 206.007812 199.84375 204.902344 199.84375 203.539062 C 199.84375 202.175781 198.738281 201.070312 197.375 201.070312 L 177.621094 201.070312 C 176.257812 201.070312 175.148438 202.175781 175.148438 203.539062 C 175.148438 204.902344 176.257812 206.007812 177.621094 206.007812 Z M 177.621094 206.007812 " fill-opacity="1" fill-rule="nonzero"/><path fill="#04473f" d="M 197.375 230.703125 L 177.621094 230.703125 C 176.257812 230.703125 175.148438 231.808594 175.148438 233.171875 C 175.148438 234.535156 176.257812 235.640625 177.621094 235.640625 L 197.375 235.640625 C 198.738281 235.640625 199.84375 234.535156 199.84375 233.171875 C 199.84375 231.808594 198.738281 230.703125 197.375 230.703125 Z M 197.375 230.703125 " fill-opacity="1" fill-rule="nonzero"/><path fill="#04473f" d="M 276.398438 171.4375 L 256.644531 171.4375 C 255.28125 171.4375 254.171875 172.542969 254.171875 173.90625 C 254.171875 175.269531 255.28125 176.375 256.644531 176.375 L 276.398438 176.375 C 277.761719 176.375 278.867188 175.269531 278.867188 173.90625 C 278.867188 172.542969 277.761719 171.4375 276.398438 171.4375 Z M 276.398438 171.4375 " fill-opacity="1" fill-rule="nonzero"/><path fill="#04473f" d="M 276.398438 201.070312 L 256.644531 201.070312 C 255.28125 201.070312 254.171875 202.175781 254.171875 203.539062 C 254.171875 204.902344 255.28125 206.007812 256.644531 206.007812 L 276.398438 206.007812 C 277.761719 206.007812 278.867188 204.902344 278.867188 203.539062 C 278.867188 202.175781 277.761719 201.070312 276.398438 201.070312 Z M 276.398438 201.070312 " fill-opacity="1" fill-rule="nonzero"/><path fill="#04473f" d="M 276.398438 230.703125 L 256.644531 230.703125 C 255.28125 230.703125 254.171875 231.808594 254.171875 233.171875 C 254.171875 234.535156 255.28125 235.640625 256.644531 235.640625 L 276.398438 235.640625 C 277.761719 235.640625 278.867188 234.535156 278.867188 233.171875 C 278.867188 231.808594 277.761719 230.703125 276.398438 230.703125 Z M 276.398438 230.703125 " fill-opacity="1" fill-rule="nonzero"/><path fill="#04473f" d="M 98.59375 146.742188 L 118.351562 146.742188 C 119.714844 146.742188 120.820312 145.632812 120.820312 144.269531 C 120.820312 142.90625 119.714844 141.800781 118.351562 141.800781 L 98.59375 141.800781 C 97.230469 141.800781 96.125 142.90625 96.125 144.269531 C 96.125 145.632812 97.230469 146.742188 98.59375 146.742188 Z M 98.59375 146.742188 " fill-opacity="1" fill-rule="nonzero"/><path fill="#04473f" d="M 177.621094 146.742188 L 197.375 146.742188 C 198.738281 146.742188 199.84375 145.632812 199.84375 144.269531 C 199.84375 142.90625 198.738281 141.800781 197.375 141.800781 L 177.621094 141.800781 C 176.257812 141.800781 175.148438 142.90625 175.148438 144.269531 C 175.148438 145.632812 176.257812 146.742188 177.621094 146.742188 Z M 177.621094 146.742188 " fill-opacity="1" fill-rule="nonzero"/><path fill="#04473f" d="M 276.398438 141.800781 L 256.644531 141.800781 C 255.28125 141.800781 254.171875 142.90625 254.171875 144.269531 C 254.171875 145.632812 255.28125 146.742188 256.644531 146.742188 L 276.398438 146.742188 C 277.761719 146.742188 278.867188 145.632812 278.867188 144.269531 C 278.867188 142.90625 277.761719 141.800781 276.398438 141.800781 Z M 276.398438 141.800781 " fill-opacity="1" fill-rule="nonzero"/></svg>