<svg xmlns="http://www.w3.org/2000/svg" xmlns:xlink="http://www.w3.org/1999/xlink" width="500" zoomAndPan="magnify" viewBox="0 0 375 374.999991" height="500" preserveAspectRatio="xMidYMid meet" version="1.0"><defs><clipPath id="45ef57f5a8"><path d="M 72.164062 180 L 301 180 L 301 299 L 72.164062 299 Z M 72.164062 180 " clip-rule="nonzero"/></clipPath></defs><rect x="-37.5" width="450" fill="#ffffff" y="-37.499999" height="449.999989" fill-opacity="1"/><rect x="-37.5" width="450" fill="#ffffff" y="-37.499999" height="449.999989" fill-opacity="1"/><g clip-path="url(#45ef57f5a8)"><path fill="#04473f" d="M 295.859375 187.976562 C 289.4375 179.835938 277.84375 178.25 269.46875 184.359375 L 217.5625 222.226562 L 191.398438 202.96875 C 186.296875 199.28125 180.277344 197.328125 173.980469 197.328125 L 169.257812 197.328125 C 167.003906 197.328125 165.183594 199.152344 165.183594 201.402344 C 165.183594 203.652344 167.003906 205.476562 169.257812 205.476562 L 173.980469 205.476562 C 178.550781 205.476562 182.917969 206.894531 186.59375 209.550781 L 210.65625 227.261719 L 200.011719 235.03125 C 195.707031 238.167969 190.097656 238.601562 185.363281 236.160156 L 170.648438 228.5625 C 168.648438 227.53125 166.191406 228.316406 165.160156 230.316406 C 164.128906 232.316406 164.910156 234.773438 166.910156 235.804688 L 181.628906 243.398438 C 189.117188 247.265625 198.003906 246.582031 204.8125 241.613281 L 274.269531 190.941406 C 279.09375 187.425781 285.765625 188.339844 289.460938 193.023438 C 293.691406 198.382812 292.933594 206.046875 287.738281 210.472656 L 199.761719 285.40625 C 194.28125 290.074219 186.765625 291.214844 180.148438 288.375 L 129.164062 266.523438 L 129.164062 198.605469 C 129.164062 192.425781 124.140625 187.398438 117.960938 187.398438 L 83.371094 187.398438 C 77.191406 187.398438 72.164062 192.425781 72.164062 198.605469 L 72.164062 270.726562 C 72.164062 276.90625 77.191406 281.933594 83.371094 281.933594 L 117.960938 281.933594 C 122.617188 281.933594 126.621094 279.074219 128.308594 275.019531 L 176.9375 295.867188 C 186.421875 299.929688 197.191406 298.300781 205.046875 291.609375 L 293.023438 216.675781 C 301.570312 209.394531 302.816406 196.789062 295.859375 187.976562 Z M 117.960938 273.785156 L 83.371094 273.785156 C 81.683594 273.785156 80.3125 272.414062 80.3125 270.726562 L 80.3125 198.605469 C 80.3125 196.917969 81.683594 195.546875 83.371094 195.546875 L 117.960938 195.546875 C 119.644531 195.546875 121.015625 196.917969 121.015625 198.605469 L 121.015625 270.726562 C 121.015625 272.414062 119.644531 273.785156 117.960938 273.785156 Z M 117.960938 273.785156 " fill-opacity="1" fill-rule="nonzero"/></g><path fill="#04473f" d="M 100.523438 176.011719 L 265.683594 176.085938 C 267.933594 176.085938 269.757812 174.261719 269.757812 172.011719 L 269.757812 80.011719 C 269.757812 77.761719 267.933594 75.9375 265.683594 75.9375 L 218.859375 75.9375 C 216.609375 75.9375 214.785156 77.761719 214.785156 80.011719 L 214.785156 125.183594 L 192.183594 107.378906 C 190.707031 106.214844 188.621094 106.214844 187.140625 107.378906 L 169.082031 121.605469 C 168.640625 111.09375 160.628906 102.5 150.335938 101.078125 L 156.28125 90.710938 C 157.46875 88.636719 157.742188 86.246094 157.046875 83.972656 C 156.351562 81.683594 154.695312 79.753906 152.511719 78.675781 L 149.082031 76.984375 C 145.398438 75.167969 140.941406 76.027344 138.25 79.082031 L 134.238281 83.628906 C 133.902344 84.007812 133.195312 83.992188 132.878906 83.625 L 128.8125 78.957031 C 126.242188 76.011719 122.070312 75.0625 118.429688 76.597656 L 113.53125 78.660156 C 111.144531 79.667969 109.332031 81.628906 108.550781 84.046875 C 107.785156 86.410156 108.09375 88.984375 109.390625 91.113281 L 115.429688 101.035156 C 104.738281 102.40625 96.449219 111.507812 96.449219 122.5 L 96.449219 136.980469 C 96.449219 146.585938 92.933594 152.425781 89.773438 158.808594 C 85.847656 166.730469 91.636719 176.011719 100.523438 176.011719 Z M 194.699219 167.878906 L 184.863281 167.878906 L 184.863281 147.941406 L 194.699219 147.941406 Z M 222.933594 84.085938 L 261.609375 84.085938 L 261.609375 167.9375 L 222.933594 167.9375 Z M 189.664062 115.769531 L 214.785156 135.558594 L 214.785156 167.878906 L 202.847656 167.878906 L 202.847656 147.253906 C 202.847656 143.140625 199.5 139.792969 195.386719 139.792969 L 184.175781 139.792969 C 180.0625 139.792969 176.714844 143.140625 176.714844 147.253906 L 176.714844 167.878906 L 164.542969 167.871094 L 164.542969 135.558594 Z M 116.699219 86.171875 L 121.59375 84.105469 C 121.964844 83.949219 122.429688 84.035156 122.664062 84.308594 L 126.734375 88.980469 C 130.292969 93.066406 136.761719 93.085938 140.347656 89.019531 L 144.359375 84.472656 C 144.613281 84.1875 145.101562 84.105469 145.480469 84.292969 C 151.144531 87.085938 149.894531 85.46875 141.066406 100.863281 L 124.859375 100.855469 C 116.191406 86.617188 115.644531 86.613281 116.699219 86.171875 Z M 97.074219 162.425781 C 100.613281 155.28125 104.597656 148.449219 104.597656 136.980469 L 104.597656 122.5 C 104.597656 115.054688 110.714844 109 118.226562 109 L 147.324219 109.015625 C 154.84375 109.015625 160.957031 115.074219 160.957031 122.519531 L 160.957031 128.007812 L 157.945312 130.378906 C 156.964844 131.152344 156.394531 132.332031 156.394531 133.582031 L 156.394531 167.867188 L 100.523438 167.863281 C 97.683594 167.863281 95.832031 164.933594 97.074219 162.425781 Z M 97.074219 162.425781 " fill-opacity="1" fill-rule="nonzero"/><path fill="#04473f" d="M 249.882812 106.542969 C 252.136719 106.542969 253.960938 104.71875 253.960938 102.46875 L 253.960938 100.082031 C 253.960938 97.832031 252.136719 96.007812 249.882812 96.007812 C 247.632812 96.007812 245.808594 97.832031 245.808594 100.082031 L 245.808594 102.46875 C 245.808594 104.71875 247.632812 106.542969 249.882812 106.542969 Z M 249.882812 106.542969 " fill-opacity="1" fill-rule="nonzero"/><path fill="#04473f" d="M 233.847656 106.542969 C 236.097656 106.542969 237.921875 104.71875 237.921875 102.46875 L 237.921875 100.082031 C 237.921875 97.832031 236.097656 96.007812 233.847656 96.007812 C 231.597656 96.007812 229.773438 97.832031 229.773438 100.082031 L 229.773438 102.46875 C 229.773438 104.71875 231.597656 106.542969 233.847656 106.542969 Z M 233.847656 106.542969 " fill-opacity="1" fill-rule="nonzero"/><path fill="#04473f" d="M 249.882812 122.460938 C 252.136719 122.460938 253.960938 120.636719 253.960938 118.386719 L 253.960938 115.996094 C 253.960938 113.746094 252.136719 111.921875 249.882812 111.921875 C 247.632812 111.921875 245.808594 113.746094 245.808594 115.996094 L 245.808594 118.386719 C 245.808594 120.636719 247.632812 122.460938 249.882812 122.460938 Z M 249.882812 122.460938 " fill-opacity="1" fill-rule="nonzero"/><path fill="#04473f" d="M 233.847656 122.460938 C 236.097656 122.460938 237.921875 120.636719 237.921875 118.386719 L 237.921875 115.996094 C 237.921875 113.746094 236.097656 111.921875 233.847656 111.921875 C 231.597656 111.921875 229.773438 113.746094 229.773438 115.996094 L 229.773438 118.386719 C 229.773438 120.636719 231.597656 122.460938 233.847656 122.460938 Z M 233.847656 122.460938 " fill-opacity="1" fill-rule="nonzero"/><path fill="#04473f" d="M 250.695312 129.5625 C 248.445312 129.5625 246.621094 131.386719 246.621094 133.636719 L 246.621094 136.023438 C 246.621094 138.277344 248.445312 140.101562 250.695312 140.101562 C 252.945312 140.101562 254.769531 138.277344 254.769531 136.023438 L 254.769531 133.636719 C 254.769531 131.386719 252.945312 129.5625 250.695312 129.5625 Z M 250.695312 129.5625 " fill-opacity="1" fill-rule="nonzero"/><path fill="#04473f" d="M 234.660156 129.5625 C 232.410156 129.5625 230.585938 131.386719 230.585938 133.636719 L 230.585938 136.023438 C 230.585938 138.277344 232.410156 140.101562 234.660156 140.101562 C 236.910156 140.101562 238.734375 138.277344 238.734375 136.023438 L 238.734375 133.636719 C 238.734375 131.386719 236.910156 129.5625 234.660156 129.5625 Z M 234.660156 129.5625 " fill-opacity="1" fill-rule="nonzero"/><path fill="#04473f" d="M 250.695312 145.480469 C 248.445312 145.480469 246.621094 147.304688 246.621094 149.554688 L 246.621094 151.941406 C 246.621094 154.191406 248.445312 156.015625 250.695312 156.015625 C 252.945312 156.015625 254.769531 154.191406 254.769531 151.941406 L 254.769531 149.554688 C 254.769531 147.304688 252.945312 145.480469 250.695312 145.480469 Z M 250.695312 145.480469 " fill-opacity="1" fill-rule="nonzero"/><path fill="#04473f" d="M 234.660156 145.480469 C 232.410156 145.480469 230.585938 147.304688 230.585938 149.554688 L 230.585938 151.941406 C 230.585938 154.191406 232.410156 156.015625 234.660156 156.015625 C 236.910156 156.015625 238.734375 154.191406 238.734375 151.941406 L 238.734375 149.554688 C 238.734375 147.304688 236.910156 145.480469 234.660156 145.480469 Z M 234.660156 145.480469 " fill-opacity="1" fill-rule="nonzero"/><path fill="#04473f" d="M 132.777344 141.882812 C 134.648438 141.882812 136.171875 143.40625 136.171875 145.277344 C 136.171875 147.148438 134.648438 148.671875 132.777344 148.671875 C 131.320312 148.671875 130.027344 147.746094 129.558594 146.367188 C 128.839844 144.234375 126.527344 143.09375 124.394531 143.8125 C 122.261719 144.535156 121.121094 146.847656 121.839844 148.976562 C 122.972656 152.320312 125.535156 154.875 128.703125 156.070312 L 128.703125 158.582031 C 128.703125 160.832031 130.527344 162.65625 132.777344 162.65625 C 135.027344 162.65625 136.851562 160.832031 136.851562 158.582031 L 136.851562 156.074219 C 141.210938 154.425781 144.320312 150.207031 144.320312 145.277344 C 144.320312 138.910156 139.144531 133.734375 132.777344 133.734375 C 130.90625 133.734375 129.382812 132.210938 129.382812 130.335938 C 129.382812 128.464844 130.90625 126.941406 132.777344 126.941406 C 133.875 126.941406 134.910156 127.476562 135.546875 128.375 C 136.851562 130.207031 139.398438 130.632812 141.230469 129.328125 C 143.0625 128.023438 143.492188 125.480469 142.1875 123.648438 C 140.839844 121.757812 138.96875 120.339844 136.851562 119.539062 L 136.851562 116.332031 C 136.851562 114.078125 135.027344 112.257812 132.777344 112.257812 C 130.527344 112.257812 128.703125 114.078125 128.703125 116.332031 L 128.703125 119.539062 C 124.34375 121.1875 121.234375 125.40625 121.234375 130.335938 C 121.234375 136.703125 126.414062 141.882812 132.777344 141.882812 Z M 132.777344 141.882812 " fill-opacity="1" fill-rule="nonzero"/><path fill="#04473f" d="M 159.75 201.285156 C 159.75 201.585938 159.71875 201.882812 159.660156 202.179688 C 159.601562 202.476562 159.515625 202.761719 159.398438 203.039062 C 159.285156 203.316406 159.144531 203.582031 158.976562 203.832031 C 158.808594 204.082031 158.617188 204.3125 158.40625 204.527344 C 158.191406 204.738281 157.960938 204.929688 157.710938 205.097656 C 157.460938 205.261719 157.195312 205.40625 156.917969 205.519531 C 156.640625 205.636719 156.355469 205.722656 156.058594 205.78125 C 155.761719 205.839844 155.464844 205.867188 155.164062 205.867188 C 154.863281 205.867188 154.566406 205.839844 154.269531 205.78125 C 153.976562 205.722656 153.6875 205.636719 153.410156 205.519531 C 153.132812 205.40625 152.867188 205.261719 152.617188 205.097656 C 152.367188 204.929688 152.136719 204.738281 151.921875 204.527344 C 151.710938 204.3125 151.519531 204.082031 151.351562 203.832031 C 151.1875 203.582031 151.042969 203.316406 150.929688 203.039062 C 150.816406 202.761719 150.726562 202.476562 150.667969 202.179688 C 150.609375 201.882812 150.582031 201.585938 150.582031 201.285156 C 150.582031 200.984375 150.609375 200.6875 150.667969 200.390625 C 150.726562 200.097656 150.816406 199.808594 150.929688 199.53125 C 151.042969 199.253906 151.1875 198.988281 151.351562 198.738281 C 151.519531 198.488281 151.710938 198.257812 151.921875 198.042969 C 152.136719 197.832031 152.367188 197.640625 152.617188 197.472656 C 152.867188 197.308594 153.132812 197.164062 153.410156 197.050781 C 153.6875 196.933594 153.976562 196.847656 154.269531 196.789062 C 154.566406 196.730469 154.863281 196.703125 155.164062 196.703125 C 155.464844 196.703125 155.761719 196.730469 156.058594 196.789062 C 156.355469 196.847656 156.640625 196.933594 156.917969 197.050781 C 157.195312 197.164062 157.460938 197.308594 157.710938 197.472656 C 157.960938 197.640625 158.191406 197.832031 158.40625 198.042969 C 158.617188 198.257812 158.808594 198.488281 158.976562 198.738281 C 159.144531 198.988281 159.285156 199.253906 159.398438 199.53125 C 159.515625 199.808594 159.601562 200.097656 159.660156 200.390625 C 159.71875 200.6875 159.75 200.984375 159.75 201.285156 Z M 159.75 201.285156 " fill-opacity="1" fill-rule="nonzero"/><path fill="#04473f" d="M 145.488281 201.285156 C 145.488281 201.585938 145.457031 201.882812 145.398438 202.179688 C 145.339844 202.476562 145.253906 202.761719 145.140625 203.039062 C 145.023438 203.316406 144.882812 203.582031 144.714844 203.832031 C 144.546875 204.082031 144.359375 204.3125 144.144531 204.527344 C 143.933594 204.738281 143.699219 204.929688 143.449219 205.097656 C 143.199219 205.261719 142.9375 205.40625 142.660156 205.519531 C 142.378906 205.636719 142.09375 205.722656 141.796875 205.78125 C 141.503906 205.839844 141.207031 205.867188 140.902344 205.867188 C 140.601562 205.867188 140.304688 205.839844 140.011719 205.78125 C 139.714844 205.722656 139.429688 205.636719 139.148438 205.519531 C 138.871094 205.40625 138.609375 205.261719 138.359375 205.097656 C 138.105469 204.929688 137.875 204.738281 137.664062 204.527344 C 137.449219 204.3125 137.261719 204.082031 137.09375 203.832031 C 136.925781 203.582031 136.785156 203.316406 136.667969 203.039062 C 136.554688 202.761719 136.46875 202.476562 136.410156 202.179688 C 136.351562 201.882812 136.320312 201.585938 136.320312 201.285156 C 136.320312 200.984375 136.351562 200.6875 136.410156 200.390625 C 136.46875 200.097656 136.554688 199.808594 136.667969 199.53125 C 136.785156 199.253906 136.925781 198.988281 137.09375 198.738281 C 137.261719 198.488281 137.449219 198.257812 137.664062 198.042969 C 137.875 197.832031 138.105469 197.640625 138.359375 197.472656 C 138.609375 197.308594 138.871094 197.164062 139.148438 197.050781 C 139.429688 196.933594 139.714844 196.847656 140.011719 196.789062 C 140.304688 196.730469 140.601562 196.703125 140.902344 196.703125 C 141.207031 196.703125 141.503906 196.730469 141.796875 196.789062 C 142.09375 196.847656 142.378906 196.933594 142.660156 197.050781 C 142.9375 197.164062 143.199219 197.308594 143.449219 197.472656 C 143.699219 197.640625 143.933594 197.832031 144.144531 198.042969 C 144.359375 198.257812 144.546875 198.488281 144.714844 198.738281 C 144.882812 198.988281 145.023438 199.253906 145.140625 199.53125 C 145.253906 199.808594 145.339844 200.097656 145.398438 200.390625 C 145.457031 200.6875 145.488281 200.984375 145.488281 201.285156 Z M 145.488281 201.285156 " fill-opacity="1" fill-rule="nonzero"/></svg>