<svg xmlns="http://www.w3.org/2000/svg" xmlns:xlink="http://www.w3.org/1999/xlink" width="500" zoomAndPan="magnify" viewBox="0 0 375 374.999991" height="500" preserveAspectRatio="xMidYMid meet" version="1.0"><defs><clipPath id="74eb0f849e"><path d="M 94.039062 181 L 150 181 L 150 237 L 94.039062 237 Z M 94.039062 181 " clip-rule="nonzero"/></clipPath><clipPath id="c53e0cd722"><path d="M 171 97.707031 L 203 97.707031 L 203 129 L 171 129 Z M 171 97.707031 " clip-rule="nonzero"/></clipPath><clipPath id="59d5b377c7"><path d="M 146 252 L 227 252 L 227 282.957031 L 146 282.957031 Z M 146 252 " clip-rule="nonzero"/></clipPath><clipPath id="80d6fd024c"><path d="M 223 181 L 279.289062 181 L 279.289062 231 L 223 231 Z M 223 181 " clip-rule="nonzero"/></clipPath></defs><rect x="-37.5" width="450" fill="#ffffff" y="-37.499999" height="449.999989" fill-opacity="1"/><rect x="-37.5" width="450" fill="#ffffff" y="-37.499999" height="449.999989" fill-opacity="1"/><g clip-path="url(#74eb0f849e)"><path fill="#04473f" d="M 94.039062 203.761719 L 94.183594 214.859375 L 100.460938 214.78125 C 101.007812 216.804688 101.832031 218.707031 102.894531 220.457031 L 98.515625 224.949219 L 106.464844 232.695312 L 110.84375 228.203125 C 112.621094 229.21875 114.542969 229.996094 116.582031 230.492188 L 116.660156 236.765625 L 127.757812 236.625 L 127.679688 230.347656 C 129.703125 229.796875 131.605469 228.976562 133.355469 227.914062 L 137.847656 232.292969 L 145.59375 224.34375 L 141.101562 219.964844 C 142.117188 218.1875 142.894531 216.261719 143.390625 214.226562 L 149.664062 214.144531 L 149.523438 203.050781 L 143.246094 203.128906 C 142.695312 201.105469 141.875 199.203125 140.8125 197.453125 L 145.191406 192.960938 L 137.242188 185.210938 L 132.863281 189.707031 C 131.085938 188.6875 129.160156 187.914062 127.125 187.414062 L 127.042969 181.140625 L 115.949219 181.285156 L 116.03125 187.5625 C 114.007812 188.109375 112.101562 188.933594 110.355469 189.996094 L 105.859375 185.617188 L 98.113281 193.566406 L 102.605469 197.945312 C 101.589844 199.722656 100.816406 201.644531 100.316406 203.683594 Z M 121.667969 199.515625 C 126.800781 199.453125 131.011719 203.558594 131.078125 208.6875 C 131.140625 213.820312 127.035156 218.035156 121.90625 218.097656 C 116.773438 218.164062 112.5625 214.054688 112.496094 208.925781 C 112.425781 203.796875 116.535156 199.582031 121.667969 199.515625 Z M 121.667969 199.515625 " fill-opacity="1" fill-rule="nonzero"/></g><g clip-path="url(#c53e0cd722)"><path fill="#04473f" d="M 202.199219 113.15625 C 202.199219 114.171875 202.101562 115.175781 201.902344 116.171875 C 201.703125 117.167969 201.410156 118.132812 201.023438 119.070312 C 200.632812 120.007812 200.160156 120.898438 199.59375 121.742188 C 199.03125 122.585938 198.390625 123.367188 197.671875 124.082031 C 196.957031 124.800781 196.175781 125.441406 195.332031 126.003906 C 194.488281 126.566406 193.597656 127.042969 192.660156 127.433594 C 191.722656 127.820312 190.757812 128.113281 189.761719 128.3125 C 188.765625 128.507812 187.761719 128.609375 186.746094 128.609375 C 185.734375 128.609375 184.726562 128.507812 183.734375 128.3125 C 182.738281 128.113281 181.773438 127.820312 180.835938 127.433594 C 179.898438 127.042969 179.007812 126.566406 178.164062 126.003906 C 177.320312 125.441406 176.539062 124.800781 175.820312 124.082031 C 175.105469 123.367188 174.464844 122.585938 173.902344 121.742188 C 173.335938 120.898438 172.859375 120.007812 172.472656 119.070312 C 172.085938 118.132812 171.792969 117.167969 171.59375 116.171875 C 171.394531 115.175781 171.296875 114.171875 171.296875 113.15625 C 171.296875 112.144531 171.394531 111.136719 171.59375 110.144531 C 171.792969 109.148438 172.085938 108.179688 172.472656 107.246094 C 172.859375 106.308594 173.335938 105.417969 173.902344 104.574219 C 174.464844 103.730469 175.105469 102.949219 175.820312 102.230469 C 176.539062 101.515625 177.320312 100.875 178.164062 100.308594 C 179.007812 99.746094 179.898438 99.269531 180.835938 98.882812 C 181.773438 98.492188 182.738281 98.199219 183.734375 98.003906 C 184.726562 97.804688 185.734375 97.707031 186.746094 97.707031 C 187.761719 97.707031 188.765625 97.804688 189.761719 98.003906 C 190.757812 98.199219 191.722656 98.492188 192.660156 98.882812 C 193.597656 99.269531 194.488281 99.746094 195.332031 100.308594 C 196.175781 100.875 196.957031 101.515625 197.671875 102.230469 C 198.390625 102.949219 199.03125 103.730469 199.59375 104.574219 C 200.160156 105.417969 200.632812 106.308594 201.023438 107.246094 C 201.410156 108.179688 201.703125 109.148438 201.902344 110.144531 C 202.101562 111.136719 202.199219 112.144531 202.199219 113.15625 Z M 202.199219 113.15625 " fill-opacity="1" fill-rule="nonzero"/></g><g clip-path="url(#59d5b377c7)"><path fill="#04473f" d="M 152.753906 252.21875 L 146.574219 283.121094 L 226.921875 283.121094 L 220.742188 252.21875 Z M 152.753906 252.21875 " fill-opacity="1" fill-rule="nonzero"/></g><path fill="#04473f" d="M 118.761719 174.960938 L 124.941406 174.960938 L 124.941406 136.851562 L 168.207031 144.058594 L 168.207031 246.039062 L 183.65625 246.039062 L 183.65625 190.414062 L 189.839844 190.414062 L 189.839844 246.039062 L 205.289062 246.039062 L 205.289062 144.058594 L 248.550781 136.851562 L 248.550781 176.507812 L 254.734375 176.507812 L 254.734375 135.816406 L 260.914062 134.789062 L 260.914062 122.429688 L 186.746094 128.609375 L 112.582031 122.429688 L 112.582031 134.789062 L 118.761719 135.816406 Z M 118.761719 174.960938 " fill-opacity="1" fill-rule="nonzero"/><g clip-path="url(#80d6fd024c)"><path fill="#04473f" d="M 251.644531 190.089844 C 245.347656 176.734375 223.832031 178.324219 223.832031 194.890625 C 223.832031 210.753906 245.726562 226.613281 251.644531 230.585938 C 257.558594 226.613281 279.453125 210.75 279.453125 194.890625 C 279.453125 178.324219 257.9375 176.734375 251.644531 190.089844 Z M 251.644531 190.089844 " fill-opacity="1" fill-rule="nonzero"/></g></svg>