<svg xmlns="http://www.w3.org/2000/svg" xmlns:xlink="http://www.w3.org/1999/xlink" width="500" zoomAndPan="magnify" viewBox="0 0 375 374.999991" height="500" preserveAspectRatio="xMidYMid meet" version="1.0"><defs><clipPath id="0bfc114f1f"><path d="M 83.429688 102 L 285.929688 102 L 285.929688 304.429688 L 83.429688 304.429688 Z M 83.429688 102 " clip-rule="nonzero"/></clipPath></defs><rect x="-37.5" width="450" fill="#ffffff" y="-37.499999" height="449.999989" fill-opacity="1"/><rect x="-37.5" width="450" fill="#ffffff" y="-37.499999" height="449.999989" fill-opacity="1"/><path fill="#04473f" d="M 246.820312 154.160156 L 246.820312 161.285156 L 253.34375 161.285156 L 253.34375 154.761719 L 259.863281 154.761719 L 259.863281 144.976562 C 259.863281 139.582031 255.476562 135.195312 250.082031 135.195312 C 248.285156 135.195312 246.820312 133.734375 246.820312 131.933594 L 246.820312 128.671875 L 250.082031 128.671875 C 251.878906 128.671875 253.34375 130.132812 253.34375 131.933594 L 253.34375 135.195312 L 259.863281 135.195312 L 259.863281 131.933594 C 259.863281 127.6875 257.128906 124.097656 253.34375 122.75 L 253.34375 115.625 L 246.820312 115.625 L 246.820312 122.148438 L 240.296875 122.148438 L 240.296875 131.933594 C 240.296875 137.328125 244.6875 141.714844 250.082031 141.714844 C 251.878906 141.714844 253.34375 143.179688 253.34375 144.976562 L 253.34375 148.238281 L 250.082031 148.238281 C 248.285156 148.238281 246.820312 146.777344 246.820312 144.976562 L 246.820312 141.714844 L 240.296875 141.714844 L 240.296875 144.976562 C 240.296875 149.222656 243.035156 152.8125 246.820312 154.160156 Z M 246.820312 154.160156 " fill-opacity="1" fill-rule="nonzero"/><path fill="#04473f" d="M 129.414062 259.121094 C 129.414062 255.527344 126.488281 252.601562 122.890625 252.601562 L 116.367188 252.601562 C 112.773438 252.601562 109.847656 255.527344 109.847656 259.121094 C 106.25 259.121094 103.324219 262.046875 103.324219 265.644531 L 103.324219 272.167969 C 103.324219 275.765625 106.25 278.691406 109.847656 278.691406 C 109.847656 282.289062 112.773438 285.214844 116.367188 285.214844 L 122.890625 285.214844 C 126.488281 285.214844 129.414062 282.289062 129.414062 278.691406 C 133.011719 278.691406 135.9375 275.765625 135.9375 272.167969 L 135.9375 265.644531 C 135.9375 262.046875 133.011719 259.121094 129.414062 259.121094 Z M 129.414062 272.167969 L 122.890625 272.167969 L 122.890625 278.691406 L 116.367188 278.691406 L 116.367188 272.167969 L 109.847656 272.167969 L 109.847656 265.644531 L 116.367188 265.644531 L 116.367188 259.121094 L 122.890625 259.121094 L 122.890625 265.644531 L 129.414062 265.644531 Z M 129.414062 272.167969 " fill-opacity="1" fill-rule="nonzero"/><g clip-path="url(#0bfc114f1f)"><path fill="#04473f" d="M 268.855469 252.601562 C 266.605469 252.601562 264.425781 253.039062 262.402344 253.867188 C 264.414062 249.292969 267.53125 245.21875 271.605469 242.164062 L 267.691406 236.945312 C 266.964844 237.492188 266.300781 238.105469 265.617188 238.703125 C 270.386719 227.714844 272.910156 215.832031 272.910156 203.679688 C 272.910156 192.125 270.691406 180.945312 266.367188 170.378906 C 277.976562 164.429688 285.957031 152.371094 285.957031 138.457031 C 285.957031 118.675781 269.859375 102.582031 250.082031 102.582031 C 236.164062 102.582031 224.105469 110.5625 218.15625 122.167969 C 207.597656 117.839844 196.414062 115.625 184.855469 115.625 C 169.738281 115.625 155.28125 119.386719 142.347656 126.554688 C 142.390625 126.195312 142.460938 125.84375 142.460938 125.476562 C 142.460938 122.34375 140.9375 119.386719 138.386719 117.5625 L 120.917969 105.085938 C 116.332031 101.8125 109.882812 101.8125 105.296875 105.085938 L 87.824219 117.5625 C 85.277344 119.382812 83.757812 122.34375 83.757812 125.476562 C 83.757812 129.707031 86.492188 133.28125 90.277344 134.609375 L 90.277344 161.285156 C 90.277344 164.882812 93.203125 167.808594 96.800781 167.808594 L 104.421875 167.808594 C 99.425781 179.023438 96.800781 191.320312 96.800781 203.679688 C 96.800781 215.234375 99.019531 226.417969 103.347656 236.980469 C 91.738281 242.925781 83.757812 254.992188 83.757812 268.90625 C 83.757812 288.6875 99.851562 304.78125 119.628906 304.78125 C 133.546875 304.78125 145.605469 296.800781 151.554688 285.195312 C 162.113281 289.519531 173.296875 291.734375 184.855469 291.734375 C 200.390625 291.734375 215.480469 287.644531 228.820312 279.9375 C 229.027344 280.609375 229.226562 281.28125 229.472656 281.941406 L 234.535156 295.4375 C 236.628906 301.027344 242.046875 304.78125 248.011719 304.78125 L 248.730469 304.78125 C 251.570312 304.78125 254.285156 303.964844 256.605469 302.441406 C 258.921875 303.964844 261.636719 304.78125 264.476562 304.78125 L 265.195312 304.78125 C 271.164062 304.78125 276.578125 301.027344 278.671875 295.441406 L 283.734375 281.941406 C 285.207031 278.015625 285.957031 273.894531 285.957031 269.695312 C 285.957031 260.269531 278.285156 252.601562 268.855469 252.601562 Z M 246.820312 246.078125 C 250.417969 246.078125 253.34375 249.003906 253.34375 252.601562 C 249.746094 252.601562 246.820312 249.675781 246.820312 246.078125 Z M 250.082031 109.105469 C 266.265625 109.105469 279.433594 122.269531 279.433594 138.457031 C 279.433594 154.640625 266.265625 167.808594 250.082031 167.808594 C 233.898438 167.808594 220.730469 154.640625 220.730469 138.457031 C 220.730469 122.269531 233.898438 109.105469 250.082031 109.105469 Z M 91.617188 122.871094 L 109.085938 110.390625 C 110.265625 109.550781 111.65625 109.105469 113.109375 109.105469 C 114.558594 109.105469 115.949219 109.550781 117.128906 110.390625 L 134.597656 122.871094 C 135.433594 123.464844 135.9375 124.441406 135.9375 125.476562 C 135.9375 126.960938 134.917969 128.210938 133.507812 128.570312 L 113.109375 114.96875 L 92.695312 128.578125 C 91.308594 128.226562 90.277344 126.96875 90.277344 125.476562 C 90.277344 124.441406 90.78125 123.464844 91.617188 122.871094 Z M 96.800781 133.675781 L 113.109375 122.808594 L 129.414062 133.675781 L 129.414062 161.285156 L 122.890625 161.285156 L 122.890625 148.238281 C 122.890625 144.640625 119.964844 141.714844 116.367188 141.714844 L 109.847656 141.714844 C 106.25 141.714844 103.324219 144.640625 103.324219 148.238281 L 103.324219 161.285156 L 96.800781 161.285156 Z M 109.847656 161.285156 L 109.847656 148.238281 L 116.367188 148.238281 L 116.367188 161.285156 Z M 119.628906 298.257812 C 103.449219 298.257812 90.277344 285.09375 90.277344 268.90625 C 90.277344 252.722656 103.449219 239.554688 119.628906 239.554688 C 135.8125 239.554688 148.980469 252.722656 148.980469 268.90625 C 148.980469 285.09375 135.8125 298.257812 119.628906 298.257812 Z M 184.855469 285.214844 C 174.140625 285.214844 163.777344 283.160156 153.996094 279.144531 C 154.964844 275.898438 155.503906 272.464844 155.503906 268.90625 C 155.503906 249.125 139.410156 233.03125 119.628906 233.03125 C 116.070312 233.03125 112.640625 233.570312 109.394531 234.539062 C 105.378906 224.753906 103.324219 214.390625 103.324219 203.679688 C 103.324219 191.242188 106.222656 178.894531 111.660156 167.808594 L 129.414062 167.808594 C 133.011719 167.808594 135.9375 164.882812 135.9375 161.285156 L 135.9375 138.511719 C 150.132812 127.832031 166.996094 122.148438 184.855469 122.148438 C 195.570312 122.148438 205.933594 124.203125 215.714844 128.21875 C 214.746094 131.464844 214.207031 134.898438 214.207031 138.457031 C 214.207031 158.234375 230.300781 174.328125 250.082031 174.328125 C 253.640625 174.328125 257.074219 173.792969 260.320312 172.824219 C 264.332031 182.609375 266.386719 192.972656 266.386719 203.679688 C 266.386719 217.679688 262.816406 231.296875 256.050781 243.398438 C 253.691406 241.027344 250.421875 239.554688 246.820312 239.554688 L 240.296875 239.554688 L 240.296875 246.078125 C 240.296875 248.554688 241.027344 250.84375 242.226562 252.816406 C 233.8125 253.871094 227.253906 260.996094 227.253906 269.695312 C 227.253906 270.859375 227.324219 272.019531 227.4375 273.164062 C 214.640625 281.027344 199.976562 285.214844 184.855469 285.214844 Z M 277.625 279.648438 L 272.566406 293.152344 C 271.417969 296.203125 268.457031 298.257812 265.195312 298.257812 L 264.476562 298.257812 C 262.375 298.257812 260.398438 297.441406 258.910156 295.953125 L 256.605469 293.644531 L 254.292969 295.953125 C 252.8125 297.441406 250.835938 298.257812 248.730469 298.257812 L 248.011719 298.257812 C 244.75 298.257812 241.789062 296.203125 240.644531 293.148438 L 235.578125 279.648438 C 234.382812 276.457031 233.773438 273.109375 233.773438 269.695312 C 233.773438 263.863281 238.519531 259.121094 244.351562 259.121094 C 247.175781 259.121094 249.832031 260.222656 251.824219 262.21875 L 253.449219 263.84375 C 253.429688 264.25 253.386719 264.652344 253.378906 265.066406 C 252.871094 264.90625 252.359375 264.769531 251.886719 264.53125 L 248.28125 262.726562 L 245.363281 268.5625 L 248.96875 270.363281 C 251.328125 271.546875 253.96875 272.167969 256.605469 272.167969 C 259.238281 272.167969 261.878906 271.546875 264.242188 270.363281 L 267.84375 268.5625 L 264.925781 262.726562 L 261.324219 264.53125 C 260.871094 264.753906 260.378906 264.882812 259.898438 265.039062 C 259.90625 264.5625 259.949219 264.089844 259.984375 263.613281 L 261.375 262.222656 C 263.375 260.222656 266.03125 259.121094 268.851562 259.121094 C 274.6875 259.121094 279.433594 263.863281 279.433594 269.695312 C 279.433594 273.109375 278.828125 276.457031 277.625 279.648438 Z M 277.625 279.648438 " fill-opacity="1" fill-rule="nonzero"/></g><path fill="#04473f" d="M 230.511719 199.726562 C 230.511719 195.320312 229.316406 190.996094 227.046875 187.21875 C 222.277344 179.269531 213.558594 174.328125 204.285156 174.328125 C 197.191406 174.328125 190.527344 177.089844 185.515625 182.105469 L 184.855469 182.761719 L 184.195312 182.105469 C 179.183594 177.089844 172.519531 174.328125 165.425781 174.328125 C 156.152344 174.328125 147.429688 179.269531 142.660156 187.21875 C 140.394531 190.996094 139.199219 195.324219 139.199219 199.726562 L 139.199219 201.210938 C 139.199219 209.960938 143.027344 218.21875 149.707031 223.867188 L 184.855469 253.609375 L 220.003906 223.871094 C 226.683594 218.21875 230.511719 209.960938 230.511719 201.210938 Z M 223.992188 201.210938 C 223.992188 208.039062 221.003906 214.480469 215.792969 218.886719 L 184.855469 245.066406 L 153.917969 218.886719 C 148.707031 214.480469 145.71875 208.039062 145.71875 201.210938 L 145.71875 199.726562 C 145.71875 196.503906 146.597656 193.335938 148.253906 190.574219 C 151.851562 184.578125 158.433594 180.851562 165.425781 180.851562 C 170.777344 180.851562 175.800781 182.9375 179.582031 186.714844 L 184.855469 191.988281 L 190.125 186.714844 C 193.90625 182.9375 198.933594 180.851562 204.285156 180.851562 C 211.28125 180.851562 217.859375 184.578125 221.457031 190.574219 C 223.113281 193.335938 223.992188 196.503906 223.992188 199.726562 Z M 223.992188 201.210938 " fill-opacity="1" fill-rule="nonzero"/><path fill="#04473f" d="M 158.765625 202.332031 L 158.765625 201.769531 C 158.765625 199.667969 159.585938 197.691406 161.074219 196.203125 L 156.460938 191.589844 C 153.738281 194.3125 152.242188 197.925781 152.242188 201.769531 L 152.242188 202.332031 C 152.242188 206.175781 153.738281 209.789062 156.460938 212.507812 L 162.980469 219.03125 L 167.59375 214.421875 L 161.070312 207.898438 C 159.585938 206.410156 158.765625 204.429688 158.765625 202.332031 Z M 158.765625 202.332031 " fill-opacity="1" fill-rule="nonzero"/></svg>