<svg xmlns="http://www.w3.org/2000/svg" xmlns:xlink="http://www.w3.org/1999/xlink" width="500" zoomAndPan="magnify" viewBox="0 0 375 374.999991" height="500" preserveAspectRatio="xMidYMid meet" version="1.0"><defs><clipPath id="ea644ec6b2"><path d="M 85.015625 31 L 289.765625 31 L 289.765625 344 L 85.015625 344 Z M 85.015625 31 " clip-rule="nonzero"/></clipPath></defs><rect x="-37.5" width="450" fill="#ffffff" y="-37.499999" height="449.999989" fill-opacity="1"/><rect x="-37.5" width="450" fill="#ffffff" y="-37.499999" height="449.999989" fill-opacity="1"/><g clip-path="url(#ea644ec6b2)"><path fill="#04473f" d="M 162.222656 31.730469 C 158.804688 31.730469 156.085938 33.785156 155.390625 37.203125 L 138.417969 131.488281 L 113.703125 131.488281 C 106.871094 131.488281 100.039062 134.90625 95.929688 141.042969 L 88.429688 152.652344 C 86.375 156.070312 85.015625 160.152344 85.015625 164.261719 L 85.015625 315.261719 C 85.015625 330.980469 97.316406 343.28125 113.011719 343.28125 L 261.980469 343.28125 C 277.671875 343.28125 289.976562 330.980469 289.976562 315.261719 L 289.976562 164.261719 C 289.976562 160.152344 288.613281 156.070312 286.558594 152.652344 L 279.0625 141.042969 C 274.949219 134.90625 268.8125 131.488281 261.285156 131.488281 L 253.414062 131.488281 L 263.316406 78.195312 C 255.121094 65.890625 250.34375 59.058594 241.484375 46.757812 L 163.582031 32.398438 C 162.890625 32.398438 162.917969 31.730469 162.222656 31.730469 Z M 167.667969 46.757812 L 233.265625 59.058594 L 248.316406 80.917969 L 233.398438 165.648438 L 145.941406 165.648438 Z M 175.78125 57.109375 L 173.269531 70.5625 L 227.925781 80.808594 L 230.4375 67.359375 Z M 168.894531 84.4375 L 166.464844 97.890625 L 234.785156 110.191406 L 237.214844 96.742188 Z M 163.421875 111.765625 L 161.023438 125.21875 L 229.34375 137.519531 L 231.742188 124.070312 Z M 126.007812 151.984375 L 134.734375 151.984375 L 132.277344 165.648438 L 126.007812 165.648438 C 121.898438 165.648438 119.175781 162.902344 119.175781 158.816406 C 119.175781 154.707031 121.898438 151.984375 126.007812 151.984375 Z M 249.597656 152.09375 C 253.335938 152.359375 255.816406 154.921875 255.816406 158.816406 C 255.816406 162.902344 253.09375 165.648438 248.984375 165.648438 L 247.0625 165.648438 Z M 188.164062 179.980469 C 225.738281 179.980469 256.484375 210.726562 256.484375 248.300781 C 256.484375 285.878906 225.738281 316.621094 188.164062 316.621094 C 150.585938 316.621094 119.84375 285.878906 119.84375 248.300781 C 119.84375 210.726562 150.585938 179.980469 188.164062 179.980469 Z M 188.164062 200.476562 C 184.078125 200.476562 181.332031 203.199219 181.332031 207.308594 L 181.332031 241.46875 L 140.339844 241.46875 C 136.253906 241.46875 133.507812 244.191406 133.507812 248.300781 C 133.507812 252.410156 136.253906 255.132812 140.339844 255.132812 L 188.164062 255.132812 C 191.578125 255.132812 194.996094 252.410156 194.996094 248.300781 L 194.996094 207.308594 C 194.996094 203.199219 192.273438 200.476562 188.164062 200.476562 Z M 188.164062 200.476562 " fill-opacity="1" fill-rule="nonzero"/></g></svg>