<svg xmlns="http://www.w3.org/2000/svg" xmlns:xlink="http://www.w3.org/1999/xlink" width="500" zoomAndPan="magnify" viewBox="0 0 375 374.999991" height="500" preserveAspectRatio="xMidYMid meet" version="1.0"><defs><clipPath id="04188fd10d"><path d="M 155 121.125 L 222 121.125 L 222 187 L 155 187 Z M 155 121.125 " clip-rule="nonzero"/></clipPath><clipPath id="1f8e851c3b"><path d="M 131.179688 185.023438 L 245.585938 185.023438 L 245.585938 253.710938 L 131.179688 253.710938 Z M 131.179688 185.023438 " clip-rule="nonzero"/></clipPath><clipPath id="46361910e4"><path d="M 222.25 175 L 300 175 L 300 229.988281 L 222.25 229.988281 Z M 222.25 175 " clip-rule="nonzero"/></clipPath></defs><rect x="-37.5" width="450" fill="#ffffff" y="-37.499999" height="449.999989" fill-opacity="1"/><rect x="-37.5" width="450" fill="#ffffff" y="-37.499999" height="449.999989" fill-opacity="1"/><g clip-path="url(#04188fd10d)"><path fill="#04473f" d="M 155.394531 154.089844 C 155.394531 135.96875 170.085938 121.277344 188.207031 121.277344 C 206.328125 121.277344 221.023438 135.96875 221.023438 154.089844 C 221.023438 172.210938 206.328125 186.90625 188.207031 186.90625 C 170.085938 186.90625 155.394531 172.210938 155.394531 154.089844 " fill-opacity="1" fill-rule="nonzero"/></g><g clip-path="url(#1f8e851c3b)"><path fill="#04473f" d="M 244.601562 235.765625 L 239.925781 217.730469 C 236.109375 203.035156 225.816406 191.375 212.585938 185.492188 C 205.855469 190.726562 197.398438 193.851562 188.207031 193.851562 C 179.015625 193.851562 170.5625 190.726562 163.828125 185.492188 C 150.597656 191.375 140.304688 203.035156 136.492188 217.730469 L 131.8125 235.765625 C 129.457031 244.847656 136.308594 253.707031 145.691406 253.707031 L 230.722656 253.707031 C 240.105469 253.707031 246.960938 244.847656 244.601562 235.765625 " fill-opacity="1" fill-rule="nonzero"/></g><path fill="#04473f" d="M 95.785156 149.886719 C 95.785156 135.382812 107.546875 123.621094 122.050781 123.621094 C 136.558594 123.621094 148.316406 135.382812 148.316406 149.886719 C 148.316406 164.394531 136.558594 176.152344 122.050781 176.152344 C 107.546875 176.152344 95.785156 164.394531 95.785156 149.886719 " fill-opacity="1" fill-rule="nonzero"/><path fill="#04473f" d="M 130.472656 217.488281 C 134.121094 203.429688 142.820312 191.742188 154.320312 184.164062 C 150.738281 180.292969 146.398438 177.171875 141.5625 175.019531 C 136.175781 179.210938 129.40625 181.714844 122.050781 181.714844 C 114.695312 181.714844 107.925781 179.210938 102.539062 175.019531 C 91.945312 179.730469 83.710938 189.0625 80.65625 200.824219 L 76.910156 215.261719 C 75.023438 222.53125 80.511719 229.621094 88.019531 229.621094 L 127.324219 229.621094 L 130.472656 217.488281 " fill-opacity="1" fill-rule="nonzero"/><path fill="#04473f" d="M 280.789062 149.886719 C 280.789062 135.382812 269.027344 123.621094 254.523438 123.621094 C 240.019531 123.621094 228.257812 135.382812 228.257812 149.886719 C 228.257812 164.394531 240.019531 176.152344 254.523438 176.152344 C 269.027344 176.152344 280.789062 164.394531 280.789062 149.886719 " fill-opacity="1" fill-rule="nonzero"/><g clip-path="url(#46361910e4)"><path fill="#04473f" d="M 246.101562 217.488281 C 242.453125 203.429688 233.753906 191.742188 222.253906 184.164062 C 225.835938 180.292969 230.175781 177.171875 235.011719 175.019531 C 240.402344 179.210938 247.167969 181.714844 254.523438 181.714844 C 261.878906 181.714844 268.648438 179.210938 274.039062 175.019531 C 284.628906 179.730469 292.867188 189.0625 295.917969 200.824219 L 299.664062 215.261719 C 301.550781 222.53125 296.0625 229.621094 288.550781 229.621094 L 249.253906 229.621094 L 246.101562 217.488281 " fill-opacity="1" fill-rule="nonzero"/></g></svg>