<svg xmlns="http://www.w3.org/2000/svg" xmlns:xlink="http://www.w3.org/1999/xlink" width="500" zoomAndPan="magnify" viewBox="0 0 375 374.999991" height="500" preserveAspectRatio="xMidYMid meet" version="1.0"><defs><clipPath id="c8d282e572"><path d="M 100.035156 125 L 255 125 L 255 279.3125 L 100.035156 279.3125 Z M 100.035156 125 " clip-rule="nonzero"/></clipPath><clipPath id="566478c7ec"><path d="M 147 113.5625 L 289.785156 113.5625 L 289.785156 209 L 147 209 Z M 147 113.5625 " clip-rule="nonzero"/></clipPath></defs><rect x="-37.5" width="450" fill="#ffffff" y="-37.499999" height="449.999989" fill-opacity="1"/><rect x="-37.5" width="450" fill="#ffffff" y="-37.499999" height="449.999989" fill-opacity="1"/><g clip-path="url(#c8d282e572)"><path fill="#04473f" d="M 230.449219 255.832031 L 123.75 255.832031 L 123.75 149.128906 L 159.316406 149.128906 L 159.316406 125.417969 L 111.890625 125.417969 C 105.347656 125.417969 100.035156 130.730469 100.035156 137.273438 L 100.035156 267.6875 C 100.035156 274.242188 105.347656 279.542969 111.890625 279.542969 L 242.304688 279.542969 C 248.863281 279.542969 254.160156 274.242188 254.160156 267.6875 L 254.160156 208.777344 L 230.449219 208.777344 Z M 230.449219 255.832031 " fill-opacity="1" fill-rule="nonzero"/></g><g clip-path="url(#566478c7ec)"><path fill="#04473f" d="M 287.355469 150.316406 L 239.933594 114.75 C 238.15625 113.398438 235.738281 113.183594 233.734375 114.191406 C 231.71875 115.199219 230.449219 117.25 230.449219 119.492188 L 230.449219 137.273438 L 212.664062 137.273438 C 176.707031 137.273438 147.460938 166.523438 147.460938 202.480469 C 147.460938 205.230469 149.355469 207.625 152.023438 208.253906 C 152.472656 208.363281 152.9375 208.410156 153.386719 208.410156 C 155.59375 208.410156 157.667969 207.175781 158.6875 205.136719 L 160.085938 202.351562 C 169.179688 184.152344 187.460938 172.84375 207.804688 172.84375 L 230.449219 172.84375 L 230.449219 190.625 C 230.449219 192.867188 231.71875 194.917969 233.722656 195.925781 C 235.726562 196.933594 238.144531 196.71875 239.933594 195.367188 L 287.355469 159.800781 C 288.851562 158.6875 289.726562 156.917969 289.726562 155.058594 C 289.726562 153.195312 288.851562 151.429688 287.355469 150.316406 Z M 287.355469 150.316406 " fill-opacity="1" fill-rule="nonzero"/></g></svg>