<svg xmlns="http://www.w3.org/2000/svg" xmlns:xlink="http://www.w3.org/1999/xlink" width="500" zoomAndPan="magnify" viewBox="0 0 375 374.999991" height="500" preserveAspectRatio="xMidYMid meet" version="1.0"><defs><clipPath id="6c2f99af35"><path d="M 100 129 L 315.109375 129 L 315.109375 170 L 100 170 Z M 100 129 " clip-rule="nonzero"/></clipPath><clipPath id="f87f096cff"><path d="M 80.359375 128.726562 L 131 128.726562 L 131 179 L 80.359375 179 Z M 80.359375 128.726562 " clip-rule="nonzero"/></clipPath><clipPath id="9aeeecf41c"><path d="M 100 175 L 315.109375 175 L 315.109375 216 L 100 216 Z M 100 175 " clip-rule="nonzero"/></clipPath><clipPath id="ba1c9f669d"><path d="M 80.359375 166 L 131 166 L 131 225 L 80.359375 225 Z M 80.359375 166 " clip-rule="nonzero"/></clipPath><clipPath id="88d54c8af8"><path d="M 100 221 L 315.109375 221 L 315.109375 262 L 100 262 Z M 100 221 " clip-rule="nonzero"/></clipPath><clipPath id="a56a5285dd"><path d="M 80.359375 212 L 131 212 L 131 268.226562 L 80.359375 268.226562 Z M 80.359375 212 " clip-rule="nonzero"/></clipPath><clipPath id="b1de5cbd10"><path d="M 100 268 L 315.109375 268 L 315.109375 268.226562 L 100 268.226562 Z M 100 268 " clip-rule="nonzero"/></clipPath><clipPath id="41a3b4e8af"><path d="M 81 268 L 121 268 L 121 268.226562 L 81 268.226562 Z M 81 268 " clip-rule="nonzero"/></clipPath><clipPath id="b63afc5c1a"><path d="M 80.359375 258 L 131 258 L 131 268.226562 L 80.359375 268.226562 Z M 80.359375 258 " clip-rule="nonzero"/></clipPath></defs><rect x="-37.5" width="450" fill="#ffffff" y="-37.499999" height="449.999989" fill-opacity="1"/><rect x="-37.5" width="450" fill="#ffffff" y="-37.499999" height="449.999989" fill-opacity="1"/><g clip-path="url(#6c2f99af35)"><path fill="#04473f" d="M 100.960938 129.554688 L 306.984375 129.554688 C 311.535156 129.554688 315.226562 133.242188 315.226562 137.792969 L 315.226562 160.867188 C 315.226562 165.421875 311.535156 169.109375 306.984375 169.109375 L 100.960938 169.109375 Z M 100.960938 129.554688 " fill-opacity="1" fill-rule="nonzero"/></g><path fill="#04473f" d="M 100.960938 129.554688 C 101.609375 129.554688 102.253906 129.585938 102.898438 129.648438 C 103.542969 129.710938 104.183594 129.808594 104.820312 129.933594 C 105.457031 130.058594 106.082031 130.214844 106.703125 130.40625 C 107.324219 130.59375 107.933594 130.8125 108.53125 131.058594 C 109.128906 131.304688 109.714844 131.582031 110.285156 131.886719 C 110.855469 132.195312 111.410156 132.527344 111.949219 132.886719 C 112.488281 133.246094 113.007812 133.632812 113.507812 134.042969 C 114.007812 134.453125 114.488281 134.886719 114.945312 135.347656 C 115.40625 135.804688 115.839844 136.285156 116.25 136.785156 C 116.660156 137.285156 117.046875 137.804688 117.40625 138.34375 C 117.765625 138.882812 118.097656 139.4375 118.402344 140.007812 C 118.710938 140.578125 118.984375 141.164062 119.234375 141.761719 C 119.480469 142.359375 119.699219 142.96875 119.886719 143.589844 C 120.074219 144.210938 120.234375 144.835938 120.359375 145.472656 C 120.484375 146.109375 120.582031 146.75 120.644531 147.394531 C 120.707031 148.039062 120.738281 148.683594 120.738281 149.332031 C 120.738281 149.980469 120.707031 150.625 120.644531 151.269531 C 120.582031 151.914062 120.484375 152.554688 120.359375 153.191406 C 120.234375 153.824219 120.074219 154.453125 119.886719 155.074219 C 119.699219 155.691406 119.480469 156.300781 119.234375 156.898438 C 118.984375 157.5 118.710938 158.082031 118.402344 158.65625 C 118.097656 159.226562 117.765625 159.78125 117.40625 160.320312 C 117.046875 160.859375 116.660156 161.378906 116.25 161.878906 C 115.839844 162.378906 115.40625 162.859375 114.945312 163.316406 C 114.488281 163.773438 114.007812 164.210938 113.507812 164.621094 C 113.007812 165.03125 112.488281 165.417969 111.949219 165.777344 C 111.410156 166.136719 110.855469 166.46875 110.285156 166.773438 C 109.714844 167.078125 109.128906 167.355469 108.53125 167.605469 C 107.933594 167.851562 107.324219 168.070312 106.703125 168.257812 C 106.082031 168.445312 105.457031 168.601562 104.820312 168.730469 C 104.183594 168.855469 103.542969 168.949219 102.898438 169.015625 C 102.253906 169.078125 101.609375 169.109375 100.960938 169.109375 C 100.3125 169.109375 99.667969 169.078125 99.023438 169.015625 C 98.378906 168.949219 97.738281 168.855469 97.101562 168.730469 C 96.46875 168.601562 95.839844 168.445312 95.21875 168.257812 C 94.601562 168.070312 93.992188 167.851562 93.390625 167.605469 C 92.792969 167.355469 92.210938 167.078125 91.636719 166.773438 C 91.066406 166.46875 90.511719 166.136719 89.972656 165.777344 C 89.433594 165.417969 88.914062 165.03125 88.414062 164.621094 C 87.914062 164.210938 87.433594 163.773438 86.976562 163.316406 C 86.519531 162.859375 86.082031 162.378906 85.671875 161.878906 C 85.261719 161.378906 84.875 160.859375 84.515625 160.320312 C 84.15625 159.78125 83.824219 159.226562 83.519531 158.65625 C 83.214844 158.082031 82.9375 157.5 82.6875 156.898438 C 82.441406 156.300781 82.222656 155.691406 82.035156 155.074219 C 81.847656 154.453125 81.6875 153.824219 81.5625 153.191406 C 81.4375 152.554688 81.339844 151.914062 81.277344 151.269531 C 81.214844 150.625 81.183594 149.980469 81.183594 149.332031 C 81.183594 148.683594 81.214844 148.039062 81.277344 147.394531 C 81.339844 146.75 81.4375 146.109375 81.5625 145.472656 C 81.6875 144.835938 81.847656 144.210938 82.035156 143.589844 C 82.222656 142.96875 82.441406 142.359375 82.6875 141.761719 C 82.9375 141.164062 83.214844 140.578125 83.519531 140.007812 C 83.824219 139.4375 84.15625 138.882812 84.515625 138.34375 C 84.875 137.804688 85.261719 137.285156 85.671875 136.785156 C 86.082031 136.285156 86.519531 135.804688 86.976562 135.347656 C 87.433594 134.886719 87.914062 134.453125 88.414062 134.042969 C 88.914062 133.632812 89.433594 133.246094 89.972656 132.886719 C 90.511719 132.527344 91.066406 132.195312 91.636719 131.886719 C 92.210938 131.582031 92.792969 131.304688 93.390625 131.058594 C 93.992188 130.8125 94.601562 130.59375 95.21875 130.40625 C 95.839844 130.214844 96.46875 130.058594 97.101562 129.933594 C 97.738281 129.808594 98.378906 129.710938 99.023438 129.648438 C 99.667969 129.585938 100.3125 129.554688 100.960938 129.554688 Z M 100.960938 129.554688 " fill-opacity="1" fill-rule="nonzero"/><g clip-path="url(#f87f096cff)"><path stroke-linecap="butt" transform="matrix(1.648191, 0, 0, 1.648191, 79.534811, 127.90486)" fill="none" stroke-linejoin="miter" d="M 12.999786 1.000993 C 13.39321 1.000993 13.784264 1.019954 14.175317 1.057874 C 14.566371 1.095794 14.955055 1.155045 15.341369 1.230886 C 15.727682 1.306726 16.106886 1.401527 16.48372 1.517658 C 16.860554 1.631419 17.230277 1.764141 17.592891 1.913452 C 17.955504 2.062764 18.311008 2.231035 18.657031 2.415897 C 19.003054 2.603129 19.339598 2.804581 19.666661 3.022623 C 19.993724 3.240665 20.308937 3.475297 20.6123 3.72415 C 20.915663 3.973002 21.207176 4.236075 21.484469 4.515738 C 21.764131 4.79303 22.027204 5.084543 22.276056 5.387906 C 22.524909 5.691269 22.759541 6.006482 22.977583 6.333545 C 23.195625 6.660608 23.397077 6.997152 23.581939 7.343175 C 23.769171 7.689198 23.935072 8.044702 24.086754 8.407315 C 24.236065 8.769929 24.368787 9.139653 24.482548 9.516486 C 24.596309 9.89332 24.69348 10.272524 24.769321 10.658837 C 24.845161 11.045151 24.904412 11.433835 24.942332 11.824889 C 24.980253 12.215943 24.999213 12.606996 24.999213 13.00042 C 24.999213 13.393844 24.980253 13.784898 24.942332 14.175952 C 24.904412 14.567005 24.845161 14.955689 24.769321 15.342003 C 24.69348 15.725947 24.596309 16.10752 24.482548 16.484354 C 24.368787 16.858818 24.236065 17.228541 24.086754 17.591155 C 23.935072 17.956138 23.769171 18.309272 23.581939 18.657665 C 23.397077 19.003689 23.195625 19.340232 22.977583 19.667295 C 22.759541 19.994358 22.524909 20.309571 22.276056 20.612934 C 22.027204 20.916297 21.764131 21.20781 21.484469 21.485103 C 21.207176 21.762396 20.915663 22.027838 20.6123 22.276691 C 20.308937 22.525543 19.993724 22.760175 19.666661 22.978217 C 19.339598 23.196259 19.003054 23.397711 18.657031 23.582573 C 18.311008 23.767435 17.955504 23.935707 17.592891 24.087388 C 17.230277 24.2367 16.860554 24.369421 16.48372 24.483182 C 16.106886 24.596943 15.727682 24.691744 15.341369 24.769955 C 14.955055 24.845796 14.566371 24.902676 14.175317 24.942966 C 13.784264 24.980887 13.39321 24.999847 12.999786 24.999847 C 12.606362 24.999847 12.215308 24.980887 11.824254 24.942966 C 11.433201 24.902676 11.044517 24.845796 10.658203 24.769955 C 10.274259 24.691744 9.892686 24.596943 9.515852 24.483182 C 9.141388 24.369421 8.771665 24.2367 8.406681 24.087388 C 8.044068 23.935707 7.690934 23.767435 7.342541 23.582573 C 6.996517 23.397711 6.659974 23.196259 6.332911 22.978217 C 6.005848 22.760175 5.690635 22.525543 5.387272 22.276691 C 5.083909 22.027838 4.792396 21.762396 4.515103 21.485103 C 4.237811 21.20781 3.972368 20.916297 3.723516 20.612934 C 3.474663 20.309571 3.240031 19.994358 3.021989 19.667295 C 2.803947 19.340232 2.602495 19.003689 2.417633 18.657665 C 2.232771 18.309272 2.064499 17.956138 1.912818 17.591155 C 1.763506 17.228541 1.630785 16.858818 1.517024 16.484354 C 1.403263 16.10752 1.306092 15.725947 1.230251 15.342003 C 1.154411 14.955689 1.09516 14.567005 1.05724 14.175952 C 1.019319 13.784898 1.000359 13.393844 1.000359 13.00042 C 1.000359 12.606996 1.019319 12.215943 1.05724 11.824889 C 1.09516 11.433835 1.154411 11.045151 1.230251 10.658837 C 1.306092 10.272524 1.403263 9.89332 1.517024 9.516486 C 1.630785 9.139653 1.763506 8.769929 1.912818 8.407315 C 2.064499 8.044702 2.232771 7.689198 2.417633 7.343175 C 2.602495 6.997152 2.803947 6.660608 3.021989 6.333545 C 3.240031 6.006482 3.474663 5.691269 3.723516 5.387906 C 3.972368 5.084543 4.237811 4.79303 4.515103 4.515738 C 4.792396 4.236075 5.083909 3.973002 5.387272 3.72415 C 5.690635 3.475297 6.005848 3.240665 6.332911 3.022623 C 6.659974 2.804581 6.996517 2.603129 7.342541 2.415897 C 7.690934 2.231035 8.044068 2.062764 8.406681 1.913452 C 8.771665 1.764141 9.141388 1.631419 9.515852 1.517658 C 9.892686 1.401527 10.274259 1.306726 10.658203 1.230886 C 11.044517 1.155045 11.433201 1.095794 11.824254 1.057874 C 12.215308 1.019954 12.606362 1.000993 12.999786 1.000993 Z M 12.999786 1.000993 " stroke="#ffffff" stroke-width="1" stroke-opacity="1" stroke-miterlimit="4"/></g><g clip-path="url(#9aeeecf41c)"><path fill="#04473f" d="M 100.960938 175.703125 L 306.984375 175.703125 C 311.535156 175.703125 315.226562 179.390625 315.226562 183.941406 L 315.226562 207.019531 C 315.226562 211.570312 311.535156 215.257812 306.984375 215.257812 L 100.960938 215.257812 Z M 100.960938 175.703125 " fill-opacity="1" fill-rule="nonzero"/></g><path fill="#04473f" d="M 100.960938 175.703125 C 101.609375 175.703125 102.253906 175.734375 102.898438 175.796875 C 103.542969 175.859375 104.183594 175.957031 104.820312 176.082031 C 105.457031 176.207031 106.082031 176.367188 106.703125 176.554688 C 107.324219 176.742188 107.933594 176.960938 108.53125 177.207031 C 109.128906 177.457031 109.714844 177.734375 110.285156 178.039062 C 110.855469 178.34375 111.410156 178.675781 111.949219 179.035156 C 112.488281 179.394531 113.007812 179.78125 113.507812 180.191406 C 114.007812 180.601562 114.488281 181.039062 114.945312 181.496094 C 115.40625 181.953125 115.839844 182.433594 116.25 182.933594 C 116.660156 183.433594 117.046875 183.953125 117.40625 184.492188 C 117.765625 185.03125 118.097656 185.585938 118.402344 186.15625 C 118.710938 186.730469 118.984375 187.3125 119.234375 187.910156 C 119.480469 188.511719 119.699219 189.121094 119.886719 189.738281 C 120.074219 190.359375 120.234375 190.988281 120.359375 191.621094 C 120.484375 192.257812 120.582031 192.898438 120.644531 193.542969 C 120.707031 194.1875 120.738281 194.832031 120.738281 195.480469 C 120.738281 196.128906 120.707031 196.773438 120.644531 197.417969 C 120.582031 198.0625 120.484375 198.703125 120.359375 199.339844 C 120.234375 199.972656 120.074219 200.601562 119.886719 201.222656 C 119.699219 201.84375 119.480469 202.449219 119.234375 203.050781 C 118.984375 203.648438 118.710938 204.234375 118.402344 204.804688 C 118.097656 205.375 117.765625 205.929688 117.40625 206.46875 C 117.046875 207.007812 116.660156 207.527344 116.25 208.027344 C 115.839844 208.527344 115.40625 209.007812 114.945312 209.464844 C 114.488281 209.925781 114.007812 210.359375 113.507812 210.769531 C 113.007812 211.179688 112.488281 211.566406 111.949219 211.925781 C 111.410156 212.285156 110.855469 212.617188 110.285156 212.921875 C 109.714844 213.230469 109.128906 213.503906 108.53125 213.753906 C 107.933594 214 107.324219 214.21875 106.703125 214.40625 C 106.082031 214.59375 105.457031 214.753906 104.820312 214.878906 C 104.183594 215.003906 103.542969 215.101562 102.898438 215.164062 C 102.253906 215.226562 101.609375 215.257812 100.960938 215.257812 C 100.3125 215.257812 99.667969 215.226562 99.023438 215.164062 C 98.378906 215.101562 97.738281 215.003906 97.101562 214.878906 C 96.46875 214.753906 95.839844 214.59375 95.21875 214.40625 C 94.601562 214.21875 93.992188 214 93.390625 213.753906 C 92.792969 213.503906 92.210938 213.230469 91.636719 212.921875 C 91.066406 212.617188 90.511719 212.285156 89.972656 211.925781 C 89.433594 211.566406 88.914062 211.179688 88.414062 210.769531 C 87.914062 210.359375 87.433594 209.925781 86.976562 209.464844 C 86.519531 209.007812 86.082031 208.527344 85.671875 208.027344 C 85.261719 207.527344 84.875 207.007812 84.515625 206.46875 C 84.15625 205.929688 83.824219 205.375 83.519531 204.804688 C 83.214844 204.234375 82.9375 203.648438 82.6875 203.050781 C 82.441406 202.449219 82.222656 201.84375 82.035156 201.222656 C 81.847656 200.601562 81.6875 199.972656 81.5625 199.339844 C 81.4375 198.703125 81.339844 198.0625 81.277344 197.417969 C 81.214844 196.773438 81.183594 196.128906 81.183594 195.480469 C 81.183594 194.832031 81.214844 194.1875 81.277344 193.542969 C 81.339844 192.898438 81.4375 192.257812 81.5625 191.621094 C 81.6875 190.988281 81.847656 190.359375 82.035156 189.738281 C 82.222656 189.121094 82.441406 188.511719 82.6875 187.910156 C 82.9375 187.3125 83.214844 186.730469 83.519531 186.15625 C 83.824219 185.585938 84.15625 185.03125 84.515625 184.492188 C 84.875 183.953125 85.261719 183.433594 85.671875 182.933594 C 86.082031 182.433594 86.519531 181.953125 86.976562 181.496094 C 87.433594 181.039062 87.914062 180.601562 88.414062 180.191406 C 88.914062 179.78125 89.433594 179.394531 89.972656 179.035156 C 90.511719 178.675781 91.066406 178.34375 91.636719 178.039062 C 92.210938 177.734375 92.792969 177.457031 93.390625 177.207031 C 93.992188 176.960938 94.601562 176.742188 95.21875 176.554688 C 95.839844 176.367188 96.46875 176.207031 97.101562 176.082031 C 97.738281 175.957031 98.378906 175.859375 99.023438 175.796875 C 99.667969 175.734375 100.3125 175.703125 100.960938 175.703125 Z M 100.960938 175.703125 " fill-opacity="1" fill-rule="nonzero"/><g clip-path="url(#ba1c9f669d)"><path stroke-linecap="butt" transform="matrix(1.648191, 0, 0, 1.648191, 79.534811, 127.90486)" fill="none" stroke-linejoin="miter" d="M 12.999786 29.000446 C 13.39321 29.000446 13.784264 29.019406 14.175317 29.057327 C 14.566371 29.095247 14.955055 29.154498 15.341369 29.230338 C 15.727682 29.306179 16.106886 29.40335 16.48372 29.517111 C 16.860554 29.630872 17.230277 29.763593 17.592891 29.912905 C 17.955504 30.064586 18.311008 30.232858 18.657031 30.41772 C 19.003054 30.602582 19.339598 30.804034 19.666661 31.022076 C 19.993724 31.240118 20.308937 31.47475 20.6123 31.723603 C 20.915663 31.972455 21.207176 32.237898 21.484469 32.51519 C 21.764131 32.792483 22.027204 33.083996 22.276056 33.387359 C 22.524909 33.690722 22.759541 34.005935 22.977583 34.332998 C 23.195625 34.660061 23.397077 34.996604 23.581939 35.342628 C 23.769171 35.691021 23.935072 36.044155 24.086754 36.406768 C 24.236065 36.771752 24.368787 37.141475 24.482548 37.515939 C 24.596309 37.892773 24.69348 38.274346 24.769321 38.65829 C 24.845161 39.044604 24.904412 39.433288 24.942332 39.824341 C 24.980253 40.215395 24.999213 40.606449 24.999213 40.999873 C 24.999213 41.393297 24.980253 41.784351 24.942332 42.175404 C 24.904412 42.566458 24.845161 42.955142 24.769321 43.341456 C 24.69348 43.725399 24.596309 44.106973 24.482548 44.483807 C 24.368787 44.86064 24.236065 45.227994 24.086754 45.592978 C 23.935072 45.955591 23.769171 46.311095 23.581939 46.657118 C 23.397077 47.003141 23.195625 47.339685 22.977583 47.666748 C 22.759541 47.993811 22.524909 48.309024 22.276056 48.612387 C 22.027204 48.91575 21.764131 49.207263 21.484469 49.484555 C 21.207176 49.764218 20.915663 50.027291 20.6123 50.276143 C 20.308937 50.524996 19.993724 50.759628 19.666661 50.97767 C 19.339598 51.195712 19.003054 51.397164 18.657031 51.582026 C 18.311008 51.769258 17.955504 51.935159 17.592891 52.086841 C 17.230277 52.236152 16.860554 52.368874 16.48372 52.482635 C 16.106886 52.596396 15.727682 52.693567 15.341369 52.769407 C 14.955055 52.845248 14.566371 52.904499 14.175317 52.942419 C 13.784264 52.98034 13.39321 52.9993 12.999786 52.9993 C 12.606362 52.9993 12.215308 52.98034 11.824254 52.942419 C 11.433201 52.904499 11.044517 52.845248 10.658203 52.769407 C 10.274259 52.693567 9.892686 52.596396 9.515852 52.482635 C 9.141388 52.368874 8.771665 52.236152 8.406681 52.086841 C 8.044068 51.935159 7.690934 51.769258 7.342541 51.582026 C 6.996517 51.397164 6.659974 51.195712 6.332911 50.97767 C 6.005848 50.759628 5.690635 50.524996 5.387272 50.276143 C 5.083909 50.027291 4.792396 49.764218 4.515103 49.484555 C 4.237811 49.207263 3.972368 48.91575 3.723516 48.612387 C 3.474663 48.309024 3.240031 47.993811 3.021989 47.666748 C 2.803947 47.339685 2.602495 47.003141 2.417633 46.657118 C 2.232771 46.311095 2.064499 45.955591 1.912818 45.592978 C 1.763506 45.227994 1.630785 44.86064 1.517024 44.483807 C 1.403263 44.106973 1.306092 43.725399 1.230251 43.341456 C 1.154411 42.955142 1.09516 42.566458 1.05724 42.175404 C 1.019319 41.784351 1.000359 41.393297 1.000359 40.999873 C 1.000359 40.606449 1.019319 40.215395 1.05724 39.824341 C 1.09516 39.433288 1.154411 39.044604 1.230251 38.65829 C 1.306092 38.274346 1.403263 37.892773 1.517024 37.515939 C 1.630785 37.141475 1.763506 36.771752 1.912818 36.406768 C 2.064499 36.044155 2.232771 35.691021 2.417633 35.342628 C 2.602495 34.996604 2.803947 34.660061 3.021989 34.332998 C 3.240031 34.005935 3.474663 33.690722 3.723516 33.387359 C 3.972368 33.083996 4.237811 32.792483 4.515103 32.51519 C 4.792396 32.237898 5.083909 31.972455 5.387272 31.723603 C 5.690635 31.47475 6.005848 31.240118 6.332911 31.022076 C 6.659974 30.804034 6.996517 30.602582 7.342541 30.41772 C 7.690934 30.232858 8.044068 30.064586 8.406681 29.912905 C 8.771665 29.763593 9.141388 29.630872 9.515852 29.517111 C 9.892686 29.40335 10.274259 29.306179 10.658203 29.230338 C 11.044517 29.154498 11.433201 29.095247 11.824254 29.057327 C 12.215308 29.019406 12.606362 29.000446 12.999786 29.000446 Z M 12.999786 29.000446 " stroke="#ffffff" stroke-width="1" stroke-opacity="1" stroke-miterlimit="4"/></g><g clip-path="url(#88d54c8af8)"><path fill="#04473f" d="M 100.960938 221.851562 L 306.984375 221.851562 C 311.535156 221.851562 315.226562 225.542969 315.226562 230.09375 L 315.226562 253.167969 C 315.226562 257.71875 311.535156 261.410156 306.984375 261.410156 L 100.960938 261.410156 Z M 100.960938 221.851562 " fill-opacity="1" fill-rule="nonzero"/></g><path fill="#04473f" d="M 100.960938 221.851562 C 101.609375 221.851562 102.253906 221.882812 102.898438 221.945312 C 103.542969 222.011719 104.183594 222.105469 104.820312 222.230469 C 105.457031 222.359375 106.082031 222.515625 106.703125 222.703125 C 107.324219 222.890625 107.933594 223.109375 108.53125 223.355469 C 109.128906 223.605469 109.714844 223.882812 110.285156 224.1875 C 110.855469 224.492188 111.410156 224.824219 111.949219 225.183594 C 112.488281 225.542969 113.007812 225.929688 113.507812 226.339844 C 114.007812 226.753906 114.488281 227.1875 114.945312 227.644531 C 115.40625 228.101562 115.839844 228.582031 116.25 229.082031 C 116.660156 229.582031 117.046875 230.101562 117.40625 230.640625 C 117.765625 231.179688 118.097656 231.734375 118.402344 232.304688 C 118.710938 232.878906 118.984375 233.460938 119.234375 234.0625 C 119.480469 234.660156 119.699219 235.269531 119.886719 235.890625 C 120.074219 236.507812 120.234375 237.136719 120.359375 237.769531 C 120.484375 238.40625 120.582031 239.046875 120.644531 239.691406 C 120.707031 240.335938 120.738281 240.980469 120.738281 241.628906 C 120.738281 242.277344 120.707031 242.925781 120.644531 243.570312 C 120.582031 244.214844 120.484375 244.851562 120.359375 245.488281 C 120.234375 246.125 120.074219 246.75 119.886719 247.371094 C 119.699219 247.992188 119.480469 248.601562 119.234375 249.199219 C 118.984375 249.796875 118.710938 250.382812 118.402344 250.953125 C 118.097656 251.523438 117.765625 252.078125 117.40625 252.617188 C 117.046875 253.15625 116.660156 253.675781 116.25 254.175781 C 115.839844 254.679688 115.40625 255.15625 114.945312 255.617188 C 114.488281 256.074219 114.007812 256.507812 113.507812 256.917969 C 113.007812 257.328125 112.488281 257.714844 111.949219 258.074219 C 111.410156 258.433594 110.855469 258.765625 110.285156 259.074219 C 109.714844 259.378906 109.128906 259.65625 108.53125 259.902344 C 107.933594 260.152344 107.324219 260.367188 106.703125 260.558594 C 106.082031 260.746094 105.457031 260.902344 104.820312 261.027344 C 104.183594 261.15625 103.542969 261.25 102.898438 261.3125 C 102.253906 261.375 101.609375 261.410156 100.960938 261.410156 C 100.3125 261.410156 99.667969 261.375 99.023438 261.3125 C 98.378906 261.25 97.738281 261.15625 97.101562 261.027344 C 96.46875 260.902344 95.839844 260.746094 95.21875 260.558594 C 94.601562 260.367188 93.992188 260.152344 93.390625 259.902344 C 92.792969 259.65625 92.210938 259.378906 91.636719 259.074219 C 91.066406 258.765625 90.511719 258.433594 89.972656 258.074219 C 89.433594 257.714844 88.914062 257.328125 88.414062 256.917969 C 87.914062 256.507812 87.433594 256.074219 86.976562 255.617188 C 86.519531 255.15625 86.082031 254.679688 85.671875 254.175781 C 85.261719 253.675781 84.875 253.15625 84.515625 252.617188 C 84.15625 252.078125 83.824219 251.523438 83.519531 250.953125 C 83.214844 250.382812 82.9375 249.796875 82.6875 249.199219 C 82.441406 248.601562 82.222656 247.992188 82.035156 247.371094 C 81.847656 246.75 81.6875 246.125 81.5625 245.488281 C 81.4375 244.851562 81.339844 244.214844 81.277344 243.570312 C 81.214844 242.925781 81.183594 242.277344 81.183594 241.628906 C 81.183594 240.980469 81.214844 240.335938 81.277344 239.691406 C 81.339844 239.046875 81.4375 238.40625 81.5625 237.769531 C 81.6875 237.136719 81.847656 236.507812 82.035156 235.890625 C 82.222656 235.269531 82.441406 234.660156 82.6875 234.0625 C 82.9375 233.460938 83.214844 232.878906 83.519531 232.304688 C 83.824219 231.734375 84.15625 231.179688 84.515625 230.640625 C 84.875 230.101562 85.261719 229.582031 85.671875 229.082031 C 86.082031 228.582031 86.519531 228.101562 86.976562 227.644531 C 87.433594 227.1875 87.914062 226.753906 88.414062 226.339844 C 88.914062 225.929688 89.433594 225.542969 89.972656 225.183594 C 90.511719 224.824219 91.066406 224.492188 91.636719 224.1875 C 92.210938 223.882812 92.792969 223.605469 93.390625 223.355469 C 93.992188 223.109375 94.601562 222.890625 95.21875 222.703125 C 95.839844 222.515625 96.46875 222.359375 97.101562 222.230469 C 97.738281 222.105469 98.378906 222.011719 99.023438 221.945312 C 99.667969 221.882812 100.3125 221.851562 100.960938 221.851562 Z M 100.960938 221.851562 " fill-opacity="1" fill-rule="nonzero"/><g clip-path="url(#a56a5285dd)"><path stroke-linecap="butt" transform="matrix(1.648191, 0, 0, 1.648191, 79.534811, 127.90486)" fill="none" stroke-linejoin="miter" d="M 12.999786 56.999899 C 13.39321 56.999899 13.784264 57.018859 14.175317 57.056779 C 14.566371 57.09707 14.955055 57.15395 15.341369 57.229791 C 15.727682 57.308002 16.106886 57.402803 16.48372 57.516564 C 16.860554 57.630325 17.230277 57.763046 17.592891 57.912358 C 17.955504 58.064039 18.311008 58.232311 18.657031 58.417172 C 19.003054 58.602034 19.339598 58.803486 19.666661 59.021528 C 19.993724 59.23957 20.308937 59.474203 20.6123 59.723055 C 20.915663 59.974278 21.207176 60.23735 21.484469 60.514643 C 21.764131 60.791936 22.027204 61.083448 22.276056 61.386811 C 22.524909 61.690174 22.759541 62.005387 22.977583 62.332451 C 23.195625 62.659514 23.397077 62.996057 23.581939 63.34208 C 23.769171 63.690474 23.935072 64.043607 24.086754 64.408591 C 24.236065 64.771204 24.368787 65.140928 24.482548 65.517762 C 24.596309 65.892225 24.69348 66.273799 24.769321 66.657743 C 24.845161 67.044057 24.904412 67.43274 24.942332 67.823794 C 24.980253 68.214848 24.999213 68.605902 24.999213 68.999326 C 24.999213 69.392749 24.980253 69.786173 24.942332 70.177227 C 24.904412 70.568281 24.845161 70.954595 24.769321 71.340908 C 24.69348 71.727222 24.596309 72.106426 24.482548 72.483259 C 24.368787 72.860093 24.236065 73.229817 24.086754 73.59243 C 23.935072 73.955044 23.769171 74.310547 23.581939 74.656571 C 23.397077 75.002594 23.195625 75.339137 22.977583 75.6662 C 22.759541 75.993264 22.524909 76.308477 22.276056 76.61184 C 22.027204 76.917573 21.764131 77.206715 21.484469 77.486378 C 21.207176 77.763671 20.915663 78.026743 20.6123 78.275596 C 20.308937 78.524448 19.993724 78.759081 19.666661 78.977123 C 19.339598 79.195165 19.003054 79.396617 18.657031 79.583849 C 18.311008 79.76871 17.955504 79.936982 17.592891 80.086294 C 17.230277 80.237975 16.860554 80.368326 16.48372 80.484457 C 16.106886 80.598218 15.727682 80.693019 15.341369 80.76886 C 14.955055 80.847071 14.566371 80.903951 14.175317 80.941872 C 13.784264 80.979792 13.39321 81.001122 12.999786 81.001122 C 12.606362 81.001122 12.215308 80.979792 11.824254 80.941872 C 11.433201 80.903951 11.044517 80.847071 10.658203 80.76886 C 10.274259 80.693019 9.892686 80.598218 9.515852 80.484457 C 9.141388 80.368326 8.771665 80.237975 8.406681 80.086294 C 8.044068 79.936982 7.690934 79.76871 7.342541 79.583849 C 6.996517 79.396617 6.659974 79.195165 6.332911 78.977123 C 6.005848 78.759081 5.690635 78.524448 5.387272 78.275596 C 5.083909 78.026743 4.792396 77.763671 4.515103 77.486378 C 4.237811 77.206715 3.972368 76.917573 3.723516 76.61184 C 3.474663 76.308477 3.240031 75.993264 3.021989 75.6662 C 2.803947 75.339137 2.602495 75.002594 2.417633 74.656571 C 2.232771 74.310547 2.064499 73.955044 1.912818 73.59243 C 1.763506 73.229817 1.630785 72.860093 1.517024 72.483259 C 1.403263 72.106426 1.306092 71.727222 1.230251 71.340908 C 1.154411 70.954595 1.09516 70.568281 1.05724 70.177227 C 1.019319 69.786173 1.000359 69.392749 1.000359 68.999326 C 1.000359 68.605902 1.019319 68.214848 1.05724 67.823794 C 1.09516 67.43274 1.154411 67.044057 1.230251 66.657743 C 1.306092 66.273799 1.403263 65.892225 1.517024 65.517762 C 1.630785 65.140928 1.763506 64.771204 1.912818 64.408591 C 2.064499 64.043607 2.232771 63.690474 2.417633 63.34208 C 2.602495 62.996057 2.803947 62.659514 3.021989 62.332451 C 3.240031 62.005387 3.474663 61.690174 3.723516 61.386811 C 3.972368 61.083448 4.237811 60.791936 4.515103 60.514643 C 4.792396 60.23735 5.083909 59.974278 5.387272 59.723055 C 5.690635 59.474203 6.005848 59.23957 6.332911 59.021528 C 6.659974 58.803486 6.996517 58.602034 7.342541 58.417172 C 7.690934 58.232311 8.044068 58.064039 8.406681 57.912358 C 8.771665 57.763046 9.141388 57.630325 9.515852 57.516564 C 9.892686 57.402803 10.274259 57.308002 10.658203 57.229791 C 11.044517 57.15395 11.433201 57.09707 11.824254 57.056779 C 12.215308 57.018859 12.606362 56.999899 12.999786 56.999899 Z M 12.999786 56.999899 " stroke="#ffffff" stroke-width="1" stroke-opacity="1" stroke-miterlimit="4"/></g><g clip-path="url(#b1de5cbd10)"><path fill="#04473f" d="M 100.960938 268 L 306.984375 268 C 311.535156 268 315.226562 271.691406 315.226562 276.242188 L 315.226562 299.316406 C 315.226562 303.867188 311.535156 307.558594 306.984375 307.558594 L 100.960938 307.558594 Z M 100.960938 268 " fill-opacity="1" fill-rule="nonzero"/></g><g clip-path="url(#41a3b4e8af)"><path fill="#04473f" d="M 100.960938 268 C 101.609375 268 102.253906 268.03125 102.898438 268.097656 C 103.542969 268.160156 104.183594 268.253906 104.820312 268.382812 C 105.457031 268.507812 106.082031 268.664062 106.703125 268.851562 C 107.324219 269.039062 107.933594 269.257812 108.53125 269.507812 C 109.128906 269.753906 109.714844 270.03125 110.285156 270.335938 C 110.855469 270.640625 111.410156 270.972656 111.949219 271.335938 C 112.488281 271.695312 113.007812 272.078125 113.507812 272.492188 C 114.007812 272.902344 114.488281 273.335938 114.945312 273.792969 C 115.40625 274.253906 115.839844 274.730469 116.25 275.230469 C 116.660156 275.734375 117.046875 276.253906 117.40625 276.792969 C 117.765625 277.328125 118.097656 277.882812 118.402344 278.457031 C 118.710938 279.027344 118.984375 279.613281 119.234375 280.210938 C 119.480469 280.808594 119.699219 281.417969 119.886719 282.039062 C 120.074219 282.65625 120.234375 283.285156 120.359375 283.921875 C 120.484375 284.554688 120.582031 285.195312 120.644531 285.839844 C 120.707031 286.484375 120.738281 287.132812 120.738281 287.78125 C 120.738281 288.425781 120.707031 289.074219 120.644531 289.71875 C 120.582031 290.363281 120.484375 291.003906 120.359375 291.636719 C 120.234375 292.273438 120.074219 292.902344 119.886719 293.519531 C 119.699219 294.140625 119.480469 294.75 119.234375 295.347656 C 118.984375 295.945312 118.710938 296.53125 118.402344 297.101562 C 118.097656 297.675781 117.765625 298.230469 117.40625 298.765625 C 117.046875 299.304688 116.660156 299.824219 116.25 300.328125 C 115.839844 300.828125 115.40625 301.308594 114.945312 301.765625 C 114.488281 302.222656 114.007812 302.65625 113.507812 303.066406 C 113.007812 303.480469 112.488281 303.863281 111.949219 304.222656 C 111.410156 304.585938 110.855469 304.917969 110.285156 305.222656 C 109.714844 305.527344 109.128906 305.804688 108.53125 306.050781 C 107.933594 306.300781 107.324219 306.519531 106.703125 306.707031 C 106.082031 306.894531 105.457031 307.050781 104.820312 307.175781 C 104.183594 307.304688 103.542969 307.398438 102.898438 307.460938 C 102.253906 307.527344 101.609375 307.558594 100.960938 307.558594 C 100.3125 307.558594 99.667969 307.527344 99.023438 307.460938 C 98.378906 307.398438 97.738281 307.304688 97.101562 307.175781 C 96.46875 307.050781 95.839844 306.894531 95.21875 306.707031 C 94.601562 306.519531 93.992188 306.300781 93.390625 306.050781 C 92.792969 305.804688 92.210938 305.527344 91.636719 305.222656 C 91.066406 304.917969 90.511719 304.585938 89.972656 304.222656 C 89.433594 303.863281 88.914062 303.480469 88.414062 303.066406 C 87.914062 302.65625 87.433594 302.222656 86.976562 301.765625 C 86.519531 301.308594 86.082031 300.828125 85.671875 300.328125 C 85.261719 299.824219 84.875 299.304688 84.515625 298.765625 C 84.15625 298.230469 83.824219 297.675781 83.519531 297.101562 C 83.214844 296.53125 82.9375 295.945312 82.6875 295.347656 C 82.441406 294.75 82.222656 294.140625 82.035156 293.519531 C 81.847656 292.902344 81.6875 292.273438 81.5625 291.636719 C 81.4375 291.003906 81.339844 290.363281 81.277344 289.71875 C 81.214844 289.074219 81.183594 288.425781 81.183594 287.78125 C 81.183594 287.132812 81.214844 286.484375 81.277344 285.839844 C 81.339844 285.195312 81.4375 284.554688 81.5625 283.921875 C 81.6875 283.285156 81.847656 282.65625 82.035156 282.039062 C 82.222656 281.417969 82.441406 280.808594 82.6875 280.210938 C 82.9375 279.613281 83.214844 279.027344 83.519531 278.457031 C 83.824219 277.882812 84.15625 277.328125 84.515625 276.792969 C 84.875 276.253906 85.261719 275.734375 85.671875 275.230469 C 86.082031 274.730469 86.519531 274.253906 86.976562 273.792969 C 87.433594 273.335938 87.914062 272.902344 88.414062 272.492188 C 88.914062 272.078125 89.433594 271.695312 89.972656 271.335938 C 90.511719 270.972656 91.066406 270.640625 91.636719 270.335938 C 92.210938 270.03125 92.792969 269.753906 93.390625 269.507812 C 93.992188 269.257812 94.601562 269.039062 95.21875 268.851562 C 95.839844 268.664062 96.46875 268.507812 97.101562 268.382812 C 97.738281 268.253906 98.378906 268.160156 99.023438 268.097656 C 99.667969 268.03125 100.3125 268 100.960938 268 Z M 100.960938 268 " fill-opacity="1" fill-rule="nonzero"/></g><g clip-path="url(#b63afc5c1a)"><path stroke-linecap="butt" transform="matrix(1.648191, 0, 0, 1.648191, 79.534811, 127.90486)" fill="none" stroke-linejoin="miter" d="M 12.999786 84.999351 C 13.39321 84.999351 13.784264 85.018312 14.175317 85.058602 C 14.566371 85.096522 14.955055 85.153403 15.341369 85.231614 C 15.727682 85.307454 16.106886 85.402255 16.48372 85.516016 C 16.860554 85.629778 17.230277 85.762499 17.592891 85.91418 C 17.955504 86.063492 18.311008 86.231763 18.657031 86.416625 C 19.003054 86.601487 19.339598 86.802939 19.666661 87.023351 C 19.993724 87.241393 20.308937 87.473655 20.6123 87.724878 C 20.915663 87.97373 21.207176 88.236803 21.484469 88.514096 C 21.764131 88.793758 22.027204 89.082901 22.276056 89.386264 C 22.524909 89.691997 22.759541 90.00721 22.977583 90.334273 C 23.195625 90.658966 23.397077 90.99551 23.581939 91.343903 C 23.769171 91.689927 23.935072 92.04543 24.086754 92.408044 C 24.236065 92.770657 24.368787 93.140381 24.482548 93.517214 C 24.596309 93.891678 24.69348 94.273252 24.769321 94.659565 C 24.845161 95.043509 24.904412 95.432193 24.942332 95.823247 C 24.980253 96.214301 24.999213 96.607724 24.999213 97.001148 C 24.999213 97.392202 24.980253 97.785626 24.942332 98.17668 C 24.904412 98.567733 24.845161 98.956417 24.769321 99.340361 C 24.69348 99.726675 24.596309 100.108249 24.482548 100.482712 C 24.368787 100.859546 24.236065 101.229269 24.086754 101.591883 C 23.935072 101.954496 23.769171 102.31 23.581939 102.656023 C 23.397077 103.004417 23.195625 103.34096 22.977583 103.665653 C 22.759541 103.992716 22.524909 104.307929 22.276056 104.613662 C 22.027204 104.917025 21.764131 105.208538 21.484469 105.485831 C 21.207176 105.763124 20.915663 106.026196 20.6123 106.275049 C 20.308937 106.526271 19.993724 106.758533 19.666661 106.976575 C 19.339598 107.196988 19.003054 107.398439 18.657031 107.583301 C 18.311008 107.768163 17.955504 107.936435 17.592891 108.085746 C 17.230277 108.237428 16.860554 108.370149 16.48372 108.48391 C 16.106886 108.597671 15.727682 108.692472 15.341369 108.768313 C 14.955055 108.846524 14.566371 108.903404 14.175317 108.941325 C 13.784264 108.981615 13.39321 109.000575 12.999786 109.000575 C 12.606362 109.000575 12.215308 108.981615 11.824254 108.941325 C 11.433201 108.903404 11.044517 108.846524 10.658203 108.768313 C 10.274259 108.692472 9.892686 108.597671 9.515852 108.48391 C 9.141388 108.370149 8.771665 108.237428 8.406681 108.085746 C 8.044068 107.936435 7.690934 107.768163 7.342541 107.583301 C 6.996517 107.398439 6.659974 107.196988 6.332911 106.976575 C 6.005848 106.758533 5.690635 106.526271 5.387272 106.275049 C 5.083909 106.026196 4.792396 105.763124 4.515103 105.485831 C 4.237811 105.208538 3.972368 104.917025 3.723516 104.613662 C 3.474663 104.307929 3.240031 103.992716 3.021989 103.665653 C 2.803947 103.34096 2.602495 103.004417 2.417633 102.656023 C 2.232771 102.31 2.064499 101.954496 1.912818 101.591883 C 1.763506 101.229269 1.630785 100.859546 1.517024 100.482712 C 1.403263 100.108249 1.306092 99.726675 1.230251 99.340361 C 1.154411 98.956417 1.09516 98.567733 1.05724 98.17668 C 1.019319 97.785626 1.000359 97.392202 1.000359 97.001148 C 1.000359 96.607724 1.019319 96.214301 1.05724 95.823247 C 1.09516 95.432193 1.154411 95.043509 1.230251 94.659565 C 1.306092 94.273252 1.403263 93.891678 1.517024 93.517214 C 1.630785 93.140381 1.763506 92.770657 1.912818 92.408044 C 2.064499 92.04543 2.232771 91.689927 2.417633 91.343903 C 2.602495 90.99551 2.803947 90.658966 3.021989 90.334273 C 3.240031 90.00721 3.474663 89.691997 3.723516 89.386264 C 3.972368 89.082901 4.237811 88.793758 4.515103 88.514096 C 4.792396 88.236803 5.083909 87.97373 5.387272 87.724878 C 5.690635 87.473655 6.005848 87.241393 6.332911 87.023351 C 6.659974 86.802939 6.996517 86.601487 7.342541 86.416625 C 7.690934 86.231763 8.044068 86.063492 8.406681 85.91418 C 8.771665 85.762499 9.141388 85.629778 9.515852 85.516016 C 9.892686 85.402255 10.274259 85.307454 10.658203 85.231614 C 11.044517 85.153403 11.433201 85.096522 11.824254 85.058602 C 12.215308 85.018312 12.606362 84.999351 12.999786 84.999351 Z M 12.999786 84.999351 " stroke="#ffffff" stroke-width="1" stroke-opacity="1" stroke-miterlimit="4"/></g></svg>