<svg xmlns="http://www.w3.org/2000/svg" xmlns:xlink="http://www.w3.org/1999/xlink" width="500" zoomAndPan="magnify" viewBox="0 0 375 374.999991" height="500" preserveAspectRatio="xMidYMid meet" version="1.0"><defs><clipPath id="a5f5db5500"><path d="M 111 151 L 264 151 L 264 288.261719 L 111 288.261719 Z M 111 151 " clip-rule="nonzero"/></clipPath></defs><rect x="-37.5" width="450" fill="#ffffff" y="-37.499999" height="449.999989" fill-opacity="1"/><rect x="-37.5" width="450" fill="#ffffff" y="-37.499999" height="449.999989" fill-opacity="1"/><path fill="#04473f" d="M 278.402344 170.628906 L 247.601562 147.972656 L 247.601562 120.949219 C 247.601562 116.710938 244.164062 113.285156 239.933594 113.285156 L 227.46875 113.285156 C 223.230469 113.285156 219.796875 116.71875 219.796875 120.949219 L 219.796875 127.515625 L 196.316406 110.242188 C 191.21875 106.484375 182.878906 106.484375 177.78125 110.242188 L 95.695312 170.628906 C 90.601562 174.378906 89.503906 181.621094 93.253906 186.722656 L 95.523438 189.800781 C 99.265625 194.902344 106.511719 196.007812 111.601562 192.257812 L 177.78125 143.550781 C 182.878906 139.800781 191.21875 139.800781 196.316406 143.550781 L 262.492188 192.257812 C 267.585938 196.007812 274.824219 194.898438 278.570312 189.800781 L 280.84375 186.722656 C 284.585938 181.621094 283.488281 174.378906 278.402344 170.628906 Z M 278.402344 170.628906 " fill-opacity="1" fill-rule="nonzero"/><g clip-path="url(#a5f5db5500)"><path fill="#04473f" d="M 253.84375 196.492188 L 196.296875 153.960938 C 191.207031 150.199219 182.890625 150.199219 177.800781 153.960938 L 120.253906 196.492188 C 115.164062 200.257812 111 205.757812 111 208.742188 L 111 270.40625 C 111 280.414062 119.582031 288.535156 130.175781 288.535156 L 165.316406 288.535156 L 165.316406 233.988281 C 165.316406 229.777344 168.769531 226.332031 172.980469 226.332031 L 201.105469 226.332031 C 205.316406 226.332031 208.765625 229.777344 208.765625 233.988281 L 208.765625 288.535156 L 243.917969 288.535156 C 254.503906 288.535156 263.078125 280.414062 263.078125 270.40625 L 263.078125 208.742188 C 263.085938 205.757812 258.933594 200.257812 253.84375 196.492188 Z M 253.84375 196.492188 " fill-opacity="1" fill-rule="nonzero"/></g></svg>