<svg xmlns="http://www.w3.org/2000/svg" xmlns:xlink="http://www.w3.org/1999/xlink" width="500" zoomAndPan="magnify" viewBox="0 0 375 374.999991" height="500" preserveAspectRatio="xMidYMid meet" version="1.0"><defs><clipPath id="0b0a0638f9"><path d="M 108 88.679688 L 290.824219 88.679688 L 290.824219 173 L 108 173 Z M 108 88.679688 " clip-rule="nonzero"/></clipPath><clipPath id="32b1e81466"><path d="M 125 144 L 266 144 L 266 286.679688 L 125 286.679688 Z M 125 144 " clip-rule="nonzero"/></clipPath></defs><rect x="-37.5" width="450" fill="#ffffff" y="-37.499999" height="449.999989" fill-opacity="1"/><rect x="-37.5" width="450" fill="#ffffff" y="-37.499999" height="449.999989" fill-opacity="1"/><g clip-path="url(#0b0a0638f9)"><path fill="#04473f" d="M 249.226562 88.863281 L 151.367188 88.863281 C 149.984375 88.847656 148.605469 88.898438 147.226562 89.019531 C 145.851562 89.136719 144.484375 89.328125 143.125 89.582031 C 141.765625 89.835938 140.421875 90.160156 139.097656 90.546875 C 137.769531 90.933594 136.464844 91.386719 135.183594 91.90625 C 133.902344 92.421875 132.648438 93.003906 131.425781 93.644531 C 130.199219 94.285156 129.011719 94.984375 127.855469 95.746094 C 126.699219 96.503906 125.585938 97.320312 124.511719 98.1875 C 123.4375 99.058594 122.40625 99.976562 121.425781 100.949219 C 120.441406 101.921875 119.507812 102.9375 118.625 104.003906 C 117.742188 105.066406 116.914062 106.171875 116.140625 107.316406 C 115.367188 108.464844 114.65625 109.644531 114 110.859375 C 113.34375 112.078125 112.746094 113.324219 112.214844 114.597656 C 111.683594 115.875 111.214844 117.171875 110.808594 118.496094 C 110.40625 119.816406 110.066406 121.15625 109.796875 122.511719 C 109.523438 123.867188 109.320312 125.230469 109.183594 126.605469 C 109.046875 127.984375 108.976562 129.363281 108.976562 130.742188 C 108.976562 132.125 109.046875 133.503906 109.183594 134.878906 C 109.320312 136.257812 109.523438 137.621094 109.796875 138.976562 C 110.066406 140.332031 110.40625 141.671875 110.808594 142.992188 C 111.214844 144.316406 111.683594 145.613281 112.214844 146.890625 C 112.746094 148.164062 113.34375 149.410156 114 150.625 C 114.65625 151.84375 115.367188 153.023438 116.140625 154.171875 C 116.914062 155.316406 117.742188 156.421875 118.625 157.484375 C 119.507812 158.550781 120.441406 159.566406 121.425781 160.539062 C 122.40625 161.507812 123.4375 162.429688 124.511719 163.300781 C 125.585938 164.167969 126.699219 164.984375 127.855469 165.742188 C 129.011719 166.503906 130.199219 167.203125 131.425781 167.84375 C 132.648438 168.484375 133.902344 169.066406 135.183594 169.582031 C 136.464844 170.101562 137.769531 170.550781 139.097656 170.941406 C 140.421875 171.328125 141.765625 171.652344 143.125 171.90625 C 144.484375 172.160156 145.851562 172.347656 147.226562 172.46875 C 148.605469 172.589844 149.984375 172.640625 151.367188 172.625 L 188.335938 172.625 C 188.832031 172.625 189.304688 172.53125 189.761719 172.339844 C 190.21875 172.152344 190.621094 171.882812 190.972656 171.53125 C 191.320312 171.183594 191.589844 170.78125 191.78125 170.324219 C 191.96875 169.867188 192.0625 169.390625 192.0625 168.898438 C 192.0625 168.402344 191.96875 167.929688 191.78125 167.472656 C 191.589844 167.015625 191.320312 166.613281 190.972656 166.261719 C 190.621094 165.914062 190.21875 165.644531 189.761719 165.453125 C 189.304688 165.265625 188.832031 165.171875 188.335938 165.171875 L 151.367188 165.171875 C 150.230469 165.1875 149.09375 165.144531 147.960938 165.046875 C 146.828125 164.949219 145.703125 164.796875 144.585938 164.589844 C 143.46875 164.378906 142.363281 164.117188 141.269531 163.796875 C 140.179688 163.480469 139.105469 163.109375 138.050781 162.683594 C 136.996094 162.257812 135.964844 161.785156 134.957031 161.257812 C 133.949219 160.730469 132.96875 160.152344 132.019531 159.53125 C 131.066406 158.90625 130.148438 158.238281 129.265625 157.523438 C 128.382812 156.808594 127.535156 156.050781 126.726562 155.25 C 125.914062 154.453125 125.148438 153.617188 124.421875 152.742188 C 123.695312 151.867188 123.011719 150.957031 122.375 150.015625 C 121.738281 149.074219 121.152344 148.101562 120.609375 147.101562 C 120.070312 146.101562 119.582031 145.074219 119.140625 144.027344 C 118.703125 142.976562 118.316406 141.910156 117.984375 140.820312 C 117.652344 139.734375 117.375 138.632812 117.148438 137.515625 C 116.925781 136.402344 116.757812 135.277344 116.644531 134.148438 C 116.535156 133.015625 116.476562 131.882812 116.476562 130.742188 C 116.476562 129.605469 116.535156 128.472656 116.644531 127.339844 C 116.757812 126.207031 116.925781 125.085938 117.148438 123.96875 C 117.375 122.855469 117.652344 121.753906 117.984375 120.667969 C 118.316406 119.578125 118.703125 118.511719 119.140625 117.460938 C 119.582031 116.414062 120.070312 115.386719 120.609375 114.386719 C 121.152344 113.386719 121.738281 112.414062 122.375 111.472656 C 123.011719 110.53125 123.695312 109.621094 124.421875 108.746094 C 125.148438 107.871094 125.914062 107.035156 126.726562 106.234375 C 127.535156 105.4375 128.382812 104.679688 129.265625 103.964844 C 130.148438 103.25 131.066406 102.582031 132.019531 101.957031 C 132.96875 101.332031 133.949219 100.757812 134.957031 100.230469 C 135.964844 99.703125 136.996094 99.230469 138.050781 98.804688 C 139.105469 98.378906 140.179688 98.007812 141.269531 97.691406 C 142.363281 97.371094 143.46875 97.109375 144.585938 96.898438 C 145.703125 96.691406 146.828125 96.535156 147.960938 96.441406 C 149.09375 96.34375 150.230469 96.300781 151.367188 96.316406 L 249.226562 96.316406 C 250.34375 96.332031 251.457031 96.402344 252.570312 96.523438 C 253.679688 96.648438 254.78125 96.824219 255.875 97.054688 C 256.96875 97.285156 258.050781 97.570312 259.117188 97.90625 C 260.183594 98.242188 261.230469 98.628906 262.257812 99.066406 C 263.289062 99.507812 264.292969 99.992188 265.273438 100.527344 C 266.253906 101.066406 267.207031 101.648438 268.132812 102.277344 C 269.054688 102.90625 269.949219 103.578125 270.808594 104.292969 C 271.664062 105.007812 272.488281 105.765625 273.273438 106.5625 C 274.058594 107.355469 274.804688 108.1875 275.507812 109.058594 C 276.210938 109.925781 276.871094 110.824219 277.488281 111.757812 C 278.105469 112.691406 278.675781 113.652344 279.199219 114.640625 C 279.722656 115.628906 280.195312 116.640625 280.617188 117.675781 C 281.042969 118.707031 281.417969 119.761719 281.738281 120.832031 C 282.058594 121.902344 282.328125 122.984375 282.546875 124.082031 C 282.761719 125.179688 282.925781 126.285156 283.03125 127.398438 C 283.140625 128.511719 283.195312 129.625 283.195312 130.742188 C 283.195312 131.863281 283.140625 132.976562 283.03125 134.089844 C 282.925781 135.203125 282.761719 136.308594 282.546875 137.40625 C 282.328125 138.5 282.058594 139.585938 281.738281 140.65625 C 281.417969 141.726562 281.042969 142.78125 280.617188 143.8125 C 280.195312 144.847656 279.722656 145.859375 279.199219 146.847656 C 278.675781 147.835938 278.105469 148.796875 277.488281 149.730469 C 276.871094 150.660156 276.210938 151.5625 275.507812 152.429688 C 274.804688 153.300781 274.058594 154.132812 273.273438 154.925781 C 272.488281 155.722656 271.664062 156.480469 270.808594 157.195312 C 269.949219 157.910156 269.054688 158.582031 268.132812 159.210938 C 267.207031 159.839844 266.253906 160.421875 265.273438 160.957031 C 264.292969 161.496094 263.289062 161.980469 262.257812 162.421875 C 261.230469 162.859375 260.183594 163.246094 259.117188 163.582031 C 258.050781 163.917969 256.96875 164.199219 255.875 164.433594 C 254.78125 164.664062 253.679688 164.839844 252.570312 164.964844 C 251.457031 165.085938 250.34375 165.15625 249.226562 165.171875 L 241.941406 165.171875 C 241.449219 165.171875 240.972656 165.265625 240.515625 165.453125 C 240.0625 165.644531 239.65625 165.914062 239.308594 166.261719 C 238.957031 166.613281 238.691406 167.015625 238.5 167.472656 C 238.3125 167.929688 238.21875 168.402344 238.21875 168.898438 C 238.21875 169.390625 238.3125 169.867188 238.5 170.324219 C 238.691406 170.78125 238.957031 171.183594 239.308594 171.53125 C 239.65625 171.882812 240.0625 172.152344 240.515625 172.339844 C 240.972656 172.53125 241.449219 172.625 241.941406 172.625 L 249.226562 172.625 C 250.585938 172.609375 251.941406 172.523438 253.296875 172.375 C 254.648438 172.226562 255.992188 172.011719 257.324219 171.734375 C 258.65625 171.453125 259.972656 171.109375 261.269531 170.703125 C 262.566406 170.292969 263.84375 169.824219 265.097656 169.292969 C 266.347656 168.757812 267.574219 168.167969 268.769531 167.515625 C 269.964844 166.863281 271.125 166.15625 272.25 165.390625 C 273.375 164.625 274.460938 163.808594 275.507812 162.9375 C 276.554688 162.066406 277.554688 161.148438 278.511719 160.179688 C 279.46875 159.210938 280.375 158.199219 281.234375 157.144531 C 282.09375 156.085938 282.898438 154.988281 283.648438 153.855469 C 284.398438 152.71875 285.09375 151.550781 285.730469 150.347656 C 286.367188 149.144531 286.945312 147.914062 287.460938 146.65625 C 287.980469 145.394531 288.433594 144.113281 288.824219 142.8125 C 289.21875 141.507812 289.546875 140.1875 289.808594 138.851562 C 290.074219 137.515625 290.269531 136.171875 290.402344 134.816406 C 290.535156 133.464844 290.601562 132.105469 290.601562 130.742188 C 290.601562 129.382812 290.535156 128.023438 290.402344 126.671875 C 290.269531 125.316406 290.074219 123.96875 289.808594 122.636719 C 289.546875 121.300781 289.21875 119.980469 288.824219 118.675781 C 288.433594 117.375 287.980469 116.09375 287.460938 114.832031 C 286.945312 113.574219 286.367188 112.34375 285.730469 111.140625 C 285.09375 109.9375 284.398438 108.769531 283.648438 107.632812 C 282.898438 106.496094 282.09375 105.402344 281.234375 104.34375 C 280.375 103.289062 279.46875 102.277344 278.511719 101.308594 C 277.554688 100.339844 276.554688 99.417969 275.507812 98.550781 C 274.460938 97.679688 273.375 96.859375 272.25 96.097656 C 271.125 95.332031 269.964844 94.625 268.769531 93.972656 C 267.574219 93.320312 266.347656 92.726562 265.097656 92.195312 C 263.84375 91.664062 262.566406 91.195312 261.269531 90.785156 C 259.972656 90.378906 258.65625 90.035156 257.324219 89.753906 C 255.992188 89.476562 254.648438 89.261719 253.296875 89.113281 C 251.941406 88.964844 250.585938 88.878906 249.226562 88.863281 Z M 249.226562 88.863281 " fill-opacity="1" fill-rule="nonzero"/></g><path fill="#04473f" d="M 255.109375 113.601562 C 255.109375 113.109375 255.015625 112.632812 254.828125 112.175781 C 254.636719 111.71875 254.367188 111.316406 254.019531 110.96875 C 253.671875 110.617188 253.265625 110.347656 252.8125 110.160156 C 252.355469 109.96875 251.878906 109.875 251.382812 109.875 L 172.917969 109.875 C 172.421875 109.875 171.949219 109.96875 171.492188 110.160156 C 171.035156 110.347656 170.632812 110.617188 170.28125 110.96875 C 169.933594 111.316406 169.664062 111.71875 169.472656 112.175781 C 169.285156 112.632812 169.191406 113.109375 169.191406 113.601562 C 169.191406 114.097656 169.285156 114.570312 169.472656 115.027344 C 169.664062 115.484375 169.933594 115.886719 170.28125 116.238281 C 170.632812 116.585938 171.035156 116.855469 171.492188 117.042969 C 171.949219 117.234375 172.421875 117.328125 172.917969 117.328125 L 251.359375 117.328125 C 251.855469 117.332031 252.335938 117.238281 252.792969 117.050781 C 253.253906 116.863281 253.660156 116.59375 254.011719 116.246094 C 254.363281 115.894531 254.632812 115.492188 254.824219 115.035156 C 255.015625 114.574219 255.109375 114.097656 255.109375 113.601562 Z M 255.109375 113.601562 " fill-opacity="1" fill-rule="nonzero"/><g clip-path="url(#32b1e81466)"><path fill="#04473f" d="M 252.105469 208.625 C 250.625 208.621094 249.183594 208.855469 247.78125 209.324219 C 246.378906 209.792969 245.085938 210.476562 243.90625 211.367188 L 230.292969 221.671875 C 230.15625 221.789062 229.996094 221.851562 229.816406 221.871094 C 229.640625 221.886719 229.472656 221.851562 229.3125 221.765625 C 229.152344 221.691406 229.019531 221.578125 228.925781 221.425781 C 228.832031 221.277344 228.789062 221.109375 228.792969 220.933594 L 228.792969 157.828125 C 228.792969 156.980469 228.710938 156.140625 228.542969 155.3125 C 228.378906 154.480469 228.132812 153.671875 227.808594 152.890625 C 227.484375 152.109375 227.085938 151.363281 226.613281 150.660156 C 226.144531 149.957031 225.609375 149.304688 225.007812 148.707031 C 224.410156 148.105469 223.757812 147.570312 223.054688 147.101562 C 222.347656 146.628906 221.605469 146.234375 220.820312 145.910156 C 220.039062 145.585938 219.230469 145.339844 218.402344 145.175781 C 217.570312 145.007812 216.730469 144.925781 215.882812 144.925781 C 215.035156 144.925781 214.195312 145.007812 213.367188 145.175781 C 212.535156 145.339844 211.726562 145.585938 210.945312 145.910156 C 210.160156 146.234375 209.417969 146.628906 208.714844 147.101562 C 208.007812 147.570312 207.355469 148.105469 206.757812 148.707031 C 206.15625 149.304688 205.621094 149.957031 205.152344 150.660156 C 204.679688 151.363281 204.28125 152.109375 203.957031 152.890625 C 203.632812 153.671875 203.386719 154.480469 203.222656 155.3125 C 203.054688 156.140625 202.972656 156.980469 202.972656 157.828125 L 202.972656 177.917969 C 201.246094 177.101562 199.425781 176.691406 197.515625 176.691406 C 196.253906 176.695312 195.019531 176.878906 193.8125 177.242188 C 192.601562 177.605469 191.472656 178.136719 190.417969 178.832031 C 189.367188 179.527344 188.4375 180.355469 187.625 181.324219 C 186.816406 182.292969 186.160156 183.355469 185.664062 184.511719 C 185.238281 184.257812 184.804688 184.027344 184.355469 183.824219 C 183.90625 183.621094 183.445312 183.441406 182.976562 183.292969 C 182.503906 183.140625 182.027344 183.019531 181.542969 182.921875 C 181.058594 182.828125 180.570312 182.761719 180.078125 182.722656 C 179.585938 182.683594 179.09375 182.671875 178.601562 182.691406 C 178.109375 182.710938 177.617188 182.757812 177.128906 182.832031 C 176.640625 182.910156 176.160156 183.011719 175.683594 183.144531 C 175.207031 183.277344 174.742188 183.433594 174.285156 183.621094 C 173.828125 183.804688 173.382812 184.015625 172.949219 184.253906 C 172.515625 184.492188 172.097656 184.753906 171.695312 185.039062 C 171.292969 185.324219 170.910156 185.632812 170.542969 185.964844 C 170.175781 186.292969 169.832031 186.644531 169.503906 187.015625 C 169.179688 187.386719 168.875 187.773438 168.59375 188.179688 C 168.3125 188.585938 168.058594 189.007812 167.824219 189.441406 C 167.59375 189.878906 167.386719 190.328125 167.207031 190.785156 C 167.027344 191.246094 166.875 191.714844 166.75 192.191406 C 165.179688 191.441406 163.523438 191.0625 161.78125 191.046875 C 161 191.046875 160.226562 191.125 159.457031 191.277344 C 158.691406 191.429688 157.949219 191.65625 157.226562 191.957031 C 156.503906 192.257812 155.816406 192.625 155.167969 193.058594 C 154.515625 193.492188 153.914062 193.984375 153.363281 194.539062 C 152.808594 195.089844 152.316406 195.691406 151.882812 196.34375 C 151.445312 196.992188 151.078125 197.675781 150.78125 198.398438 C 150.480469 199.121094 150.253906 199.867188 150.101562 200.632812 C 149.945312 201.398438 149.867188 202.171875 149.867188 202.953125 L 149.867188 278.882812 L 128.648438 278.882812 C 128.167969 278.902344 127.707031 279.011719 127.265625 279.207031 C 126.828125 279.40625 126.441406 279.679688 126.105469 280.027344 C 125.773438 280.375 125.515625 280.773438 125.335938 281.21875 C 125.15625 281.664062 125.066406 282.128906 125.066406 282.613281 C 125.066406 283.09375 125.15625 283.558594 125.335938 284.003906 C 125.515625 284.453125 125.773438 284.851562 126.105469 285.199219 C 126.441406 285.546875 126.828125 285.816406 127.265625 286.015625 C 127.707031 286.214844 128.167969 286.320312 128.648438 286.339844 L 246.3125 286.339844 C 246.792969 286.320312 247.253906 286.214844 247.695312 286.015625 C 248.132812 285.816406 248.519531 285.546875 248.851562 285.199219 C 249.1875 284.851562 249.445312 284.453125 249.625 284.003906 C 249.804688 283.558594 249.894531 283.09375 249.894531 282.613281 C 249.894531 282.128906 249.804688 281.664062 249.625 281.21875 C 249.445312 280.773438 249.1875 280.375 248.851562 280.027344 C 248.519531 279.679688 248.132812 279.40625 247.695312 279.207031 C 247.253906 279.011719 246.792969 278.902344 246.3125 278.882812 L 221.402344 278.882812 L 230.582031 271.417969 C 233.875 268.742188 236.785156 265.695312 239.304688 262.28125 L 261.945312 231.628906 C 262.871094 230.664062 263.632812 229.589844 264.242188 228.402344 C 264.847656 227.214844 265.273438 225.964844 265.511719 224.652344 C 265.75 223.339844 265.796875 222.023438 265.644531 220.695312 C 265.496094 219.371094 265.160156 218.09375 264.636719 216.867188 C 264.109375 215.644531 263.417969 214.519531 262.5625 213.496094 C 261.707031 212.472656 260.722656 211.59375 259.609375 210.863281 C 258.492188 210.128906 257.296875 209.570312 256.019531 209.191406 C 254.742188 208.8125 253.433594 208.621094 252.101562 208.625 Z M 206.699219 214.867188 C 207.195312 214.867188 207.671875 214.773438 208.128906 214.582031 C 208.585938 214.394531 208.988281 214.125 209.339844 213.773438 C 209.6875 213.425781 209.957031 213.019531 210.148438 212.5625 C 210.335938 212.105469 210.429688 211.628906 210.429688 211.136719 L 210.429688 157.828125 C 210.417969 157.460938 210.445312 157.097656 210.503906 156.738281 C 210.566406 156.378906 210.660156 156.027344 210.792969 155.683594 C 210.925781 155.34375 211.089844 155.019531 211.285156 154.710938 C 211.484375 154.402344 211.707031 154.113281 211.964844 153.851562 C 212.21875 153.589844 212.496094 153.355469 212.796875 153.144531 C 213.097656 152.9375 213.417969 152.765625 213.753906 152.621094 C 214.09375 152.476562 214.441406 152.371094 214.800781 152.296875 C 215.15625 152.226562 215.519531 152.1875 215.886719 152.1875 C 216.253906 152.1875 216.613281 152.222656 216.972656 152.296875 C 217.332031 152.371094 217.679688 152.476562 218.015625 152.621094 C 218.355469 152.765625 218.671875 152.9375 218.976562 153.144531 C 219.277344 153.355469 219.554688 153.589844 219.808594 153.851562 C 220.0625 154.113281 220.289062 154.402344 220.488281 154.710938 C 220.683594 155.019531 220.847656 155.34375 220.980469 155.683594 C 221.113281 156.027344 221.207031 156.378906 221.269531 156.738281 C 221.328125 157.097656 221.355469 157.460938 221.339844 157.828125 L 221.339844 220.933594 C 221.339844 221.710938 221.441406 222.476562 221.65625 223.230469 C 221.867188 223.980469 222.179688 224.6875 222.589844 225.351562 C 223 226.015625 223.496094 226.609375 224.074219 227.136719 C 224.652344 227.660156 225.292969 228.09375 225.992188 228.441406 C 227.171875 229.027344 228.417969 229.324219 229.734375 229.328125 C 231.613281 229.328125 233.296875 228.757812 234.789062 227.621094 L 248.378906 217.308594 C 249.480469 216.484375 250.714844 216.078125 252.089844 216.085938 C 252.90625 216.085938 253.691406 216.242188 254.449219 216.554688 C 255.203125 216.867188 255.871094 217.308594 256.449219 217.882812 C 256.734375 218.171875 256.992188 218.480469 257.214844 218.816406 C 257.4375 219.152344 257.628906 219.507812 257.78125 219.882812 C 257.9375 220.253906 258.050781 220.640625 258.132812 221.035156 C 258.210938 221.429688 258.25 221.832031 258.25 222.234375 C 258.25 222.640625 258.210938 223.039062 258.132812 223.433594 C 258.050781 223.832031 257.9375 224.214844 257.78125 224.589844 C 257.628906 224.960938 257.4375 225.316406 257.214844 225.652344 C 256.992188 225.988281 256.734375 226.300781 256.449219 226.585938 C 256.316406 226.71875 256.195312 226.859375 256.082031 227.015625 L 233.328125 257.851562 C 231.183594 260.761719 228.707031 263.351562 225.898438 265.628906 L 209.574219 278.882812 L 157.320312 278.882812 L 157.320312 202.953125 C 157.308594 202.65625 157.328125 202.355469 157.378906 202.0625 C 157.425781 201.765625 157.503906 201.476562 157.609375 201.199219 C 157.71875 200.917969 157.851562 200.652344 158.011719 200.398438 C 158.171875 200.144531 158.359375 199.910156 158.566406 199.695312 C 158.773438 199.476562 159 199.285156 159.25 199.117188 C 159.496094 198.945312 159.757812 198.800781 160.03125 198.683594 C 160.308594 198.566406 160.59375 198.480469 160.886719 198.417969 C 161.179688 198.359375 161.476562 198.328125 161.777344 198.328125 C 162.078125 198.328125 162.375 198.359375 162.667969 198.417969 C 162.960938 198.480469 163.246094 198.566406 163.523438 198.683594 C 163.800781 198.800781 164.058594 198.945312 164.308594 199.117188 C 164.554688 199.285156 164.78125 199.476562 164.988281 199.695312 C 165.199219 199.910156 165.382812 200.144531 165.542969 200.398438 C 165.703125 200.652344 165.839844 200.917969 165.945312 201.199219 C 166.050781 201.476562 166.128906 201.765625 166.179688 202.0625 C 166.226562 202.355469 166.246094 202.65625 166.234375 202.953125 L 166.234375 224.699219 C 166.253906 225.183594 166.363281 225.644531 166.5625 226.082031 C 166.757812 226.523438 167.03125 226.90625 167.378906 227.242188 C 167.726562 227.574219 168.125 227.832031 168.570312 228.011719 C 169.019531 228.191406 169.484375 228.28125 169.964844 228.28125 C 170.445312 228.28125 170.910156 228.191406 171.359375 228.011719 C 171.804688 227.832031 172.203125 227.574219 172.550781 227.242188 C 172.898438 226.90625 173.171875 226.523438 173.367188 226.082031 C 173.566406 225.644531 173.675781 225.183594 173.695312 224.699219 L 173.695312 195.5625 C 173.707031 195.210938 173.75 194.867188 173.828125 194.523438 C 173.90625 194.183594 174.019531 193.851562 174.160156 193.53125 C 174.304688 193.210938 174.476562 192.90625 174.675781 192.621094 C 174.875 192.332031 175.101562 192.066406 175.355469 191.824219 C 175.605469 191.578125 175.878906 191.359375 176.175781 191.171875 C 176.46875 190.980469 176.777344 190.816406 177.101562 190.6875 C 177.429688 190.554688 177.761719 190.457031 178.105469 190.386719 C 178.449219 190.320312 178.796875 190.289062 179.148438 190.289062 C 179.5 190.289062 179.847656 190.320312 180.191406 190.386719 C 180.535156 190.457031 180.871094 190.554688 181.195312 190.6875 C 181.519531 190.816406 181.832031 190.980469 182.125 191.171875 C 182.417969 191.359375 182.691406 191.578125 182.945312 191.824219 C 183.195312 192.066406 183.421875 192.332031 183.621094 192.621094 C 183.824219 192.90625 183.996094 193.210938 184.136719 193.53125 C 184.28125 193.851562 184.390625 194.183594 184.46875 194.523438 C 184.546875 194.867188 184.59375 195.210938 184.605469 195.5625 L 184.605469 216.332031 C 184.625 216.8125 184.730469 217.273438 184.929688 217.710938 C 185.128906 218.152344 185.402344 218.539062 185.75 218.871094 C 186.097656 219.207031 186.492188 219.460938 186.941406 219.640625 C 187.386719 219.820312 187.851562 219.910156 188.332031 219.910156 C 188.816406 219.910156 189.28125 219.820312 189.726562 219.640625 C 190.175781 219.460938 190.570312 219.207031 190.917969 218.871094 C 191.265625 218.539062 191.539062 218.152344 191.738281 217.710938 C 191.933594 217.273438 192.042969 216.8125 192.0625 216.332031 L 192.0625 189.578125 C 192.050781 189.214844 192.074219 188.851562 192.136719 188.488281 C 192.195312 188.128906 192.292969 187.777344 192.425781 187.433594 C 192.554688 187.09375 192.71875 186.769531 192.917969 186.460938 C 193.113281 186.152344 193.339844 185.867188 193.59375 185.601562 C 193.847656 185.339844 194.128906 185.105469 194.429688 184.898438 C 194.730469 184.691406 195.050781 184.515625 195.386719 184.371094 C 195.722656 184.230469 196.070312 184.121094 196.429688 184.046875 C 196.789062 183.976562 197.152344 183.9375 197.519531 183.9375 C 197.882812 183.9375 198.246094 183.976562 198.605469 184.046875 C 198.964844 184.121094 199.3125 184.230469 199.648438 184.371094 C 199.984375 184.515625 200.304688 184.691406 200.605469 184.898438 C 200.910156 185.105469 201.1875 185.339844 201.441406 185.601562 C 201.695312 185.867188 201.921875 186.152344 202.117188 186.460938 C 202.316406 186.769531 202.480469 187.09375 202.609375 187.433594 C 202.742188 187.777344 202.839844 188.128906 202.898438 188.488281 C 202.960938 188.851562 202.984375 189.214844 202.972656 189.578125 L 202.972656 211.136719 C 202.972656 211.628906 203.066406 212.105469 203.257812 212.5625 C 203.445312 213.019531 203.714844 213.421875 204.0625 213.773438 C 204.414062 214.121094 204.816406 214.390625 205.273438 214.582031 C 205.730469 214.773438 206.203125 214.867188 206.699219 214.867188 Z M 206.699219 214.867188 " fill-opacity="1" fill-rule="nonzero"/></g></svg>