<svg xmlns="http://www.w3.org/2000/svg" xmlns:xlink="http://www.w3.org/1999/xlink" width="500" zoomAndPan="magnify" viewBox="0 0 375 374.999991" height="500" preserveAspectRatio="xMidYMid meet" version="1.0"><defs><clipPath id="4a7f46f4c5"><path d="M 92 85.261719 L 120 85.261719 L 120 113 L 92 113 Z M 92 85.261719 " clip-rule="nonzero"/></clipPath><clipPath id="83feac0ba9"><path d="M 85.261719 112 L 127 112 L 127 157 L 85.261719 157 Z M 85.261719 112 " clip-rule="nonzero"/></clipPath><clipPath id="617d4b23ed"><path d="M 173 85.261719 L 202 85.261719 L 202 113 L 173 113 Z M 173 85.261719 " clip-rule="nonzero"/></clipPath><clipPath id="b3d07322d7"><path d="M 255 85.261719 L 283 85.261719 L 283 113 L 255 113 Z M 255 85.261719 " clip-rule="nonzero"/></clipPath></defs><rect x="-37.5" width="450" fill="#ffffff" y="-37.499999" height="449.999989" fill-opacity="1"/><rect x="-37.5" width="450" fill="#ffffff" y="-37.499999" height="449.999989" fill-opacity="1"/><path fill="#04473f" d="M 163.640625 236.105469 L 187.496094 248.03125 L 211.351562 236.105469 L 211.351562 180.679688 L 163.640625 180.679688 Z M 187.496094 218.164062 C 181.859375 218.164062 177.273438 213.578125 177.273438 207.941406 C 177.273438 203.503906 180.132812 199.757812 184.085938 198.347656 L 184.085938 194.3125 L 190.902344 194.3125 L 190.902344 198.347656 C 194.859375 199.757812 197.71875 203.503906 197.71875 207.941406 L 190.902344 207.941406 C 190.902344 206.066406 189.375 204.535156 187.496094 204.535156 C 185.617188 204.535156 184.085938 206.066406 184.085938 207.941406 C 184.085938 209.820312 185.617188 211.351562 187.496094 211.351562 C 193.132812 211.351562 197.71875 215.9375 197.71875 221.574219 C 197.71875 226.011719 194.859375 229.757812 190.902344 231.171875 L 190.902344 235.203125 L 184.085938 235.203125 L 184.085938 231.171875 C 180.132812 229.757812 177.273438 226.011719 177.273438 221.574219 L 184.085938 221.574219 C 184.085938 223.453125 185.617188 224.980469 187.496094 224.980469 C 189.375 224.980469 190.902344 223.453125 190.902344 221.574219 C 190.902344 219.695312 189.375 218.164062 187.496094 218.164062 Z M 187.496094 218.164062 " fill-opacity="1" fill-rule="nonzero"/><path fill="#04473f" d="M 150.007812 236.839844 L 156.824219 231.386719 L 156.824219 222.664062 L 144.472656 232.546875 C 143.664062 233.191406 143.195312 234.167969 143.195312 235.203125 L 143.195312 286.320312 C 143.195312 288.203125 144.71875 289.730469 146.601562 289.730469 L 228.390625 289.730469 C 230.269531 289.730469 231.796875 288.203125 231.796875 286.320312 L 231.796875 235.203125 C 231.796875 234.167969 231.328125 233.191406 230.519531 232.542969 L 218.164062 222.664062 L 218.164062 231.390625 L 224.980469 236.84375 L 224.980469 236.914062 L 187.496094 255.652344 L 150.007812 236.910156 Z M 150.007812 236.839844 " fill-opacity="1" fill-rule="nonzero"/><path fill="#04473f" d="M 184.085938 167.046875 L 190.902344 167.046875 L 190.902344 173.863281 L 184.085938 173.863281 Z M 184.085938 167.046875 " fill-opacity="1" fill-rule="nonzero"/><path fill="#04473f" d="M 265.875 167.046875 L 272.691406 167.046875 L 272.691406 173.863281 L 265.875 173.863281 Z M 265.875 167.046875 " fill-opacity="1" fill-rule="nonzero"/><path fill="#04473f" d="M 255.652344 177.273438 L 262.46875 177.273438 L 262.46875 184.085938 L 255.652344 184.085938 Z M 255.652344 177.273438 " fill-opacity="1" fill-rule="nonzero"/><path fill="#04473f" d="M 245.429688 187.496094 L 252.242188 187.496094 L 252.242188 194.3125 L 245.429688 194.3125 Z M 245.429688 187.496094 " fill-opacity="1" fill-rule="nonzero"/><path fill="#04473f" d="M 235.203125 197.71875 L 242.019531 197.71875 L 242.019531 204.535156 L 235.203125 204.535156 Z M 235.203125 197.71875 " fill-opacity="1" fill-rule="nonzero"/><path fill="#04473f" d="M 224.980469 207.941406 L 231.796875 207.941406 L 231.796875 214.757812 L 224.980469 214.757812 Z M 224.980469 207.941406 " fill-opacity="1" fill-rule="nonzero"/><path fill="#04473f" d="M 102.300781 167.046875 L 109.117188 167.046875 L 109.117188 173.863281 L 102.300781 173.863281 Z M 102.300781 167.046875 " fill-opacity="1" fill-rule="nonzero"/><path fill="#04473f" d="M 112.523438 177.273438 L 119.339844 177.273438 L 119.339844 184.085938 L 112.523438 184.085938 Z M 112.523438 177.273438 " fill-opacity="1" fill-rule="nonzero"/><path fill="#04473f" d="M 122.746094 187.496094 L 129.5625 187.496094 L 129.5625 194.3125 L 122.746094 194.3125 Z M 122.746094 187.496094 " fill-opacity="1" fill-rule="nonzero"/><path fill="#04473f" d="M 132.96875 197.71875 L 139.785156 197.71875 L 139.785156 204.535156 L 132.96875 204.535156 Z M 132.96875 197.71875 " fill-opacity="1" fill-rule="nonzero"/><path fill="#04473f" d="M 143.195312 207.941406 L 150.007812 207.941406 L 150.007812 214.757812 L 143.195312 214.757812 Z M 143.195312 207.941406 " fill-opacity="1" fill-rule="nonzero"/><g clip-path="url(#4a7f46f4c5)"><path fill="#04473f" d="M 119.339844 98.890625 C 119.339844 99.789062 119.253906 100.675781 119.078125 101.550781 C 118.902344 102.429688 118.644531 103.28125 118.300781 104.109375 C 117.960938 104.9375 117.539062 105.722656 117.042969 106.464844 C 116.542969 107.210938 115.980469 107.898438 115.347656 108.53125 C 114.714844 109.164062 114.023438 109.730469 113.28125 110.226562 C 112.535156 110.722656 111.75 111.144531 110.925781 111.484375 C 110.097656 111.828125 109.246094 112.085938 108.367188 112.261719 C 107.488281 112.4375 106.601562 112.523438 105.707031 112.523438 C 104.8125 112.523438 103.925781 112.4375 103.046875 112.261719 C 102.171875 112.085938 101.320312 111.828125 100.492188 111.484375 C 99.664062 111.144531 98.878906 110.722656 98.136719 110.226562 C 97.390625 109.730469 96.703125 109.164062 96.070312 108.53125 C 95.4375 107.898438 94.871094 107.210938 94.375 106.464844 C 93.875 105.722656 93.457031 104.9375 93.113281 104.109375 C 92.773438 103.28125 92.511719 102.429688 92.339844 101.550781 C 92.164062 100.675781 92.078125 99.789062 92.078125 98.890625 C 92.078125 97.996094 92.164062 97.109375 92.339844 96.234375 C 92.511719 95.355469 92.773438 94.503906 93.113281 93.675781 C 93.457031 92.847656 93.875 92.0625 94.375 91.320312 C 94.871094 90.574219 95.4375 89.886719 96.070312 89.253906 C 96.703125 88.621094 97.390625 88.054688 98.136719 87.558594 C 98.878906 87.0625 99.664062 86.640625 100.492188 86.296875 C 101.320312 85.957031 102.171875 85.699219 103.046875 85.523438 C 103.925781 85.347656 104.8125 85.261719 105.707031 85.261719 C 106.601562 85.261719 107.488281 85.347656 108.367188 85.523438 C 109.246094 85.699219 110.097656 85.957031 110.925781 86.296875 C 111.75 86.640625 112.535156 87.0625 113.28125 87.558594 C 114.023438 88.054688 114.714844 88.621094 115.347656 89.253906 C 115.980469 89.886719 116.542969 90.574219 117.042969 91.320312 C 117.539062 92.0625 117.960938 92.847656 118.300781 93.675781 C 118.644531 94.503906 118.902344 95.355469 119.078125 96.234375 C 119.253906 97.109375 119.339844 97.996094 119.339844 98.890625 Z M 119.339844 98.890625 " fill-opacity="1" fill-rule="nonzero"/></g><g clip-path="url(#83feac0ba9)"><path fill="#04473f" d="M 126.15625 126.15625 C 126.15625 118.628906 120.050781 112.523438 112.523438 112.523438 L 105.707031 112.523438 L 112.523438 132.96875 L 105.707031 143.195312 L 98.890625 132.96875 L 105.707031 112.523438 L 98.890625 112.523438 C 91.363281 112.523438 85.261719 118.628906 85.261719 126.15625 L 85.261719 156.824219 L 126.15625 156.824219 Z M 126.15625 126.15625 " fill-opacity="1" fill-rule="nonzero"/></g><g clip-path="url(#617d4b23ed)"><path fill="#04473f" d="M 201.125 98.890625 C 201.125 99.789062 201.039062 100.675781 200.863281 101.550781 C 200.691406 102.429688 200.433594 103.28125 200.089844 104.109375 C 199.746094 104.9375 199.328125 105.722656 198.828125 106.464844 C 198.332031 107.210938 197.765625 107.898438 197.132812 108.53125 C 196.5 109.164062 195.8125 109.730469 195.070312 110.226562 C 194.324219 110.722656 193.539062 111.144531 192.710938 111.484375 C 191.886719 111.828125 191.03125 112.085938 190.15625 112.261719 C 189.277344 112.4375 188.390625 112.523438 187.496094 112.523438 C 186.601562 112.523438 185.714844 112.4375 184.835938 112.261719 C 183.957031 112.085938 183.105469 111.828125 182.277344 111.484375 C 181.453125 111.144531 180.667969 110.722656 179.921875 110.226562 C 179.179688 109.730469 178.488281 109.164062 177.855469 108.53125 C 177.222656 107.898438 176.660156 107.210938 176.160156 106.464844 C 175.664062 105.722656 175.246094 104.9375 174.902344 104.109375 C 174.558594 103.28125 174.300781 102.429688 174.125 101.550781 C 173.953125 100.675781 173.863281 99.789062 173.863281 98.890625 C 173.863281 97.996094 173.953125 97.109375 174.125 96.234375 C 174.300781 95.355469 174.558594 94.503906 174.902344 93.675781 C 175.246094 92.847656 175.664062 92.0625 176.160156 91.320312 C 176.660156 90.574219 177.222656 89.886719 177.855469 89.253906 C 178.488281 88.621094 179.179688 88.054688 179.921875 87.558594 C 180.667969 87.0625 181.453125 86.640625 182.277344 86.296875 C 183.105469 85.957031 183.957031 85.699219 184.835938 85.523438 C 185.714844 85.347656 186.601562 85.261719 187.496094 85.261719 C 188.390625 85.261719 189.277344 85.347656 190.15625 85.523438 C 191.03125 85.699219 191.886719 85.957031 192.710938 86.296875 C 193.539062 86.640625 194.324219 87.0625 195.070312 87.558594 C 195.8125 88.054688 196.5 88.621094 197.132812 89.253906 C 197.765625 89.886719 198.332031 90.574219 198.828125 91.320312 C 199.328125 92.0625 199.746094 92.847656 200.089844 93.675781 C 200.433594 94.503906 200.691406 95.355469 200.863281 96.234375 C 201.039062 97.109375 201.125 97.996094 201.125 98.890625 Z M 201.125 98.890625 " fill-opacity="1" fill-rule="nonzero"/></g><path fill="#04473f" d="M 207.941406 126.15625 C 207.941406 118.628906 201.839844 112.523438 194.3125 112.523438 L 187.496094 112.523438 L 194.3125 132.96875 L 187.496094 143.195312 L 180.679688 132.96875 L 187.496094 112.523438 L 180.679688 112.523438 C 173.152344 112.523438 167.046875 118.628906 167.046875 126.15625 L 167.046875 156.824219 L 207.941406 156.824219 Z M 207.941406 126.15625 " fill-opacity="1" fill-rule="nonzero"/><g clip-path="url(#b3d07322d7)"><path fill="#04473f" d="M 282.914062 98.890625 C 282.914062 99.789062 282.828125 100.675781 282.652344 101.550781 C 282.476562 102.429688 282.21875 103.28125 281.875 104.109375 C 281.535156 104.9375 281.113281 105.722656 280.617188 106.464844 C 280.121094 107.210938 279.554688 107.898438 278.921875 108.53125 C 278.289062 109.164062 277.601562 109.730469 276.855469 110.226562 C 276.113281 110.722656 275.328125 111.144531 274.5 111.484375 C 273.671875 111.828125 272.820312 112.085938 271.941406 112.261719 C 271.066406 112.4375 270.179688 112.523438 269.28125 112.523438 C 268.386719 112.523438 267.5 112.4375 266.625 112.261719 C 265.746094 112.085938 264.894531 111.828125 264.066406 111.484375 C 263.238281 111.144531 262.453125 110.722656 261.710938 110.226562 C 260.964844 109.730469 260.277344 109.164062 259.644531 108.53125 C 259.011719 107.898438 258.445312 107.210938 257.949219 106.464844 C 257.453125 105.722656 257.03125 104.9375 256.6875 104.109375 C 256.347656 103.28125 256.089844 102.429688 255.914062 101.550781 C 255.738281 100.675781 255.652344 99.789062 255.652344 98.890625 C 255.652344 97.996094 255.738281 97.109375 255.914062 96.234375 C 256.089844 95.355469 256.347656 94.503906 256.6875 93.675781 C 257.03125 92.847656 257.453125 92.0625 257.949219 91.320312 C 258.445312 90.574219 259.011719 89.886719 259.644531 89.253906 C 260.277344 88.621094 260.964844 88.054688 261.710938 87.558594 C 262.453125 87.0625 263.238281 86.640625 264.066406 86.296875 C 264.894531 85.957031 265.746094 85.699219 266.625 85.523438 C 267.5 85.347656 268.386719 85.261719 269.28125 85.261719 C 270.179688 85.261719 271.066406 85.347656 271.941406 85.523438 C 272.820312 85.699219 273.671875 85.957031 274.5 86.296875 C 275.328125 86.640625 276.113281 87.0625 276.855469 87.558594 C 277.601562 88.054688 278.289062 88.621094 278.921875 89.253906 C 279.554688 89.886719 280.121094 90.574219 280.617188 91.320312 C 281.113281 92.0625 281.535156 92.847656 281.875 93.675781 C 282.21875 94.503906 282.476562 95.355469 282.652344 96.234375 C 282.828125 97.109375 282.914062 97.996094 282.914062 98.890625 Z M 282.914062 98.890625 " fill-opacity="1" fill-rule="nonzero"/></g><path fill="#04473f" d="M 289.730469 126.15625 C 289.730469 118.628906 283.625 112.523438 276.097656 112.523438 L 269.28125 112.523438 L 276.097656 132.96875 L 269.28125 143.195312 L 262.46875 132.96875 L 269.28125 112.523438 L 262.46875 112.523438 C 254.941406 112.523438 248.835938 118.628906 248.835938 126.15625 L 248.835938 156.824219 L 289.730469 156.824219 Z M 289.730469 126.15625 " fill-opacity="1" fill-rule="nonzero"/></svg>