<svg xmlns="http://www.w3.org/2000/svg" xmlns:xlink="http://www.w3.org/1999/xlink" width="500" zoomAndPan="magnify" viewBox="0 0 375 374.999991" height="500" preserveAspectRatio="xMidYMid meet" version="1.0"><defs><clipPath id="8e3b84394f"><path d="M 90.332031 129 L 244 129 L 244 326.773438 L 90.332031 326.773438 Z M 90.332031 129 " clip-rule="nonzero"/></clipPath><clipPath id="e33384048c"><path d="M 144 64.273438 L 298 64.273438 L 298 261 L 144 261 Z M 144 64.273438 " clip-rule="nonzero"/></clipPath></defs><rect x="-37.5" width="450" fill="#ffffff" y="-37.499999" height="449.999989" fill-opacity="1"/><rect x="-37.5" width="450" fill="#ffffff" y="-37.499999" height="449.999989" fill-opacity="1"/><g clip-path="url(#8e3b84394f)"><path fill="#04473f" d="M 237.746094 326.410156 L 95.792969 326.410156 C 92.777344 326.410156 90.332031 323.964844 90.332031 320.949219 L 90.332031 135.320312 C 90.332031 132.304688 92.777344 129.859375 95.792969 129.859375 L 237.746094 129.859375 C 240.761719 129.859375 243.203125 132.304688 243.203125 135.320312 L 243.203125 320.949219 C 243.203125 323.964844 240.761719 326.410156 237.746094 326.410156 Z M 101.253906 315.488281 L 232.285156 315.488281 L 232.285156 140.78125 L 101.253906 140.78125 Z M 101.253906 315.488281 " fill-opacity="1" fill-rule="nonzero"/></g><g clip-path="url(#e33384048c)"><path fill="#04473f" d="M 292.339844 260.894531 L 237.746094 260.894531 C 234.730469 260.894531 232.285156 258.449219 232.285156 255.433594 C 232.285156 252.417969 234.730469 249.972656 237.746094 249.972656 L 286.882812 249.972656 L 286.882812 75.261719 L 155.847656 75.261719 L 155.847656 135.320312 C 155.847656 138.335938 153.40625 140.78125 150.390625 140.78125 C 147.375 140.78125 144.929688 138.335938 144.929688 135.320312 L 144.929688 69.804688 C 144.929688 66.789062 147.375 64.34375 150.390625 64.34375 L 292.339844 64.34375 C 295.355469 64.34375 297.800781 66.789062 297.800781 69.804688 L 297.800781 255.433594 C 297.800781 258.449219 295.355469 260.894531 292.339844 260.894531 Z M 292.339844 260.894531 " fill-opacity="1" fill-rule="nonzero"/></g><path fill="#04473f" d="M 117.632812 140.78125 C 114.617188 140.78125 112.171875 138.335938 112.171875 135.320312 L 112.171875 97.101562 C 112.171875 94.085938 114.617188 91.640625 117.632812 91.640625 L 150.390625 91.640625 C 153.40625 91.640625 155.847656 94.085938 155.847656 97.101562 C 155.847656 100.117188 153.40625 102.5625 150.390625 102.5625 L 123.089844 102.5625 L 123.089844 135.320312 C 123.089844 138.335938 120.648438 140.78125 117.632812 140.78125 Z M 117.632812 140.78125 " fill-opacity="1" fill-rule="nonzero"/><path fill="#04473f" d="M 270.503906 299.109375 L 237.746094 299.109375 C 234.730469 299.109375 232.285156 296.664062 232.285156 293.652344 C 232.285156 290.636719 234.730469 288.191406 237.746094 288.191406 L 265.042969 288.191406 L 265.042969 255.433594 C 265.042969 252.417969 267.488281 249.972656 270.503906 249.972656 C 273.519531 249.972656 275.960938 252.417969 275.960938 255.433594 L 275.960938 293.652344 C 275.960938 296.664062 273.519531 299.109375 270.503906 299.109375 Z M 270.503906 299.109375 " fill-opacity="1" fill-rule="nonzero"/><path fill="#04473f" d="M 270.503906 233.59375 L 237.746094 233.59375 C 234.730469 233.59375 232.285156 231.148438 232.285156 228.132812 C 232.285156 225.121094 234.730469 222.675781 237.746094 222.675781 L 270.503906 222.675781 C 273.519531 222.675781 275.960938 225.121094 275.960938 228.132812 C 275.960938 231.148438 273.519531 233.59375 270.503906 233.59375 Z M 270.503906 233.59375 " fill-opacity="1" fill-rule="nonzero"/><path fill="#04473f" d="M 270.503906 206.296875 L 237.746094 206.296875 C 234.730469 206.296875 232.285156 203.851562 232.285156 200.835938 C 232.285156 197.820312 234.730469 195.375 237.746094 195.375 L 270.503906 195.375 C 273.519531 195.375 275.960938 197.820312 275.960938 200.835938 C 275.960938 203.851562 273.519531 206.296875 270.503906 206.296875 Z M 270.503906 206.296875 " fill-opacity="1" fill-rule="nonzero"/><path fill="#04473f" d="M 270.503906 178.996094 L 237.746094 178.996094 C 234.730469 178.996094 232.285156 176.554688 232.285156 173.539062 C 232.285156 170.523438 234.730469 168.078125 237.746094 168.078125 L 270.503906 168.078125 C 273.519531 168.078125 275.960938 170.523438 275.960938 173.539062 C 275.960938 176.554688 273.519531 178.996094 270.503906 178.996094 Z M 270.503906 178.996094 " fill-opacity="1" fill-rule="nonzero"/><path fill="#04473f" d="M 270.503906 151.699219 L 237.746094 151.699219 C 234.730469 151.699219 232.285156 149.253906 232.285156 146.238281 C 232.285156 143.222656 234.730469 140.78125 237.746094 140.78125 L 270.503906 140.78125 C 273.519531 140.78125 275.960938 143.222656 275.960938 146.238281 C 275.960938 149.253906 273.519531 151.699219 270.503906 151.699219 Z M 270.503906 151.699219 " fill-opacity="1" fill-rule="nonzero"/><path fill="#04473f" d="M 128.550781 162.617188 L 123.089844 162.617188 C 120.074219 162.617188 117.632812 160.175781 117.632812 157.160156 C 117.632812 154.144531 120.074219 151.699219 123.089844 151.699219 L 128.550781 151.699219 C 131.566406 151.699219 134.011719 154.144531 134.011719 157.160156 C 134.011719 160.175781 131.566406 162.617188 128.550781 162.617188 Z M 128.550781 162.617188 " fill-opacity="1" fill-rule="nonzero"/><path fill="#04473f" d="M 210.445312 162.617188 L 150.390625 162.617188 C 147.375 162.617188 144.929688 160.175781 144.929688 157.160156 C 144.929688 154.144531 147.375 151.699219 150.390625 151.699219 L 210.445312 151.699219 C 213.460938 151.699219 215.90625 154.144531 215.90625 157.160156 C 215.90625 160.175781 213.460938 162.617188 210.445312 162.617188 Z M 210.445312 162.617188 " fill-opacity="1" fill-rule="nonzero"/><path fill="#04473f" d="M 128.550781 184.457031 L 123.089844 184.457031 C 120.074219 184.457031 117.632812 182.011719 117.632812 178.996094 C 117.632812 175.980469 120.074219 173.539062 123.089844 173.539062 L 128.550781 173.539062 C 131.566406 173.539062 134.011719 175.980469 134.011719 178.996094 C 134.011719 182.011719 131.566406 184.457031 128.550781 184.457031 Z M 128.550781 184.457031 " fill-opacity="1" fill-rule="nonzero"/><path fill="#04473f" d="M 210.445312 184.457031 L 150.390625 184.457031 C 147.375 184.457031 144.929688 182.011719 144.929688 178.996094 C 144.929688 175.980469 147.375 173.539062 150.390625 173.539062 L 210.445312 173.539062 C 213.460938 173.539062 215.90625 175.980469 215.90625 178.996094 C 215.90625 182.011719 213.460938 184.457031 210.445312 184.457031 Z M 210.445312 184.457031 " fill-opacity="1" fill-rule="nonzero"/><path fill="#04473f" d="M 128.550781 206.296875 L 123.089844 206.296875 C 120.074219 206.296875 117.632812 203.851562 117.632812 200.835938 C 117.632812 197.820312 120.074219 195.375 123.089844 195.375 L 128.550781 195.375 C 131.566406 195.375 134.011719 197.820312 134.011719 200.835938 C 134.011719 203.851562 131.566406 206.296875 128.550781 206.296875 Z M 128.550781 206.296875 " fill-opacity="1" fill-rule="nonzero"/><path fill="#04473f" d="M 210.445312 206.296875 L 150.390625 206.296875 C 147.375 206.296875 144.929688 203.851562 144.929688 200.835938 C 144.929688 197.820312 147.375 195.375 150.390625 195.375 L 210.445312 195.375 C 213.460938 195.375 215.90625 197.820312 215.90625 200.835938 C 215.90625 203.851562 213.460938 206.296875 210.445312 206.296875 Z M 210.445312 206.296875 " fill-opacity="1" fill-rule="nonzero"/><path fill="#04473f" d="M 128.550781 228.132812 L 123.089844 228.132812 C 120.074219 228.132812 117.632812 225.691406 117.632812 222.675781 C 117.632812 219.660156 120.074219 217.214844 123.089844 217.214844 L 128.550781 217.214844 C 131.566406 217.214844 134.011719 219.660156 134.011719 222.675781 C 134.011719 225.691406 131.566406 228.132812 128.550781 228.132812 Z M 128.550781 228.132812 " fill-opacity="1" fill-rule="nonzero"/><path fill="#04473f" d="M 210.445312 228.132812 L 150.390625 228.132812 C 147.375 228.132812 144.929688 225.691406 144.929688 222.675781 C 144.929688 219.660156 147.375 217.214844 150.390625 217.214844 L 210.445312 217.214844 C 213.460938 217.214844 215.90625 219.660156 215.90625 222.675781 C 215.90625 225.691406 213.460938 228.132812 210.445312 228.132812 Z M 210.445312 228.132812 " fill-opacity="1" fill-rule="nonzero"/><path fill="#04473f" d="M 215.90625 304.570312 L 117.632812 304.570312 C 114.617188 304.570312 112.171875 302.125 112.171875 299.109375 L 112.171875 244.515625 C 112.171875 241.5 114.617188 239.054688 117.632812 239.054688 L 215.90625 239.054688 C 218.921875 239.054688 221.367188 241.5 221.367188 244.515625 L 221.367188 299.109375 C 221.367188 302.125 218.921875 304.570312 215.90625 304.570312 Z M 123.089844 293.652344 L 210.445312 293.652344 L 210.445312 249.972656 L 123.089844 249.972656 Z M 123.089844 293.652344 " fill-opacity="1" fill-rule="nonzero"/><path fill="#04473f" d="M 215.90625 271.8125 L 117.632812 271.8125 C 114.617188 271.8125 112.171875 269.367188 112.171875 266.351562 C 112.171875 263.335938 114.617188 260.894531 117.632812 260.894531 L 215.90625 260.894531 C 218.921875 260.894531 221.367188 263.335938 221.367188 266.351562 C 221.367188 269.367188 218.921875 271.8125 215.90625 271.8125 Z M 215.90625 271.8125 " fill-opacity="1" fill-rule="nonzero"/></svg>