<svg xmlns="http://www.w3.org/2000/svg" xmlns:xlink="http://www.w3.org/1999/xlink" width="500" zoomAndPan="magnify" viewBox="0 0 375 374.999991" height="500" preserveAspectRatio="xMidYMid meet" version="1.0"><defs><clipPath id="7e0153a433"><path d="M 65 84.1875 L 310 84.1875 L 310 306.9375 L 65 306.9375 Z M 65 84.1875 " clip-rule="nonzero"/></clipPath></defs><rect x="-37.5" width="450" fill="#ffffff" y="-37.499999" height="449.999989" fill-opacity="1"/><rect x="-37.5" width="450" fill="#ffffff" y="-37.499999" height="449.999989" fill-opacity="1"/><g clip-path="url(#7e0153a433)"><path fill="#04473f" d="M 289.523438 96.023438 C 287.390625 96.265625 285.46875 94.734375 285.222656 92.605469 C 284.980469 90.472656 286.511719 88.550781 288.640625 88.304688 L 305.660156 86.296875 C 307.789062 86.054688 309.714844 87.585938 309.957031 89.714844 C 309.988281 89.96875 309.992188 90.21875 309.972656 90.460938 L 308.582031 107.539062 C 308.414062 109.679688 306.542969 111.277344 304.402344 111.109375 C 302.265625 110.941406 300.667969 109.070312 300.832031 106.933594 L 301.34375 100.699219 L 255.089844 148.792969 C 253.957031 150.039062 252.09375 150.445312 250.503906 149.660156 L 203.578125 126.515625 L 172.089844 153.9375 C 173.4375 149.894531 174.355469 145.65625 174.792969 141.277344 L 200.417969 118.957031 C 201.707031 117.835938 203.523438 117.714844 204.921875 118.527344 L 251.390625 141.449219 L 295.789062 95.285156 Z M 116.160156 186.488281 C 144.414062 186.488281 167.3125 163.585938 167.3125 135.335938 C 167.3125 107.082031 144.414062 84.179688 116.160156 84.179688 C 87.910156 84.179688 65.007812 107.082031 65.007812 135.335938 C 65.007812 163.585938 87.910156 186.488281 116.160156 186.488281 Z M 120.050781 164.097656 L 120.050781 167.703125 C 120.050781 169.851562 118.308594 171.59375 116.160156 171.59375 C 114.015625 171.59375 112.273438 169.851562 112.273438 167.703125 L 112.273438 164.027344 C 109.128906 163.515625 106.125 162.40625 103.550781 160.691406 C 99.929688 158.277344 97.15625 154.722656 95.984375 150.019531 C 95.472656 147.941406 96.746094 145.839844 98.824219 145.328125 C 100.90625 144.816406 103.007812 146.085938 103.519531 148.167969 C 104.179688 150.820312 105.761719 152.839844 107.832031 154.21875 C 110.328125 155.878906 113.511719 156.671875 116.738281 156.59375 C 117.292969 156.582031 117.9375 156.53125 118.667969 156.445312 C 121.386719 156.113281 124.113281 155.242188 126.066406 153.757812 C 127.675781 152.539062 128.75 150.824219 128.695312 148.574219 C 128.691406 148.390625 128.667969 148.121094 128.625 147.765625 C 128.285156 144.972656 126.707031 143.113281 124.605469 141.847656 C 122.050781 140.304688 118.710938 139.492188 115.585938 138.976562 C 111.792969 138.355469 107.683594 137.226562 104.351562 135.050781 C 100.566406 132.582031 97.847656 128.929688 97.585938 123.484375 C 97.320312 118.058594 99.660156 113.703125 103.347656 110.707031 C 105.761719 108.746094 108.757812 107.398438 111.949219 106.753906 L 112.273438 106.691406 L 112.273438 102.964844 C 112.273438 100.816406 114.015625 99.078125 116.160156 99.078125 C 118.308594 99.078125 120.050781 100.816406 120.050781 102.964844 L 120.050781 106.632812 C 120.574219 106.726562 121.09375 106.835938 121.609375 106.964844 C 127.136719 108.367188 132.164062 112 134.804688 118.292969 C 135.636719 120.273438 134.703125 122.550781 132.726562 123.378906 C 130.746094 124.210938 128.46875 123.28125 127.636719 121.300781 C 126.050781 117.519531 123.035156 115.339844 119.726562 114.5 C 117.65625 113.976562 115.488281 113.945312 113.46875 114.351562 C 111.496094 114.75 109.671875 115.558594 108.238281 116.722656 C 106.378906 118.234375 105.199219 120.414062 105.332031 123.121094 C 105.453125 125.644531 106.757812 127.363281 108.574219 128.550781 C 110.84375 130.03125 113.917969 130.84375 116.832031 131.324219 C 120.765625 131.96875 125.054688 133.042969 128.617188 135.195312 C 132.632812 137.621094 135.664062 141.261719 136.339844 146.855469 C 136.394531 147.300781 136.429688 147.816406 136.441406 148.394531 C 136.5625 153.484375 134.238281 157.277344 130.746094 159.925781 C 127.722656 162.21875 123.835938 163.570312 120.050781 164.097656 Z M 279.234375 150.929688 C 276.554688 150.929688 274.371094 153.113281 274.371094 155.792969 L 274.371094 302.082031 C 274.371094 304.761719 276.554688 306.945312 279.234375 306.945312 L 301.238281 306.945312 C 303.914062 306.945312 306.097656 304.761719 306.097656 302.082031 L 306.097656 155.792969 C 306.097656 153.113281 303.914062 150.929688 301.238281 150.929688 Z M 220.320312 214.1875 C 227.65625 214.1875 234.992188 214.1875 242.328125 214.1875 C 245.003906 214.1875 247.1875 216.371094 247.1875 219.046875 C 247.1875 248.4375 247.1875 272.695312 247.1875 302.082031 C 247.1875 304.761719 245.003906 306.945312 242.328125 306.945312 C 234.992188 306.945312 227.65625 306.945312 220.320312 306.945312 C 217.644531 306.945312 215.460938 304.761719 215.460938 302.082031 C 215.460938 272.695312 215.460938 248.4375 215.460938 219.046875 C 215.460938 216.371094 217.644531 214.1875 220.320312 214.1875 Z M 161.410156 192.550781 L 183.414062 192.550781 C 186.09375 192.550781 188.277344 194.734375 188.277344 197.410156 L 188.277344 302.082031 C 188.277344 304.761719 186.09375 306.945312 183.414062 306.945312 L 161.410156 306.945312 C 158.734375 306.945312 156.550781 304.761719 156.550781 302.082031 L 156.550781 197.410156 C 156.550781 194.734375 158.734375 192.550781 161.410156 192.550781 Z M 102.5 246.078125 L 124.503906 246.078125 C 127.179688 246.078125 129.363281 248.261719 129.363281 250.9375 L 129.363281 302.082031 C 129.363281 304.761719 127.179688 306.945312 124.503906 306.945312 L 102.5 306.945312 C 99.820312 306.945312 97.636719 304.761719 97.636719 302.082031 L 97.636719 250.9375 C 97.636719 248.261719 99.820312 246.078125 102.5 246.078125 Z M 102.5 246.078125 " fill-opacity="1" fill-rule="evenodd"/></g></svg>