<svg xmlns="http://www.w3.org/2000/svg" xmlns:xlink="http://www.w3.org/1999/xlink" width="500" zoomAndPan="magnify" viewBox="0 0 375 374.999991" height="500" preserveAspectRatio="xMidYMid meet" version="1.0"><defs><clipPath id="6ffa796c20"><path d="M 77 77.203125 L 298.839844 77.203125 L 298.839844 297.703125 L 77 297.703125 Z M 77 77.203125 " clip-rule="nonzero"/></clipPath></defs><rect x="-37.5" width="450" fill="#ffffff" y="-37.499999" height="449.999989" fill-opacity="1"/><rect x="-37.5" width="450" fill="#ffffff" y="-37.499999" height="449.999989" fill-opacity="1"/><g clip-path="url(#6ffa796c20)"><path fill="#04473f" d="M 297.0625 94.378906 L 281.714844 79.035156 C 280.503906 77.824219 278.960938 77.183594 277.25 77.183594 L 193.449219 77.183594 C 189.96875 77.183594 187.136719 80.015625 187.136719 83.492188 L 187.136719 144.703125 C 183.351562 143.660156 179.371094 143.101562 175.257812 143.101562 C 150.542969 143.101562 130.4375 163.207031 130.4375 187.921875 C 130.4375 212.636719 150.542969 232.746094 175.257812 232.746094 C 187.445312 232.746094 198.511719 227.851562 206.601562 219.929688 L 292.597656 219.929688 C 296.078125 219.929688 298.910156 217.101562 298.910156 213.621094 L 298.910156 98.84375 C 298.910156 97.132812 298.269531 95.589844 297.0625 94.378906 Z M 281.957031 89.394531 L 286.699219 94.132812 L 281.957031 94.132812 Z M 175.257812 225.59375 C 154.484375 225.59375 137.585938 208.695312 137.585938 187.921875 C 137.585938 167.152344 154.488281 150.253906 175.257812 150.253906 C 196.03125 150.253906 212.929688 167.152344 212.929688 187.921875 C 212.929688 208.695312 196.03125 225.59375 175.257812 225.59375 Z M 212.539062 212.78125 C 216.488281 206.875 219.074219 199.988281 219.839844 192.566406 L 271.226562 192.566406 C 273.199219 192.566406 274.800781 190.964844 274.800781 188.988281 C 274.800781 187.015625 273.199219 185.414062 271.226562 185.414062 L 220.007812 185.414062 C 219.753906 180.78125 218.789062 176.335938 217.226562 172.183594 L 271.226562 172.183594 C 273.199219 172.183594 274.800781 170.582031 274.800781 168.605469 C 274.800781 166.632812 273.199219 165.03125 271.226562 165.03125 L 214.820312 165.03125 C 214.488281 165.03125 214.164062 165.078125 213.859375 165.164062 C 209.285156 157.4375 202.460938 151.195312 194.289062 147.347656 L 194.289062 84.335938 L 274.808594 84.335938 L 274.808594 96.34375 C 274.808594 99.070312 277.023438 101.285156 279.75 101.285156 L 291.757812 101.285156 L 291.757812 212.78125 Z M 210.867188 233.070312 L 181.988281 249.890625 C 181.328125 250.277344 180.660156 250.605469 179.980469 250.882812 C 180.117188 250.511719 180.238281 250.128906 180.34375 249.734375 C 181.960938 243.703125 178.390625 237.410156 172.222656 235.410156 C 172.070312 235.363281 171.914062 235.320312 171.753906 235.292969 C 163.539062 233.8125 155.390625 230.867188 148.84375 228.5 C 146.550781 227.671875 144.382812 226.886719 142.53125 226.285156 C 134.757812 223.765625 127.824219 226.832031 122.070312 230.164062 L 101.46875 242.089844 L 99.949219 239.402344 C 97.824219 235.644531 93.039062 234.316406 89.28125 236.445312 L 81.179688 241.03125 C 77.421875 243.15625 76.097656 247.941406 78.222656 251.699219 L 102.042969 293.789062 C 103.070312 295.601562 104.746094 296.910156 106.765625 297.472656 C 107.464844 297.664062 108.171875 297.761719 108.875 297.761719 C 110.207031 297.761719 111.523438 297.417969 112.710938 296.746094 L 120.8125 292.160156 C 124.570312 290.035156 125.894531 285.25 123.769531 281.492188 L 121.808594 278.027344 L 125.472656 275.910156 L 162.054688 285.714844 C 164.183594 286.285156 166.304688 286.566406 168.390625 286.566406 C 172.609375 286.566406 176.6875 285.40625 180.414062 283.109375 L 232.824219 250.839844 C 238.046875 247.625 239.722656 239.550781 236.339844 233.90625 C 234.707031 231.179688 228.046875 223.066406 210.867188 233.070312 Z M 117.289062 285.9375 L 109.1875 290.519531 C 108.992188 290.632812 108.800781 290.613281 108.675781 290.578125 C 108.550781 290.542969 108.378906 290.460938 108.265625 290.265625 L 84.445312 248.175781 C 84.265625 247.855469 84.382812 247.433594 84.699219 247.253906 L 92.804688 242.667969 C 92.90625 242.613281 93.019531 242.585938 93.128906 242.585938 C 93.367188 242.585938 93.601562 242.707031 93.726562 242.925781 L 117.546875 285.015625 C 117.726562 285.332031 117.609375 285.753906 117.289062 285.9375 Z M 229.074219 244.75 L 176.667969 277.019531 C 172.757812 279.425781 168.464844 280.027344 163.90625 278.804688 L 125.890625 268.621094 C 124.976562 268.375 124 268.503906 123.179688 268.976562 L 118.285156 271.800781 L 104.992188 248.3125 L 125.652344 236.351562 C 131.960938 232.699219 136.210938 231.753906 140.324219 233.085938 C 142.0625 233.652344 144.078125 234.382812 146.414062 235.226562 C 153.144531 237.65625 161.5 240.679688 170.214844 242.28125 C 172.679688 243.179688 174.058594 245.550781 173.433594 247.882812 C 172.769531 250.359375 170.902344 251.441406 167.886719 251.101562 C 163.691406 250.238281 159.6875 249.09375 155.449219 247.882812 C 153.417969 247.304688 151.316406 246.703125 149.152344 246.125 C 147.242188 245.613281 145.28125 246.746094 144.773438 248.652344 C 144.261719 250.558594 145.394531 252.519531 147.300781 253.03125 C 149.40625 253.597656 151.480469 254.1875 153.484375 254.761719 C 157.914062 256.023438 166.730469 258.164062 166.757812 258.167969 L 170.351562 258.753906 C 175.957031 259.652344 180.945312 258.773438 185.585938 256.070312 L 214.464844 239.25 C 222.121094 234.792969 228.152344 234.152344 230.203125 237.578125 C 231.582031 239.878906 231 243.5625 229.074219 244.75 Z M 94.65625 249.914062 C 94.886719 251.496094 93.792969 252.964844 92.210938 253.195312 C 90.628906 253.429688 89.160156 252.332031 88.929688 250.753906 C 88.699219 249.171875 89.792969 247.703125 91.375 247.472656 C 92.957031 247.242188 94.425781 248.335938 94.65625 249.914062 Z M 247.203125 119.132812 C 247.417969 118.886719 247.542969 118.605469 247.476562 118.046875 C 247.402344 117.421875 247.222656 115.960938 242.46875 115.183594 C 233.886719 113.773438 232.378906 108.835938 232.242188 106.015625 C 232.023438 101.546875 234.886719 97.773438 239.449219 96.382812 L 239.449219 95.871094 C 239.449219 93.894531 241.046875 92.292969 243.023438 92.292969 C 244.996094 92.292969 246.597656 93.894531 246.597656 95.871094 L 246.597656 96.332031 C 249.746094 97.28125 252.363281 99.539062 253.703125 102.738281 C 254.46875 104.558594 253.613281 106.65625 251.792969 107.421875 C 249.972656 108.183594 247.875 107.328125 247.109375 105.507812 C 246.03125 102.941406 243.335938 102.800781 241.914062 103.125 C 241.296875 103.261719 239.296875 103.859375 239.382812 105.667969 C 239.40625 106.109375 239.46875 107.441406 243.625 108.125 C 250.292969 109.21875 253.980469 112.269531 254.574219 117.183594 C 254.878906 119.683594 254.199219 121.972656 252.613281 123.808594 C 251.195312 125.449219 249.058594 126.644531 246.597656 127.234375 L 246.597656 127.617188 C 246.597656 129.589844 244.996094 131.191406 243.023438 131.191406 C 241.046875 131.191406 239.445312 129.589844 239.445312 127.617188 L 239.445312 127.171875 C 235.480469 126.089844 232.472656 123.234375 231.507812 119.355469 C 231.027344 117.441406 232.195312 115.5 234.109375 115.023438 C 236.027344 114.542969 237.96875 115.710938 238.445312 117.625 C 238.992188 119.816406 241.371094 120.539062 243.265625 120.492188 C 244.925781 120.453125 246.542969 119.894531 247.203125 119.132812 Z M 274.800781 148.222656 C 274.800781 150.199219 273.199219 151.796875 271.226562 151.796875 L 214.820312 151.796875 C 212.847656 151.796875 211.246094 150.199219 211.246094 148.222656 C 211.246094 146.25 212.847656 144.648438 214.820312 144.648438 L 271.226562 144.648438 C 273.199219 144.648438 274.800781 146.25 274.800781 148.222656 Z M 188.855469 194.867188 C 189.207031 197.742188 188.429688 200.371094 186.609375 202.476562 C 184.820312 204.542969 182.03125 206.011719 178.835938 206.640625 L 178.835938 207.855469 C 178.835938 209.828125 177.234375 211.429688 175.257812 211.429688 C 173.285156 211.429688 171.683594 209.828125 171.683594 207.855469 L 171.683594 206.578125 C 166.6875 205.453125 162.867188 202.011719 161.683594 197.261719 C 161.207031 195.34375 162.371094 193.402344 164.289062 192.925781 C 166.207031 192.449219 168.148438 193.613281 168.625 195.53125 C 169.441406 198.800781 172.886719 199.875 175.585938 199.824219 C 177.941406 199.769531 180.199219 198.953125 181.199219 197.796875 C 181.691406 197.230469 181.863281 196.589844 181.757812 195.726562 C 181.636719 194.738281 181.355469 192.429688 174.707031 191.339844 C 165.078125 189.757812 162.828125 184.671875 162.632812 180.6875 C 162.371094 175.304688 165.992188 170.785156 171.683594 169.328125 L 171.683594 167.992188 C 171.683594 166.015625 173.285156 164.417969 175.257812 164.417969 C 177.234375 164.417969 178.835938 166.015625 178.835938 167.992188 L 178.835938 169.296875 C 182.515625 170.195312 185.988281 172.59375 187.828125 176.972656 C 188.59375 178.792969 187.734375 180.886719 185.914062 181.652344 C 184.097656 182.417969 182 181.5625 181.234375 179.738281 C 179.84375 176.429688 176.429688 175.578125 173.660156 176.207031 C 172.988281 176.359375 169.628906 177.28125 169.777344 180.34375 C 169.816406 181.152344 169.921875 183.304688 175.867188 184.28125 C 183.792969 185.582031 188.164062 189.144531 188.855469 194.867188 Z M 175.257812 152.851562 C 155.917969 152.851562 140.1875 168.585938 140.1875 187.921875 C 140.1875 207.261719 155.917969 222.996094 175.257812 222.996094 C 194.597656 222.996094 210.332031 207.261719 210.332031 187.921875 C 210.332031 168.585938 194.597656 152.851562 175.257812 152.851562 Z M 175.257812 215.84375 C 159.863281 215.84375 147.339844 203.320312 147.339844 187.921875 C 147.339844 172.527344 159.863281 160.003906 175.257812 160.003906 C 190.652344 160.003906 203.179688 172.527344 203.179688 187.921875 C 203.179688 203.320312 190.652344 215.84375 175.257812 215.84375 Z M 175.257812 215.84375 " fill-opacity="1" fill-rule="nonzero"/></g></svg>