<svg xmlns="http://www.w3.org/2000/svg" xmlns:xlink="http://www.w3.org/1999/xlink" width="500" zoomAndPan="magnify" viewBox="0 0 375 374.999991" height="500" preserveAspectRatio="xMidYMid meet" version="1.0"><defs><clipPath id="a435424185"><path d="M 80 51.886719 L 295 51.886719 L 295 323.386719 L 80 323.386719 Z M 80 51.886719 " clip-rule="nonzero"/></clipPath><clipPath id="c1980fc86e"><path d="M 288 52 L 323.386719 52 L 323.386719 87 L 288 87 Z M 288 52 " clip-rule="nonzero"/></clipPath><clipPath id="cc9df54556"><path d="M 51.886719 294 L 81 294 L 81 323.386719 L 51.886719 323.386719 Z M 51.886719 294 " clip-rule="nonzero"/></clipPath><clipPath id="a03dfe9b50"><path d="M 311 115 L 323.386719 115 L 323.386719 127 L 311 127 Z M 311 115 " clip-rule="nonzero"/></clipPath></defs><rect x="-37.5" width="450" fill="#ffffff" y="-37.499999" height="449.999989" fill-opacity="1"/><rect x="-37.5" width="450" fill="#ffffff" y="-37.499999" height="449.999989" fill-opacity="1"/><g clip-path="url(#a435424185)"><path fill="#04473f" d="M 288.441406 86.613281 L 271.136719 86.613281 L 271.136719 57.773438 C 271.136719 54.601562 268.539062 52.003906 265.367188 52.003906 C 111.589844 52.003906 120.761719 51.886719 119.492188 52.234375 C 118.625 52.523438 117.761719 52.984375 117.183594 53.617188 C 117.125 53.675781 82.460938 88.285156 82.054688 88.804688 C 81.25 89.84375 80.84375 91.113281 80.84375 92.324219 L 80.84375 294.207031 C 80.84375 297.382812 83.441406 299.976562 86.613281 299.976562 L 265.425781 299.976562 C 268.597656 299.976562 271.195312 297.382812 271.195312 294.207031 L 271.195312 98.148438 L 282.730469 98.148438 L 282.730469 311.570312 L 207.6875 311.570312 C 204.515625 311.570312 201.917969 314.167969 201.917969 317.339844 C 201.917969 320.511719 204.515625 323.105469 207.6875 323.105469 L 288.441406 323.105469 C 291.613281 323.105469 294.207031 320.511719 294.207031 317.339844 L 294.207031 92.382812 C 294.207031 89.207031 291.613281 86.613281 288.441406 86.613281 Z M 115.394531 71.730469 L 115.394531 86.613281 L 100.457031 86.613281 Z M 259.601562 288.5 L 92.324219 288.5 L 92.324219 98.148438 L 121.164062 98.148438 C 124.335938 98.148438 126.933594 95.554688 126.933594 92.382812 L 126.933594 63.539062 L 259.601562 63.539062 Z M 259.601562 288.5 " fill-opacity="1" fill-rule="nonzero"/></g><path fill="#04473f" d="M 236.527344 121.222656 C 239.699219 121.222656 242.296875 118.625 242.296875 115.453125 C 242.296875 112.28125 239.699219 109.6875 236.527344 109.6875 L 201.917969 109.6875 L 201.917969 103.917969 C 201.917969 100.746094 199.324219 98.148438 196.148438 98.148438 C 192.976562 98.148438 190.382812 100.746094 190.382812 103.917969 L 190.382812 109.6875 L 115.394531 109.6875 C 112.222656 109.6875 109.628906 112.28125 109.628906 115.453125 C 109.628906 118.625 112.222656 121.222656 115.394531 121.222656 L 190.382812 121.222656 L 190.382812 132.757812 L 115.394531 132.757812 C 112.222656 132.757812 109.628906 135.355469 109.628906 138.527344 C 109.628906 141.699219 112.222656 144.292969 115.394531 144.292969 L 190.382812 144.292969 L 190.382812 155.832031 L 115.394531 155.832031 C 112.222656 155.832031 109.628906 158.425781 109.628906 161.597656 C 109.628906 164.769531 112.222656 167.367188 115.394531 167.367188 L 190.382812 167.367188 L 190.382812 178.902344 L 115.394531 178.902344 C 112.222656 178.902344 109.628906 181.5 109.628906 184.671875 C 109.628906 187.84375 112.222656 190.441406 115.394531 190.441406 L 190.382812 190.441406 L 190.382812 201.976562 L 115.394531 201.976562 C 112.222656 201.976562 109.628906 204.570312 109.628906 207.746094 C 109.628906 210.917969 112.222656 213.511719 115.394531 213.511719 L 190.382812 213.511719 L 190.382812 225.046875 L 115.394531 225.046875 C 112.222656 225.046875 109.628906 227.644531 109.628906 230.816406 C 109.628906 233.988281 112.222656 236.585938 115.394531 236.585938 L 190.382812 236.585938 L 190.382812 248.121094 L 173.078125 248.121094 C 169.90625 248.121094 167.308594 250.71875 167.308594 253.890625 C 167.308594 257.0625 169.90625 259.65625 173.078125 259.65625 L 236.527344 259.65625 C 239.699219 259.65625 242.296875 257.0625 242.296875 253.890625 C 242.296875 250.71875 239.699219 248.121094 236.527344 248.121094 L 201.917969 248.121094 L 201.917969 236.585938 L 236.527344 236.585938 C 239.699219 236.585938 242.296875 233.988281 242.296875 230.816406 C 242.296875 227.644531 239.699219 225.046875 236.527344 225.046875 L 201.917969 225.046875 L 201.917969 213.511719 L 236.527344 213.511719 C 239.699219 213.511719 242.296875 210.917969 242.296875 207.746094 C 242.296875 204.570312 239.699219 201.976562 236.527344 201.976562 L 201.917969 201.976562 L 201.917969 190.441406 L 236.527344 190.441406 C 239.699219 190.441406 242.296875 187.84375 242.296875 184.671875 C 242.296875 181.5 239.699219 178.902344 236.527344 178.902344 L 201.917969 178.902344 L 201.917969 167.367188 L 236.527344 167.367188 C 239.699219 167.367188 242.296875 164.769531 242.296875 161.597656 C 242.296875 158.425781 239.699219 155.832031 236.527344 155.832031 L 201.917969 155.832031 L 201.917969 144.292969 L 236.527344 144.292969 C 239.699219 144.292969 242.296875 141.699219 242.296875 138.527344 C 242.296875 135.355469 239.699219 132.757812 236.527344 132.757812 L 201.917969 132.757812 L 201.917969 121.222656 Z M 236.527344 121.222656 " fill-opacity="1" fill-rule="nonzero"/><path fill="#04473f" d="M 236.527344 265.425781 L 173.078125 265.425781 C 169.90625 265.425781 167.308594 268.019531 167.308594 271.195312 C 167.308594 274.367188 169.90625 276.960938 173.078125 276.960938 L 236.527344 276.960938 C 239.699219 276.960938 242.296875 274.367188 242.296875 271.195312 C 242.296875 268.019531 239.699219 265.425781 236.527344 265.425781 Z M 236.527344 265.425781 " fill-opacity="1" fill-rule="nonzero"/><g clip-path="url(#c1980fc86e)"><path fill="#04473f" d="M 305.746094 86.613281 C 315.261719 86.613281 323.050781 78.824219 323.050781 69.308594 C 323.050781 59.789062 315.261719 52.003906 305.746094 52.003906 C 296.226562 52.003906 288.441406 59.789062 288.441406 69.308594 C 288.441406 78.824219 296.226562 86.613281 305.746094 86.613281 Z M 305.746094 63.539062 C 308.917969 63.539062 311.511719 66.136719 311.511719 69.308594 C 311.511719 72.480469 308.917969 75.078125 305.746094 75.078125 C 302.574219 75.078125 299.976562 72.480469 299.976562 69.308594 C 299.976562 66.136719 302.574219 63.539062 305.746094 63.539062 Z M 305.746094 63.539062 " fill-opacity="1" fill-rule="nonzero"/></g><g clip-path="url(#cc9df54556)"><path fill="#04473f" d="M 66.367188 294.265625 C 58.40625 294.265625 51.945312 300.726562 51.945312 308.6875 C 51.945312 316.648438 58.40625 323.105469 66.367188 323.105469 C 74.328125 323.105469 80.789062 316.648438 80.789062 308.6875 C 80.789062 300.726562 74.328125 294.265625 66.367188 294.265625 Z M 66.367188 311.570312 C 64.75 311.570312 63.484375 310.300781 63.484375 308.6875 C 63.484375 307.070312 64.75 305.804688 66.367188 305.804688 C 67.980469 305.804688 69.25 307.070312 69.25 308.6875 C 69.25 310.300781 67.980469 311.570312 66.367188 311.570312 Z M 66.367188 311.570312 " fill-opacity="1" fill-rule="nonzero"/></g><g clip-path="url(#a03dfe9b50)"><path fill="#04473f" d="M 323.050781 121.222656 C 323.050781 121.601562 323.011719 121.976562 322.9375 122.347656 C 322.863281 122.71875 322.753906 123.078125 322.609375 123.429688 C 322.464844 123.777344 322.289062 124.113281 322.078125 124.425781 C 321.867188 124.742188 321.628906 125.03125 321.359375 125.300781 C 321.09375 125.570312 320.800781 125.808594 320.484375 126.019531 C 320.171875 126.226562 319.839844 126.40625 319.488281 126.550781 C 319.140625 126.695312 318.777344 126.804688 318.40625 126.878906 C 318.035156 126.953125 317.660156 126.988281 317.28125 126.988281 C 316.902344 126.988281 316.527344 126.953125 316.15625 126.878906 C 315.785156 126.804688 315.425781 126.695312 315.074219 126.550781 C 314.722656 126.40625 314.390625 126.226562 314.078125 126.019531 C 313.761719 125.808594 313.46875 125.570312 313.203125 125.300781 C 312.933594 125.03125 312.695312 124.742188 312.484375 124.425781 C 312.273438 124.113281 312.097656 123.777344 311.953125 123.429688 C 311.808594 123.078125 311.699219 122.71875 311.625 122.347656 C 311.550781 121.976562 311.511719 121.601562 311.511719 121.222656 C 311.511719 120.84375 311.550781 120.46875 311.625 120.097656 C 311.699219 119.726562 311.808594 119.363281 311.953125 119.015625 C 312.097656 118.664062 312.273438 118.332031 312.484375 118.015625 C 312.695312 117.703125 312.933594 117.410156 313.203125 117.144531 C 313.46875 116.875 313.761719 116.636719 314.078125 116.425781 C 314.390625 116.214844 314.722656 116.039062 315.074219 115.894531 C 315.425781 115.746094 315.785156 115.636719 316.15625 115.566406 C 316.527344 115.492188 316.902344 115.453125 317.28125 115.453125 C 317.660156 115.453125 318.035156 115.492188 318.40625 115.566406 C 318.777344 115.636719 319.140625 115.746094 319.488281 115.894531 C 319.839844 116.039062 320.171875 116.214844 320.484375 116.425781 C 320.800781 116.636719 321.09375 116.875 321.359375 117.144531 C 321.628906 117.410156 321.867188 117.703125 322.078125 118.015625 C 322.289062 118.332031 322.464844 118.664062 322.609375 119.015625 C 322.753906 119.363281 322.863281 119.726562 322.9375 120.097656 C 323.011719 120.46875 323.050781 120.84375 323.050781 121.222656 Z M 323.050781 121.222656 " fill-opacity="1" fill-rule="nonzero"/></g><path fill="#04473f" d="M 311.511719 259.65625 C 311.511719 260.035156 311.476562 260.410156 311.402344 260.78125 C 311.328125 261.15625 311.21875 261.515625 311.074219 261.863281 C 310.929688 262.214844 310.75 262.546875 310.542969 262.863281 C 310.332031 263.175781 310.089844 263.46875 309.824219 263.734375 C 309.554688 264.003906 309.265625 264.242188 308.949219 264.453125 C 308.636719 264.664062 308.300781 264.839844 307.953125 264.988281 C 307.601562 265.132812 307.242188 265.242188 306.871094 265.316406 C 306.5 265.390625 306.125 265.425781 305.746094 265.425781 C 305.367188 265.425781 304.992188 265.390625 304.621094 265.316406 C 304.25 265.242188 303.886719 265.132812 303.539062 264.988281 C 303.1875 264.839844 302.855469 264.664062 302.539062 264.453125 C 302.226562 264.242188 301.933594 264.003906 301.667969 263.734375 C 301.398438 263.46875 301.160156 263.175781 300.949219 262.863281 C 300.738281 262.546875 300.5625 262.214844 300.417969 261.863281 C 300.269531 261.515625 300.160156 261.15625 300.085938 260.78125 C 300.015625 260.410156 299.976562 260.035156 299.976562 259.65625 C 299.976562 259.277344 300.015625 258.902344 300.085938 258.53125 C 300.160156 258.160156 300.269531 257.800781 300.417969 257.449219 C 300.5625 257.101562 300.738281 256.769531 300.949219 256.453125 C 301.160156 256.136719 301.398438 255.847656 301.667969 255.578125 C 301.933594 255.3125 302.226562 255.070312 302.539062 254.863281 C 302.855469 254.652344 303.1875 254.472656 303.539062 254.328125 C 303.886719 254.183594 304.25 254.074219 304.621094 254 C 304.992188 253.925781 305.367188 253.890625 305.746094 253.890625 C 306.125 253.890625 306.5 253.925781 306.871094 254 C 307.242188 254.074219 307.601562 254.183594 307.953125 254.328125 C 308.300781 254.472656 308.636719 254.652344 308.949219 254.863281 C 309.265625 255.070312 309.554688 255.3125 309.824219 255.578125 C 310.089844 255.847656 310.332031 256.136719 310.542969 256.453125 C 310.75 256.769531 310.929688 257.101562 311.074219 257.449219 C 311.21875 257.800781 311.328125 258.160156 311.402344 258.53125 C 311.476562 258.902344 311.511719 259.277344 311.511719 259.65625 Z M 311.511719 259.65625 " fill-opacity="1" fill-rule="nonzero"/><path fill="#04473f" d="M 75.019531 219.28125 C 75.019531 219.660156 74.980469 220.035156 74.90625 220.40625 C 74.835938 220.777344 74.726562 221.136719 74.578125 221.488281 C 74.433594 221.835938 74.257812 222.171875 74.046875 222.484375 C 73.835938 222.800781 73.597656 223.089844 73.328125 223.359375 C 73.0625 223.628906 72.769531 223.867188 72.457031 224.078125 C 72.140625 224.285156 71.808594 224.464844 71.457031 224.609375 C 71.109375 224.753906 70.746094 224.863281 70.375 224.9375 C 70.003906 225.011719 69.628906 225.046875 69.25 225.046875 C 68.871094 225.046875 68.496094 225.011719 68.125 224.9375 C 67.753906 224.863281 67.394531 224.753906 67.042969 224.609375 C 66.695312 224.464844 66.359375 224.285156 66.046875 224.078125 C 65.730469 223.867188 65.441406 223.628906 65.171875 223.359375 C 64.902344 223.089844 64.664062 222.800781 64.453125 222.484375 C 64.246094 222.171875 64.066406 221.835938 63.921875 221.488281 C 63.777344 221.136719 63.667969 220.777344 63.59375 220.40625 C 63.519531 220.035156 63.484375 219.660156 63.484375 219.28125 C 63.484375 218.902344 63.519531 218.527344 63.59375 218.15625 C 63.667969 217.785156 63.777344 217.421875 63.921875 217.074219 C 64.066406 216.722656 64.246094 216.390625 64.453125 216.074219 C 64.664062 215.761719 64.902344 215.46875 65.171875 215.203125 C 65.441406 214.933594 65.730469 214.695312 66.046875 214.484375 C 66.359375 214.273438 66.695312 214.097656 67.042969 213.953125 C 67.394531 213.804688 67.753906 213.695312 68.125 213.625 C 68.496094 213.550781 68.871094 213.511719 69.25 213.511719 C 69.628906 213.511719 70.003906 213.550781 70.375 213.625 C 70.746094 213.695312 71.109375 213.804688 71.457031 213.953125 C 71.808594 214.097656 72.140625 214.273438 72.457031 214.484375 C 72.769531 214.695312 73.0625 214.933594 73.328125 215.203125 C 73.597656 215.46875 73.835938 215.761719 74.046875 216.074219 C 74.257812 216.390625 74.433594 216.722656 74.578125 217.074219 C 74.726562 217.421875 74.835938 217.785156 74.90625 218.15625 C 74.980469 218.527344 75.019531 218.902344 75.019531 219.28125 Z M 75.019531 219.28125 " fill-opacity="1" fill-rule="nonzero"/><path fill="#04473f" d="M 80.789062 75.078125 C 80.785156 75.457031 80.75 75.832031 80.675781 76.203125 C 80.601562 76.574219 80.492188 76.933594 80.347656 77.285156 C 80.203125 77.632812 80.027344 77.964844 79.816406 78.28125 C 79.605469 78.597656 79.367188 78.886719 79.097656 79.15625 C 78.828125 79.421875 78.539062 79.664062 78.222656 79.871094 C 77.910156 80.082031 77.578125 80.261719 77.226562 80.40625 C 76.875 80.550781 76.515625 80.660156 76.144531 80.734375 C 75.773438 80.808594 75.398438 80.84375 75.019531 80.84375 C 74.640625 80.84375 74.265625 80.808594 73.894531 80.734375 C 73.523438 80.660156 73.160156 80.550781 72.8125 80.40625 C 72.460938 80.261719 72.128906 80.082031 71.8125 79.871094 C 71.5 79.664062 71.207031 79.421875 70.941406 79.15625 C 70.671875 78.886719 70.433594 78.597656 70.222656 78.28125 C 70.011719 77.964844 69.835938 77.632812 69.691406 77.285156 C 69.546875 76.933594 69.433594 76.574219 69.363281 76.203125 C 69.289062 75.832031 69.25 75.457031 69.25 75.078125 C 69.25 74.699219 69.289062 74.324219 69.363281 73.953125 C 69.433594 73.578125 69.546875 73.21875 69.691406 72.871094 C 69.835938 72.519531 70.011719 72.1875 70.222656 71.871094 C 70.433594 71.558594 70.671875 71.265625 70.941406 70.996094 C 71.207031 70.730469 71.5 70.492188 71.8125 70.28125 C 72.128906 70.070312 72.460938 69.890625 72.8125 69.746094 C 73.160156 69.601562 73.523438 69.492188 73.894531 69.417969 C 74.265625 69.34375 74.640625 69.308594 75.019531 69.308594 C 75.398438 69.308594 75.773438 69.34375 76.144531 69.417969 C 76.515625 69.492188 76.875 69.601562 77.226562 69.746094 C 77.578125 69.890625 77.910156 70.070312 78.222656 70.28125 C 78.539062 70.492188 78.828125 70.730469 79.097656 70.996094 C 79.367188 71.265625 79.605469 71.558594 79.816406 71.871094 C 80.027344 72.1875 80.203125 72.519531 80.347656 72.871094 C 80.492188 73.21875 80.601562 73.578125 80.675781 73.953125 C 80.75 74.324219 80.785156 74.699219 80.789062 75.078125 Z M 80.789062 75.078125 " fill-opacity="1" fill-rule="nonzero"/><path fill="#04473f" d="M 121.164062 253.890625 C 121.164062 254.269531 121.128906 254.644531 121.054688 255.015625 C 120.980469 255.386719 120.871094 255.746094 120.726562 256.097656 C 120.582031 256.445312 120.402344 256.777344 120.191406 257.09375 C 119.980469 257.410156 119.742188 257.699219 119.476562 257.96875 C 119.207031 258.234375 118.914062 258.476562 118.601562 258.683594 C 118.285156 258.894531 117.953125 259.074219 117.601562 259.21875 C 117.253906 259.363281 116.894531 259.472656 116.519531 259.546875 C 116.148438 259.621094 115.773438 259.65625 115.394531 259.65625 C 115.015625 259.65625 114.640625 259.621094 114.269531 259.546875 C 113.898438 259.472656 113.539062 259.363281 113.1875 259.21875 C 112.839844 259.074219 112.507812 258.894531 112.191406 258.683594 C 111.875 258.476562 111.585938 258.234375 111.316406 257.96875 C 111.050781 257.699219 110.808594 257.410156 110.601562 257.09375 C 110.390625 256.777344 110.210938 256.445312 110.066406 256.097656 C 109.921875 255.746094 109.8125 255.386719 109.738281 255.015625 C 109.664062 254.644531 109.628906 254.269531 109.628906 253.890625 C 109.628906 253.511719 109.664062 253.136719 109.738281 252.765625 C 109.8125 252.394531 109.921875 252.03125 110.066406 251.683594 C 110.210938 251.332031 110.390625 251 110.601562 250.683594 C 110.808594 250.371094 111.050781 250.078125 111.316406 249.8125 C 111.585938 249.542969 111.875 249.304688 112.191406 249.09375 C 112.507812 248.882812 112.839844 248.707031 113.1875 248.558594 C 113.539062 248.414062 113.898438 248.304688 114.269531 248.230469 C 114.640625 248.160156 115.015625 248.121094 115.394531 248.121094 C 115.773438 248.121094 116.148438 248.160156 116.519531 248.230469 C 116.894531 248.304688 117.253906 248.414062 117.601562 248.558594 C 117.953125 248.707031 118.285156 248.882812 118.601562 249.09375 C 118.914062 249.304688 119.207031 249.542969 119.476562 249.8125 C 119.742188 250.078125 119.980469 250.371094 120.191406 250.683594 C 120.402344 251 120.582031 251.332031 120.726562 251.683594 C 120.871094 252.03125 120.980469 252.394531 121.054688 252.765625 C 121.128906 253.136719 121.164062 253.511719 121.164062 253.890625 Z M 121.164062 253.890625 " fill-opacity="1" fill-rule="nonzero"/><path fill="#04473f" d="M 138.46875 253.890625 C 138.46875 254.269531 138.433594 254.644531 138.359375 255.015625 C 138.285156 255.386719 138.175781 255.746094 138.03125 256.097656 C 137.882812 256.445312 137.707031 256.777344 137.496094 257.09375 C 137.285156 257.410156 137.046875 257.699219 136.777344 257.96875 C 136.511719 258.234375 136.21875 258.476562 135.90625 258.683594 C 135.589844 258.894531 135.257812 259.074219 134.90625 259.21875 C 134.558594 259.363281 134.199219 259.472656 133.824219 259.546875 C 133.453125 259.621094 133.078125 259.65625 132.699219 259.65625 C 132.320312 259.65625 131.945312 259.621094 131.574219 259.546875 C 131.203125 259.472656 130.84375 259.363281 130.492188 259.21875 C 130.144531 259.074219 129.8125 258.894531 129.496094 258.683594 C 129.179688 258.476562 128.890625 258.234375 128.621094 257.96875 C 128.355469 257.699219 128.113281 257.410156 127.90625 257.09375 C 127.695312 256.777344 127.515625 256.445312 127.371094 256.097656 C 127.226562 255.746094 127.117188 255.386719 127.042969 255.015625 C 126.96875 254.644531 126.933594 254.269531 126.933594 253.890625 C 126.933594 253.511719 126.96875 253.136719 127.042969 252.765625 C 127.117188 252.394531 127.226562 252.03125 127.371094 251.683594 C 127.515625 251.332031 127.695312 251 127.90625 250.683594 C 128.113281 250.371094 128.355469 250.078125 128.621094 249.8125 C 128.890625 249.542969 129.179688 249.304688 129.496094 249.09375 C 129.8125 248.882812 130.144531 248.707031 130.492188 248.558594 C 130.84375 248.414062 131.203125 248.304688 131.574219 248.230469 C 131.945312 248.160156 132.320312 248.121094 132.699219 248.121094 C 133.078125 248.121094 133.453125 248.160156 133.824219 248.230469 C 134.199219 248.304688 134.558594 248.414062 134.90625 248.558594 C 135.257812 248.707031 135.589844 248.882812 135.90625 249.09375 C 136.21875 249.304688 136.511719 249.542969 136.777344 249.8125 C 137.046875 250.078125 137.285156 250.371094 137.496094 250.683594 C 137.707031 251 137.882812 251.332031 138.03125 251.683594 C 138.175781 252.03125 138.285156 252.394531 138.359375 252.765625 C 138.433594 253.136719 138.46875 253.511719 138.46875 253.890625 Z M 138.46875 253.890625 " fill-opacity="1" fill-rule="nonzero"/><path fill="#04473f" d="M 138.46875 75.078125 L 150.003906 75.078125 L 150.003906 86.613281 L 138.46875 86.613281 Z M 138.46875 75.078125 " fill-opacity="1" fill-rule="nonzero"/><path fill="#04473f" d="M 155.773438 75.078125 L 167.308594 75.078125 L 167.308594 86.613281 L 155.773438 86.613281 Z M 155.773438 75.078125 " fill-opacity="1" fill-rule="nonzero"/><path fill="#04473f" d="M 173.078125 75.078125 L 184.613281 75.078125 L 184.613281 86.613281 L 173.078125 86.613281 Z M 173.078125 75.078125 " fill-opacity="1" fill-rule="nonzero"/></svg>