<svg xmlns="http://www.w3.org/2000/svg" xmlns:xlink="http://www.w3.org/1999/xlink" width="500" zoomAndPan="magnify" viewBox="0 0 375 374.999991" height="500" preserveAspectRatio="xMidYMid meet" version="1.0"><defs><clipPath id="7857538233"><path d="M 182 109 L 275.492188 109 L 275.492188 192 L 182 192 Z M 182 109 " clip-rule="nonzero"/></clipPath><clipPath id="03c00d1e6b"><path d="M 182 210 L 275.492188 210 L 275.492188 293 L 182 293 Z M 182 210 " clip-rule="nonzero"/></clipPath><clipPath id="1d7f49b804"><path d="M 99.242188 81 L 173 81 L 173 264 L 99.242188 264 Z M 99.242188 81 " clip-rule="nonzero"/></clipPath><clipPath id="d7f09a8fd2"><path d="M 99.242188 145 L 173 145 L 173 161 L 99.242188 161 Z M 99.242188 145 " clip-rule="nonzero"/></clipPath></defs><rect x="-37.5" width="450" fill="#ffffff" y="-37.499999" height="449.999989" fill-opacity="1"/><rect x="-37.5" width="450" fill="#ffffff" y="-37.499999" height="449.999989" fill-opacity="1"/><g clip-path="url(#7857538233)"><path fill="#04473f" d="M 199.753906 109.609375 C 190.28125 109.609375 182.59375 117.296875 182.59375 126.769531 L 182.59375 174.398438 C 182.59375 183.878906 190.28125 191.558594 199.753906 191.558594 L 258.589844 191.558594 C 263.140625 191.558594 267.503906 189.753906 270.71875 186.539062 C 273.945312 183.320312 275.75 178.949219 275.75 174.398438 C 275.75 164.171875 275.75 148.214844 275.75 137.976562 C 275.75 133.429688 273.945312 129.066406 270.71875 125.847656 C 267.503906 122.621094 263.140625 120.816406 258.589844 120.816406 L 239.339844 120.816406 C 238.75 120.816406 238.183594 120.613281 237.742188 120.230469 L 230.171875 113.738281 C 227.0625 111.082031 223.101562 109.609375 219.003906 109.609375 C 214.394531 109.609375 206.246094 109.609375 199.753906 109.609375 Z M 199.753906 124.320312 L 219.003906 124.320312 C 219.589844 124.320312 220.160156 124.523438 220.601562 124.90625 L 228.171875 131.398438 C 231.277344 134.066406 235.242188 135.527344 239.339844 135.527344 C 243.949219 135.527344 252.097656 135.527344 258.589844 135.527344 C 259.234375 135.527344 259.863281 135.78125 260.324219 136.242188 C 260.785156 136.703125 261.039062 137.332031 261.039062 137.976562 L 261.039062 174.398438 C 261.039062 175.054688 260.785156 175.671875 260.324219 176.132812 C 259.863281 176.59375 259.234375 176.847656 258.589844 176.847656 C 258.589844 176.847656 199.753906 176.847656 199.753906 176.847656 C 198.398438 176.847656 197.300781 175.75 197.300781 174.398438 C 197.300781 174.398438 197.300781 126.769531 197.300781 126.769531 C 197.300781 125.417969 198.398438 124.320312 199.753906 124.320312 Z M 199.753906 124.320312 " fill-opacity="1" fill-rule="evenodd"/></g><g clip-path="url(#03c00d1e6b)"><path fill="#04473f" d="M 199.753906 210.472656 C 190.28125 210.472656 182.59375 218.152344 182.59375 227.632812 L 182.59375 275.261719 C 182.59375 284.746094 190.28125 292.421875 199.753906 292.421875 L 258.589844 292.421875 C 263.140625 292.421875 267.503906 290.617188 270.71875 287.390625 C 273.945312 284.175781 275.75 279.8125 275.75 275.261719 C 275.75 265.023438 275.75 249.070312 275.75 238.84375 C 275.75 234.292969 273.945312 229.917969 270.71875 226.703125 C 267.503906 223.488281 263.140625 221.683594 258.589844 221.683594 L 239.339844 221.683594 C 238.75 221.683594 238.183594 221.464844 237.742188 221.09375 L 230.171875 214.601562 C 227.0625 211.933594 223.101562 210.472656 219.003906 210.472656 C 214.394531 210.472656 206.246094 210.472656 199.753906 210.472656 Z M 199.753906 225.183594 L 219.003906 225.183594 C 219.589844 225.183594 220.160156 225.390625 220.601562 225.769531 L 228.171875 232.253906 C 231.277344 234.921875 235.242188 236.390625 239.339844 236.390625 C 243.949219 236.390625 252.097656 236.390625 258.589844 236.390625 C 259.234375 236.390625 259.863281 236.644531 260.324219 237.105469 C 260.785156 237.566406 261.039062 238.1875 261.039062 238.84375 L 261.039062 275.261719 C 261.039062 275.910156 260.785156 276.535156 260.324219 276.996094 C 259.863281 277.457031 259.234375 277.714844 258.589844 277.714844 C 258.589844 277.714844 199.753906 277.714844 199.753906 277.714844 C 198.398438 277.714844 197.300781 276.617188 197.300781 275.261719 C 197.300781 275.261719 197.300781 227.632812 197.300781 227.632812 C 197.300781 226.28125 198.398438 225.183594 199.753906 225.183594 Z M 199.753906 225.183594 " fill-opacity="1" fill-rule="evenodd"/></g><g clip-path="url(#1d7f49b804)"><path fill="#04473f" d="M 165.433594 248.296875 L 126.207031 248.296875 C 119.441406 248.296875 113.949219 242.804688 113.949219 236.039062 C 113.949219 191.96875 113.949219 88.949219 113.949219 88.949219 C 113.949219 84.886719 110.65625 81.59375 106.597656 81.59375 C 102.535156 81.59375 99.242188 84.886719 99.242188 88.949219 C 99.242188 88.949219 99.242188 191.96875 99.242188 236.039062 C 99.242188 250.933594 111.3125 263.003906 126.207031 263.003906 L 165.433594 263.003906 C 169.492188 263.003906 172.785156 259.710938 172.785156 255.648438 C 172.785156 251.589844 169.492188 248.296875 165.433594 248.296875 Z M 165.433594 248.296875 " fill-opacity="1" fill-rule="evenodd"/></g><g clip-path="url(#d7f09a8fd2)"><path fill="#04473f" d="M 165.433594 145.332031 L 106.597656 145.332031 C 102.535156 145.332031 99.242188 148.628906 99.242188 152.6875 C 99.242188 156.746094 102.535156 160.042969 106.597656 160.042969 L 165.433594 160.042969 C 169.492188 160.042969 172.785156 156.746094 172.785156 152.6875 C 172.785156 148.628906 169.492188 145.332031 165.433594 145.332031 Z M 165.433594 145.332031 " fill-opacity="1" fill-rule="evenodd"/></g></svg>